<svg width="75" height="65" viewBox="0 0 75 65" fill="none" xmlns="http://www.w3.org/2000/svg">
<path opacity="0.2" d="M4.83351 1.57153H51.4685C54.1264 1.57153 56.1803 3.74622 56.1803 6.28336V33.467C56.1803 34.4335 56.6636 35.4 57.5093 35.8833L73.457 45.7902H58.9591C57.3885 45.7902 56.0595 47.1192 56.0595 48.6898V60.2882C56.0595 62.9461 53.8848 65 51.3477 65H4.71268C2.05473 65 0.000862122 62.8253 0.000862122 60.2882V6.28336C0.000862122 3.62541 2.17555 1.57153 4.83351 1.57153Z" fill="black"/>
<path d="M6.28269 0H52.9177C55.5757 0 57.6295 2.17469 57.6295 4.71182V31.8954C57.6295 32.862 58.1128 33.8285 58.9585 34.3118L74.9062 44.2187H60.5291C58.9585 44.2187 57.6295 45.5477 57.6295 47.1183V58.7166C57.6295 61.3746 55.4548 63.4284 52.9177 63.4284H6.28269C3.62473 63.4284 1.57087 61.2538 1.57087 58.7166V4.71182C1.57087 2.17469 3.62473 0 6.28269 0Z" fill="#FFC01F"/>
<g clip-path="url(#clip0_5192_54373)">
<path d="M50.8093 39.5847C50.0167 38.3917 50.0373 36.818 50.8719 35.6453C51.0704 35.3663 51.034 34.9837 50.7919 34.7415L27.2587 11.2083C27.0167 10.9663 26.634 10.9298 26.355 11.1283C25.1823 11.9629 23.6086 11.9835 22.4156 11.1909C22.1388 11.007 21.769 11.0511 21.534 11.2861L9.28585 23.5342C9.05083 23.7692 9.00678 24.139 9.1907 24.4158C9.98336 25.6088 9.96269 27.1824 9.12811 28.3552C8.92959 28.6341 8.96601 29.0167 9.20809 29.2589L32.7413 52.7921C32.9834 53.0342 33.366 53.0706 33.645 52.8721C34.8177 52.0375 36.3914 52.0169 37.5844 52.8095C37.8612 52.9934 38.231 52.9494 38.466 52.7143L50.7142 40.4662C50.9492 40.2312 50.9932 39.8614 50.8093 39.5847Z" fill="#FC502A"/>
<path d="M26.3543 11.1283C25.1816 11.9629 23.6079 11.9835 22.4149 11.1909C22.1382 11.0069 21.7684 11.0511 21.5333 11.286L18.2969 14.5225C18.5318 14.2875 18.9017 14.2434 19.1785 14.4273C20.3714 15.22 21.9451 15.1993 23.1179 14.3647C23.3968 14.1662 23.7795 14.2026 24.0216 14.4447L47.5548 37.9779C47.7969 38.22 47.8333 38.6027 47.6348 38.8817C46.8002 40.0544 46.7796 41.6281 47.5722 42.821C47.7561 43.0978 47.712 43.4676 47.477 43.7026L50.7135 40.4662C50.9484 40.2312 50.9926 39.8614 50.8086 39.5846C50.016 38.3916 50.0367 36.8179 50.8712 35.6452C51.0698 35.3662 51.0333 34.9835 50.7913 34.7415L27.258 11.2083C27.0159 10.9663 26.6333 10.9298 26.3543 11.1283Z" fill="#E60D28"/>
<path d="M29.9995 42.0721C35.562 42.0721 40.0713 37.5628 40.0713 32.0003C40.0713 26.4378 35.562 21.9285 29.9995 21.9285C24.437 21.9285 19.9277 26.4378 19.9277 32.0003C19.9277 37.5628 24.437 42.0721 29.9995 42.0721Z" fill="white"/>
<path d="M22.8784 24.8788C22.3163 25.4409 21.835 26.0529 21.4336 26.7006C25.3178 24.293 30.4839 24.7743 33.855 28.1454C37.2261 31.5165 37.7074 36.6826 35.2998 40.5668C35.9474 40.1654 36.5595 39.684 37.1216 39.122C41.0547 35.1888 41.0547 28.812 37.1216 24.8788C33.1884 20.9457 26.8115 20.9457 22.8784 24.8788Z" fill="#E6E6E6"/>
<path d="M45.51 39.5476C45.3446 39.5476 45.179 39.4845 45.0528 39.3582C44.8001 39.1056 44.8001 38.6961 45.0527 38.4436L45.5405 37.9558C45.7931 37.7032 46.2026 37.7032 46.455 37.9557C46.7077 38.2083 46.7077 38.6178 46.4551 38.8704L45.9673 39.3581C45.841 39.4845 45.6755 39.5476 45.51 39.5476Z" fill="white"/>
<path d="M39.1897 45.8656C39.0242 45.8656 38.8587 45.8025 38.7324 45.6762C38.4798 45.4236 38.4798 45.0141 38.7325 44.7616L39.604 43.8902C39.8565 43.6375 40.266 43.6376 40.5185 43.8902C40.7711 44.1428 40.7711 44.5523 40.5185 44.8048L39.647 45.6762C39.5207 45.8024 39.3552 45.8656 39.1897 45.8656ZM42.3487 42.7067C42.1832 42.7067 42.0177 42.6435 41.8913 42.5172C41.6388 42.2647 41.6388 41.8552 41.8913 41.6027L42.7628 40.7312C43.0155 40.4786 43.4249 40.4786 43.6775 40.7312C43.9301 40.9838 43.9301 41.3933 43.6775 41.6457L42.806 42.5172C42.6797 42.6435 42.5142 42.7067 42.3487 42.7067Z" fill="white"/>
<path d="M36.4163 48.6405C36.2507 48.6405 36.0853 48.5774 35.959 48.4511C35.7064 48.1986 35.7064 47.7891 35.959 47.5365L36.4469 47.0487C36.6994 46.7962 37.1089 46.7962 37.3614 47.0488C37.614 47.3014 37.614 47.7109 37.3614 47.9635L36.8735 48.4512C36.7473 48.5774 36.5817 48.6405 36.4163 48.6405Z" fill="white"/>
<path d="M23.0999 17.1404C22.9344 17.1404 22.7689 17.0772 22.6426 16.951C22.39 16.6984 22.39 16.2889 22.6426 16.0364L23.1304 15.5486C23.3831 15.296 23.7925 15.296 24.045 15.5486C24.2976 15.8011 24.2976 16.2106 24.045 16.4631L23.5572 16.951C23.4309 17.0772 23.2653 17.1404 23.0999 17.1404Z" fill="white"/>
<path d="M16.7835 23.4584C16.6179 23.4584 16.4525 23.3953 16.3261 23.269C16.0736 23.0164 16.0736 22.6069 16.3262 22.3544L17.1977 21.483C17.4503 21.2303 17.8598 21.2304 18.1123 21.483C18.3649 21.7355 18.3649 22.145 18.1122 22.3975L17.2407 23.269C17.1145 23.3952 16.9489 23.4584 16.7835 23.4584ZM19.9424 20.2994C19.7769 20.2994 19.6114 20.2363 19.4851 20.11C19.2325 19.8574 19.2325 19.4479 19.4851 19.1955L20.3566 18.324C20.6092 18.0714 21.0187 18.0714 21.2712 18.324C21.5238 18.5765 21.5238 18.986 21.2712 19.2385L20.3997 20.11C20.2735 20.2363 20.1079 20.2994 19.9424 20.2994Z" fill="white"/>
<path d="M14.0081 26.2338C13.8425 26.2338 13.6771 26.1706 13.5507 26.0444C13.2982 25.7918 13.2982 25.3823 13.5508 25.1298L14.0387 24.642C14.2912 24.3894 14.7007 24.3896 14.9532 24.6421C15.2058 24.8947 15.2058 25.3042 14.9532 25.5567L14.4653 26.0445C14.3392 26.1706 14.1736 26.2338 14.0081 26.2338Z" fill="white"/>
<path d="M24.4515 33.3262C24.2518 33.5259 24.2138 33.9252 24.48 34.1914C24.6416 34.353 24.8698 34.4291 25.06 34.353L35.3844 30.8735C35.47 30.8449 35.5365 30.7974 35.5935 30.7404C35.8502 30.4837 35.7646 30.0559 35.546 29.8372C35.4034 29.6946 35.2038 29.6281 35.0041 29.6946L24.6511 33.2026C24.5846 33.2312 24.5085 33.2691 24.4515 33.3262Z" fill="#E60D28"/>
<path d="M29.8896 33.6876L28.5111 35.0661C27.608 35.9692 27.8741 36.8819 28.6442 37.6519C29.4047 38.4124 30.3174 38.6786 31.2205 37.7755L32.599 36.397C33.4926 35.5034 33.236 34.5812 32.4754 33.8207C31.7054 33.0506 30.7832 32.794 29.8896 33.6876ZM31.791 35.5889L30.4125 36.9674C30.0608 37.3191 29.69 37.2716 29.3573 36.9388C29.0245 36.6061 28.9865 36.2449 29.3382 35.8931L30.7167 34.5147C31.0684 34.1629 31.4297 34.2009 31.7624 34.5337C32.0951 34.8665 32.1427 35.2372 31.791 35.5889Z" fill="#E60D28"/>
<path d="M28.7489 26.2533L27.3705 27.6317C26.4768 28.5254 26.7335 29.4475 27.5035 30.2175C28.2641 30.9781 29.1862 31.2348 30.0799 30.3411L31.4583 28.9627C32.352 28.069 32.0953 27.1469 31.3347 26.3863C30.5647 25.6163 29.6426 25.3596 28.7489 26.2533ZM30.6218 27.0994C30.9545 27.4321 31.0021 27.8029 30.6503 28.1546L29.2719 29.5331C28.9201 29.8848 28.5493 29.8373 28.2166 29.5045C27.8839 29.1718 27.8458 28.8105 28.1976 28.4588L29.576 27.0803C29.9278 26.7286 30.2891 26.7666 30.6218 27.0994Z" fill="#E60D28"/>
</g>
<defs>
<clipPath id="clip0_5192_54373">
<rect width="42" height="42" fill="white" transform="translate(9 11)"/>
</clipPath>
</defs>
</svg>
