<svg width="663" height="400" viewBox="0 0 663 400" fill="none" xmlns="http://www.w3.org/2000/svg">
<rect x="40" y="17" width="578" height="366" rx="16" fill="#3FAEFF"/>
<g clip-path="url(#clip0_1626_154758)">
<path opacity="0.64" d="M705.5 34C592.6 34 501 125.6 501 238.5C501 239.7 501 240.9 501 242.1H909.9C909.9 240.9 909.9 239.7 909.9 238.5C910 125.6 818.4 34 705.5 34Z" fill="url(#paint0_linear_1626_154758)"/>
<path opacity="0.64" d="M-149.5 -5C-262.4 -5 -354 86.6 -354 199.5C-354 200.7 -354 201.9 -354 203.1H54.9C54.9 201.9 54.9 200.7 54.9 199.5C55 86.6 -36.6 -5 -149.5 -5Z" fill="url(#paint1_linear_1626_154758)"/>
<path d="M-16.8 62C-98.6 62 -165 128.3 -165 210.2C-165 211.1 -165 211.9 -165 212.8H131.3C131.3 211.9 131.3 211.1 131.3 210.2C131.4 128.4 65 62 -16.8 62Z" fill="#2BA14E"/>
<path d="M-52.9002 203.101C-52.9002 203.101 -58.2002 191.501 -49.6002 183.401C-41.0002 175.301 -39.5002 176.001 -36.3002 169.401C-33.1002 162.801 -30.3002 155.501 -24.1002 153.901C-18.0002 152.301 -12.5002 154.801 -7.80019 154.401C-1.90019 153.901 -0.300194 150.001 7.69981 148.501C15.3998 147.101 20.8998 153.001 24.1998 159.301C27.4998 165.701 25.4998 165.801 34.8998 168.001C44.2998 170.101 46.9998 177.001 47.6998 183.401C48.3998 189.601 58.7998 186.801 53.7998 203.101H-52.9002Z" fill="url(#paint2_linear_1626_154758)"/>
<path d="M50.8998 192.9L12.7998 203.1" stroke="white" stroke-width="0.5" stroke-miterlimit="10"/>
<path d="M100.5 130.598C100.5 130.598 100.9 121.398 106.5 121.398C112.2 121.398 113.9 130.598 113.9 130.598" stroke="white" stroke-width="0.3911" stroke-miterlimit="10"/>
<path d="M128.2 176.698H86.2002L91.5002 128.398H122.9L128.2 176.698Z" fill="white"/>
<path d="M118.8 128.398L113.5 176.698H128.2L122.9 128.398H118.8Z" fill="#1359DE"/>
<path d="M111.9 130.598C111.9 130.598 111.5 121.398 105.9 121.398C100.2 121.398 98.5 130.598 98.5 130.598" stroke="white" stroke-width="0.3911" stroke-miterlimit="10"/>
<path d="M86.2 188.701C87.5 188.701 88.5 189.701 88.5 191.001C88.5 192.301 87.5 193.301 86.2 193.301C84.9 193.301 83.9 192.301 83.9 191.001C83.9 189.801 84.9 188.701 86.2 188.701ZM86.2 186.801C83.9 186.801 82 188.701 82 191.001C82 193.301 83.9 195.201 86.2 195.201C88.5 195.201 90.4 193.301 90.4 191.001C90.4 188.701 88.5 186.801 86.2 186.801Z" fill="white"/>
<path d="M90.8002 185L87.2002 191.6C86.7002 192.5 85.2002 192.2 85.2002 191.1V185H90.8002Z" fill="#0B317A"/>
<path d="M124.399 188.701C125.699 188.701 126.699 189.701 126.699 191.001C126.699 192.301 125.699 193.301 124.399 193.301C123.099 193.301 122.099 192.301 122.099 191.001C122.099 189.801 123.099 188.701 124.399 188.701ZM124.399 186.801C122.099 186.801 120.199 188.701 120.199 191.001C120.199 193.301 122.099 195.201 124.399 195.201C126.699 195.201 128.599 193.301 128.599 191.001C128.599 188.701 126.699 186.801 124.399 186.801Z" fill="white"/>
<path d="M128.999 185L125.399 191.6C124.899 192.5 123.399 192.2 123.399 191.1V185H128.999Z" fill="#0B317A"/>
<path d="M130.599 178.6H83.8992C83.4992 178.6 83.0992 178.3 82.9992 177.9L73.4992 135.1C73.3992 134.8 73.4992 134.5 73.6992 134.3C73.8992 134.1 74.1992 133.9 74.3992 133.9H140.199C140.499 133.9 140.799 134 140.899 134.3C141.099 134.5 141.199 134.8 141.099 135.1L131.599 177.9C131.399 178.3 130.999 178.6 130.599 178.6ZM84.5992 176.7H129.799L138.899 135.8H75.3992L84.5992 176.7Z" fill="#0B317A"/>
<path d="M74.3996 136C73.9996 136 73.5996 135.7 73.4996 135.3L71.3996 126C70.5996 122.5 67.4996 120 63.8996 120H52.5996C52.0996 120 51.5996 119.6 51.5996 119C51.5996 118.5 51.9996 118 52.5996 118H63.8996C68.3996 118 72.2996 121.1 73.2996 125.5L75.3996 134.8C75.4996 135.3 75.1996 135.8 74.6996 135.9C74.4996 136 74.3996 136 74.3996 136Z" fill="#0B317A"/>
<path d="M132.8 185.899H83.1996C80.6996 185.899 78.5996 183.799 78.5996 181.299C78.5996 178.799 80.6996 176.699 83.1996 176.699H130.6C131.1 176.699 131.6 177.099 131.6 177.699C131.6 178.199 131.2 178.699 130.6 178.699H83.1996C81.6996 178.699 80.4996 179.899 80.4996 181.399C80.4996 182.899 81.6996 184.099 83.1996 184.099H132.8C133.3 184.099 133.8 184.499 133.8 185.099C133.8 185.499 133.3 185.899 132.8 185.899Z" fill="#0B317A"/>
<path d="M83.5994 177.899C83.4994 177.899 83.3994 177.799 83.3994 177.699V134.899C83.3994 134.799 83.4994 134.699 83.5994 134.699C83.6994 134.699 83.7994 134.799 83.7994 134.899V177.699C83.8994 177.799 83.7994 177.899 83.5994 177.899Z" fill="#0B317A"/>
<path d="M95.3992 177.899C95.2992 177.899 95.1992 177.799 95.1992 177.699V134.899C95.1992 134.799 95.2992 134.699 95.3992 134.699C95.4992 134.699 95.5992 134.799 95.5992 134.899V177.699C95.6992 177.799 95.5992 177.899 95.3992 177.899Z" fill="#0B317A"/>
<path d="M107.199 177.899C107.099 177.899 106.999 177.799 106.999 177.699V134.899C106.999 134.799 107.099 134.699 107.199 134.699C107.299 134.699 107.399 134.799 107.399 134.899V177.699C107.499 177.799 107.399 177.899 107.199 177.899Z" fill="#0B317A"/>
<path d="M119 177.899C118.9 177.899 118.8 177.799 118.8 177.699V134.899C118.8 134.799 118.9 134.699 119 134.699C119.1 134.699 119.2 134.799 119.2 134.899V177.699C119.3 177.799 119.2 177.899 119 177.899Z" fill="#0B317A"/>
<path d="M130.8 177.899C130.7 177.899 130.6 177.799 130.6 177.699V134.899C130.6 134.799 130.7 134.699 130.8 134.699C130.9 134.699 131 134.799 131 134.899V177.699C131.1 177.799 131 177.899 130.8 177.899Z" fill="#0B317A"/>
<path d="M138.5 142.099H75.9998C75.8998 142.099 75.7998 141.999 75.7998 141.899C75.7998 141.799 75.8998 141.699 75.9998 141.699H138.6C138.7 141.699 138.8 141.799 138.8 141.899C138.8 141.999 138.6 142.099 138.5 142.099Z" fill="#0B317A"/>
<path d="M136.299 153.9H78.0994C77.9994 153.9 77.8994 153.8 77.8994 153.7C77.8994 153.6 77.9994 153.5 78.0994 153.5H136.299C136.399 153.5 136.499 153.6 136.499 153.7C136.599 153.8 136.499 153.9 136.299 153.9Z" fill="#0B317A"/>
<path d="M133.899 165.699H80.5994C80.4994 165.699 80.3994 165.599 80.3994 165.499C80.3994 165.399 80.4994 165.299 80.5994 165.299H133.899C133.999 165.299 134.099 165.399 134.099 165.499C134.099 165.599 133.999 165.699 133.899 165.699Z" fill="#0B317A"/>
<path d="M16.1997 203.101C16.1997 203.101 13.4997 197.601 17.8997 193.701C22.2997 189.901 22.9997 190.201 24.6997 187.101C26.2997 184.001 27.7997 180.501 30.8997 179.701C33.9997 178.901 36.7997 180.101 39.1997 179.901C42.1997 179.701 42.9997 177.801 47.0997 177.101C50.9997 176.401 53.7997 179.201 55.4997 182.201C57.1997 185.201 56.1997 185.301 60.9997 186.301C65.7997 187.301 67.0997 190.601 67.4997 193.601C67.8997 196.501 73.1997 195.201 70.5997 203.001H16.1997V203.101Z" fill="#FFC01F"/>
<path d="M50.2992 179.301L44.1992 203.101" stroke="white" stroke-width="0.5" stroke-miterlimit="10"/>
<path d="M61.8994 189.5L46.8994 203.1" stroke="white" stroke-width="0.5" stroke-miterlimit="10"/>
<path d="M30.8994 182.102L42.1994 203.102" stroke="white" stroke-width="0.5" stroke-miterlimit="10"/>
<path d="M483.82 207.109C483.82 207.109 481.12 201.609 485.52 197.709C489.92 193.909 490.62 194.209 492.32 191.109C493.92 188.009 495.42 184.509 498.52 183.709C501.62 182.909 504.42 184.109 506.82 183.909C509.82 183.709 510.62 181.809 514.72 181.109C518.62 180.409 521.42 183.209 523.12 186.209C524.82 189.209 523.82 189.309 528.62 190.309C533.42 191.309 534.72 194.609 535.12 197.609C535.52 200.509 540.82 199.209 538.22 207.009H483.82V207.109Z" fill="#FFC01F"/>
<path d="M517.919 183.309L511.819 207.109" stroke="white" stroke-width="0.5" stroke-miterlimit="10"/>
<path d="M529.52 193.508L514.52 207.108" stroke="white" stroke-width="0.5" stroke-miterlimit="10"/>
<path d="M498.52 186.109L509.82 207.109" stroke="white" stroke-width="0.5" stroke-miterlimit="10"/>
<path d="M618.3 260.5H555.9C549.3 260.5 544 255.2 544 248.6V100.9C544 94.3 549.3 89 555.9 89H618.3C624.9 89 630.2 94.3 630.2 100.9V248.6C630.2 255.2 624.9 260.5 618.3 260.5Z" fill="#262980"/>
<path d="M625 260.5H562.6C556 260.5 550.7 255.2 550.7 248.6V100.9C550.7 94.3 556 89 562.6 89H625C631.6 89 636.9 94.3 636.9 100.9V248.6C636.9 255.2 631.5 260.5 625 260.5Z" fill="#1359DE"/>
<path d="M600.6 95.2004H586.9C586.4 95.2004 586 94.8004 586 94.3004C586 93.8004 586.4 93.4004 586.9 93.4004H600.6C601.1 93.4004 601.5 93.8004 601.5 94.3004C601.6 94.8004 601.1 95.2004 600.6 95.2004Z" stroke="black" stroke-width="0.6509" stroke-miterlimit="10"/>
<path d="M584.7 94.3C584.7 95 584.1 95.6 583.4 95.6C582.7 95.6 582.1 95 582.1 94.3C582.1 93.6 582.7 93 583.4 93C584.1 93 584.7 93.6 584.7 94.3Z" stroke="black" stroke-width="0.6509" stroke-miterlimit="10"/>
<path d="M547.4 158.2C546.6 158.2 546 157.6 546 156.8V137.5C546 136.7 546.6 136.1 547.4 136.1C548.2 136.1 548.8 136.7 548.8 137.5V156.7C548.8 157.5 548.2 158.2 547.4 158.2Z" stroke="#1359DE" stroke-width="0.75" stroke-miterlimit="10"/>
<mask id="mask0_1626_154758" style="mask-type:alpha" maskUnits="userSpaceOnUse" x="553" y="91" width="81" height="167">
<path d="M624.1 91.6992H613.2C611.6 91.6992 610.2 92.7992 609.9 94.2992L609.8 94.4992C609.4 96.1992 607.9 97.3992 606.1 97.3992H581.3C579.6 97.3992 578 96.1992 577.6 94.4992L577.5 94.2992C577.1 92.7992 575.8 91.6992 574.2 91.6992H563.3C558.1 91.6992 553.8 95.8992 553.8 101.199V248.399C553.8 253.599 558 257.899 563.3 257.899H624C629.2 257.899 633.5 253.699 633.5 248.399V101.099C633.6 95.8992 629.4 91.6992 624.1 91.6992Z" fill="url(#paint3_linear_1626_154758)"/>
</mask>
<g mask="url(#mask0_1626_154758)">
<path d="M624.1 91.6992H613.2C611.6 91.6992 610.2 92.7992 609.9 94.2992L609.8 94.4992C609.4 96.1992 607.9 97.3992 606.1 97.3992H581.3C579.6 97.3992 578 96.1992 577.6 94.4992L577.5 94.2992C577.1 92.7992 575.8 91.6992 574.2 91.6992H563.3C558.1 91.6992 553.8 95.8992 553.8 101.199V248.399C553.8 253.599 558 257.899 563.3 257.899H624C629.2 257.899 633.5 253.699 633.5 248.399V101.099C633.6 95.8992 629.4 91.6992 624.1 91.6992Z" fill="url(#paint4_linear_1626_154758)"/>
<path opacity="0.1" d="M620.3 94.2988H607H593.7H580.4H567.1H553.8V121.999C553.8 125.699 556.8 128.599 560.4 128.599C564.1 128.599 567 125.599 567 121.999C567 125.699 570 128.599 573.6 128.599C577.3 128.599 580.2 125.599 580.2 121.999C580.2 125.699 583.2 128.599 586.8 128.599C590.5 128.599 593.4 125.599 593.4 121.999C593.4 125.699 596.4 128.599 600 128.599C603.7 128.599 606.6 125.599 606.6 121.999C606.6 125.699 609.6 128.599 613.2 128.599C616.9 128.599 619.8 125.599 619.8 121.999C619.8 125.699 622.8 128.599 626.4 128.599C630.1 128.599 633 125.599 633 121.999V94.2988H620.3Z" fill="black"/>
<path d="M560.6 125.4C556.9 125.4 554 122.4 554 118.8V91H567.3V118.7C567.3 122.4 564.3 125.4 560.6 125.4Z" fill="#FD504C"/>
<path d="M573.9 125.4C570.2 125.4 567.3 122.4 567.3 118.8V91H580.6V118.7C580.5 122.4 577.6 125.4 573.9 125.4Z" fill="#FEF1F2"/>
<path d="M587.2 125.4C583.5 125.4 580.6 122.4 580.6 118.8V91H593.9V118.7C593.8 122.4 590.8 125.4 587.2 125.4Z" fill="#FD504C"/>
<path d="M600.4 125.4C596.7 125.4 593.8 122.4 593.8 118.8V91H607.1V118.7C607.1 122.4 604.1 125.4 600.4 125.4Z" fill="#FEF1F2"/>
<path d="M613.7 125.4C610 125.4 607.1 122.4 607.1 118.8V91H620.4V118.7C620.3 122.4 617.4 125.4 613.7 125.4Z" fill="#FD504C"/>
<path d="M584.6 164H567.6C565.1 164 563.1 162 563.1 159.5V142.5C563.1 140 565.1 138 567.6 138H584.6C587.1 138 589.1 140 589.1 142.5V159.5C589.1 162 587.1 164 584.6 164Z" fill="#1359DE"/>
<path d="M579.1 147.2H573.1L573.5 145.7C573.6 145.3 574 145 574.4 145H577.8C578.2 145 578.6 145.3 578.7 145.7L579.1 147.2Z" fill="#0B317A"/>
<path d="M581.7 157.1H570.6C569.4 157.1 568.5 156.1 568.5 155V149C568.5 147.8 569.5 146.9 570.6 146.9H581.7C582.9 146.9 583.8 147.9 583.8 149V155C583.8 156.2 582.8 157.1 581.7 157.1Z" fill="white"/>
<path d="M580.1 152.099C580.1 154.299 578.3 155.999 576.2 155.999C574 155.999 572.3 154.199 572.3 152.099C572.3 149.899 574.1 148.199 576.2 148.199C578.3 148.099 580.1 149.899 580.1 152.099Z" stroke="#1359DE" stroke-width="0.25" stroke-miterlimit="10"/>
<path d="M578.1 152.101C578.1 153.201 577.2 154.001 576.2 154.001C575.1 154.001 574.3 153.101 574.3 152.101C574.3 151.001 575.2 150.201 576.2 150.201C577.2 150.101 578.1 151.001 578.1 152.101Z" fill="#0B317A"/>
<path d="M614.7 143H593.3V144.8H614.7V143Z" fill="#C9DBFF"/>
<path d="M614.7 147.301H593.3V149.101H614.7V147.301Z" fill="#C9DBFF"/>
<path d="M614.7 151.6H593.3V153.4H614.7V151.6Z" fill="#C9DBFF"/>
<path d="M613.999 164H596.399C594.699 164 593.199 162.6 593.199 160.8C593.199 159.1 594.599 157.6 596.399 157.6H613.999C615.699 157.6 617.199 159 617.199 160.8C617.199 162.6 615.799 164 613.999 164Z" fill="#1359DE"/>
<path d="M601.8 162.3V160.5L600.9 162H600.7L599.8 160.5V162.3H599.3V159.6H599.7L600.8 161.4L601.9 159.6H602.3V162.3H601.8Z" fill="white"/>
<path d="M602.8 160.9C602.8 160.1 603.4 159.5 604.3 159.5C605.1 159.5 605.8 160.1 605.8 160.9C605.8 161.7 605.2 162.3 604.3 162.3C603.4 162.3 602.8 161.7 602.8 160.9ZM605.2 160.9C605.2 160.3 604.8 159.9 604.2 159.9C603.7 159.9 603.2 160.3 603.2 160.9C603.2 161.5 603.6 161.9 604.2 161.9C604.8 161.8 605.2 161.4 605.2 160.9Z" fill="white"/>
<path d="M608.1 162.3L607.5 161.5H607.4H606.8V162.3H606.3V159.6H607.4C608.1 159.6 608.6 160 608.6 160.6C608.6 161 608.4 161.3 608 161.5L608.6 162.4H608.1V162.3ZM607.4 160H606.8V161.1H607.4C607.8 161.1 608.1 160.9 608.1 160.6C608 160.2 607.8 160 607.4 160Z" fill="white"/>
<path d="M611.1 161.8V162.2H609.1V159.5H611.1V159.9H609.6V160.6H610.9V161H609.6V161.7H611.1V161.8Z" fill="white"/>
<path d="M584.6 198.6H567.6C565.1 198.6 563.1 196.6 563.1 194.1V177.1C563.1 174.6 565.1 172.6 567.6 172.6H584.6C587.1 172.6 589.1 174.6 589.1 177.1V194.1C589.1 196.6 587.1 198.6 584.6 198.6Z" fill="#1359DE"/>
<path d="M614.7 177.6H593.3V179.4H614.7V177.6Z" fill="#C9DBFF"/>
<path d="M614.7 181.9H593.3V183.7H614.7V181.9Z" fill="#C9DBFF"/>
<path d="M614.7 186.199H593.3V187.999H614.7V186.199Z" fill="#C9DBFF"/>
<path d="M613.999 198.599H596.399C594.699 198.599 593.199 197.199 593.199 195.399C593.199 193.699 594.599 192.199 596.399 192.199H613.999C615.699 192.199 617.199 193.599 617.199 195.399C617.199 197.199 615.799 198.599 613.999 198.599Z" fill="#1359DE"/>
<path d="M601.8 196.8V195L600.9 196.5H600.7L599.8 195V196.8H599.3V194.1H599.7L600.8 195.9L601.9 194.1H602.3V196.8H601.8Z" fill="white"/>
<path d="M602.8 195.5C602.8 194.7 603.4 194.1 604.3 194.1C605.1 194.1 605.8 194.7 605.8 195.5C605.8 196.3 605.2 196.9 604.3 196.9C603.4 196.9 602.8 196.3 602.8 195.5ZM605.2 195.5C605.2 194.9 604.8 194.5 604.2 194.5C603.7 194.5 603.2 194.9 603.2 195.5C603.2 196.1 603.6 196.5 604.2 196.5C604.8 196.4 605.2 196 605.2 195.5Z" fill="white"/>
<path d="M608.1 196.8L607.5 196H607.4H606.8V196.8H606.3V194.1H607.4C608.1 194.1 608.6 194.5 608.6 195.1C608.6 195.5 608.4 195.8 608 196L608.6 196.9H608.1V196.8ZM607.4 194.5H606.8V195.6H607.4C607.8 195.6 608.1 195.4 608.1 195.1C608 194.7 607.8 194.5 607.4 194.5Z" fill="white"/>
<path d="M611.1 196.4V196.8H609.1V194.1H611.1V194.5H609.6V195.2H610.9V195.6H609.6V196.3H611.1V196.4Z" fill="white"/>
<path d="M570.8 186.299V192.199C570.8 193.299 573.2 194.199 576.1 194.199C579 194.199 581.4 193.299 581.4 192.199V186.299H570.8Z" fill="#0B317A"/>
<path d="M569.899 179.4V186.3C569.899 187.6 572.699 188.6 576.099 188.6C579.499 188.6 582.299 187.6 582.299 186.3V179.4H569.899Z" fill="white"/>
<path d="M582.299 179.4C582.299 180.7 579.499 181.7 576.099 181.7C572.699 181.7 569.899 180.7 569.899 179.4C569.899 178.1 572.699 177.1 576.099 177.1C579.499 177.1 582.299 178.1 582.299 179.4Z" fill="#0B317A"/>
<path d="M581.4 179.4C581.4 180.4 579 181.2 576.1 181.2C573.2 181.2 570.8 180.4 570.8 179.4C570.8 178.4 573.2 177.6 576.1 177.6C579 177.6 581.4 178.4 581.4 179.4Z" stroke="white" stroke-width="0.2033" stroke-miterlimit="10"/>
</g>
</g>
<path d="M635.672 334.934V338.93C635.672 340.012 634.821 340.863 633.738 340.863C632.655 340.863 631.805 340.012 631.805 338.93V334.934C631.805 333.85 632.655 333 633.738 333C634.821 333 635.672 333.85 635.672 334.934Z" fill="#FFD400"/>
<path d="M642.606 344.164C642.111 344.164 641.617 343.975 641.239 343.597C640.484 342.842 640.484 341.619 641.239 340.863L643.974 338.129C644.729 337.374 645.952 337.374 646.708 338.129C647.463 338.884 647.463 340.108 646.708 340.863L643.974 343.597C643.596 343.975 643.101 344.164 642.606 344.164Z" fill="#FDBF00"/>
<path d="M624.871 344.164C624.376 344.164 623.881 343.975 623.504 343.597L620.77 340.863C620.014 340.108 620.014 338.884 620.77 338.129C621.525 337.374 622.749 337.374 623.504 338.129L626.238 340.863C626.993 341.619 626.993 342.842 626.238 343.597C625.86 343.975 625.366 344.164 624.871 344.164Z" fill="#FFD400"/>
<path d="M650.676 381.6C653.074 381.6 655.008 383.534 655.008 385.932C655.008 388.368 653.074 390.224 650.676 390.224H646.809C649.207 390.224 651.14 392.235 651.14 394.671C651.14 397.069 649.207 399.003 646.809 399.003C646.809 399.003 638.804 399.003 633.738 399.003H629.677C624.457 399.003 619.314 398.152 614.363 396.528L613.59 396.257L610.109 367.833C624.959 357.507 628.556 360.898 630.799 349.683L631.456 346.512C631.688 345.429 632.694 344.733 633.738 345.004H633.854C637.218 345.932 639.539 349.116 639.539 352.596C639.539 355.265 638.417 357.895 637.296 360.408C636.754 361.684 636.213 362.922 635.826 364.198H650.676C653.074 364.198 655.008 366.131 655.008 368.529C655.008 370.965 653.074 372.899 650.676 372.899C653.074 372.899 655.008 374.833 655.008 377.269C655.008 379.667 653.074 381.6 650.676 381.6Z" fill="#FFCEBF"/>
<path d="M633.738 340.863V333C634.821 333 635.672 333.85 635.672 334.934V338.93C635.672 340.012 634.821 340.863 633.738 340.863Z" fill="#FDBF00"/>
<path d="M650.676 381.596C653.074 381.596 655.008 383.53 655.008 385.928C655.008 388.364 653.074 390.22 650.676 390.22H646.809C649.207 390.22 651.141 392.231 651.141 394.667C651.141 397.065 649.207 398.999 646.809 398.999C646.809 398.999 638.804 398.999 633.738 398.999V345H633.855C637.219 345.928 639.539 349.112 639.539 352.592C639.539 355.261 638.418 357.891 637.296 360.404C636.754 361.68 636.213 362.918 635.826 364.194H650.676C653.074 364.194 655.008 366.128 655.008 368.525C655.008 370.962 653.074 372.895 650.676 372.895C653.074 372.895 655.008 374.829 655.008 377.265C655.008 379.663 653.074 381.596 650.676 381.596Z" fill="#FFBFAB"/>
<path d="M610.535 399H598.934C597.865 399 597 398.135 597 397.066V362.262C597 361.193 597.865 360.328 598.934 360.328H610.535C613.734 360.328 616.336 362.93 616.336 366.129V393.199C616.336 396.398 613.734 399 610.535 399Z" fill="#131620"/>
<path d="M608.602 389.332C608.602 390.4 607.736 391.266 606.668 391.266C605.6 391.266 604.734 390.4 604.734 389.332C604.734 388.264 605.6 387.398 606.668 387.398C607.736 387.398 608.602 388.264 608.602 389.332Z" fill="#68544F"/>
<path opacity="0.2" d="M4.83253 1.57227H51.4675C54.1255 1.57227 56.1794 3.74696 56.1794 6.28409V33.4677C56.1794 34.4342 56.6626 35.4008 57.5083 35.884L73.4561 45.791H58.9581C57.3875 45.791 56.0585 47.1199 56.0585 48.6905V60.2889C56.0585 62.9468 53.8839 65.0007 51.3467 65.0007H4.71171C2.05376 65.0007 -0.000114441 62.826 -0.000114441 60.2889V6.28409C-0.000114441 3.62614 2.17458 1.57227 4.83253 1.57227Z" fill="black"/>
<path d="M6.28269 0H52.9177C55.5757 0 57.6295 2.17469 57.6295 4.71182V31.8954C57.6295 32.862 58.1128 33.8285 58.9585 34.3118L74.9062 44.2187H60.5291C58.9585 44.2187 57.6295 45.5477 57.6295 47.1183V58.7166C57.6295 61.3746 55.4548 63.4284 52.9177 63.4284H6.28269C3.62473 63.4284 1.57087 61.2538 1.57087 58.7166V4.71182C1.57087 2.17469 3.62473 0 6.28269 0Z" fill="#FFC01F"/>
<path d="M17.8796 21.6259H33.4648L32.4983 17.8806C32.2567 16.7933 31.2902 16.0684 30.2028 16.0684H21.3832C20.2959 16.0684 19.3294 16.7933 19.0877 17.8806L17.8796 21.6259Z" fill="#0B317A"/>
<path d="M12.3225 47.4813H46.7551C48.2049 47.4813 49.4131 46.2732 49.4131 44.8234V23.3181C49.4131 21.8683 48.2049 20.6602 46.7551 20.6602H12.3225C10.8727 20.6602 9.6646 21.8683 9.6646 23.3181V44.7026C9.6646 46.2732 10.8727 47.4813 12.3225 47.4813Z" fill="#1359DE"/>
<path d="M12.3225 20.7812H46.7551C48.2049 20.7812 49.4131 21.9894 49.4131 23.4392V27.5469H9.6646V23.3184C9.6646 21.8686 10.8727 20.7812 12.3225 20.7812Z" fill="white"/>
<path d="M25.6125 44.5798C19.9409 44.5798 15.3431 39.982 15.3431 34.3104C15.3431 28.6388 19.9409 24.041 25.6125 24.041C31.2841 24.041 35.8818 28.6388 35.8818 34.3104C35.8818 39.982 31.2841 44.5798 25.6125 44.5798Z" fill="#0B317A"/>
<path d="M25.6129 39.2643C22.8772 39.2643 20.6595 37.0466 20.6595 34.3109C20.6595 31.5752 22.8772 29.3574 25.6129 29.3574C28.3487 29.3574 30.5664 31.5752 30.5664 34.3109C30.5664 37.0466 28.3487 39.2643 25.6129 39.2643Z" fill="white"/>
<path d="M40.7139 21.9883V44.5809" stroke="#0B317A" stroke-width="0.254197" stroke-miterlimit="10"/>
<defs>
<linearGradient id="paint0_linear_1626_154758" x1="705.495" y1="143.261" x2="705.495" y2="340.749" gradientUnits="userSpaceOnUse">
<stop offset="0.3522" stop-color="#50AE42"/>
<stop offset="0.8459" stop-color="#A7E033"/>
</linearGradient>
<linearGradient id="paint1_linear_1626_154758" x1="-149.505" y1="104.261" x2="-149.505" y2="301.749" gradientUnits="userSpaceOnUse">
<stop offset="0.3522" stop-color="#50AE42"/>
<stop offset="0.8459" stop-color="#A7E033"/>
</linearGradient>
<linearGradient id="paint2_linear_1626_154758" x1="-54.4917" y1="175.641" x2="55.2005" y2="175.641" gradientUnits="userSpaceOnUse">
<stop offset="0.1106" stop-color="#214A21"/>
<stop offset="0.6232" stop-color="#306B30"/>
</linearGradient>
<linearGradient id="paint3_linear_1626_154758" x1="593.792" y1="196.558" x2="593.792" y2="244.437" gradientUnits="userSpaceOnUse">
<stop stop-color="white"/>
<stop offset="0.9581" stop-color="#C9DBFF"/>
</linearGradient>
<linearGradient id="paint4_linear_1626_154758" x1="593.792" y1="196.558" x2="593.792" y2="244.437" gradientUnits="userSpaceOnUse">
<stop stop-color="white"/>
<stop offset="0.9581" stop-color="#C9DBFF"/>
</linearGradient>
<clipPath id="clip0_1626_154758">
<path d="M40 33C40 24.1634 47.1634 17 56 17H602C610.837 17 618 24.1634 618 33V195H40V33Z" fill="white"/>
</clipPath>
</defs>
</svg>
