<svg width="74" height="74" viewBox="0 0 74 74" fill="none" xmlns="http://www.w3.org/2000/svg">
<path d="M46.25 28.9062H67.0625V68.2188C67.0625 69.4454 66.5752 70.6218 65.7079 71.4891C64.8405 72.3565 63.6641 72.8438 62.4375 72.8438H45.0938V28.9062H46.25Z" fill="#FFAD39"/>
<path d="M28.9062 28.9062V72.8438H11.5625C10.3359 72.8438 9.15949 72.3565 8.29213 71.4891C7.42478 70.6218 6.9375 69.4454 6.9375 68.2188V28.9062H28.9062Z" fill="#FFAD39"/>
<path d="M27.75 15.0312V28.9062H3.46875C2.856 28.9044 2.26887 28.6602 1.83559 28.2269C1.40231 27.7936 1.15808 27.2065 1.15625 26.5938V17.3438C1.15808 16.731 1.40231 16.1439 1.83559 15.7106C2.26887 15.2773 2.856 15.0331 3.46875 15.0312H27.75Z" fill="#FEBD55"/>
<path d="M72.8438 17.3438V26.5938C72.8419 27.2065 72.5977 27.7936 72.1644 28.2269C71.7311 28.6602 71.144 28.9044 70.5312 28.9062H46.25V15.0312H70.5312C71.144 15.0331 71.7311 15.2773 72.1644 15.7106C72.5977 16.1439 72.8419 16.731 72.8438 17.3438Z" fill="#FEBD55"/>
<path d="M42.7812 12.7188V15.0312H31.2188V12.7188C31.2206 12.106 31.4648 11.5189 31.8981 11.0856C32.3314 10.6523 32.9185 10.4081 33.5312 10.4062H40.4688C41.0815 10.4081 41.6686 10.6523 42.1019 11.0856C42.5352 11.5189 42.7794 12.106 42.7812 12.7188Z" fill="#4ACC8F"/>
<path d="M40.4688 12.7188H33.5312C33.1275 12.7165 32.7314 12.6086 32.3822 12.4058C32.0331 12.2029 31.7432 11.9122 31.5413 11.5625C31.3326 11.9123 31.2212 12.3115 31.2188 12.7188V15.0312H42.7812V12.7188C42.7788 12.3115 42.6674 11.9123 42.4587 11.5625C42.2568 11.9122 41.9669 12.2029 41.6178 12.4058C41.2686 12.6086 40.8725 12.7165 40.4688 12.7188Z" fill="#168F56"/>
<path d="M31.2185 12.7187V15.0312H13.8748C13.4166 15.041 12.9612 14.958 12.5359 14.7871C12.1106 14.6163 11.7243 14.3611 11.4003 14.037C11.0762 13.713 10.821 13.3267 10.6502 12.9014C10.4793 12.4761 10.3963 12.0207 10.406 11.5625C10.406 6.9375 16.1873 6.9375 16.1873 6.9375C21.7362 6.96109 27.084 9.01792 31.2185 12.7187Z" fill="#4ACC8F"/>
<path d="M21.9688 1.15625C31.2188 1.15625 31.2188 12.7188 31.2188 12.7188C27.0842 9.01792 21.7364 6.96109 16.1875 6.9375C16.1875 6.9375 16.1875 1.15625 21.9688 1.15625Z" fill="#4ACC8F"/>
<path d="M42.7812 12.7188C42.7812 12.7188 42.7812 1.15625 52.0312 1.15625C57.8125 1.15625 57.8125 6.9375 57.8125 6.9375C52.2636 6.96109 46.9158 9.01792 42.7812 12.7188Z" fill="#4ACC8F"/>
<path d="M42.7812 12.7187C46.9158 9.01792 52.2636 6.96109 57.8125 6.9375C57.8125 6.9375 63.5937 6.9375 63.5937 11.5625C63.6035 12.0207 63.5205 12.4761 63.3496 12.9014C63.1788 13.3267 62.9236 13.713 62.5995 14.037C62.2755 14.3611 61.8892 14.6163 61.4639 14.7871C61.0386 14.958 60.5832 15.041 60.125 15.0312H42.7812V12.7187Z" fill="#4ACC8F"/>
<path d="M28.9062 28.9062H45.0938V72.8438H28.9062V28.9062Z" fill="#4ACC8F"/>
<path d="M46.25 15.0312V28.9062H45.0938H28.9062H27.75V15.0312H31.2188H42.7812H46.25Z" fill="#168F56"/>
<path d="M70.1034 48.8863C70.3463 49.9847 72.8438 50.8519 72.8438 52.0313C72.8438 53.2106 70.3463 54.0778 70.1034 55.1763C69.8491 56.3094 71.7222 58.2056 71.2481 59.2231C70.7509 60.2638 68.1378 59.94 67.4325 60.8419C66.7272 61.7438 67.6291 64.276 66.7503 64.9928C65.8716 65.7097 63.6516 64.2528 62.6341 64.7616C61.6397 65.2588 61.3622 67.9413 60.2637 68.1956C59.1884 68.45 57.8009 66.1606 56.6562 66.1606C55.5116 66.1606 54.1241 68.45 53.0488 68.1956C51.9503 67.9413 51.6728 65.2588 50.6669 64.7616C49.6609 64.2644 47.4294 65.7097 46.5622 64.9928C45.695 64.276 46.5737 61.7322 45.8684 60.8419C45.1631 59.9516 42.5616 60.2638 42.0644 59.2231C41.5903 58.2056 43.4634 56.3094 43.2091 55.1763C42.9662 54.0778 40.4688 53.2106 40.4688 52.0313C40.4688 50.8519 42.9662 49.9847 43.2091 48.8863C43.4634 47.7531 41.5903 45.8569 42.0644 44.8394C42.5616 43.7988 45.1747 44.1225 45.88 43.2206C46.5853 42.3188 45.6834 39.7866 46.5622 39.0697C47.4409 38.3528 49.6609 39.8097 50.6784 39.301C51.6728 38.8038 51.9503 36.1213 53.0488 35.8669C54.1241 35.6125 55.5116 37.9019 56.6562 37.9019C57.8009 37.9019 59.1884 35.6125 60.2637 35.8669C61.3622 36.1213 61.6397 38.8038 62.6456 39.301C63.6516 39.7981 65.8831 38.3528 66.7503 39.0697C67.6175 39.7866 66.7388 42.3303 67.4441 43.2206C68.1494 44.111 70.7509 43.7988 71.2481 44.8394C71.7222 45.8569 69.8491 47.7531 70.1034 48.8863Z" fill="#131620"/>
<path d="M69.375 52.0312C69.375 52.9562 67.4094 53.6395 67.2209 54.5021C67.0232 55.3947 68.4928 56.8817 68.117 57.6864C67.7412 58.4912 65.675 58.2484 65.1269 58.9502C64.5789 59.652 65.2749 61.6535 64.587 62.2166C63.899 62.7797 62.1588 61.6385 61.3576 62.0328C60.5563 62.427 60.3563 64.5326 59.4868 64.7349C58.6438 64.9315 57.557 63.1289 56.6562 63.1289C55.7555 63.1289 54.6687 64.9315 53.8257 64.7349C52.9551 64.5326 52.74 62.4224 51.9549 62.0328C51.1698 61.6431 49.4112 62.7774 48.7255 62.2166C48.0399 61.6558 48.7348 59.6555 48.1844 58.9502C47.634 58.2449 45.5794 58.5062 45.1943 57.6853C44.8093 56.8643 46.2893 55.3936 46.0916 54.5021C45.9031 53.6384 43.9375 52.9562 43.9375 52.0312C43.9375 51.1062 45.9031 50.4229 46.0916 49.5603C46.2893 48.6677 44.8197 47.1807 45.1955 46.376C45.5713 45.5712 47.6375 45.814 48.1856 45.1122C48.7336 44.4104 48.0376 42.4089 48.7255 41.8458C49.4135 41.2827 51.1537 42.4239 51.9549 42.0296C52.7562 41.6354 52.9562 39.5298 53.8257 39.3275C54.6687 39.1309 55.7555 40.9335 56.6562 40.9335C57.557 40.9335 58.6438 39.1309 59.4868 39.3275C60.3574 39.5298 60.5725 41.64 61.3576 42.0296C62.1427 42.4193 63.9013 41.285 64.587 41.8458C65.2726 42.4066 64.5777 44.4069 65.1281 45.1122C65.6785 45.8175 67.7331 45.5597 68.1182 46.3771C68.5032 47.1946 67.0232 48.6688 67.2209 49.5603C67.4094 50.424 69.375 51.1062 69.375 52.0312Z" fill="#3C4467"/>
<path d="M60.125 61.2813C59.4389 61.2813 58.7683 61.0778 58.1979 60.6967C57.6274 60.3155 57.1828 59.7738 56.9203 59.1399C56.6578 58.5061 56.5891 57.8087 56.7229 57.1358C56.8567 56.4629 57.1871 55.8448 57.6722 55.3597C58.1573 54.8746 58.7754 54.5442 59.4483 54.4104C60.1212 54.2766 60.8186 54.3453 61.4524 54.6078C62.0863 54.8703 62.628 55.3149 63.0092 55.8854C63.3903 56.4558 63.5938 57.1264 63.5938 57.8125C63.5938 58.7325 63.2283 59.6148 62.5778 60.2653C61.9273 60.9158 61.045 61.2813 60.125 61.2813ZM60.125 56.6563C59.8963 56.6563 59.6728 56.7241 59.4826 56.8511C59.2925 56.9782 59.1443 57.1587 59.0568 57.37C58.9693 57.5813 58.9464 57.8138 58.991 58.0381C59.0356 58.2624 59.1457 58.4684 59.3074 58.6301C59.4691 58.7918 59.6751 58.9019 59.8994 58.9465C60.1237 58.9911 60.3562 58.9682 60.5675 58.8807C60.7788 58.7932 60.9593 58.645 61.0864 58.4549C61.2134 58.2647 61.2813 58.0412 61.2813 57.8125C61.2813 57.5058 61.1594 57.2117 60.9426 56.9949C60.7258 56.7781 60.4317 56.6563 60.125 56.6563Z" fill="#FBFBFB"/>
<path d="M53.1875 49.7188C52.5014 49.7188 51.8308 49.5153 51.2604 49.1342C50.6899 48.753 50.2453 48.2113 49.9828 47.5774C49.7203 46.9436 49.6516 46.2462 49.7854 45.5733C49.9192 44.9004 50.2496 44.2823 50.7347 43.7972C51.2198 43.3121 51.8379 42.9817 52.5108 42.8479C53.1837 42.7141 53.8811 42.7828 54.5149 43.0453C55.1488 43.3078 55.6905 43.7524 56.0717 44.3229C56.4528 44.8933 56.6563 45.5639 56.6563 46.25C56.6563 47.17 56.2908 48.0523 55.6403 48.7028C54.9898 49.3533 54.1075 49.7188 53.1875 49.7188ZM53.1875 45.0938C52.9588 45.0938 52.7353 45.1616 52.5451 45.2886C52.355 45.4157 52.2068 45.5962 52.1193 45.8075C52.0318 46.0188 52.0089 46.2513 52.0535 46.4756C52.0981 46.6999 52.2082 46.9059 52.3699 47.0676C52.5316 47.2293 52.7376 47.3394 52.9619 47.384C53.1862 47.4286 53.4187 47.4057 53.63 47.3182C53.8413 47.2307 54.0218 47.0825 54.1489 46.8924C54.2759 46.7022 54.3438 46.4787 54.3438 46.25C54.3438 45.9433 54.2219 45.6492 54.0051 45.4324C53.7883 45.2156 53.4942 45.0938 53.1875 45.0938Z" fill="#FBFBFB"/>
<path d="M50.8757 58.9687C50.6471 58.9687 50.4236 58.9008 50.2335 58.7738C50.0434 58.6467 49.8952 58.4661 49.8077 58.2549C49.7202 58.0437 49.6973 57.8112 49.7419 57.5869C49.7865 57.3627 49.8966 57.1567 50.0583 56.995L61.6208 45.4325C61.8388 45.2219 62.1309 45.1053 62.4341 45.108C62.7372 45.1106 63.0272 45.2322 63.2416 45.4466C63.456 45.6609 63.5776 45.9509 63.5802 46.2541C63.5829 46.5573 63.4663 46.8494 63.2557 47.0674L51.6932 58.6299C51.4764 58.8468 51.1824 58.9686 50.8757 58.9687Z" fill="#FBFBFB"/>
<path d="M67.0625 33.5312V28.9062H46.25H45.0938V33.5312H67.0625Z" fill="#E68C15"/>
<path d="M62.4375 68.2188H45.0938V72.8438H62.4375C63.6641 72.8438 64.8405 72.3565 65.7079 71.4891C66.5752 70.6218 67.0625 69.4454 67.0625 68.2188V63.5938C67.0625 64.8204 66.5752 65.9968 65.7079 66.8641C64.8405 67.7315 63.6641 68.2188 62.4375 68.2188Z" fill="#E68C15"/>
<path d="M12.7188 47.4062V38.1562C12.7188 36.9296 13.206 35.7532 14.0734 34.8859C14.9407 34.0185 16.1171 33.5312 17.3438 33.5312H28.9062V28.9062H6.9375V68.2188C6.9375 69.4454 7.42478 70.6218 8.29213 71.4891C9.15949 72.3565 10.3359 72.8438 11.5625 72.8438H28.9062V67.6857C24.3103 66.6382 20.206 64.0615 17.2653 60.3774C14.3246 56.6933 12.7216 52.1201 12.7188 47.4062Z" fill="#E68C15"/>
<path d="M33.5312 68.2186C31.9745 68.2139 30.4232 68.0351 28.9062 67.6855V72.8436H45.0938V68.2186H33.5312Z" fill="#1DBF73"/>
<path d="M28.9062 28.9062H45.0938V33.5312H28.9062V28.9062Z" fill="#1DBF73"/>
<path d="M13.2969 23.125C12.2236 23.125 11.1942 22.6986 10.4353 21.9397C9.67637 21.1808 9.25 20.1514 9.25 19.0781C9.25 18.0048 9.67637 16.9755 10.4353 16.2166C11.1942 15.4576 12.2236 15.0313 13.2969 15.0312H3.46875C2.856 15.0331 2.26887 15.2773 1.83559 15.7106C1.40231 16.1439 1.15808 16.731 1.15625 17.3438V26.5938C1.15808 27.2065 1.40231 27.7936 1.83559 28.2269C2.26887 28.6602 2.856 28.9044 3.46875 28.9062H27.75V23.125H13.2969Z" fill="#FFA930"/>
<path d="M70.5312 23.125H46.25V28.9062H70.5312C71.144 28.9044 71.7311 28.6602 72.1644 28.2269C72.5977 27.7936 72.8419 27.2065 72.8438 26.5938V20.8125C72.8438 21.4258 72.6001 22.014 72.1664 22.4477C71.7328 22.8814 71.1446 23.125 70.5312 23.125Z" fill="#FFA930"/>
<path d="M27.75 23.125V28.9062H28.9062H45.0938H46.25V23.125H27.75Z" fill="#1DBF73"/>
<path d="M26.5938 6.93744C26.5938 6.93744 19.847 4.69315 16.3355 5.74303C16.2513 6.13607 16.2018 6.53574 16.1875 6.93744C21.7364 6.96102 27.0842 9.01786 31.2188 12.7187C31.2188 12.7187 31.2187 7.61615 28.5016 4.19019C28.505 5.65284 28.0853 6.93744 26.5938 6.93744Z" fill="#168F56"/>
<path d="M48.5625 6.93739C46.6431 6.93739 46.4963 4.81336 46.746 2.91479C42.7813 6.14998 42.7812 12.7186 42.7812 12.7186C46.9158 9.01781 52.2636 6.96098 57.8125 6.93739C57.7956 6.4562 57.729 5.97805 57.6136 5.51058C53.9599 5.14058 48.5625 6.93739 48.5625 6.93739Z" fill="#168F56"/>
<path d="M26.452 10.1531C26.4882 10.3223 26.4863 10.4974 26.4464 10.6658C26.4065 10.8341 26.3297 10.9915 26.2214 11.1264C26.1131 11.2614 25.9762 11.3706 25.8205 11.446C25.6647 11.5214 25.4942 11.5612 25.3212 11.5626H13.8743C13.261 11.5626 12.6728 11.3189 12.2391 10.8852C11.8054 10.4516 11.5618 9.86337 11.5618 9.25006V8.62915C11.1786 9.01298 10.8783 9.47136 10.6794 9.97593C10.4806 10.4805 10.3873 11.0205 10.4056 11.5626C10.3958 12.0208 10.4788 12.4762 10.6497 12.9015C10.8205 13.3267 11.0757 13.713 11.3998 14.0371C11.7238 14.3612 12.1101 14.6163 12.5354 14.7872C12.9607 14.958 13.4161 15.0411 13.8743 15.0313H31.2181V12.7188C29.7248 11.3489 28.0383 10.2059 26.2126 9.32637C26.3138 9.59532 26.3938 9.87172 26.452 10.1531Z" fill="#4ACC8F"/>
<path d="M61.2812 11.5625H49.8344C49.6612 11.5615 49.4903 11.522 49.3343 11.4467C49.1784 11.3714 49.0411 11.2623 48.9326 11.1273C48.824 10.9923 48.747 10.8348 48.707 10.6663C48.6669 10.4977 48.665 10.3224 48.7012 10.153C48.8092 9.63545 48.9923 9.13645 49.2447 8.67188C46.8678 9.62784 44.6794 10.998 42.7812 12.7188V15.0312H60.125C60.5832 15.041 61.0386 14.958 61.4639 14.7871C61.8892 14.6163 62.2755 14.3611 62.5995 14.037C62.9236 13.713 63.1788 13.3267 63.3496 12.9014C63.5205 12.4761 63.6035 12.0207 63.5937 11.5625C63.595 11.0994 63.5252 10.6389 63.3868 10.197C63.2045 10.6031 62.9088 10.948 62.5354 11.1902C62.1619 11.4324 61.7264 11.5617 61.2812 11.5625Z" fill="#4ACC8F"/>
<path d="M57.8125 37.3469V15.0312H55.5V37.3469C55.639 37.5198 55.8151 37.6594 56.0152 37.7553C56.2153 37.8512 56.4344 37.901 56.6562 37.901C56.8781 37.901 57.0972 37.8512 57.2973 37.7553C57.4974 37.6594 57.6735 37.5198 57.8125 37.3469Z" fill="#1DBF73"/>
<path d="M42.0644 59.2229C41.5903 58.2054 43.4634 56.3092 43.2091 55.1761C42.9662 54.0776 40.4688 53.2104 40.4688 52.0311C40.4688 50.8517 42.9662 49.9845 43.2091 48.8861C43.3964 48.0501 42.4298 46.8048 42.0979 45.7908C41.1359 46.3689 39.0362 46.229 38.5956 47.1517C38.1216 48.1692 39.9947 50.0654 39.7403 51.1986C39.4975 52.297 37 53.1642 37 54.3436C37 55.5229 39.4975 56.3901 39.7403 57.4886C39.9947 58.6217 38.1216 60.5179 38.5956 61.5354C39.0928 62.5761 41.7059 62.2523 42.3997 63.1542C43.0934 64.0561 42.2147 66.5882 43.0934 67.3051C43.527 67.6636 44.3017 67.4785 45.0938 67.267V60.3722C44.0427 60.0196 42.4425 60.015 42.0644 59.2229Z" fill="#168F56"/>
<path d="M53.0488 68.1957C51.9503 67.9414 51.6728 65.2589 50.6669 64.7617C49.6609 64.2645 47.4294 65.7098 46.5622 64.9929C45.695 64.2761 46.5737 61.7323 45.8684 60.842C45.661 60.614 45.3919 60.4509 45.0938 60.3726V67.2673C45.7577 66.9842 46.4937 66.9167 47.1981 67.0742C47.5969 67.3567 47.8973 67.757 48.0572 68.2189C48.5001 69.167 48.8666 70.3441 49.58 70.5082C50.6553 70.7626 52.0428 68.4732 53.1875 68.4732C54.3322 68.4732 55.7197 70.7626 56.795 70.5082C57.5061 70.3441 57.8738 69.167 58.3143 68.2189C58.4301 67.9601 58.571 67.7134 58.7352 67.4823C58.031 66.8915 57.3049 66.1607 56.6539 66.1607C55.5116 66.1607 54.1241 68.4501 53.0488 68.1957Z" fill="#E68C15"/>
<path d="M63.6761 64.7025C63.3314 64.615 62.9681 64.6356 62.6355 64.7615C61.9857 65.0864 61.64 66.3363 61.1729 67.2405C62.0007 67.4625 62.824 67.6798 63.283 67.3052C63.8253 66.8624 63.6923 65.72 63.6761 64.7025Z" fill="#E68C15"/>
<path d="M50.6789 39.301C50.8537 39.1977 51.0025 39.0557 51.1137 38.8859C50.5737 38.4361 50.0476 38.0684 49.5805 38.1794C49.2001 38.2673 48.9203 38.6546 48.6729 39.1345C49.3069 39.4017 50.0095 39.46 50.6789 39.301Z" fill="#E68C15"/>
<path d="M53.0488 35.8669C53.289 35.8558 53.5288 35.8962 53.7521 35.9853C53.9754 36.0745 54.1772 36.2103 54.3438 36.3837V28.9062H52.0312V37.0382C52.3053 36.4577 52.6094 35.9686 53.0488 35.8669Z" fill="#E68C15"/>
<path d="M45.0932 41.4177C44.3035 41.2073 43.5311 41.0246 43.0929 41.3819C42.4882 41.8756 42.7148 43.2319 42.6929 44.3165C43.3589 44.0216 44.3532 43.9372 45.0932 43.6921V41.4177Z" fill="#961B25"/>
</svg>
