<svg width="1440" height="148" viewBox="0 0 1440 148" fill="none" xmlns="http://www.w3.org/2000/svg">
<g clip-path="url(#clip0_1474_154497)">
<g clip-path="url(#clip1_1474_154497)">
<rect width="1444" height="166" fill="#A17DF5"/>
<path d="M918.972 632.864L884.443 520.829C849.914 408.793 780.856 184.723 806.698 66.0297C832.54 -52.6636 953.282 -65.9798 1074.02 -79.296C1194.77 -92.6122 1315.51 -105.928 1357.21 -207.004C1398.33 -308.738 1361.89 -496.585 1403.01 -598.319C1444.72 -699.395 1565.46 -712.711 1625.83 -719.369L1686.2 -726.027L2018.35 -357.208L1981.7 -324.205C1945.06 -291.203 1871.77 -225.198 1798.47 -159.193C1725.18 -93.1885 1651.89 -27.1837 1578.6 38.8211C1505.31 104.826 1432.02 170.831 1358.72 236.835C1285.43 302.84 1212.14 368.845 1138.85 434.85C1065.56 500.854 992.264 566.859 955.618 599.862L918.972 632.864Z" fill="#FDE6E8"/>
<path d="M1385.66 14.1238C1257.35 -64.5411 996.687 -21.329 935.126 71.7365C901.217 123.019 930.955 184.564 945.637 214.934C972.663 270.819 1019.12 301.337 1029.23 307.764C1053.75 323.354 1113.29 361.237 1191.55 357.762C1325.23 351.814 1470 227.064 1459.05 119.043C1452.71 56.7666 1396.75 20.9341 1385.66 14.1238Z" fill="url(#paint0_linear_1474_154497)"/>
<path d="M1353.66 -49.8762C1225.35 -128.541 964.687 -85.329 903.126 7.73645C869.217 59.0194 898.955 120.564 913.637 150.934C940.663 206.819 987.122 237.337 997.232 243.764C1021.75 259.354 1081.29 297.237 1159.55 293.762C1293.23 287.814 1438 163.064 1427.05 55.0425C1420.71 -7.23339 1364.75 -43.0659 1353.66 -49.8762Z" fill="url(#paint1_linear_1474_154497)"/>
<g clip-path="url(#clip2_1474_154497)">
<g clip-path="url(#clip3_1474_154497)">
<path d="M1024.23 158.275C1024.23 160.447 1022.7 162.323 1020.83 162.429L888.434 170.576C885.922 170.724 883.094 168.584 883.094 166.062V72.6934C883.094 70.1613 885.995 68.0424 888.497 68.1483L1020.82 73.8588C1022.7 73.9329 1024.22 75.7764 1024.22 77.9588V158.275H1024.23Z" fill="url(#paint2_linear_1474_154497)"/>
<path d="M1026.68 158.424C1026.68 160.606 1025.15 162.492 1023.26 162.598L889.453 170.597C886.93 170.745 884.859 168.796 884.859 166.253V72.4286C884.859 69.8859 886.93 67.8942 889.453 68.0001L1023.26 73.594C1025.15 73.6682 1026.68 75.5222 1026.68 77.7047V158.424V158.424Z" fill="url(#paint3_linear_1474_154497)"/>
<path d="M1026.68 136.43L884.859 143.761V160.945L1026.68 152.554V136.43Z" fill="url(#paint4_linear_1474_154497)"/>
<g opacity="0.15">
<path opacity="0.15" d="M926.72 99.0313C926.562 109.689 919.94 115.23 912.581 115.209C904.549 115.177 898.116 108.98 898.273 98.7876C898.421 89.1043 904.476 82.2073 913.464 82.8853C922.189 83.5422 926.846 90.3226 926.72 99.0313ZM907.661 98.83C907.577 104.392 909.385 108.439 912.907 108.503C916.302 108.566 917.995 105.081 918.079 99.2432C918.163 93.9671 916.817 89.8035 913.106 89.581C909.511 89.3585 907.745 93.5116 907.661 98.83ZM915.114 133.103L940.681 86.4557C941.175 85.5657 942.131 85.036 943.141 85.1207C945.012 85.2585 946.116 87.3032 945.222 88.9665L919.929 135.603C919.498 136.409 918.678 136.917 917.774 136.96L917.49 136.97C915.472 137.065 914.137 134.883 915.114 133.103ZM958.857 119.955C958.71 129.829 953.033 135.233 946.725 135.508C939.945 135.805 934.478 130.359 934.541 120.972C934.678 112.052 939.84 105.409 947.514 105.621C954.978 105.833 958.983 111.904 958.857 119.955ZM942.615 120.612C942.468 125.751 944.003 129.406 947.02 129.31C949.921 129.226 951.372 125.931 951.456 120.538C951.53 115.654 950.447 111.872 947.283 111.84C944.139 111.787 942.689 115.696 942.615 120.612Z" fill="url(#paint5_linear_1474_154497)"/>
</g>
<path d="M927.95 98.5332C927.793 109.191 921.17 114.732 913.801 114.711C905.769 114.679 899.335 108.481 899.493 98.2896C899.64 88.6062 905.695 81.7092 914.684 82.3873C923.419 83.0441 928.087 89.8352 927.95 98.5332ZM908.902 98.3319C908.818 103.894 910.626 107.941 914.147 108.005C917.543 108.068 919.236 104.583 919.32 98.7451C919.404 93.4691 918.058 89.3055 914.347 89.083C910.741 88.8605 908.975 93.0135 908.902 98.3319ZM916.345 132.605L941.911 85.9576C942.405 85.0677 943.362 84.5379 944.371 84.6227C946.242 84.7604 947.346 86.8052 946.452 88.4685L921.17 135.105C920.739 135.911 919.919 136.419 919.015 136.461L918.731 136.472C916.713 136.567 915.367 134.396 916.345 132.605ZM960.087 119.468C959.94 129.342 954.263 134.745 947.956 135.021C941.186 135.317 935.709 129.872 935.782 120.485C935.919 111.564 941.08 104.922 948.755 105.134C956.218 105.335 960.213 111.406 960.087 119.468ZM943.856 120.114C943.709 125.252 945.243 128.908 948.26 128.812C951.162 128.727 952.613 125.433 952.697 120.04C952.77 115.156 951.688 111.374 948.523 111.342C945.37 111.289 943.929 115.198 943.856 120.114Z" fill="white"/>
<path opacity="0.3" d="M1023.26 73.5938L890.999 68.0635C896.97 85.8834 905.517 93.861 912.865 97.7704C926.847 105.208 936.876 98.1094 948.849 107.729C961.138 117.603 956.46 129.797 969.412 138.019C979.146 144.195 985.422 139.608 995.514 145.191C1002.99 149.323 1007.67 156.326 1010.65 163.35L1023.27 162.598C1025.16 162.481 1026.69 160.606 1026.69 158.424V77.715C1026.68 75.522 1025.15 73.6785 1023.26 73.5938Z" fill="url(#paint6_linear_1474_154497)"/>
<path opacity="0.3" d="M1024.82 116.3L1021.6 113.217L1018.54 116.47L1015.31 113.387L1012.24 116.629L1009.01 113.546L1005.95 116.798L1002.73 113.715L999.667 116.968L996.439 113.885L993.38 117.137L990.153 114.054L987.094 117.307L983.866 114.224L980.807 117.476L977.58 114.393L974.521 117.646L970.4 113.705C970.4 115.283 970.4 162.418 970.4 162.418C970.4 162.418 970.232 165.204 966.889 165.946L1023.96 161.729C1024.61 161.676 1025.22 161.496 1025.77 161.21C1026.35 160.469 1026.7 159.494 1026.7 158.445V114.319L1024.82 116.3Z" fill="url(#paint7_linear_1474_154497)"/>
<path d="M1034 114.679V159.059C1034 161.539 1032.05 163.594 1029.6 163.774L1011.49 165.109L972.387 167.991C975.73 167.26 975.803 164.463 975.803 164.463C975.803 164.463 975.803 117.317 975.803 115.749L980.008 119.69L982.216 117.391L983.141 116.438L986.379 119.521L989.448 116.268L992.676 119.351L995.735 116.099L998.962 119.182L1002.02 115.929L1005.25 119.012L1008.31 115.76L1011.54 118.843L1014.59 115.59L1017.82 118.673L1020.88 115.421L1024.12 118.536L1027.18 115.283L1030.47 118.366L1034 114.679Z" fill="white"/>
<path d="M1027.41 140.456L1020.36 140.774C1019.88 140.795 1019.5 141.187 1019.5 141.664V144.927C1019.5 145.446 1019.93 145.848 1020.44 145.817L1027.49 145.414C1027.97 145.382 1028.33 144.99 1028.33 144.524V141.335C1028.33 140.837 1027.91 140.435 1027.41 140.456Z" fill="#D8DEE8"/>
<path d="M1027.4 146.76L1020.34 147.162C1019.87 147.194 1019.5 147.586 1019.5 148.052V151.464C1019.5 151.983 1019.93 152.385 1020.45 152.353L1027.5 151.898C1027.98 151.866 1028.33 151.474 1028.33 151.008V147.65C1028.33 147.141 1027.91 146.738 1027.4 146.76Z" fill="#D8DEE8"/>
<path d="M1028.33 131.408V125.57C1028.33 125.062 1027.91 124.659 1027.41 124.68L1020.36 124.935C1019.88 124.956 1019.5 125.348 1019.5 125.825V131.736C1019.5 132.245 1019.92 132.658 1020.43 132.626L1027.48 132.309C1027.97 132.277 1028.33 131.885 1028.33 131.408Z" fill="#D8DEE8"/>
<path d="M1012.74 141.123L984.004 142.426C983.531 142.448 983.152 142.84 983.152 143.316V146.993C983.152 147.512 983.583 147.914 984.088 147.883L1012.83 146.251C1013.3 146.219 1013.67 145.827 1013.67 145.361V142.013C1013.67 141.505 1013.25 141.102 1012.74 141.123Z" fill="#D8DEE8"/>
<path d="M1012.73 147.596L983.993 149.228C983.52 149.26 983.152 149.652 983.152 150.118V153.805C983.152 154.324 983.583 154.727 984.098 154.695L1012.84 152.841C1013.31 152.809 1013.67 152.417 1013.67 151.951V148.486C1013.67 147.978 1013.25 147.565 1012.73 147.596Z" fill="#D8DEE8"/>
<path d="M1013.67 132.075V126.1C1013.67 125.592 1013.25 125.189 1012.74 125.21L984.004 126.249C983.531 126.27 983.152 126.662 983.152 127.138V133.379C983.152 133.887 983.573 134.3 984.077 134.269L1012.82 132.965C1013.3 132.944 1013.67 132.552 1013.67 132.075Z" fill="#D8DEE8"/>
<path opacity="0.4" d="M1011.46 165.109L972.366 167.99C975.709 167.259 975.804 164.462 975.804 164.462C975.804 164.462 975.804 117.317 975.804 115.749L980.009 119.69L982.216 117.391C984.056 119.065 985.528 121.756 985.938 126.015C987.304 140.212 993.906 139.269 1001.69 139.809C1009.48 140.339 1013.06 149.429 1009.91 156.442C1008.5 159.589 1009.08 162.757 1011.46 165.109Z" fill="#F4F7FA"/>
<path d="M910.069 151.866C924.444 151.866 936.098 150.343 936.098 148.465C936.098 146.587 924.444 145.064 910.069 145.064C895.694 145.064 884.04 146.587 884.04 148.465C884.04 150.343 895.694 151.866 910.069 151.866Z" fill="url(#paint8_linear_1474_154497)"/>
<path d="M907.609 148.656C907.861 148.476 908.134 148.307 908.429 148.126C908.713 147.957 909.091 147.798 909.543 147.66C909.995 147.523 910.573 147.406 911.257 147.321C911.94 147.237 912.802 147.184 913.822 147.184C914.831 147.184 915.766 147.215 916.649 147.279C917.533 147.353 918.31 147.448 918.983 147.586C919.656 147.724 920.203 147.893 920.623 148.095C921.044 148.296 921.285 148.529 921.37 148.794L924.303 148.826C924.513 148.826 924.702 148.847 924.86 148.879C925.028 148.91 925.102 148.953 925.102 149.006V149.25L921.338 149.218C921.201 149.514 920.865 149.79 920.329 150.033C919.793 150.277 919.099 150.5 918.268 150.68L916.891 150.489C916.765 150.468 916.67 150.447 916.586 150.415C916.502 150.383 916.471 150.351 916.471 150.32C916.471 150.277 916.576 150.224 916.786 150.161C916.996 150.097 917.238 150.023 917.501 149.938C917.764 149.853 918.027 149.747 918.289 149.62C918.542 149.504 918.72 149.355 918.805 149.186L909.911 149.101C909.68 149.271 909.417 149.44 909.123 149.61C908.828 149.779 908.45 149.928 907.966 150.065C907.483 150.203 906.894 150.309 906.179 150.394C905.464 150.478 904.571 150.521 903.477 150.531C902.657 150.531 901.869 150.5 901.091 150.436C900.313 150.373 899.619 150.267 899.02 150.139C898.421 150.012 897.927 149.843 897.538 149.652C897.149 149.461 896.939 149.239 896.886 148.985L894.5 148.942C894.289 148.942 894.1 148.921 893.932 148.889C893.764 148.858 893.68 148.815 893.68 148.762V148.518L896.981 148.55C897.128 148.296 897.422 148.074 897.885 147.883C898.337 147.692 898.904 147.523 899.556 147.374L900.66 147.523C900.996 147.565 901.165 147.629 901.165 147.692C901.165 147.724 901.102 147.766 900.954 147.819C900.818 147.872 900.649 147.936 900.46 147.999C900.271 148.074 900.092 148.158 899.914 148.254C899.735 148.349 899.598 148.455 899.514 148.582L907.609 148.656ZM899.472 148.985C899.535 149.144 899.682 149.281 899.914 149.398C900.134 149.514 900.418 149.61 900.755 149.684C901.091 149.758 901.469 149.811 901.879 149.843C902.3 149.875 902.741 149.896 903.193 149.896C903.73 149.896 904.192 149.875 904.592 149.822C904.991 149.779 905.338 149.716 905.632 149.642C905.927 149.567 906.2 149.483 906.421 149.377C906.642 149.281 906.841 149.165 907.02 149.048L899.472 148.985ZM918.836 148.773C918.773 148.614 918.605 148.466 918.352 148.349C918.1 148.232 917.774 148.126 917.385 148.042C916.996 147.957 916.544 147.893 916.019 147.862C915.504 147.819 914.925 147.798 914.305 147.809C913.748 147.809 913.264 147.84 912.865 147.883C912.466 147.925 912.119 147.989 911.824 148.074C911.53 148.158 911.278 148.243 911.078 148.349C910.868 148.455 910.678 148.571 910.5 148.688L918.836 148.773Z" fill="#FCB048"/>
<path d="M910.079 145.435C898.473 145.435 886.394 146.463 884.46 148.454C884.534 148.529 884.607 148.603 884.67 148.677C886.3 147.289 896.276 145.901 910.079 145.901C924.239 145.901 934.373 147.363 935.603 148.783C935.666 148.709 935.729 148.635 935.803 148.56C934.195 146.495 921.884 145.435 910.079 145.435Z" fill="url(#paint9_linear_1474_154497)"/>
<path d="M881.254 141.875V147.692C881.254 149.567 892.902 151.093 907.283 151.093C921.664 151.093 933.312 149.567 933.312 147.692V141.875H881.254Z" fill="url(#paint10_linear_1474_154497)"/>
<path d="M933.301 141.875C933.301 143.751 921.653 145.276 907.272 145.276C892.891 145.276 881.254 143.751 881.254 141.875C881.254 140 892.902 138.475 907.283 138.475C921.664 138.475 933.301 139.99 933.301 141.875Z" fill="url(#paint11_linear_1474_154497)"/>
<path d="M907.272 145.509C894.541 145.509 881.232 144.28 881.232 141.918C881.232 141.791 881.274 141.558 881.411 141.558C881.537 141.558 881.485 141.738 881.485 141.865C881.485 143.359 892.081 145.033 907.272 145.033C922.473 145.033 933.059 143.359 933.059 141.865C933.059 141.738 933.08 141.611 933.206 141.611C933.332 141.611 933.301 141.78 933.301 141.918C933.311 144.291 920.002 145.509 907.272 145.509Z" fill="url(#paint12_linear_1474_154497)"/>
<path d="M904.812 142.066C905.065 141.886 905.338 141.717 905.632 141.537C905.916 141.367 906.295 141.208 906.747 141.071C907.199 140.933 907.777 140.816 908.46 140.731C909.144 140.647 910.006 140.594 911.025 140.594C912.034 140.594 912.97 140.626 913.853 140.689C914.736 140.763 915.514 140.859 916.187 140.996C916.86 141.134 917.406 141.304 917.827 141.505C918.247 141.706 918.489 141.939 918.573 142.204L921.506 142.236C921.716 142.236 921.906 142.257 922.063 142.289C922.232 142.321 922.305 142.363 922.305 142.416V142.66L918.542 142.628C918.405 142.925 918.069 143.2 917.532 143.444C916.996 143.687 916.303 143.91 915.472 144.09L914.095 143.899C913.969 143.878 913.874 143.857 913.79 143.825C913.706 143.793 913.674 143.761 913.674 143.73C913.674 143.687 913.78 143.634 913.99 143.571C914.2 143.507 914.442 143.433 914.705 143.348C914.967 143.264 915.23 143.158 915.493 143.03C915.745 142.914 915.924 142.766 916.008 142.596L907.115 142.511C906.883 142.681 906.621 142.85 906.326 143.02C906.032 143.189 905.653 143.338 905.17 143.475C904.686 143.613 904.098 143.719 903.383 143.804C902.668 143.889 901.774 143.931 900.681 143.942C899.861 143.942 899.073 143.91 898.295 143.846C897.517 143.783 896.823 143.677 896.224 143.55C895.624 143.422 895.13 143.253 894.741 143.062C894.352 142.872 894.142 142.649 894.09 142.395L891.682 142.374C891.472 142.374 891.283 142.352 891.115 142.321C890.946 142.289 890.862 142.246 890.862 142.194V141.95H894.184C894.331 141.696 894.626 141.473 895.088 141.282C895.54 141.092 896.108 140.922 896.76 140.774L897.864 140.922C898.2 140.965 898.368 141.028 898.368 141.092C898.368 141.123 898.305 141.166 898.158 141.219C898.021 141.272 897.853 141.335 897.664 141.399C897.475 141.473 897.296 141.558 897.117 141.653C896.939 141.749 896.802 141.854 896.718 141.982L904.812 142.066ZM896.676 142.395C896.739 142.554 896.886 142.691 897.117 142.808C897.338 142.925 897.622 143.02 897.958 143.094C898.295 143.168 898.673 143.221 899.083 143.253C899.504 143.285 899.945 143.306 900.397 143.306C900.933 143.306 901.396 143.285 901.795 143.232C902.195 143.189 902.542 143.126 902.836 143.052C903.13 142.978 903.404 142.893 903.624 142.787C903.845 142.691 904.045 142.575 904.224 142.458L896.676 142.395ZM916.04 142.172C915.977 142.013 915.808 141.865 915.556 141.749C915.304 141.632 914.978 141.526 914.589 141.441C914.2 141.357 913.748 141.293 913.222 141.261C912.707 141.219 912.129 141.198 911.509 141.208C910.952 141.208 910.468 141.24 910.069 141.282C909.669 141.325 909.322 141.388 909.028 141.473C908.734 141.558 908.481 141.643 908.281 141.749C908.071 141.854 907.882 141.971 907.703 142.088L916.04 142.172Z" fill="#FCB048"/>
<path d="M907.282 138.835C895.676 138.835 883.597 139.863 881.663 141.854C881.737 141.929 881.81 142.003 881.873 142.077C883.503 140.689 893.479 139.301 907.282 139.301C921.442 139.301 931.576 140.763 932.806 142.183C932.869 142.109 932.932 142.034 933.006 141.96C931.398 139.905 919.088 138.835 907.282 138.835Z" fill="url(#paint13_linear_1474_154497)"/>
<path d="M874.011 135.762V141.579C874.011 143.454 885.659 144.979 900.04 144.979C914.41 144.979 926.069 143.454 926.069 141.579V135.762H874.011Z" fill="url(#paint14_linear_1474_154497)"/>
<path d="M900.04 139.163C914.415 139.163 926.069 137.64 926.069 135.762C926.069 133.884 914.415 132.361 900.04 132.361C885.664 132.361 874.011 133.884 874.011 135.762C874.011 137.64 885.664 139.163 900.04 139.163Z" fill="url(#paint15_linear_1474_154497)"/>
<path d="M900.039 139.396C887.309 139.396 874 138.178 874 135.815C874 135.688 874.042 135.455 874.179 135.455C874.305 135.455 874.252 135.635 874.252 135.762C874.252 137.256 884.849 138.93 900.039 138.93C915.23 138.93 925.827 137.267 925.827 135.762C925.827 135.635 925.848 135.508 925.974 135.508C926.1 135.508 926.068 135.678 926.068 135.815C926.079 138.178 912.77 139.396 900.039 139.396Z" fill="url(#paint16_linear_1474_154497)"/>
<path d="M897.58 135.953C897.832 135.773 898.106 135.603 898.4 135.423C898.684 135.253 899.062 135.094 899.514 134.957C899.966 134.819 900.544 134.702 901.228 134.618C901.911 134.533 902.773 134.48 903.793 134.48C904.802 134.48 905.738 134.512 906.621 134.575C907.504 134.649 908.282 134.745 908.954 134.883C909.627 135.02 910.174 135.19 910.594 135.391C911.015 135.592 911.257 135.825 911.341 136.09L914.274 136.122C914.484 136.122 914.673 136.143 914.831 136.175C914.999 136.207 915.073 136.249 915.073 136.302V136.546L911.309 136.514C911.173 136.811 910.836 137.086 910.3 137.33C909.764 137.574 909.07 137.796 908.24 137.976L906.862 137.785C906.736 137.764 906.642 137.743 906.558 137.711C906.474 137.68 906.442 137.648 906.442 137.616C906.442 137.574 906.547 137.521 906.757 137.457C906.968 137.393 907.209 137.319 907.472 137.235C907.735 137.15 907.998 137.044 908.261 136.917C908.513 136.8 908.692 136.652 908.776 136.482L899.882 136.398C899.651 136.567 899.388 136.737 899.094 136.906C898.799 137.076 898.421 137.224 897.937 137.362C897.454 137.499 896.865 137.605 896.15 137.69C895.435 137.775 894.542 137.817 893.449 137.828C892.629 137.828 891.84 137.796 891.062 137.732C890.284 137.669 889.59 137.563 888.991 137.436C888.392 137.309 887.898 137.139 887.509 136.948C887.12 136.758 886.91 136.535 886.857 136.281L884.45 136.26C884.24 136.26 884.05 136.239 883.882 136.207C883.714 136.175 883.63 136.133 883.63 136.08V135.836L886.931 135.868C887.078 135.614 887.372 135.391 887.835 135.2C888.287 135.01 888.855 134.84 889.506 134.692L890.61 134.84C890.947 134.883 891.115 134.946 891.115 135.01C891.115 135.041 891.052 135.084 890.905 135.137C890.768 135.19 890.6 135.253 890.41 135.317C890.221 135.391 890.042 135.476 889.864 135.571C889.685 135.667 889.548 135.773 889.464 135.9L897.58 135.953ZM889.443 136.281C889.506 136.44 889.654 136.578 889.885 136.694C890.106 136.811 890.389 136.906 890.726 136.98C891.062 137.054 891.441 137.107 891.851 137.139C892.271 137.171 892.713 137.192 893.165 137.192C893.701 137.192 894.163 137.171 894.563 137.118C894.962 137.076 895.309 137.012 895.604 136.938C895.898 136.864 896.171 136.779 896.392 136.673C896.613 136.578 896.813 136.461 896.991 136.345L889.443 136.281ZM908.797 136.069C908.734 135.91 908.565 135.762 908.313 135.645C908.061 135.529 907.735 135.423 907.346 135.338C906.957 135.253 906.505 135.19 905.979 135.158C905.464 135.116 904.886 135.094 904.266 135.105C903.709 135.105 903.225 135.137 902.826 135.179C902.426 135.222 902.079 135.285 901.785 135.37C901.491 135.455 901.238 135.539 901.039 135.645C900.828 135.751 900.639 135.868 900.46 135.984L908.797 136.069Z" fill="#FCB048"/>
<path d="M900.04 132.732C888.445 132.732 876.355 133.76 874.421 135.751C874.494 135.826 874.568 135.9 874.631 135.974C876.261 134.586 886.237 133.198 900.04 133.198C914.2 133.198 924.334 134.66 925.564 136.08C925.627 136.006 925.69 135.931 925.764 135.857C924.166 133.791 911.856 132.732 900.04 132.732Z" fill="url(#paint17_linear_1474_154497)"/>
<path d="M880.255 129.67V135.487C880.255 137.362 891.903 138.888 906.284 138.888C920.654 138.888 932.313 137.362 932.313 135.487V129.67H880.255Z" fill="url(#paint18_linear_1474_154497)"/>
<path d="M906.284 133.071C920.659 133.071 932.313 131.549 932.313 129.67C932.313 127.792 920.659 126.27 906.284 126.27C891.908 126.27 880.255 127.792 880.255 129.67C880.255 131.549 891.908 133.071 906.284 133.071Z" fill="url(#paint19_linear_1474_154497)"/>
<path d="M906.284 133.304C893.553 133.304 880.244 132.075 880.244 129.713C880.244 129.586 880.286 129.353 880.423 129.353C880.549 129.353 880.496 129.533 880.496 129.66C880.496 131.154 891.093 132.828 906.284 132.828C921.474 132.828 932.071 131.154 932.071 129.66C932.071 129.533 932.092 129.406 932.218 129.406C932.344 129.406 932.312 129.575 932.312 129.713C932.323 132.086 919.014 133.304 906.284 133.304Z" fill="url(#paint20_linear_1474_154497)"/>
<path d="M903.824 129.861C904.076 129.681 904.35 129.512 904.644 129.332C904.928 129.162 905.306 129.003 905.758 128.865C906.21 128.728 906.789 128.611 907.472 128.526C908.155 128.442 909.017 128.389 910.037 128.389C911.046 128.389 911.982 128.42 912.865 128.484C913.748 128.558 914.526 128.654 915.199 128.791C915.871 128.929 916.418 129.098 916.839 129.3C917.259 129.501 917.501 129.734 917.585 129.999L920.518 130.031C920.728 130.031 920.917 130.052 921.075 130.084C921.243 130.116 921.317 130.158 921.317 130.211V130.455L917.553 130.423C917.417 130.719 917.08 130.995 916.544 131.239C916.008 131.482 915.314 131.705 914.484 131.885L913.107 131.694C912.98 131.673 912.886 131.652 912.802 131.62C912.718 131.588 912.686 131.556 912.686 131.525C912.686 131.482 912.791 131.429 913.001 131.366C913.212 131.302 913.454 131.228 913.716 131.143C913.979 131.058 914.242 130.953 914.505 130.825C914.757 130.709 914.936 130.561 915.02 130.391L906.126 130.306C905.895 130.476 905.632 130.645 905.338 130.815C905.044 130.984 904.665 131.133 904.182 131.27C903.698 131.408 903.109 131.514 902.394 131.599C901.68 131.684 900.786 131.726 899.693 131.737C898.873 131.737 898.084 131.705 897.306 131.641C896.528 131.578 895.835 131.472 895.235 131.345C894.636 131.217 894.142 131.048 893.753 130.857C893.364 130.666 893.154 130.444 893.101 130.19L890.694 130.169C890.484 130.169 890.295 130.147 890.126 130.116C889.958 130.084 889.874 130.041 889.874 129.988V129.745L893.175 129.777C893.322 129.522 893.616 129.3 894.079 129.109C894.531 128.918 895.099 128.749 895.751 128.601L896.854 128.749C897.191 128.791 897.359 128.855 897.359 128.918C897.359 128.95 897.296 128.993 897.149 129.046C897.012 129.099 896.844 129.162 896.655 129.226C896.465 129.3 896.287 129.385 896.108 129.48C895.929 129.575 895.793 129.681 895.708 129.808L903.824 129.861ZM895.687 130.19C895.751 130.349 895.898 130.486 896.129 130.603C896.35 130.719 896.634 130.815 896.97 130.889C897.306 130.963 897.685 131.016 898.095 131.048C898.515 131.08 898.957 131.101 899.409 131.101C899.945 131.101 900.408 131.08 900.807 131.027C901.206 130.984 901.553 130.921 901.848 130.847C902.142 130.772 902.415 130.688 902.636 130.582C902.857 130.486 903.057 130.37 903.235 130.253L895.687 130.19ZM915.041 129.978C914.978 129.819 914.81 129.671 914.557 129.554C914.305 129.438 913.979 129.332 913.59 129.247C913.201 129.162 912.749 129.099 912.224 129.067C911.708 129.024 911.13 129.003 910.51 129.014C909.953 129.014 909.469 129.046 909.07 129.088C908.67 129.13 908.323 129.194 908.029 129.279C907.735 129.363 907.482 129.448 907.283 129.554C907.072 129.66 906.883 129.777 906.705 129.893L915.041 129.978Z" fill="#FCB048"/>
<path d="M906.284 126.64C894.678 126.64 882.599 127.668 880.665 129.66C880.739 129.734 880.812 129.808 880.875 129.882C882.505 128.494 892.481 127.106 906.284 127.106C920.444 127.106 930.578 128.568 931.808 129.988C931.871 129.914 931.934 129.84 932.008 129.766C930.4 127.7 918.1 126.64 906.284 126.64Z" fill="url(#paint21_linear_1474_154497)"/>
<path d="M877.007 123.558V129.374C877.007 131.249 888.655 132.775 903.036 132.775C917.406 132.775 929.065 131.249 929.065 129.374V123.558H877.007Z" fill="url(#paint22_linear_1474_154497)"/>
<path d="M903.036 126.958C917.411 126.958 929.065 125.436 929.065 123.558C929.065 121.679 917.411 120.157 903.036 120.157C888.66 120.157 877.007 121.679 877.007 123.558C877.007 125.436 888.66 126.958 903.036 126.958Z" fill="url(#paint23_linear_1474_154497)"/>
<path d="M903.036 127.202C890.305 127.202 876.996 125.973 876.996 123.611C876.996 123.484 877.038 123.25 877.175 123.25C877.301 123.25 877.248 123.431 877.248 123.558C877.248 125.052 887.845 126.725 903.036 126.725C918.237 126.725 928.823 125.052 928.823 123.558C928.823 123.431 928.844 123.303 928.97 123.303C929.096 123.303 929.064 123.473 929.064 123.611C929.075 125.973 915.766 127.202 903.036 127.202Z" fill="url(#paint24_linear_1474_154497)"/>
<path d="M900.576 123.748C900.828 123.568 901.102 123.398 901.396 123.218C901.68 123.049 902.058 122.89 902.51 122.752C902.962 122.614 903.541 122.498 904.224 122.413C904.907 122.328 905.769 122.275 906.789 122.275C907.798 122.275 908.734 122.307 909.617 122.371C910.5 122.445 911.278 122.54 911.951 122.678C912.623 122.816 913.17 122.985 913.59 123.187C914.011 123.388 914.253 123.621 914.337 123.886L917.27 123.918C917.48 123.918 917.669 123.939 917.827 123.971C917.995 124.002 918.069 124.045 918.069 124.098V124.341L914.305 124.31C914.169 124.606 913.832 124.882 913.296 125.125C912.76 125.369 912.066 125.591 911.236 125.772L909.859 125.581C909.732 125.56 909.638 125.538 909.554 125.507C909.47 125.475 909.438 125.443 909.438 125.411C909.438 125.369 909.543 125.316 909.753 125.252C909.964 125.189 910.205 125.115 910.468 125.03C910.731 124.945 910.994 124.839 911.257 124.712C911.509 124.596 911.688 124.447 911.772 124.278L902.878 124.193C902.647 124.363 902.384 124.532 902.09 124.702C901.795 124.871 901.417 125.019 900.933 125.157C900.45 125.295 899.861 125.401 899.146 125.486C898.431 125.57 897.538 125.613 896.445 125.623C895.625 125.623 894.836 125.591 894.058 125.528C893.28 125.464 892.587 125.358 891.987 125.231C891.388 125.104 890.894 124.935 890.505 124.744C890.116 124.553 889.906 124.331 889.853 124.076L887.446 124.055C887.236 124.055 887.046 124.034 886.878 124.002C886.71 123.971 886.626 123.928 886.626 123.875V123.631L889.927 123.663C890.074 123.409 890.368 123.187 890.831 122.996C891.283 122.805 891.851 122.636 892.502 122.487L893.606 122.636C893.943 122.678 894.111 122.742 894.111 122.805C894.111 122.837 894.048 122.879 893.901 122.932C893.764 122.985 893.596 123.049 893.407 123.112C893.217 123.187 893.039 123.271 892.86 123.367C892.681 123.462 892.545 123.568 892.46 123.695L900.576 123.748ZM892.439 124.076C892.502 124.235 892.65 124.373 892.881 124.49C893.102 124.606 893.386 124.702 893.722 124.776C894.058 124.85 894.437 124.903 894.847 124.935C895.267 124.966 895.709 124.988 896.161 124.988C896.697 124.988 897.159 124.966 897.559 124.913C897.958 124.871 898.305 124.807 898.6 124.733C898.894 124.659 899.167 124.574 899.388 124.468C899.609 124.373 899.809 124.257 899.987 124.14L892.439 124.076ZM911.793 123.865C911.73 123.706 911.562 123.557 911.309 123.441C911.057 123.324 910.731 123.218 910.342 123.134C909.953 123.049 909.501 122.985 908.976 122.953C908.46 122.911 907.882 122.89 907.262 122.9C906.705 122.9 906.221 122.932 905.822 122.975C905.422 123.017 905.075 123.081 904.781 123.165C904.487 123.25 904.234 123.335 904.035 123.441C903.824 123.547 903.635 123.663 903.456 123.78L911.793 123.865Z" fill="#FCB048"/>
<path d="M903.036 120.527C891.43 120.527 879.351 121.555 877.417 123.547C877.491 123.621 877.564 123.695 877.627 123.769C879.257 122.381 889.233 120.994 903.036 120.994C917.196 120.994 927.33 122.456 928.56 123.875C928.623 123.801 928.686 123.727 928.76 123.653C927.162 121.587 914.852 120.527 903.036 120.527Z" fill="url(#paint25_linear_1474_154497)"/>
<path d="M936.465 127.657L931.756 131.037C930.231 132.128 935.761 142.574 944.087 154.387C952.423 166.179 960.413 174.866 961.926 173.775L966.625 170.406L936.465 127.657Z" fill="url(#paint26_linear_1474_154497)"/>
<path d="M966.636 170.406C965.112 171.497 957.133 162.81 948.797 151.008C940.471 139.205 934.941 128.749 936.466 127.657C937.99 126.566 945.969 135.254 954.305 147.056C962.631 158.869 968.15 169.315 966.636 170.406Z" fill="url(#paint27_linear_1474_154497)"/>
<path d="M948.607 151.145C941.227 140.689 934.499 129.045 936.412 127.679C936.518 127.604 936.728 127.509 936.801 127.615C936.875 127.721 936.696 127.774 936.591 127.859C935.382 128.727 940.165 138.39 948.975 150.88C957.784 163.371 965.28 171.084 966.499 170.215C966.604 170.141 966.72 170.088 966.794 170.194C966.867 170.3 966.709 170.374 966.604 170.448C964.691 171.815 955.987 161.591 948.607 151.145Z" fill="url(#paint28_linear_1474_154497)"/>
<path d="M949.964 147.12C950.258 147.226 950.552 147.353 950.868 147.49C951.172 147.628 951.519 147.84 951.898 148.137C952.276 148.433 952.697 148.836 953.17 149.344C953.643 149.853 954.179 150.531 954.768 151.379C955.356 152.205 955.872 152.999 956.334 153.762C956.786 154.525 957.154 155.224 957.438 155.86C957.711 156.485 957.89 157.036 957.974 157.502C958.048 157.968 958.006 158.307 957.848 158.519L959.519 160.945C959.646 161.125 959.74 161.284 959.803 161.433C959.866 161.592 959.887 161.676 959.845 161.708L959.646 161.846L957.491 158.731C957.175 158.795 956.755 158.678 956.24 158.371C955.724 158.074 955.157 157.629 954.526 157.047L953.885 155.807C953.832 155.69 953.79 155.595 953.769 155.521C953.748 155.436 953.748 155.394 953.78 155.373C953.822 155.341 953.927 155.404 954.095 155.542C954.263 155.68 954.463 155.839 954.694 155.998C954.915 156.167 955.157 156.316 955.399 156.464C955.64 156.602 955.861 156.665 956.05 156.633L950.952 149.281C950.678 149.185 950.384 149.069 950.079 148.931C949.774 148.793 949.427 148.56 949.049 148.243C948.66 147.925 948.229 147.501 947.745 146.961C947.262 146.42 946.705 145.71 946.074 144.821C945.601 144.153 945.159 143.486 944.77 142.808C944.371 142.13 944.056 141.504 943.814 140.932C943.572 140.36 943.414 139.862 943.351 139.428C943.288 138.994 943.341 138.686 943.519 138.506L942.142 136.514C942.016 136.334 941.921 136.175 941.848 136.017C941.774 135.858 941.764 135.762 941.806 135.731L942.006 135.593L943.887 138.316C944.182 138.284 944.529 138.4 944.949 138.665C945.37 138.93 945.832 139.29 946.326 139.746L946.841 140.742C946.999 141.049 947.052 141.218 946.999 141.25C946.967 141.271 946.894 141.24 946.778 141.155C946.652 141.07 946.515 140.975 946.347 140.858C946.179 140.742 946.011 140.646 945.822 140.551C945.643 140.456 945.475 140.413 945.328 140.413L949.964 147.12ZM944.981 140.636C944.886 140.784 944.865 140.985 944.897 141.24C944.928 141.494 945.023 141.769 945.149 142.098C945.285 142.416 945.454 142.755 945.674 143.115C945.885 143.475 946.126 143.846 946.4 144.227C946.715 144.662 946.999 145.032 947.262 145.34C947.525 145.636 947.777 145.891 948.008 146.092C948.239 146.293 948.471 146.463 948.671 146.59C948.881 146.717 949.08 146.812 949.28 146.897L944.981 140.636ZM956.376 156.4C956.471 156.252 956.492 156.04 956.439 155.765C956.387 155.489 956.292 155.161 956.124 154.801C955.966 154.43 955.745 154.027 955.483 153.572C955.22 153.127 954.894 152.639 954.536 152.131C954.211 151.675 953.916 151.294 953.643 150.997C953.37 150.7 953.117 150.446 952.886 150.245C952.655 150.054 952.434 149.895 952.224 149.789C952.013 149.683 951.814 149.588 951.614 149.514L956.376 156.4Z" fill="#FCB048"/>
<path d="M954 147.278C947.272 137.754 939.44 128.42 936.707 127.986C936.696 128.092 936.675 128.187 936.644 128.293C938.704 128.833 945.611 136.218 953.611 147.554C961.832 159.176 966.52 168.351 966.089 170.173C966.184 170.173 966.289 170.184 966.383 170.205C967.119 167.704 960.843 156.972 954 147.278Z" fill="url(#paint29_linear_1474_154497)"/>
</g>
<g clip-path="url(#clip4_1474_154497)">
<path d="M1107.32 32.6184C1107.4 32.6305 1107.47 32.6305 1107.56 32.6305C1108.84 32.6305 1109.94 31.5801 1110.06 30.1916C1112.25 5.39266 1119.79 -18.1748 1131.26 -36.1522C1141.42 -52.0892 1153.51 -61.5911 1163.61 -61.5911C1163.63 -61.5911 1163.64 -61.5911 1163.65 -61.5911C1200.46 -61.5186 1208.17 29.2499 1208.24 30.1675C1208.36 31.6525 1209.57 32.7512 1210.95 32.6305C1212.34 32.4977 1213.36 31.1937 1213.25 29.7087C1212.93 25.7606 1205.05 -66.9034 1163.66 -67C1163.65 -67 1163.64 -67 1163.61 -67C1151.67 -67 1138.37 -56.8703 1127.1 -39.2068C1115.16 -20.4808 1107.33 3.99213 1105.05 29.6845C1104.93 31.1575 1105.94 32.4856 1107.32 32.6184Z" fill="url(#paint30_linear_1474_154497)"/>
<path d="M1260.92 219.456L1212.46 245.8L1183.1 149.031L1231.47 19.3013L1245.18 22.9112L1266 209.229C1266.47 213.455 1264.44 217.536 1260.92 219.456Z" fill="url(#paint31_linear_1474_154497)"/>
<path opacity="0.3" d="M1183.09 149.031L1231.47 19.3013L1239.56 21.4262C1240.68 38.7517 1240.18 52.9984 1239.42 63.3816C1236.18 107.546 1225.41 119.849 1230.62 150.661C1234.96 176.281 1244.43 179.758 1243.6 196.999C1242.7 215.773 1230.51 231.493 1216.01 243.856L1212.44 245.8L1183.09 149.031Z" fill="url(#paint32_linear_1474_154497)"/>
<path d="M1231.47 19.3013L1048.99 29.2378L991 226.639L1212.45 245.8L1231.47 19.3013Z" fill="url(#paint33_linear_1474_154497)"/>
<g opacity="0.3">
<path opacity="0.3" d="M1048.99 29.2381L1144.15 24.0586C1145.76 26.582 1147.88 30.699 1148.28 35.9389C1150.62 66.9799 1086.59 77.025 1080.85 115.117C1076.48 144.117 1103.36 177.585 1127.35 192.496C1152.62 208.204 1169.74 200.247 1186.82 217.693C1194.33 225.36 1198.91 234.934 1201.62 244.871L991 226.64L1048.99 29.2381Z" fill="url(#paint34_linear_1474_154497)"/>
</g>
<path d="M1175.5 37.0733C1176.63 37.0733 1177.67 36.2282 1177.93 34.9846C1178.45 32.6303 1190.32 -22.9199 1173.58 -50.1939C1168.79 -58.0054 1162.09 -62.7745 1153.67 -64.3682C1110.39 -72.554 1083.76 27.2576 1082.65 31.5075C1082.28 32.9442 1083.05 34.4292 1084.39 34.8397C1085.73 35.2502 1087.12 34.4051 1087.49 32.9683C1087.76 31.9783 1113.98 -66.4206 1152.8 -59.0558C1159.91 -57.7157 1165.33 -53.8401 1169.4 -47.2238C1184.96 -21.8815 1173.18 33.1977 1173.06 33.741C1172.74 35.1899 1173.58 36.6387 1174.93 36.9888C1175.12 37.0492 1175.31 37.0733 1175.5 37.0733Z" fill="url(#paint35_linear_1474_154497)"/>
<path d="M1175.48 45.0299C1171.6 45.0299 1168.46 41.6514 1168.46 37.4839C1168.46 33.3164 1171.6 29.938 1175.48 29.938C1179.36 29.938 1182.51 33.3164 1182.51 37.4839C1182.51 41.6514 1179.36 45.0299 1175.48 45.0299Z" fill="url(#paint36_linear_1474_154497)"/>
<path d="M1083.89 44.3297C1080.01 44.3297 1076.87 40.9512 1076.87 36.7837C1076.87 32.6162 1080.01 29.2378 1083.89 29.2378C1087.77 29.2378 1090.92 32.6162 1090.92 36.7837C1090.92 40.9512 1087.77 44.3297 1083.89 44.3297Z" fill="url(#paint37_linear_1474_154497)"/>
<path d="M1035.02 124.22L1091.67 68.9718C1092.86 67.8127 1094.58 67.4867 1096.06 68.1387L1126.3 81.335C1128.84 82.4458 1129.72 85.8505 1128.07 88.2169L1078.73 158.871C1077.36 160.827 1074.8 161.249 1072.94 159.837L1035.39 131.235C1033.23 129.569 1033.04 126.152 1035.02 124.22ZM1099.81 88.398C1101.71 89.7744 1104.72 88.555 1106.53 85.6815C1108.33 82.808 1108.25 79.355 1106.34 77.9665C1104.43 76.5901 1101.42 77.8095 1099.61 80.683C1097.81 83.5686 1097.9 87.0216 1099.81 88.398Z" fill="#D8DEE8"/>
<path d="M1035.02 123.472L1091.68 68.2232C1092.88 67.0642 1094.59 66.7382 1096.08 67.3902L1126.31 80.5865C1128.86 81.6972 1129.74 85.102 1128.08 87.4684L1078.74 158.122C1077.37 160.078 1074.81 160.501 1072.95 159.088L1035.41 130.486C1033.23 128.808 1033.04 125.403 1035.02 123.472ZM1099.81 87.6495C1101.71 89.0259 1104.72 87.8064 1106.53 84.9329C1108.33 82.0595 1108.25 78.6064 1106.34 77.218C1104.43 75.8416 1101.42 77.061 1099.61 79.9345C1097.81 82.8201 1097.9 86.2731 1099.81 87.6495Z" fill="#F4F7FA"/>
<path d="M1111.59 74.0788C1111.77 74.0788 1111.94 73.9701 1112.01 73.8011C1113.98 69.1769 1116.63 65.1806 1119.88 61.9208C1128.81 52.9985 1140.34 51.5979 1151.49 50.2457C1162.59 48.8935 1173.07 47.6258 1179.32 38.788C1180.9 36.5544 1183.37 32.5097 1182.05 30.5659C1181.52 29.7811 1180.47 29.431 1178.91 29.5034C1178.66 29.5155 1178.45 29.7328 1178.47 29.9864C1178.48 30.2399 1178.69 30.4452 1178.95 30.4331C1179.78 30.3969 1180.86 30.4814 1181.28 31.0971C1181.98 32.1355 1180.92 34.9365 1178.56 38.2567C1172.54 46.7444 1162.26 48 1151.37 49.3281C1140.07 50.7045 1128.37 52.1292 1119.22 61.2688C1115.88 64.6132 1113.16 68.7061 1111.16 73.4389C1111.06 73.6804 1111.17 73.946 1111.4 74.0426C1111.46 74.0667 1111.53 74.0788 1111.59 74.0788Z" fill="#26264F"/>
<path d="M1106.75 83.4233C1106.87 83.4233 1106.99 83.375 1107.07 83.2905C1107.26 83.1094 1107.26 82.8197 1107.07 82.6386C1107.04 82.6023 1103.15 78.6784 1103.17 73.4385C1103.19 70.227 1104.65 67.1603 1107.52 64.3351C1113.62 58.3467 1129.78 51.4165 1144.06 45.3073C1152.76 41.5766 1160.99 38.0511 1166.39 35.0086C1167.61 34.3204 1168.91 33.6685 1170.24 33.0648C1170.47 32.9561 1170.58 32.6784 1170.47 32.449C1170.36 32.2196 1170.09 32.111 1169.86 32.2196C1168.5 32.8354 1167.18 33.4994 1165.93 34.1997C1160.57 37.2181 1152.37 40.7315 1143.69 44.4501C1129.35 50.5955 1113.1 57.5619 1106.88 63.6711C1103.83 66.6774 1102.27 69.9614 1102.26 73.4385C1102.24 79.0648 1106.27 83.1215 1106.43 83.2905C1106.51 83.3871 1106.63 83.4233 1106.75 83.4233Z" fill="#26264F"/>
<path d="M1035.02 123.472L1091.68 68.2232C1092.88 67.0642 1094.59 66.7382 1096.08 67.3902L1098.77 68.5613C1098.07 71.1329 1097.01 74.0185 1095.4 76.9644C1087.03 92.3098 1073.31 91.6458 1070.13 102.295C1067.32 111.736 1076.75 116.795 1077.99 130.04C1078.61 136.656 1077.19 145.457 1069.6 156.517L1035.41 130.474C1033.23 128.808 1033.04 125.403 1035.02 123.472Z" fill="white"/>
<path d="M1085.86 104.661C1082.76 109.792 1083.4 114.054 1085.87 115.781C1088.48 117.592 1092.21 116.239 1095 111.627C1097.64 107.245 1097.79 102.62 1094.87 100.592C1091.92 98.5396 1088.4 100.471 1085.86 104.661ZM1092.12 109.406C1090.56 111.977 1088.84 113.402 1087.68 112.593C1086.55 111.808 1087.01 109.756 1088.67 107.003C1090.18 104.516 1091.81 102.922 1093.06 103.78C1094.24 104.601 1093.6 106.955 1092.12 109.406ZM1079.46 125.898L1084.98 93.6982L1082.82 92.189L1077.33 124.413L1079.46 125.898ZM1067.39 106.267C1064.29 111.398 1064.93 115.66 1067.4 117.386C1069.97 119.185 1073.72 117.821 1076.53 113.233C1079.17 108.85 1079.32 104.226 1076.4 102.198C1073.45 100.133 1069.92 102.077 1067.39 106.267ZM1073.62 110.987C1072.1 113.571 1070.37 114.996 1069.21 114.187C1068.08 113.402 1068.54 111.35 1070.2 108.597C1071.71 106.11 1073.32 104.492 1074.56 105.361C1075.77 106.206 1075.1 108.536 1073.62 110.987Z" fill="#D8DEE8"/>
<path d="M1078.27 143.706C1079.03 143.706 1079.76 143.296 1080.19 142.547C1080.83 141.412 1080.49 139.927 1079.43 139.227L1052.14 121.443C1051.08 120.755 1049.7 121.117 1049.05 122.252C1048.41 123.387 1048.75 124.872 1049.81 125.572L1077.1 143.356C1077.47 143.598 1077.87 143.706 1078.27 143.706Z" fill="#D8DEE8"/>
</g>
</g>
<mask id="mask0_1474_154497" style="mask-type:alpha" maskUnits="userSpaceOnUse" x="1333" y="-116" width="113" height="330">
<path d="M1357.02 213.188C1346 193.954 1332.63 163.875 1333.5 127.244C1334.5 85.1843 1353.36 72.9188 1362.95 26.2135C1376.64 -40.4767 1337.74 -78.7285 1361.12 -103.057C1372.52 -114.929 1393.39 -119.229 1408.16 -112.71C1450.29 -94.1037 1463.65 21.899 1414.53 78.3527C1392.31 103.891 1368.83 106.23 1354.41 136.328C1341.67 162.921 1349.28 192.964 1357.02 213.188Z" fill="url(#paint38_linear_1474_154497)"/>
</mask>
<g mask="url(#mask0_1474_154497)">
<path d="M1357.02 213.188C1346 193.954 1332.63 163.875 1333.5 127.244C1334.5 85.1843 1353.36 72.9188 1362.95 26.2135C1376.64 -40.4767 1337.74 -78.7285 1361.12 -103.057C1372.52 -114.929 1393.39 -119.229 1408.16 -112.71C1450.29 -94.1037 1463.65 21.899 1414.53 78.3527C1392.31 103.891 1368.83 106.23 1354.41 136.328C1341.67 162.921 1349.28 192.964 1357.02 213.188Z" fill="url(#paint39_linear_1474_154497)"/>
<path d="M1341.56 162.11C1341.98 152.95 1343.2 143.778 1345.17 134.842C1349.72 114.313 1356.88 102.075 1365.94 86.5985C1371.83 76.5412 1378.5 65.1314 1385.64 49.2887C1399.03 19.6517 1402.97 9.39345 1405.14 -6.22429C1409.48 -37.1728 1402.57 -62.7008 1398.09 -75.1743C1391.71 -92.8788 1382.03 -108.963 1369.31 -122.996L1369.77 -123.402C1382.54 -109.306 1392.26 -93.146 1398.68 -75.3987C1403.17 -62.8724 1410.11 -37.2356 1405.76 -6.15181C1403.57 9.5484 1399.63 19.8231 1386.21 49.5393C1379.04 65.4117 1372.37 76.8379 1366.48 86.9117C1357.44 102.342 1350.32 114.554 1345.78 134.981C1343.81 143.883 1342.58 153.019 1342.17 162.146L1341.56 162.11Z" fill="white"/>
<path d="M1390 41.4973C1389.73 41.4446 1389.6 41.4182 1389.59 41.4149L1389.34 41.3655L1389.36 41.1115C1390.54 19.1381 1382.63 4.74533 1375.79 -3.44673C1368.38 -12.338 1360.58 -16.0739 1360.5 -16.1069L1360.77 -16.6544C1360.85 -16.6214 1368.75 -12.8295 1376.25 -3.85249C1383.14 4.40223 1391.11 18.8576 1390 40.897C1390.03 40.9036 1390.05 40.9069 1390.08 40.9135C1393.81 41.6584 1428.06 47.6303 1450.48 21.3762L1450.95 21.7785C1438.45 36.3455 1422.44 40.9158 1411.2 42.1673C1400.48 43.3858 1391.93 41.883 1390 41.4973Z" fill="white"/>
<path d="M1378.25 86.4845C1371.86 85.209 1368.3 83.1249 1368.25 83.0985L1368.07 82.993L1368.11 82.7786C1373 59.6931 1352.97 27.6825 1352.76 27.3659L1353.27 27.0393C1353.48 27.3559 1373.51 59.383 1368.75 82.6829C1369.83 83.2764 1375.63 86.1683 1385.04 86.7442C1394.67 87.3498 1410.17 85.5765 1429.31 73.7594L1429.63 74.2707C1410.32 86.19 1394.69 87.9699 1384.95 87.3445C1382.47 87.2096 1380.22 86.8801 1378.25 86.4845Z" fill="white"/>
</g>
<mask id="mask1_1474_154497" style="mask-type:alpha" maskUnits="userSpaceOnUse" x="1322" y="-53" width="194" height="239">
<path d="M1329.38 185.163C1324.24 171.77 1318.48 150.397 1325.76 128.717C1338.5 90.89 1376.67 94.7109 1403.56 51.4633C1425.25 16.5743 1411.86 -4.2989 1438.56 -30.0061C1443.02 -34.311 1466.49 -57.7651 1488.88 -51.1451C1501.5 -47.423 1508.19 -35.8304 1509.45 -33.6405C1528.41 -0.729271 1503.8 61.9616 1462.12 96.9028C1438.18 116.97 1428.5 114.006 1384.59 140.715C1358.8 156.398 1340.53 173.516 1329.38 185.163Z" fill="url(#paint40_linear_1474_154497)"/>
</mask>
<g mask="url(#mask1_1474_154497)">
<path d="M1329.38 185.163C1324.24 171.77 1318.48 150.397 1325.76 128.717C1338.5 90.89 1376.67 94.7109 1403.56 51.4633C1425.25 16.5743 1411.86 -4.2989 1438.56 -30.0061C1443.02 -34.311 1466.49 -57.7651 1488.88 -51.1451C1501.5 -47.423 1508.19 -35.8304 1509.45 -33.6405C1528.41 -0.729271 1503.8 61.9616 1462.12 96.9028C1438.18 116.97 1428.5 114.006 1384.59 140.715C1358.8 156.398 1340.53 173.516 1329.38 185.163Z" fill="url(#paint41_linear_1474_154497)"/>
<path d="M1328.2 202.678C1328.28 168.118 1336.79 143.149 1353.49 128.496C1361.66 121.314 1368.86 118.961 1376.49 116.473C1384.67 113.804 1393.15 111.039 1403.17 101.756C1412.91 92.7439 1415.55 85.451 1418.92 76.212C1421.96 67.8999 1425.7 57.5526 1435.89 42.6957C1444.81 29.6761 1451.89 22.9961 1458.13 17.0913C1464.88 10.7049 1470.2 5.66434 1475.39 -5.06573C1483.83 -22.5874 1485.87 -43.2582 1481.47 -66.4842L1482.06 -66.6063C1486.5 -43.2517 1484.43 -22.449 1475.94 -4.81843C1470.72 6.00729 1465.35 11.0907 1458.56 17.52C1452.34 23.3951 1445.3 30.0652 1436.41 43.0221C1426.27 57.8032 1422.53 68.1175 1419.52 76.3999C1416.13 85.7214 1413.46 93.0769 1403.61 102.188C1393.49 111.553 1384.96 114.342 1376.72 117.034C1369.16 119.502 1362.02 121.832 1353.93 128.928C1337.37 143.472 1328.93 168.283 1328.86 202.655L1328.2 202.678Z" fill="white"/>
<path d="M1455.25 20.2712L1455.29 19.8688C1455.35 19.3839 1460.76 -29.6329 1439.92 -45.1519L1440.29 -45.6434C1460.39 -30.685 1456.42 14.7431 1455.94 19.5191C1481.24 15.0036 1497.99 1.63004 1507.61 -8.83017C1518.08 -20.2173 1522.56 -30.6768 1522.61 -30.7692L1523.16 -30.5384C1523.12 -30.4262 1518.6 -19.8744 1508.06 -8.41464C1498.33 2.16102 1481.35 15.7127 1455.66 20.1821L1455.25 20.2712Z" fill="white"/>
<path d="M1426.66 59.2873C1426.51 59.2577 1426.43 59.2412 1426.43 59.2412L1426.17 59.1884L1426.18 58.9345C1427.06 45.6983 1423.95 30.4803 1421.18 20.0482C1418.17 8.7288 1414.92 0.447199 1414.89 0.371343L1415.45 0.140387C1415.49 0.216243 1418.74 8.53413 1421.76 19.8898C1424.53 30.3054 1427.63 45.4508 1426.8 58.6969C1428.69 59.076 1441.01 61.3139 1457.52 59.5372C1474.01 57.7572 1498.19 51.5102 1519.69 31.7439L1520.1 32.1859C1498.46 52.061 1474.15 58.3508 1457.55 60.1276C1440.92 61.9307 1428.49 59.6532 1426.66 59.2873Z" fill="white"/>
<path d="M1400.7 119.409C1389.98 117.267 1383.92 114.546 1383.78 114.484L1383.48 114.355L1383.62 114.075C1397.24 88.1384 1382.61 52.8848 1382.46 52.5286L1383.02 52.2976C1383.17 52.6538 1397.81 87.8909 1384.31 114.058C1387.58 115.45 1417.95 127.488 1462.48 117.316L1462.62 117.91C1436.06 123.973 1414.52 122.171 1400.7 119.409Z" fill="white"/>
</g>
<path d="M1326.47 173.501C1333.04 166.375 1344.01 155.757 1359.73 146.259C1387.7 129.348 1402.84 132.819 1413 117.424C1423.51 101.499 1412.26 90.2465 1425.07 72.2427C1426.14 70.7253 1439.97 51.7945 1456.54 54.3848C1468.13 56.1874 1474.83 67.559 1477.98 72.8887C1490.19 93.5773 1492.73 128.404 1472.43 150.02C1453.17 170.509 1423.12 168.824 1413.57 168.218C1396.8 167.165 1391.76 161.75 1374.81 161.158C1354.21 160.419 1337.29 167.569 1326.47 173.501Z" fill="url(#paint42_linear_1474_154497)"/>
<g clip-path="url(#clip5_1474_154497)">
<path d="M1316.56 173.463L1312.96 173.752C1312.03 173.832 1311.1 173.784 1310.17 173.64L1295.91 171.296L1295.67 171.264L1279.08 168.55H1278.99L1266 166.447V93.3662H1279.07H1279.1L1295.67 94.185L1295.91 94.3134L1315.96 95.0841L1316.56 173.463Z" fill="url(#paint43_linear_1474_154497)"/>
<path d="M1367 98.0061V166.222C1367 168.663 1365.12 170.654 1362.7 170.798L1315.13 173.64C1313.2 173.752 1311.56 172.163 1311.56 170.172V99.0979C1311.56 97.1071 1313.12 95.4695 1315.05 95.4053L1362.97 94.0727C1365.19 94.0246 1367 95.7906 1367 98.0061Z" fill="url(#paint44_linear_1474_154497)"/>
<path d="M1266.1 93.3665L1311.55 95.5178L1362.95 94.0889L1310.26 92.3711L1266.1 93.3665Z" fill="url(#paint45_linear_1474_154497)"/>
<path opacity="0.3" d="M1362.89 94.0891L1325.37 95.1326C1323.23 95.1969 1321.49 96.995 1321.5 99.1784C1321.5 102.823 1322.11 106.58 1323.72 110.208C1329.06 122.313 1341.01 122.763 1343.48 133.857C1345.55 143.104 1338.21 147.086 1337.44 158.918C1337.23 162.016 1337.51 165.372 1338.44 168.952C1338.92 170.83 1340.69 172.115 1342.6 172.002L1363.26 170.766C1365.38 170.638 1367.02 168.904 1367.02 166.769V98.0867C1367 95.8069 1365.15 94.0249 1362.89 94.0891Z" fill="url(#paint46_linear_1474_154497)"/>
<path d="M1328.23 172.853L1345.87 171.81V94.5547L1328.23 95.0524V172.853Z" fill="url(#paint47_linear_1474_154497)"/>
<path d="M1329.03 172.805L1345.87 171.81V94.5547L1329.03 95.0203V172.805Z" fill="url(#paint48_linear_1474_154497)"/>
<path d="M1295.43 94.4097V171.296L1279.28 168.55V93.9762L1284.41 93.8799L1295.43 94.4097Z" fill="url(#paint49_linear_1474_154497)"/>
<path d="M1297.08 92.6602L1346.26 95.4537H1328.58L1285.59 92.917L1297.08 92.6602Z" fill="url(#paint50_linear_1474_154497)"/>
<path d="M1321.02 90.2999C1322.16 83.284 1322.99 78.1626 1327.59 73.4265C1329.51 71.4357 1331.63 69.2523 1335.08 68.6743C1339.06 68.016 1344.14 69.5733 1345.53 72.8324C1346.85 75.9149 1343.74 77.9218 1345.07 81.4699C1346.4 85.034 1350.27 84.9537 1350.69 87.8275C1351.04 90.2678 1348.67 93.0292 1346.27 94.3297C1342.13 96.5613 1339.77 93.4145 1331.68 93.9283C1326.09 94.2815 1322.88 96.0475 1321.37 94.2654C1320.63 93.3985 1320.7 92.2265 1321.02 90.2999Z" fill="url(#paint51_linear_1474_154497)"/>
<g opacity="0.3">
<path opacity="0.3" d="M1343.18 87.5544C1338.18 85.6439 1335.61 81.4857 1333.4 82.465C1331.42 83.332 1332.63 86.9925 1330.32 89.9626C1328.2 92.6758 1324.33 93.318 1320.89 93.318C1320.97 93.6712 1321.12 93.9763 1321.34 94.2331C1322.85 96.0152 1326.08 94.2492 1331.65 93.896C1339.74 93.3822 1342.1 96.5289 1346.24 94.2973C1348.44 93.1093 1350.62 90.685 1350.69 88.4053C1348.38 88.6782 1345.78 88.5498 1343.18 87.5544Z" fill="url(#paint52_linear_1474_154497)"/>
</g>
<path d="M1290.82 72.9609C1294.18 70.3119 1297.72 73.266 1301.87 70.344C1306.06 67.3899 1304.84 62.6538 1308.1 61.3052C1311.87 59.7479 1317.47 64.5162 1320.15 67.5344C1326.96 75.2086 1330.15 88.8551 1324.78 93.6554C1322.75 95.4535 1317.04 94.715 1305.7 93.1577C1292.73 91.3756 1290.87 90.1073 1289.63 88.4376C1286.26 83.9263 1287.02 75.9631 1290.82 72.9609Z" fill="url(#paint53_linear_1474_154497)"/>
<g opacity="0.3">
<path opacity="0.3" d="M1312.11 78.7243C1310.25 78.1303 1309.4 80.2816 1305.54 81.1325C1304.84 81.2931 1298.06 82.7059 1294.43 78.4514C1292.99 76.7657 1292.31 74.502 1292.39 72.0938C1291.86 72.2704 1291.33 72.5593 1290.82 72.9607C1287.02 75.9629 1286.28 83.9261 1289.62 88.4214C1290.85 90.091 1292.73 91.3594 1305.69 93.1414C1317.04 94.6987 1322.75 95.4373 1324.76 93.6391C1325.03 93.3983 1325.27 93.1254 1325.5 92.8364C1322.77 92.7401 1319.93 92.0818 1317.86 90.091C1313.89 86.2379 1315.29 79.7197 1312.11 78.7243Z" fill="url(#paint54_linear_1474_154497)"/>
</g>
<path d="M1312.91 94.1051L1295.67 94.7633L1279.07 93.9766L1284.43 93.8803L1307.93 93.4629L1312.91 94.1051Z" fill="url(#paint55_linear_1474_154497)"/>
</g>
</g>
<path d="M132.202 69V39.9091H144.332C146.51 39.9091 148.333 40.2169 149.801 40.8324C151.278 41.4479 152.386 42.3097 153.125 43.4176C153.873 44.5256 154.247 45.8087 154.247 47.267C154.247 48.375 154.015 49.3646 153.551 50.2358C153.087 51.0975 152.448 51.8125 151.634 52.3807C150.819 52.9489 149.877 53.3466 148.807 53.5739V53.858C149.981 53.9148 151.065 54.232 152.06 54.8097C153.063 55.3873 153.868 56.1922 154.474 57.2244C155.08 58.2472 155.384 59.4593 155.384 60.8608C155.384 62.4233 154.986 63.8201 154.19 65.0511C153.395 66.2727 152.244 67.2386 150.739 67.9489C149.233 68.6496 147.405 69 145.256 69H132.202ZM139.233 63.3324H143.58C145.104 63.3324 146.226 63.0436 146.946 62.4659C147.675 61.8883 148.04 61.0833 148.04 60.0511C148.04 59.303 147.865 58.6591 147.514 58.1193C147.164 57.5701 146.667 57.1487 146.023 56.8551C145.379 56.5521 144.607 56.4006 143.707 56.4006H139.233V63.3324ZM139.233 51.8693H143.125C143.892 51.8693 144.574 51.7415 145.17 51.4858C145.767 51.2301 146.231 50.8608 146.562 50.3778C146.903 49.8949 147.074 49.3125 147.074 48.6307C147.074 47.6553 146.728 46.8883 146.037 46.3295C145.346 45.7708 144.413 45.4915 143.239 45.4915H139.233V51.8693ZM172.841 59.5824V47.1818H179.773V69H173.153V64.9375H172.926C172.443 66.2727 171.619 67.3333 170.455 68.1193C169.299 68.8958 167.902 69.2841 166.264 69.2841C164.777 69.2841 163.471 68.9432 162.344 68.2614C161.217 67.5795 160.341 66.6278 159.716 65.4062C159.091 64.1752 158.774 62.7358 158.764 61.0881V47.1818H165.71V59.7244C165.72 60.9081 166.032 61.8409 166.648 62.5227C167.263 63.2045 168.101 63.5455 169.162 63.5455C169.853 63.5455 170.473 63.3939 171.023 63.0909C171.581 62.7784 172.022 62.3286 172.344 61.7415C172.675 61.1449 172.841 60.4252 172.841 59.5824ZM188.441 77.1818C187.608 77.1818 186.822 77.1155 186.083 76.983C185.344 76.8598 184.71 76.6941 184.18 76.4858L185.714 71.4432C186.396 71.6705 187.011 71.803 187.56 71.8409C188.119 71.8788 188.597 71.7888 188.995 71.571C189.402 71.3627 189.715 70.9886 189.933 70.4489L190.202 69.7955L182.447 47.1818H189.719L193.739 62.75H193.967L198.043 47.1818H205.359L197.134 71.0881C196.737 72.2813 196.173 73.3324 195.444 74.2415C194.724 75.16 193.791 75.8797 192.646 76.4006C191.509 76.9214 190.108 77.1818 188.441 77.1818Z" fill="white"/>
<path opacity="0.8" d="M131.598 115V100.455H140.717V102.344H133.793V106.776H140.241V108.658H133.793V113.111H140.803V115H131.598ZM145.154 104.091L147.562 108.338L149.991 104.091H152.314L148.912 109.545L152.342 115H150.02L147.562 110.923L145.112 115H142.782L146.177 109.545L142.825 104.091H145.154ZM154.494 119.091V104.091H156.568V105.859H156.745C156.868 105.632 157.046 105.369 157.278 105.071C157.51 104.773 157.832 104.512 158.244 104.29C158.656 104.062 159.2 103.949 159.877 103.949C160.758 103.949 161.544 104.171 162.235 104.616C162.927 105.062 163.469 105.703 163.862 106.541C164.26 107.379 164.458 108.388 164.458 109.567C164.458 110.746 164.262 111.757 163.869 112.599C163.476 113.437 162.936 114.084 162.25 114.538C161.563 114.988 160.779 115.213 159.899 115.213C159.236 115.213 158.694 115.102 158.272 114.879C157.856 114.657 157.529 114.396 157.292 114.098C157.056 113.8 156.873 113.535 156.745 113.303H156.618V119.091H154.494ZM156.575 109.545C156.575 110.312 156.686 110.985 156.909 111.562C157.131 112.14 157.453 112.592 157.875 112.919C158.296 113.241 158.812 113.402 159.423 113.402C160.057 113.402 160.588 113.234 161.014 112.898C161.44 112.557 161.762 112.095 161.98 111.513C162.202 110.93 162.314 110.275 162.314 109.545C162.314 108.826 162.205 108.179 161.987 107.607C161.774 107.034 161.452 106.581 161.021 106.25C160.595 105.919 160.062 105.753 159.423 105.753C158.807 105.753 158.287 105.911 157.86 106.229C157.439 106.546 157.119 106.989 156.902 107.557C156.684 108.125 156.575 108.788 156.575 109.545ZM168.961 100.455V115H166.838V100.455H168.961ZM176.413 115.22C175.391 115.22 174.498 114.986 173.736 114.517C172.973 114.048 172.382 113.393 171.96 112.55C171.539 111.707 171.328 110.722 171.328 109.595C171.328 108.464 171.539 107.474 171.96 106.626C172.382 105.779 172.973 105.121 173.736 104.652C174.498 104.183 175.391 103.949 176.413 103.949C177.436 103.949 178.329 104.183 179.091 104.652C179.853 105.121 180.445 105.779 180.866 106.626C181.288 107.474 181.499 108.464 181.499 109.595C181.499 110.722 181.288 111.707 180.866 112.55C180.445 113.393 179.853 114.048 179.091 114.517C178.329 114.986 177.436 115.22 176.413 115.22ZM176.42 113.438C177.083 113.438 177.633 113.262 178.068 112.912C178.504 112.562 178.826 112.095 179.034 111.513C179.247 110.93 179.354 110.289 179.354 109.588C179.354 108.892 179.247 108.253 179.034 107.67C178.826 107.083 178.504 106.612 178.068 106.257C177.633 105.902 177.083 105.724 176.42 105.724C175.753 105.724 175.199 105.902 174.759 106.257C174.323 106.612 173.999 107.083 173.786 107.67C173.577 108.253 173.473 108.892 173.473 109.588C173.473 110.289 173.577 110.93 173.786 111.513C173.999 112.095 174.323 112.562 174.759 112.912C175.199 113.262 175.753 113.438 176.42 113.438ZM183.869 115V104.091H185.922V105.824H186.035C186.234 105.237 186.584 104.775 187.086 104.439C187.593 104.098 188.166 103.928 188.805 103.928C188.938 103.928 189.094 103.932 189.274 103.942C189.458 103.951 189.603 103.963 189.707 103.977V106.009C189.622 105.985 189.47 105.959 189.252 105.93C189.035 105.897 188.817 105.881 188.599 105.881C188.097 105.881 187.65 105.987 187.257 106.2C186.868 106.409 186.561 106.7 186.333 107.074C186.106 107.443 185.993 107.865 185.993 108.338V115H183.869ZM195.856 115.22C194.781 115.22 193.855 114.991 193.079 114.531C192.307 114.067 191.71 113.416 191.289 112.578C190.872 111.735 190.664 110.748 190.664 109.616C190.664 108.499 190.872 107.514 191.289 106.662C191.71 105.81 192.298 105.144 193.05 104.666C193.808 104.188 194.693 103.949 195.707 103.949C196.322 103.949 196.919 104.051 197.496 104.254C198.074 104.458 198.593 104.777 199.052 105.213C199.511 105.649 199.873 106.214 200.138 106.911C200.404 107.602 200.536 108.442 200.536 109.432V110.185H191.864V108.594H198.455C198.455 108.035 198.342 107.54 198.114 107.109C197.887 106.674 197.567 106.33 197.156 106.08C196.748 105.829 196.27 105.703 195.721 105.703C195.124 105.703 194.603 105.85 194.158 106.143C193.718 106.432 193.377 106.811 193.136 107.28C192.899 107.744 192.781 108.248 192.781 108.793V110.036C192.781 110.765 192.908 111.385 193.164 111.896C193.424 112.408 193.787 112.798 194.251 113.068C194.715 113.333 195.257 113.466 195.877 113.466C196.28 113.466 196.647 113.409 196.978 113.295C197.309 113.177 197.596 113.002 197.837 112.77C198.079 112.538 198.263 112.251 198.391 111.911L200.401 112.273C200.24 112.865 199.951 113.383 199.535 113.828C199.123 114.268 198.604 114.612 197.979 114.858C197.359 115.099 196.651 115.22 195.856 115.22ZM211.36 115.241C210.669 115.241 210.044 115.114 209.485 114.858C208.926 114.598 208.484 114.221 208.157 113.729C207.835 113.236 207.674 112.633 207.674 111.918C207.674 111.302 207.792 110.795 208.029 110.398C208.266 110 208.585 109.685 208.988 109.453C209.39 109.221 209.84 109.046 210.337 108.928C210.835 108.809 211.341 108.719 211.857 108.658C212.511 108.582 213.041 108.52 213.448 108.473C213.855 108.421 214.151 108.338 214.336 108.224C214.521 108.111 214.613 107.926 214.613 107.67V107.621C214.613 107 214.438 106.52 214.087 106.179C213.742 105.838 213.226 105.668 212.539 105.668C211.824 105.668 211.261 105.826 210.849 106.143C210.442 106.456 210.16 106.804 210.004 107.188L208.008 106.733C208.245 106.07 208.59 105.535 209.045 105.128C209.504 104.716 210.032 104.418 210.629 104.233C211.225 104.044 211.853 103.949 212.511 103.949C212.946 103.949 213.408 104.001 213.896 104.105C214.388 104.205 214.847 104.389 215.273 104.659C215.704 104.929 216.057 105.315 216.332 105.817C216.606 106.314 216.744 106.96 216.744 107.756V115H214.67V113.509H214.585C214.447 113.783 214.241 114.053 213.967 114.318C213.692 114.583 213.339 114.804 212.908 114.979C212.478 115.154 211.961 115.241 211.36 115.241ZM211.822 113.537C212.409 113.537 212.911 113.421 213.327 113.189C213.749 112.957 214.068 112.654 214.286 112.28C214.509 111.901 214.62 111.496 214.62 111.065V109.659C214.544 109.735 214.397 109.806 214.18 109.872C213.967 109.934 213.723 109.988 213.448 110.036C213.174 110.078 212.906 110.118 212.646 110.156C212.385 110.189 212.167 110.218 211.992 110.241C211.58 110.294 211.204 110.381 210.863 110.504C210.527 110.627 210.257 110.805 210.053 111.037C209.854 111.264 209.755 111.567 209.755 111.946C209.755 112.472 209.949 112.869 210.337 113.139C210.726 113.404 211.22 113.537 211.822 113.537ZM224.865 115V104.091H226.918V105.824H227.031C227.23 105.237 227.58 104.775 228.082 104.439C228.589 104.098 229.162 103.928 229.801 103.928C229.934 103.928 230.09 103.932 230.27 103.942C230.455 103.951 230.599 103.963 230.703 103.977V106.009C230.618 105.985 230.466 105.959 230.249 105.93C230.031 105.897 229.813 105.881 229.595 105.881C229.093 105.881 228.646 105.987 228.253 106.2C227.865 106.409 227.557 106.7 227.33 107.074C227.102 107.443 226.989 107.865 226.989 108.338V115H224.865ZM235.618 115.241C234.927 115.241 234.302 115.114 233.743 114.858C233.184 114.598 232.741 114.221 232.415 113.729C232.093 113.236 231.932 112.633 231.932 111.918C231.932 111.302 232.05 110.795 232.287 110.398C232.524 110 232.843 109.685 233.246 109.453C233.648 109.221 234.098 109.046 234.595 108.928C235.092 108.809 235.599 108.719 236.115 108.658C236.768 108.582 237.299 108.52 237.706 108.473C238.113 108.421 238.409 108.338 238.594 108.224C238.778 108.111 238.871 107.926 238.871 107.67V107.621C238.871 107 238.696 106.52 238.345 106.179C238 105.838 237.483 105.668 236.797 105.668C236.082 105.668 235.518 105.826 235.107 106.143C234.699 106.456 234.418 106.804 234.261 107.188L232.266 106.733C232.502 106.07 232.848 105.535 233.303 105.128C233.762 104.716 234.29 104.418 234.886 104.233C235.483 104.044 236.11 103.949 236.768 103.949C237.204 103.949 237.666 104.001 238.153 104.105C238.646 104.205 239.105 104.389 239.531 104.659C239.962 104.929 240.315 105.315 240.589 105.817C240.864 106.314 241.001 106.96 241.001 107.756V115H238.928V113.509H238.842C238.705 113.783 238.499 114.053 238.224 114.318C237.95 114.583 237.597 114.804 237.166 114.979C236.735 115.154 236.219 115.241 235.618 115.241ZM236.08 113.537C236.667 113.537 237.169 113.421 237.585 113.189C238.007 112.957 238.326 112.654 238.544 112.28C238.767 111.901 238.878 111.496 238.878 111.065V109.659C238.802 109.735 238.655 109.806 238.438 109.872C238.224 109.934 237.981 109.988 237.706 110.036C237.431 110.078 237.164 110.118 236.903 110.156C236.643 110.189 236.425 110.218 236.25 110.241C235.838 110.294 235.462 110.381 235.121 110.504C234.785 110.627 234.515 110.805 234.311 111.037C234.112 111.264 234.013 111.567 234.013 111.946C234.013 112.472 234.207 112.869 234.595 113.139C234.983 113.404 235.478 113.537 236.08 113.537ZM245.953 108.523V115H243.83V104.091H245.868V105.866H246.003C246.254 105.289 246.647 104.825 247.182 104.474C247.722 104.124 248.401 103.949 249.221 103.949C249.964 103.949 250.615 104.105 251.174 104.418C251.732 104.725 252.166 105.185 252.473 105.795C252.781 106.406 252.935 107.161 252.935 108.061V115H250.811V108.317C250.811 107.526 250.605 106.908 250.194 106.463C249.782 106.013 249.216 105.788 248.496 105.788C248.004 105.788 247.566 105.895 247.182 106.108C246.803 106.321 246.503 106.634 246.28 107.045C246.062 107.453 245.953 107.945 245.953 108.523ZM260.357 119.318C259.49 119.318 258.745 119.205 258.12 118.977C257.499 118.75 256.993 118.449 256.6 118.075C256.207 117.701 255.913 117.292 255.719 116.847L257.544 116.094C257.672 116.302 257.843 116.522 258.056 116.754C258.274 116.991 258.567 117.192 258.936 117.358C259.31 117.524 259.791 117.607 260.378 117.607C261.183 117.607 261.848 117.41 262.374 117.017C262.9 116.629 263.162 116.009 263.162 115.156V113.011H263.027C262.9 113.243 262.715 113.501 262.473 113.786C262.237 114.07 261.91 114.316 261.493 114.524C261.077 114.732 260.534 114.837 259.867 114.837C259.005 114.837 258.229 114.635 257.537 114.233C256.851 113.826 256.306 113.227 255.904 112.436C255.506 111.641 255.307 110.663 255.307 109.503C255.307 108.343 255.504 107.348 255.897 106.52C256.294 105.691 256.839 105.057 257.53 104.616C258.221 104.171 259.005 103.949 259.881 103.949C260.558 103.949 261.105 104.062 261.522 104.29C261.938 104.512 262.263 104.773 262.495 105.071C262.731 105.369 262.914 105.632 263.042 105.859H263.198V104.091H265.279V115.241C265.279 116.179 265.061 116.948 264.625 117.55C264.19 118.151 263.6 118.596 262.857 118.885C262.118 119.174 261.285 119.318 260.357 119.318ZM260.336 113.075C260.946 113.075 261.462 112.933 261.884 112.649C262.31 112.36 262.632 111.948 262.85 111.413C263.072 110.874 263.184 110.227 263.184 109.474C263.184 108.741 263.075 108.094 262.857 107.536C262.639 106.977 262.319 106.541 261.898 106.229C261.477 105.911 260.956 105.753 260.336 105.753C259.696 105.753 259.164 105.919 258.738 106.25C258.311 106.577 257.989 107.022 257.772 107.585C257.559 108.149 257.452 108.778 257.452 109.474C257.452 110.189 257.561 110.817 257.779 111.357C257.997 111.896 258.319 112.318 258.745 112.621C259.176 112.924 259.706 113.075 260.336 113.075ZM272.828 115.22C271.754 115.22 270.828 114.991 270.051 114.531C269.28 114.067 268.683 113.416 268.262 112.578C267.845 111.735 267.637 110.748 267.637 109.616C267.637 108.499 267.845 107.514 268.262 106.662C268.683 105.81 269.27 105.144 270.023 104.666C270.781 104.188 271.666 103.949 272.679 103.949C273.295 103.949 273.891 104.051 274.469 104.254C275.047 104.458 275.565 104.777 276.025 105.213C276.484 105.649 276.846 106.214 277.111 106.911C277.376 107.602 277.509 108.442 277.509 109.432V110.185H268.837V108.594H275.428C275.428 108.035 275.314 107.54 275.087 107.109C274.86 106.674 274.54 106.33 274.128 106.08C273.721 105.829 273.243 105.703 272.694 105.703C272.097 105.703 271.576 105.85 271.131 106.143C270.691 106.432 270.35 106.811 270.108 107.28C269.872 107.744 269.753 108.248 269.753 108.793V110.036C269.753 110.765 269.881 111.385 270.137 111.896C270.397 112.408 270.759 112.798 271.223 113.068C271.687 113.333 272.23 113.466 272.85 113.466C273.252 113.466 273.619 113.409 273.951 113.295C274.282 113.177 274.569 113.002 274.81 112.77C275.051 112.538 275.236 112.251 275.364 111.911L277.374 112.273C277.213 112.865 276.924 113.383 276.507 113.828C276.096 114.268 275.577 114.612 274.952 114.858C274.332 115.099 273.624 115.22 272.828 115.22ZM289.753 115.22C288.73 115.22 287.838 114.986 287.076 114.517C286.313 114.048 285.721 113.393 285.3 112.55C284.879 111.707 284.668 110.722 284.668 109.595C284.668 108.464 284.879 107.474 285.3 106.626C285.721 105.779 286.313 105.121 287.076 104.652C287.838 104.183 288.73 103.949 289.753 103.949C290.776 103.949 291.668 104.183 292.431 104.652C293.193 105.121 293.785 105.779 294.206 106.626C294.628 107.474 294.838 108.464 294.838 109.595C294.838 110.722 294.628 111.707 294.206 112.55C293.785 113.393 293.193 114.048 292.431 114.517C291.668 114.986 290.776 115.22 289.753 115.22ZM289.76 113.438C290.423 113.438 290.972 113.262 291.408 112.912C291.844 112.562 292.166 112.095 292.374 111.513C292.587 110.93 292.694 110.289 292.694 109.588C292.694 108.892 292.587 108.253 292.374 107.67C292.166 107.083 291.844 106.612 291.408 106.257C290.972 105.902 290.423 105.724 289.76 105.724C289.093 105.724 288.539 105.902 288.098 106.257C287.663 106.612 287.338 107.083 287.125 107.67C286.917 108.253 286.813 108.892 286.813 109.588C286.813 110.289 286.917 110.93 287.125 111.513C287.338 112.095 287.663 112.562 288.098 112.912C288.539 113.262 289.093 113.438 289.76 113.438ZM302.401 104.091V105.795H296.236V104.091H302.401ZM297.926 115V102.827C297.926 102.145 298.075 101.579 298.374 101.129C298.672 100.675 299.067 100.336 299.56 100.114C300.052 99.8864 300.587 99.7727 301.165 99.7727C301.591 99.7727 301.955 99.8082 302.259 99.8793C302.562 99.9455 302.786 100.007 302.933 100.064L302.436 101.783C302.337 101.754 302.209 101.721 302.053 101.683C301.896 101.641 301.707 101.619 301.484 101.619C300.968 101.619 300.599 101.747 300.376 102.003C300.159 102.259 300.05 102.628 300.05 103.111V115H297.926ZM309.885 115V104.091H312.008V115H309.885ZM310.957 102.408C310.588 102.408 310.27 102.285 310.005 102.038C309.745 101.787 309.615 101.489 309.615 101.143C309.615 100.793 309.745 100.495 310.005 100.249C310.27 99.9976 310.588 99.8722 310.957 99.8722C311.326 99.8722 311.641 99.9976 311.902 100.249C312.167 100.495 312.299 100.793 312.299 101.143C312.299 101.489 312.167 101.787 311.902 102.038C311.641 102.285 311.326 102.408 310.957 102.408ZM319.957 104.091V105.795H313.999V104.091H319.957ZM315.597 101.477H317.72V111.797C317.72 112.209 317.782 112.519 317.905 112.727C318.028 112.931 318.187 113.071 318.381 113.146C318.58 113.217 318.795 113.253 319.027 113.253C319.197 113.253 319.347 113.241 319.474 113.217C319.602 113.194 319.702 113.175 319.773 113.161L320.156 114.915C320.033 114.962 319.858 115.009 319.631 115.057C319.403 115.109 319.119 115.137 318.778 115.142C318.22 115.152 317.699 115.052 317.216 114.844C316.733 114.635 316.342 114.313 316.044 113.878C315.746 113.442 315.597 112.895 315.597 112.237V101.477ZM326.891 115.22C325.816 115.22 324.891 114.991 324.114 114.531C323.342 114.067 322.746 113.416 322.324 112.578C321.908 111.735 321.699 110.748 321.699 109.616C321.699 108.499 321.908 107.514 322.324 106.662C322.746 105.81 323.333 105.144 324.086 104.666C324.843 104.188 325.729 103.949 326.742 103.949C327.357 103.949 327.954 104.051 328.532 104.254C329.109 104.458 329.628 104.777 330.087 105.213C330.546 105.649 330.908 106.214 331.174 106.911C331.439 107.602 331.571 108.442 331.571 109.432V110.185H322.9V108.594H329.49C329.49 108.035 329.377 107.54 329.15 107.109C328.922 106.674 328.603 106.33 328.191 106.08C327.783 105.829 327.305 105.703 326.756 105.703C326.159 105.703 325.639 105.85 325.194 106.143C324.753 106.432 324.412 106.811 324.171 107.28C323.934 107.744 323.816 108.248 323.816 108.793V110.036C323.816 110.765 323.944 111.385 324.199 111.896C324.46 112.408 324.822 112.798 325.286 113.068C325.75 113.333 326.292 113.466 326.912 113.466C327.315 113.466 327.682 113.409 328.013 113.295C328.345 113.177 328.631 113.002 328.873 112.77C329.114 112.538 329.299 112.251 329.426 111.911L331.436 112.273C331.275 112.865 330.987 113.383 330.57 113.828C330.158 114.268 329.64 114.612 329.015 114.858C328.394 115.099 327.686 115.22 326.891 115.22ZM333.928 115V104.091H335.966V105.866H336.101C336.328 105.265 336.7 104.796 337.216 104.46C337.732 104.119 338.35 103.949 339.07 103.949C339.799 103.949 340.41 104.119 340.902 104.46C341.399 104.801 341.766 105.27 342.003 105.866H342.116C342.377 105.284 342.791 104.82 343.359 104.474C343.928 104.124 344.605 103.949 345.391 103.949C346.38 103.949 347.188 104.259 347.812 104.879C348.442 105.5 348.757 106.435 348.757 107.685V115H346.634V107.884C346.634 107.145 346.432 106.61 346.03 106.278C345.627 105.947 345.147 105.781 344.588 105.781C343.897 105.781 343.359 105.994 342.976 106.42C342.592 106.842 342.401 107.384 342.401 108.047V115H340.284V107.749C340.284 107.157 340.099 106.681 339.73 106.321C339.361 105.961 338.88 105.781 338.288 105.781C337.886 105.781 337.514 105.888 337.173 106.101C336.837 106.309 336.565 106.6 336.357 106.974C336.153 107.348 336.051 107.782 336.051 108.274V115H333.928ZM359.778 106.754L357.853 107.095C357.773 106.849 357.645 106.615 357.47 106.392C357.299 106.17 357.067 105.987 356.774 105.845C356.48 105.703 356.113 105.632 355.673 105.632C355.072 105.632 354.57 105.767 354.167 106.037C353.765 106.302 353.564 106.645 353.564 107.067C353.564 107.431 353.699 107.725 353.968 107.947C354.238 108.17 354.674 108.352 355.275 108.494L357.008 108.892C358.012 109.124 358.76 109.482 359.252 109.964C359.745 110.447 359.991 111.075 359.991 111.847C359.991 112.5 359.802 113.082 359.423 113.594C359.049 114.1 358.526 114.498 357.853 114.787C357.186 115.076 356.412 115.22 355.531 115.22C354.309 115.22 353.313 114.96 352.541 114.439C351.769 113.913 351.296 113.168 351.12 112.202L353.173 111.889C353.301 112.424 353.564 112.829 353.961 113.104C354.359 113.374 354.877 113.509 355.517 113.509C356.213 113.509 356.769 113.364 357.186 113.075C357.602 112.782 357.811 112.424 357.811 112.003C357.811 111.662 357.683 111.375 357.427 111.143C357.176 110.911 356.79 110.736 356.27 110.618L354.423 110.213C353.405 109.981 352.652 109.612 352.164 109.105C351.681 108.598 351.44 107.957 351.44 107.18C351.44 106.536 351.62 105.973 351.98 105.49C352.34 105.007 352.837 104.631 353.471 104.361C354.106 104.086 354.833 103.949 355.652 103.949C356.831 103.949 357.759 104.205 358.436 104.716C359.113 105.223 359.56 105.902 359.778 106.754ZM369.295 104.091L371.703 108.338L374.132 104.091H376.454L373.052 109.545L376.483 115H374.16L371.703 110.923L369.252 115H366.923L370.318 109.545L366.966 104.091H369.295ZM380.311 104.091L382.718 108.338L385.147 104.091H387.47L384.068 109.545L387.498 115H385.176L382.718 110.923L380.268 115H377.939L381.333 109.545L377.981 104.091H380.311ZM391.326 104.091L393.734 108.338L396.163 104.091H398.485L395.083 109.545L398.514 115H396.191L393.734 110.923L391.284 115H388.954L392.349 109.545L388.997 104.091H391.326ZM402.065 115.135C401.677 115.135 401.343 114.998 401.064 114.723C400.784 114.444 400.645 114.107 400.645 113.714C400.645 113.326 400.784 112.995 401.064 112.72C401.343 112.441 401.677 112.301 402.065 112.301C402.453 112.301 402.787 112.441 403.066 112.72C403.346 112.995 403.485 113.326 403.485 113.714C403.485 113.975 403.419 114.214 403.287 114.432C403.159 114.645 402.988 114.815 402.775 114.943C402.562 115.071 402.325 115.135 402.065 115.135Z" fill="white"/>
</g>
<defs>
<linearGradient id="paint0_linear_1474_154497" x1="1396.19" y1="-87.7868" x2="978.696" y2="373.7" gradientUnits="userSpaceOnUse">
<stop stop-color="#FACCD0"/>
<stop offset="1" stop-color="#FACCD0" stop-opacity="0"/>
</linearGradient>
<linearGradient id="paint1_linear_1474_154497" x1="1364.19" y1="-151.787" x2="946.696" y2="309.7" gradientUnits="userSpaceOnUse">
<stop stop-color="#FACCD0"/>
<stop offset="1" stop-color="#FACCD0" stop-opacity="0"/>
</linearGradient>
<linearGradient id="paint2_linear_1474_154497" x1="859.938" y1="106.921" x2="882.093" y2="110.454" gradientUnits="userSpaceOnUse">
<stop stop-color="#AA80F9"/>
<stop offset="0.9964" stop-color="#6165D7"/>
</linearGradient>
<linearGradient id="paint3_linear_1474_154497" x1="942.803" y1="106.355" x2="1035.39" y2="216.049" gradientUnits="userSpaceOnUse">
<stop stop-color="#AA80F9"/>
<stop offset="0.9964" stop-color="#6165D7"/>
</linearGradient>
<linearGradient id="paint4_linear_1474_154497" x1="919.447" y1="137.125" x2="1039.84" y2="174.85" gradientUnits="userSpaceOnUse">
<stop stop-color="#444B8C"/>
<stop offset="0.9964" stop-color="#26264F"/>
</linearGradient>
<linearGradient id="paint5_linear_1474_154497" x1="898.104" y1="109.65" x2="958.998" y2="110.563" gradientUnits="userSpaceOnUse">
<stop stop-color="#FF9085"/>
<stop offset="1" stop-color="#FB6FBB"/>
</linearGradient>
<linearGradient id="paint6_linear_1474_154497" x1="939.62" y1="52.713" x2="1032.21" y2="162.407" gradientUnits="userSpaceOnUse">
<stop stop-color="#AA80F9"/>
<stop offset="0.9964" stop-color="#6165D7"/>
</linearGradient>
<linearGradient id="paint7_linear_1474_154497" x1="966.869" y1="139.569" x2="1026.69" y2="139.569" gradientUnits="userSpaceOnUse">
<stop stop-color="#AA80F9"/>
<stop offset="0.9964" stop-color="#6165D7"/>
</linearGradient>
<linearGradient id="paint8_linear_1474_154497" x1="909.812" y1="146.279" x2="913.017" y2="172.906" gradientUnits="userSpaceOnUse">
<stop stop-color="#FFDB44"/>
<stop offset="1" stop-color="#FEEF06"/>
</linearGradient>
<linearGradient id="paint9_linear_1474_154497" x1="910.585" y1="152.413" x2="909.604" y2="144.264" gradientUnits="userSpaceOnUse">
<stop offset="0.00359712" stop-color="#F36F56"/>
<stop offset="0.3059" stop-color="#F99C4C"/>
<stop offset="0.545" stop-color="#FDB946"/>
<stop offset="0.6817" stop-color="#FFC444"/>
<stop offset="0.8038" stop-color="#FFC244"/>
<stop offset="0.8667" stop-color="#FEBA46"/>
<stop offset="0.916" stop-color="#FCAD49"/>
<stop offset="0.958" stop-color="#F99A4D"/>
<stop offset="0.9955" stop-color="#F58152"/>
<stop offset="1" stop-color="#F57E53"/>
</linearGradient>
<linearGradient id="paint10_linear_1474_154497" x1="876.801" y1="146.484" x2="936.68" y2="146.484" gradientUnits="userSpaceOnUse">
<stop stop-color="#FCB148"/>
<stop offset="0.0520724" stop-color="#FDBA46"/>
<stop offset="0.1424" stop-color="#FFC244"/>
<stop offset="0.3183" stop-color="#FFC444"/>
<stop offset="0.4849" stop-color="#FDB946"/>
<stop offset="0.7754" stop-color="#F99C4D"/>
<stop offset="0.8658" stop-color="#F8924F"/>
<stop offset="1" stop-color="#F8924F"/>
</linearGradient>
<linearGradient id="paint11_linear_1474_154497" x1="907.015" y1="139.686" x2="910.221" y2="166.313" gradientUnits="userSpaceOnUse">
<stop stop-color="#FFDB44"/>
<stop offset="1" stop-color="#FEEF06"/>
</linearGradient>
<linearGradient id="paint12_linear_1474_154497" x1="906.878" y1="138.499" x2="907.862" y2="146.676" gradientUnits="userSpaceOnUse">
<stop stop-color="#FFDB44"/>
<stop offset="1" stop-color="#FEEF06"/>
</linearGradient>
<linearGradient id="paint13_linear_1474_154497" x1="907.789" y1="145.821" x2="906.808" y2="137.672" gradientUnits="userSpaceOnUse">
<stop offset="0.00359712" stop-color="#F36F56"/>
<stop offset="0.3059" stop-color="#F99C4C"/>
<stop offset="0.545" stop-color="#FDB946"/>
<stop offset="0.6817" stop-color="#FFC444"/>
<stop offset="0.8038" stop-color="#FFC244"/>
<stop offset="0.8667" stop-color="#FEBA46"/>
<stop offset="0.916" stop-color="#FCAD49"/>
<stop offset="0.958" stop-color="#F99A4D"/>
<stop offset="0.9955" stop-color="#F58152"/>
<stop offset="1" stop-color="#F57E53"/>
</linearGradient>
<linearGradient id="paint14_linear_1474_154497" x1="869.566" y1="140.373" x2="929.445" y2="140.373" gradientUnits="userSpaceOnUse">
<stop stop-color="#FCB148"/>
<stop offset="0.0520724" stop-color="#FDBA46"/>
<stop offset="0.1424" stop-color="#FFC244"/>
<stop offset="0.3183" stop-color="#FFC444"/>
<stop offset="0.4849" stop-color="#FDB946"/>
<stop offset="0.7754" stop-color="#F99C4D"/>
<stop offset="0.8658" stop-color="#F8924F"/>
<stop offset="1" stop-color="#F8924F"/>
</linearGradient>
<linearGradient id="paint15_linear_1474_154497" x1="899.781" y1="133.576" x2="902.986" y2="160.203" gradientUnits="userSpaceOnUse">
<stop stop-color="#FFDB44"/>
<stop offset="1" stop-color="#FEEF06"/>
</linearGradient>
<linearGradient id="paint16_linear_1474_154497" x1="899.643" y1="132.388" x2="900.628" y2="140.566" gradientUnits="userSpaceOnUse">
<stop stop-color="#FFDB44"/>
<stop offset="1" stop-color="#FEEF06"/>
</linearGradient>
<linearGradient id="paint17_linear_1474_154497" x1="900.555" y1="139.71" x2="899.574" y2="131.561" gradientUnits="userSpaceOnUse">
<stop offset="0.00359712" stop-color="#F36F56"/>
<stop offset="0.3059" stop-color="#F99C4C"/>
<stop offset="0.545" stop-color="#FDB946"/>
<stop offset="0.6817" stop-color="#FFC444"/>
<stop offset="0.8038" stop-color="#FFC244"/>
<stop offset="0.8667" stop-color="#FEBA46"/>
<stop offset="0.916" stop-color="#FCAD49"/>
<stop offset="0.958" stop-color="#F99A4D"/>
<stop offset="0.9955" stop-color="#F58152"/>
<stop offset="1" stop-color="#F57E53"/>
</linearGradient>
<linearGradient id="paint18_linear_1474_154497" x1="875.808" y1="134.281" x2="935.687" y2="134.281" gradientUnits="userSpaceOnUse">
<stop stop-color="#FCB148"/>
<stop offset="0.0520724" stop-color="#FDBA46"/>
<stop offset="0.1424" stop-color="#FFC244"/>
<stop offset="0.3183" stop-color="#FFC444"/>
<stop offset="0.4849" stop-color="#FDB946"/>
<stop offset="0.7754" stop-color="#F99C4D"/>
<stop offset="0.8658" stop-color="#F8924F"/>
<stop offset="1" stop-color="#F8924F"/>
</linearGradient>
<linearGradient id="paint19_linear_1474_154497" x1="906.023" y1="127.483" x2="909.228" y2="154.11" gradientUnits="userSpaceOnUse">
<stop stop-color="#FFDB44"/>
<stop offset="1" stop-color="#FEEF06"/>
</linearGradient>
<linearGradient id="paint20_linear_1474_154497" x1="905.885" y1="126.295" x2="906.87" y2="134.473" gradientUnits="userSpaceOnUse">
<stop stop-color="#FFDB44"/>
<stop offset="1" stop-color="#FEEF06"/>
</linearGradient>
<linearGradient id="paint21_linear_1474_154497" x1="906.797" y1="133.617" x2="905.816" y2="125.468" gradientUnits="userSpaceOnUse">
<stop offset="0.00359712" stop-color="#F36F56"/>
<stop offset="0.3059" stop-color="#F99C4C"/>
<stop offset="0.545" stop-color="#FDB946"/>
<stop offset="0.6817" stop-color="#FFC444"/>
<stop offset="0.8038" stop-color="#FFC244"/>
<stop offset="0.8667" stop-color="#FEBA46"/>
<stop offset="0.916" stop-color="#FCAD49"/>
<stop offset="0.958" stop-color="#F99A4D"/>
<stop offset="0.9955" stop-color="#F58152"/>
<stop offset="1" stop-color="#F57E53"/>
</linearGradient>
<linearGradient id="paint22_linear_1474_154497" x1="872.561" y1="128.171" x2="932.441" y2="128.171" gradientUnits="userSpaceOnUse">
<stop stop-color="#FCB148"/>
<stop offset="0.0520724" stop-color="#FDBA46"/>
<stop offset="0.1424" stop-color="#FFC244"/>
<stop offset="0.3183" stop-color="#FFC444"/>
<stop offset="0.4849" stop-color="#FDB946"/>
<stop offset="0.7754" stop-color="#F99C4D"/>
<stop offset="0.8658" stop-color="#F8924F"/>
<stop offset="1" stop-color="#F8924F"/>
</linearGradient>
<linearGradient id="paint23_linear_1474_154497" x1="902.776" y1="121.373" x2="905.982" y2="148" gradientUnits="userSpaceOnUse">
<stop stop-color="#FFDB44"/>
<stop offset="1" stop-color="#FEEF06"/>
</linearGradient>
<linearGradient id="paint24_linear_1474_154497" x1="902.639" y1="120.185" x2="903.623" y2="128.363" gradientUnits="userSpaceOnUse">
<stop stop-color="#FFDB44"/>
<stop offset="1" stop-color="#FEEF06"/>
</linearGradient>
<linearGradient id="paint25_linear_1474_154497" x1="903.551" y1="127.507" x2="902.57" y2="119.358" gradientUnits="userSpaceOnUse">
<stop offset="0.00359712" stop-color="#F36F56"/>
<stop offset="0.3059" stop-color="#F99C4C"/>
<stop offset="0.545" stop-color="#FDB946"/>
<stop offset="0.6817" stop-color="#FFC444"/>
<stop offset="0.8038" stop-color="#FFC244"/>
<stop offset="0.8667" stop-color="#FEBA46"/>
<stop offset="0.916" stop-color="#FCAD49"/>
<stop offset="0.958" stop-color="#F99A4D"/>
<stop offset="0.9955" stop-color="#F58152"/>
<stop offset="1" stop-color="#F57E53"/>
</linearGradient>
<linearGradient id="paint26_linear_1474_154497" x1="930.156" y1="126.678" x2="965.222" y2="175.597" gradientUnits="userSpaceOnUse">
<stop stop-color="#FCB148"/>
<stop offset="0.0520724" stop-color="#FDBA46"/>
<stop offset="0.1424" stop-color="#FFC244"/>
<stop offset="0.3183" stop-color="#FFC444"/>
<stop offset="0.4849" stop-color="#FDB946"/>
<stop offset="0.7754" stop-color="#F99C4D"/>
<stop offset="0.8658" stop-color="#F8924F"/>
<stop offset="1" stop-color="#F8924F"/>
</linearGradient>
<linearGradient id="paint27_linear_1474_154497" x1="953.165" y1="147.553" x2="933.324" y2="165.426" gradientUnits="userSpaceOnUse">
<stop stop-color="#FFDB44"/>
<stop offset="1" stop-color="#FEEF06"/>
</linearGradient>
<linearGradient id="paint28_linear_1474_154497" x1="954.045" y1="146.752" x2="947.952" y2="152.241" gradientUnits="userSpaceOnUse">
<stop stop-color="#FFDB44"/>
<stop offset="1" stop-color="#FEEF06"/>
</linearGradient>
<linearGradient id="paint29_linear_1474_154497" x1="948.654" y1="151.743" x2="954.726" y2="146.274" gradientUnits="userSpaceOnUse">
<stop offset="0.00359712" stop-color="#F36F56"/>
<stop offset="0.3059" stop-color="#F99C4C"/>
<stop offset="0.545" stop-color="#FDB946"/>
<stop offset="0.6817" stop-color="#FFC444"/>
<stop offset="0.8038" stop-color="#FFC244"/>
<stop offset="0.8667" stop-color="#FEBA46"/>
<stop offset="0.916" stop-color="#FCAD49"/>
<stop offset="0.958" stop-color="#F99A4D"/>
<stop offset="0.9955" stop-color="#F58152"/>
<stop offset="1" stop-color="#F57E53"/>
</linearGradient>
<linearGradient id="paint30_linear_1474_154497" x1="1256.8" y1="-11.9245" x2="1168.08" y2="-15.7819" gradientUnits="userSpaceOnUse">
<stop stop-color="#AB316D"/>
<stop offset="1" stop-color="#792D3D"/>
</linearGradient>
<linearGradient id="paint31_linear_1474_154497" x1="1266.07" y1="132.552" x2="1183.09" y2="132.552" gradientUnits="userSpaceOnUse">
<stop stop-color="#FFC444"/>
<stop offset="0.9964" stop-color="#F36F56"/>
</linearGradient>
<linearGradient id="paint32_linear_1474_154497" x1="1243.67" y1="132.552" x2="1183.09" y2="132.552" gradientUnits="userSpaceOnUse">
<stop stop-color="#FFC444"/>
<stop offset="0.9964" stop-color="#F36F56"/>
</linearGradient>
<linearGradient id="paint33_linear_1474_154497" x1="1142" y1="118.522" x2="997.096" y2="362.659" gradientUnits="userSpaceOnUse">
<stop stop-color="#FFC444"/>
<stop offset="0.9964" stop-color="#F36F56"/>
</linearGradient>
<linearGradient id="paint34_linear_1474_154497" x1="1142.42" y1="96.8556" x2="1025.11" y2="372.346" gradientUnits="userSpaceOnUse">
<stop stop-color="#FFC444"/>
<stop offset="0.9964" stop-color="#F36F56"/>
</linearGradient>
<linearGradient id="paint35_linear_1474_154497" x1="1120.78" y1="-92.3313" x2="1159.35" y2="236.905" gradientUnits="userSpaceOnUse">
<stop stop-color="#AB316D"/>
<stop offset="1" stop-color="#792D3D"/>
</linearGradient>
<linearGradient id="paint36_linear_1474_154497" x1="1100.48" y1="-105.217" x2="1212.08" y2="107.096" gradientUnits="userSpaceOnUse">
<stop stop-color="#AB316D"/>
<stop offset="1" stop-color="#792D3D"/>
</linearGradient>
<linearGradient id="paint37_linear_1474_154497" x1="1030.16" y1="-65.4469" x2="1141.76" y2="146.866" gradientUnits="userSpaceOnUse">
<stop stop-color="#AB316D"/>
<stop offset="1" stop-color="#792D3D"/>
</linearGradient>
<linearGradient id="paint38_linear_1474_154497" x1="1371.34" y1="-116.068" x2="1402.61" y2="174.379" gradientUnits="userSpaceOnUse">
<stop stop-color="#FF9085"/>
<stop offset="1" stop-color="#FB6FBB"/>
</linearGradient>
<linearGradient id="paint39_linear_1474_154497" x1="1371.34" y1="-116.068" x2="1402.61" y2="174.379" gradientUnits="userSpaceOnUse">
<stop stop-color="#FF9085"/>
<stop offset="1" stop-color="#FB6FBB"/>
</linearGradient>
<linearGradient id="paint40_linear_1474_154497" x1="1518.78" y1="-46.1696" x2="1672.84" y2="-228.46" gradientUnits="userSpaceOnUse">
<stop offset="0.00359712" stop-color="#E38DDD"/>
<stop offset="1" stop-color="#9571F6"/>
</linearGradient>
<linearGradient id="paint41_linear_1474_154497" x1="1518.78" y1="-46.1696" x2="1672.84" y2="-228.46" gradientUnits="userSpaceOnUse">
<stop offset="0.00359712" stop-color="#E38DDD"/>
<stop offset="1" stop-color="#9571F6"/>
</linearGradient>
<linearGradient id="paint42_linear_1474_154497" x1="1487.13" y1="85.7503" x2="1260.1" y2="227.92" gradientUnits="userSpaceOnUse">
<stop stop-color="#AA80F9"/>
<stop offset="0.9964" stop-color="#6165D7"/>
</linearGradient>
<linearGradient id="paint43_linear_1474_154497" x1="1247.25" y1="64.6607" x2="1283.56" y2="119.539" gradientUnits="userSpaceOnUse">
<stop stop-color="#AA80F9"/>
<stop offset="0.9964" stop-color="#6165D7"/>
</linearGradient>
<linearGradient id="paint44_linear_1474_154497" x1="1360.26" y1="97.3458" x2="1307.13" y2="187.084" gradientUnits="userSpaceOnUse">
<stop stop-color="#AA80F9"/>
<stop offset="0.9964" stop-color="#6165D7"/>
</linearGradient>
<linearGradient id="paint45_linear_1474_154497" x1="1321.52" y1="69.0778" x2="1313.11" y2="98.7401" gradientUnits="userSpaceOnUse">
<stop offset="0.00359712" stop-color="#E38DDD"/>
<stop offset="1" stop-color="#9571F6"/>
</linearGradient>
<linearGradient id="paint46_linear_1474_154497" x1="1363.98" y1="99.6309" x2="1310.37" y2="190.172" gradientUnits="userSpaceOnUse">
<stop offset="0.00359712" stop-color="#E38DDD"/>
<stop offset="1" stop-color="#9571F6"/>
</linearGradient>
<linearGradient id="paint47_linear_1474_154497" x1="1330.39" y1="100.162" x2="1351.97" y2="208.848" gradientUnits="userSpaceOnUse">
<stop stop-color="#AB316D"/>
<stop offset="1" stop-color="#792D3D"/>
</linearGradient>
<linearGradient id="paint48_linear_1474_154497" x1="1333.66" y1="133.978" x2="1371.88" y2="128.327" gradientUnits="userSpaceOnUse">
<stop stop-color="#AB316D"/>
<stop offset="1" stop-color="#792D3D"/>
</linearGradient>
<linearGradient id="paint49_linear_1474_154497" x1="1283.94" y1="133.141" x2="1320.42" y2="127.747" gradientUnits="userSpaceOnUse">
<stop stop-color="#AB316D"/>
<stop offset="1" stop-color="#792D3D"/>
</linearGradient>
<linearGradient id="paint50_linear_1474_154497" x1="1307.98" y1="95.3655" x2="1389.06" y2="83.3749" gradientUnits="userSpaceOnUse">
<stop stop-color="#AB316D"/>
<stop offset="1" stop-color="#792D3D"/>
</linearGradient>
<linearGradient id="paint51_linear_1474_154497" x1="1349.07" y1="71.5676" x2="1328.98" y2="92.46" gradientUnits="userSpaceOnUse">
<stop stop-color="#AB316D"/>
<stop offset="1" stop-color="#792D3D"/>
</linearGradient>
<linearGradient id="paint52_linear_1474_154497" x1="1352.31" y1="74.678" x2="1332.22" y2="95.5705" gradientUnits="userSpaceOnUse">
<stop stop-color="#AB316D"/>
<stop offset="1" stop-color="#792D3D"/>
</linearGradient>
<linearGradient id="paint53_linear_1474_154497" x1="1301.61" y1="79.8961" x2="1354.96" y2="72.006" gradientUnits="userSpaceOnUse">
<stop stop-color="#AB316D"/>
<stop offset="1" stop-color="#792D3D"/>
</linearGradient>
<linearGradient id="paint54_linear_1474_154497" x1="1302.23" y1="84.0928" x2="1355.58" y2="76.2027" gradientUnits="userSpaceOnUse">
<stop stop-color="#AB316D"/>
<stop offset="1" stop-color="#792D3D"/>
</linearGradient>
<linearGradient id="paint55_linear_1474_154497" x1="1291.53" y1="94.7028" x2="1337.02" y2="87.9756" gradientUnits="userSpaceOnUse">
<stop stop-color="#AB316D"/>
<stop offset="1" stop-color="#792D3D"/>
</linearGradient>
<clipPath id="clip0_1474_154497">
<rect width="1440" height="148" fill="white"/>
</clipPath>
<clipPath id="clip1_1474_154497">
<rect width="1440" height="164" fill="white"/>
</clipPath>
<clipPath id="clip2_1474_154497">
<rect width="1479.48" height="329.388" fill="white" transform="translate(745 -147.498) rotate(-1.29756)"/>
</clipPath>
<clipPath id="clip3_1474_154497">
<rect width="160" height="108" fill="white" transform="translate(874 68)"/>
</clipPath>
<clipPath id="clip4_1474_154497">
<rect width="275.07" height="312.8" fill="white" transform="matrix(-1 0 0 1 1266.07 -67)"/>
</clipPath>
<clipPath id="clip5_1474_154497">
<rect width="101" height="112.768" fill="white" transform="translate(1266 61)"/>
</clipPath>
</defs>
</svg>
