<svg width="24" height="25" viewBox="0 0 24 25" fill="none" xmlns="http://www.w3.org/2000/svg">
<g clip-path="url(#clip0_5250_48085)">
<path d="M20.5655 11.6145L20.1406 10.274C21.6074 9.80919 22.5929 8.46209 22.5929 6.92188V3.40625H20.4835V2.70312C20.4835 2.31481 20.7983 2 21.1866 2H23.9991V6.92188C23.9991 7.98842 23.6635 9.00331 23.0286 9.85691C22.4064 10.6933 21.5547 11.3011 20.5655 11.6145Z" fill="#FDBF00"/>
<path d="M3.43364 11.6145C2.44439 11.301 1.59267 10.6933 0.970547 9.85691C0.335625 9.00331 0 7.98838 0 6.92188V2H2.8125C3.20081 2 3.51562 2.31481 3.51562 2.70312V3.40625H1.40625V6.92188C1.40625 8.46209 2.3917 9.80919 3.85847 10.274L3.43364 11.6145Z" fill="#FFDA2D"/>
<path d="M17.625 2L16.9219 9.73438V18.4089L19.026 16.3485L21.1406 18.4631V2H17.625Z" fill="#FF862F"/>
<path d="M6.375 2H2.85938V18.4089L4.96355 16.3485L7.07812 18.4631V9.73438L6.375 2Z" fill="#FFB682"/>
<path d="M18.3281 9.73438V0.5H5.67188V9.73438C5.67188 12.4381 7.38094 14.8184 9.89062 15.7025V20.2812H7.94719C6.69281 20.2812 5.67188 21.3022 5.67188 22.5566V24.5H18.3281V22.5566C18.3281 21.3022 17.3072 20.2812 16.0528 20.2812H14.1094V15.7025C16.6191 14.8184 18.3281 12.4377 18.3281 9.73438Z" fill="#FFDA2D"/>
<path d="M14.1094 15.7025V20.2812H16.0528C17.3072 20.2812 18.3281 21.3022 18.3281 22.5566V24.5H12V0.5H18.3281V9.73438C18.3281 12.4377 16.6191 14.8184 14.1094 15.7025Z" fill="#FDBF00"/>
<path d="M16.3514 6.04676L13.3331 5.61879L12.0019 2.98535L10.6706 5.61879L7.65234 6.04676L9.83766 8.1266L9.32625 11.0385L12.0019 9.66504L14.6775 11.0385L14.1661 8.1266L16.3514 6.04676Z" fill="#F599A0"/>
<path d="M14.1642 8.1266L14.6756 11.0385L12 9.66504V2.98535L13.3312 5.61879L16.3495 6.04676L14.1642 8.1266Z" fill="#EB3441"/>
</g>
<defs>
<clipPath id="clip0_5250_48085">
<rect width="24" height="24" fill="white" transform="translate(0 0.5)"/>
</clipPath>
</defs>
</svg>
