<svg width="239" height="166" viewBox="0 0 239 166" fill="none" xmlns="http://www.w3.org/2000/svg">
<path d="M140.323 10.3087C160.395 18.3456 176.651 30.4377 190.942 47.8088C205.401 65.2255 217.68 88.0448 215.215 110.343C212.581 132.595 195.141 154.218 173.725 162.972C152.354 171.557 127.176 167.318 102.636 160.71C78.1411 153.932 54.3465 144.893 44.1764 127.724C33.9445 110.447 37.2298 85.1029 44.2254 61.4839C51.1592 37.7575 61.8488 15.587 79.1447 6.63099C96.3333 -2.26322 120.297 2.10259 140.323 10.3087Z" fill="#ECF7FF"/>
<g clip-path="url(#clip0_2_5)">
<path d="M125.406 127.834C112.282 128.001 99.1476 127.37 86.1004 125.946C81.9842 125.497 77.7026 124.906 74.2792 122.576C70.7489 120.174 68.592 116.218 67.0984 112.218C62.7506 100.576 63.0131 87.733 64.4128 75.3845C65.6321 64.6294 68.0107 53.2821 75.581 45.5462C83.0752 37.888 94.2248 35.2341 104.83 33.711C123.197 31.073 141.901 30.7937 160.337 32.8831C167.144 33.6544 173.981 34.7648 180.341 37.308C186.702 39.8508 192.608 43.9389 196.343 49.6814C200.907 56.7008 201.835 65.4442 201.959 73.8161C202.065 80.8886 201.686 87.9683 200.829 94.9895C200.036 101.484 198.803 108.022 195.933 113.903C193.063 119.783 188.382 124.998 182.286 127.374C178.402 128.887 174.165 129.189 170 129.344C160.194 129.709 150.361 129.35 140.608 128.272C139.072 132.771 136.86 137.352 135.324 141.851C131.841 137.133 128.887 132.552 125.406 127.834Z" fill="#3FAEFF"/>
<path d="M98.4793 95.2348C99.8082 93.6948 99.637 91.369 98.097 90.0401C96.5569 88.7112 94.2312 88.8824 92.9023 90.4224C91.5734 91.9625 91.7445 94.2882 93.2846 95.6171C94.8246 96.946 97.1504 96.7749 98.4793 95.2348Z" fill="#FFF1E6"/>
<path d="M119.796 92.8316C119.796 94.8656 118.147 96.5147 116.113 96.5147C114.079 96.5147 112.43 94.8656 112.43 92.8316C112.43 90.7975 114.079 89.1484 116.113 89.1484C118.147 89.1484 119.796 90.7975 119.796 92.8316Z" fill="#FFF1E6"/>
<path d="M137.94 96.4922C139.962 96.2719 141.422 94.4541 141.202 92.4319C140.982 90.4098 139.164 88.9491 137.142 89.1694C135.12 89.3897 133.659 91.2076 133.879 93.2297C134.1 95.2518 135.918 96.7125 137.94 96.4922Z" fill="#FFF1E6"/>
<path d="M158.129 93.8197C157.286 93.8197 156.571 93.1727 156.502 92.318C156.256 89.2791 156.472 84.8134 158.901 80.7947C160.46 78.2134 162.674 76.2442 164.814 74.3403C165.399 73.8202 165.983 73.3006 166.551 72.7696C169.634 69.8904 171.185 67.3771 171.429 64.8606C171.723 61.8426 169.78 58.5889 166.91 57.2921C164.043 55.9971 160.41 56.5263 157.87 58.6116C155.416 60.627 154.042 64.0721 154.367 67.3875C154.455 68.2857 153.798 69.0851 152.9 69.1726C152.004 69.2592 151.203 68.604 151.115 67.7063C150.68 63.2686 152.474 58.8165 155.796 56.086C159.272 53.2304 164.28 52.5176 168.255 54.3145C172.408 56.1912 175.111 60.759 174.682 65.1762C174.253 69.5843 171.108 72.9836 168.781 75.1573C168.194 75.706 167.59 76.2433 166.985 76.781C164.936 78.6042 163.001 80.3254 161.697 82.4846C159.719 85.7574 159.552 89.495 159.759 92.0541C159.832 92.9532 159.162 93.7412 158.263 93.8142C158.218 93.8179 158.173 93.8197 158.129 93.8197Z" fill="#FFF1E6"/>
<path d="M160.623 100.245C160.623 101.525 159.586 102.563 158.306 102.563C157.026 102.563 155.988 101.525 155.988 100.245C155.988 98.9652 157.026 97.9277 158.306 97.9277C159.586 97.9277 160.623 98.9652 160.623 100.245Z" fill="#FFF1E6"/>
<path d="M180.018 57.3129C181.227 58.982 182.651 60.5853 184.528 61.4676C186.405 62.35 188.825 62.36 190.41 61.0323C192.405 59.3619 192.416 56.3036 191.678 53.827C190.784 50.8322 189.032 48.0917 186.676 46.0078C184.328 43.9311 179.853 42.0222 178.071 45.6473C176.093 49.6701 177.555 53.9123 180.018 57.3129Z" fill="#FFF1E6"/>
<path d="M189.222 74.0395C190.434 75.382 192.717 75.7783 194.136 74.6502C194.544 74.326 194.863 73.9021 195.112 73.4468C196.589 70.7449 194.982 65.8792 191.281 66.2093C187.722 66.5263 187.256 71.8621 189.222 74.0395Z" fill="#FFF1E6"/>
</g>
<defs>
<clipPath id="clip0_2_5">
<rect width="143" height="142" fill="white" transform="translate(58.5 7.5)"/>
</clipPath>
</defs>
</svg>
