<svg width="238" height="190" viewBox="0 0 238 190" fill="none" xmlns="http://www.w3.org/2000/svg">
<path d="M139.823 34.8087C159.895 42.8456 176.151 54.9377 190.442 72.3088C204.901 89.7255 217.18 112.545 214.715 134.843C212.081 157.095 194.641 178.718 173.225 187.472C151.854 196.057 126.676 191.818 102.136 185.21C77.6411 178.432 53.8465 169.393 43.6764 152.224C33.4445 134.947 36.7298 109.603 43.7254 85.9839C50.6592 62.2575 61.3488 40.087 78.6447 31.131C95.8333 22.2368 119.797 26.6026 139.823 34.8087Z" fill="#FEF1F2"/>
<g clip-path="url(#clip0_882_148401)">
<path d="M131.675 90.3194C132.368 91.0664 133.432 91.3496 134.408 91.0464C135.883 90.5882 137.437 91.4792 137.774 92.9764C137.998 93.9672 138.777 94.7409 139.775 94.9628C141.283 95.2981 142.18 96.8414 141.718 98.3058C141.413 99.2748 141.698 100.332 142.451 101.019C143.588 102.058 143.588 103.84 142.451 104.879C141.698 105.567 141.413 106.624 141.718 107.593C142.18 109.057 141.283 110.6 139.775 110.936C138.777 111.158 137.998 111.931 137.774 112.922C137.437 114.419 135.883 115.31 134.408 114.852C133.432 114.549 132.368 114.832 131.675 115.579C130.629 116.708 128.834 116.708 127.788 115.579C127.096 114.832 126.031 114.549 125.056 114.852C123.581 115.31 122.027 114.419 121.689 112.922C121.466 111.931 120.686 111.158 119.689 110.936C118.181 110.6 117.284 109.057 117.745 107.593C118.05 106.624 117.765 105.567 117.013 104.879C115.876 103.84 115.876 102.058 117.013 101.019C117.765 100.332 118.05 99.2748 117.745 98.3058C117.284 96.8414 118.181 95.2982 119.689 94.9628C120.686 94.741 121.466 93.9672 121.689 92.9764C122.027 91.4792 123.581 90.5881 125.056 91.0464C126.031 91.3496 127.096 91.0664 127.788 90.3194C128.834 89.1904 130.629 89.1904 131.675 90.3194Z" fill="#F599A0"/>
<path d="M142.447 101.018C141.695 100.331 141.41 99.2739 141.715 98.3049C142.176 96.8406 141.279 95.2973 139.771 94.9619C138.774 94.7401 137.995 93.9664 137.771 92.9756C137.448 91.5449 136.015 90.6687 134.602 90.9933C135.554 91.2137 136.352 91.953 136.583 92.9756C136.806 93.9663 137.585 94.74 138.583 94.9619C140.091 95.2972 140.988 96.8406 140.527 98.3049C140.221 99.2739 140.507 100.331 141.259 101.018C142.396 102.057 142.396 103.839 141.259 104.878C140.507 105.566 140.221 106.623 140.527 107.592C140.988 109.056 140.091 110.599 138.583 110.935C137.585 111.157 136.806 111.93 136.583 112.921C136.352 113.944 135.554 114.683 134.602 114.903C136.015 115.228 137.448 114.352 137.771 112.921C137.994 111.93 138.774 111.157 139.771 110.935C141.279 110.6 142.177 109.056 141.715 107.592C141.41 106.623 141.695 105.566 142.447 104.878C143.584 103.839 143.584 102.057 142.447 101.018Z" fill="#E60112"/>
<path d="M129.73 113.464C135.578 113.464 140.319 108.756 140.319 102.949C140.319 97.1414 135.578 92.4336 129.73 92.4336C123.882 92.4336 119.141 97.1414 119.141 102.949C119.141 108.756 123.882 113.464 129.73 113.464Z" fill="#1DBF73"/>
<path d="M129.731 92.4336C129.462 92.4336 129.197 92.4437 128.934 92.4631C134.41 92.8678 138.726 97.4077 138.726 102.949C138.726 108.49 134.41 113.03 128.934 113.434C129.197 113.454 129.463 113.464 129.731 113.464C135.579 113.464 140.32 108.756 140.32 102.949C140.32 97.1415 135.579 92.4336 129.731 92.4336Z" fill="#77D9AB"/>
<path d="M127.674 103.061L125.94 101.339C125.525 100.926 124.851 100.926 124.435 101.339L123.023 102.742C122.607 103.154 122.607 103.824 123.023 104.236L126.511 107.7L126.889 107.928L128.499 107.864L136.066 100.29L135.234 98.7836L133.552 98.1406L133.299 98.3283L128.533 103.06C128.296 103.296 127.911 103.296 127.674 103.061Z" fill="#EAF6FF"/>
<path d="M136.438 99.3079L135.13 98.0088C134.714 97.596 134.04 97.596 133.625 98.0088L133.303 98.328C133.612 98.2956 133.932 98.3963 134.168 98.6312L134.844 99.3079C135.26 99.7206 135.26 100.39 134.844 100.803L128.405 107.216C127.893 107.724 127.165 107.885 126.516 107.7L126.646 107.829C127.396 108.574 128.612 108.574 129.362 107.829L136.438 100.803C136.854 100.39 136.854 99.7206 136.438 99.3079Z" fill="#C8EFFE"/>
<g clip-path="url(#clip1_882_148401)">
<path d="M125.507 161.618C125.505 161.618 125.507 161.618 125.506 161.618C106.955 161.618 91.3467 160.754 79.1859 159.695C71.6898 159.042 66.9963 151.336 69.8701 144.43C77.8415 125.274 87.6832 106.35 99.2286 87.9971C107.087 75.5043 114.674 64.9744 121.089 56.6897C125.564 50.9119 134.317 50.9102 138.791 56.6878C145.175 64.9311 152.721 75.4013 160.54 87.8173C172.027 106.055 181.832 124.86 189.79 143.898C192.679 150.81 187.968 158.527 180.46 159.183C161.921 160.801 143.498 161.618 125.507 161.618Z" fill="#DD636E"/>
<path d="M132.562 52.6645C130.385 53.2328 128.347 54.5883 126.84 56.728C120.955 65.086 113.996 75.7102 106.788 88.314C96.1962 106.83 87.1677 125.921 79.8566 145.246C77.4668 151.559 80.7788 158.535 86.5392 160.279C83.9636 160.094 81.5126 159.897 79.1862 159.696C71.6891 159.042 66.9975 151.338 69.8693 144.43C77.841 125.275 87.6841 106.352 99.2295 87.9982C107.089 75.5062 114.674 64.9742 121.09 56.6917C123.922 53.0336 128.472 51.6905 132.562 52.6645Z" fill="#E60112"/>
<path d="M181.734 107.389V106.586C181.734 103.754 183.943 101.405 186.789 101.211L195.543 100.614C198.679 100.401 201.341 102.869 201.341 105.99V107.986C201.341 111.107 198.679 113.575 195.543 113.361L186.789 112.765C183.943 112.571 181.734 110.222 181.734 107.389Z" fill="#DD636E"/>
<path d="M174.98 81.5516L174.575 80.856C173.149 78.4027 173.879 75.2718 176.246 73.6909L183.527 68.8282C186.135 67.0864 189.683 67.9023 191.254 70.605L192.259 72.3335C193.831 75.0362 192.768 78.4954 189.945 79.8673L182.064 83.6972C179.501 84.9425 176.406 84.0049 174.98 81.5516Z" fill="#DD636E"/>
<path d="M156.118 62.5295L155.417 62.128C152.946 60.7117 152.002 57.6376 153.256 55.0933L157.113 47.2671C158.495 44.4639 161.978 43.4089 164.7 44.9692L166.441 45.967C169.162 47.5276 169.984 51.0506 168.23 53.6404L163.333 60.8704C161.741 63.2207 158.588 63.9458 156.118 62.5295Z" fill="#DD636E"/>
<path d="M77.8719 107.389V106.586C77.8719 103.754 75.6632 101.405 72.817 101.211L64.0629 100.614C60.9276 100.401 58.2656 102.869 58.2656 105.99V107.986C58.2656 111.107 60.9276 113.575 64.0629 113.361L72.817 112.765C75.6629 112.571 77.8719 110.222 77.8719 107.389Z" fill="#DD636E"/>
<path d="M84.629 81.5516L85.0334 80.856C86.4596 78.4027 85.7294 75.2718 83.3626 73.6909L76.0817 68.8282C73.4737 67.0864 69.9259 67.9023 68.3543 70.605L67.3494 72.3335C65.7778 75.0362 66.8405 78.4954 69.6635 79.8673L77.5449 83.6972C80.1071 84.9425 83.2027 84.0049 84.629 81.5516Z" fill="#DD636E"/>
<path d="M103.486 62.5295L104.187 62.128C106.657 60.7117 107.601 57.6376 106.347 55.0933L102.491 47.2671C101.109 44.4639 97.6255 43.4089 94.9037 44.9692L93.163 45.967C90.4413 47.5276 89.6197 51.0506 91.3738 53.6404L96.2707 60.8704C97.8627 63.2207 101.016 63.9458 103.486 62.5295Z" fill="#DD636E"/>
<path d="M126.702 81.877C128.79 81.6686 130.877 81.6686 132.964 81.877C135.605 82.1409 137.627 84.3311 137.725 86.965C138.043 95.5808 138.043 104.197 137.725 112.812C137.628 115.446 135.605 117.637 132.964 117.9C130.877 118.109 128.79 118.109 126.702 117.9C124.061 117.636 122.039 115.446 121.942 112.812C121.624 104.197 121.624 95.5808 121.942 86.965C122.039 84.3308 124.061 82.1406 126.702 81.877Z" fill="white"/>
<path d="M126.853 127.356C128.84 127.262 130.826 127.262 132.813 127.356C135.551 127.486 137.749 129.674 137.873 132.393C137.993 135.044 137.993 137.694 137.873 140.345C137.749 143.064 135.551 145.252 132.813 145.382C130.826 145.477 128.84 145.477 126.853 145.382C124.116 145.252 121.917 143.064 121.793 140.345C121.673 137.695 121.673 135.044 121.793 132.393C121.917 129.674 124.116 127.486 126.853 127.356Z" fill="white"/>
</g>
</g>
<defs>
<clipPath id="clip0_882_148401">
<rect width="143" height="142" fill="white" transform="translate(58 32)"/>
</clipPath>
<clipPath id="clip1_882_148401">
<rect width="143.075" height="142.074" fill="white" transform="translate(58.2656 31.8965)"/>
</clipPath>
</defs>
</svg>
