<svg width="41" height="41" viewBox="0 0 41 41" fill="none" xmlns="http://www.w3.org/2000/svg">
<circle cx="20.5" cy="20.5" r="20.0729" stroke="#E0E0E0" stroke-width="0.854166"/>
<g clip-path="url(#clip0_4353_124075)">
<path d="M30.0902 16.7293C30.0437 15.6741 29.873 14.9487 29.6286 14.3201C29.3764 13.6528 28.9885 13.0554 28.4802 12.5588C27.9836 12.0545 27.3823 11.6626 26.7227 11.4144C26.0905 11.1699 25.3688 10.9993 24.3136 10.9528C23.2505 10.9023 22.9131 10.8906 20.2168 10.8906C17.5205 10.8906 17.183 10.9023 16.1239 10.9488C15.0687 10.9953 14.3432 11.1661 13.7148 11.4104C13.0474 11.6626 12.45 12.0505 11.9534 12.5588C11.449 13.0554 11.0573 13.6568 10.8089 14.3163C10.5645 14.9487 10.3938 15.6702 10.3473 16.7254C10.2968 17.7885 10.2852 18.126 10.2852 20.8223C10.2852 23.5185 10.2968 23.856 10.3433 24.9152C10.3899 25.9704 10.5607 26.6958 10.8051 27.3244C11.0573 27.9917 11.449 28.5891 11.9534 29.0857C12.45 29.59 13.0513 29.9819 13.7108 30.2301C14.3432 30.4746 15.0647 30.6452 16.1201 30.6917C17.1791 30.7384 17.5167 30.7499 20.213 30.7499C22.9093 30.7499 23.2468 30.7384 24.3059 30.6917C25.3611 30.6452 26.0866 30.4746 26.715 30.2301C28.0497 29.7141 29.1049 28.6589 29.6209 27.3244C29.8652 26.692 30.036 25.9704 30.0825 24.9152C30.129 23.856 30.1407 23.5185 30.1407 20.8223C30.1407 18.126 30.1367 17.7885 30.0902 16.7293ZM28.3018 24.8376C28.2591 25.8075 28.0962 26.3312 27.9604 26.6804C27.6267 27.5455 26.9401 28.2322 26.0749 28.5659C25.7257 28.7017 25.1982 28.8646 24.2321 28.9072C23.1846 28.9538 22.8705 28.9654 20.2207 28.9654C17.571 28.9654 17.2529 28.9538 16.2092 28.9072C15.2393 28.8646 14.7156 28.7017 14.3664 28.5659C13.9359 28.4068 13.544 28.1546 13.2259 27.8248C12.8961 27.5028 12.6439 27.1148 12.4848 26.6843C12.349 26.3351 12.1861 25.8075 12.1435 24.8415C12.0969 23.794 12.0854 23.4797 12.0854 20.83C12.0854 18.1802 12.0969 17.8621 12.1435 16.8186C12.1861 15.8487 12.349 15.325 12.4848 14.9758C12.6439 14.5451 12.8961 14.1534 13.2298 13.8351C13.5517 13.5054 13.9397 13.2532 14.3703 13.0942C14.7195 12.9585 15.2472 12.7955 16.2131 12.7528C17.2606 12.7063 17.5749 12.6946 20.2245 12.6946C22.8782 12.6946 23.1924 12.7063 24.236 12.7528C25.2059 12.7955 25.7297 12.9585 26.0788 13.0942C26.5094 13.2532 26.9013 13.5054 27.2193 13.8351C27.5491 14.1572 27.8013 14.5451 27.9604 14.9758C28.0962 15.325 28.2591 15.8525 28.3018 16.8186C28.3484 17.8661 28.36 18.1802 28.36 20.83C28.36 23.4797 28.3484 23.7901 28.3018 24.8376Z" fill="#3C4467"/>
<path d="M20.2168 15.7207C17.4004 15.7207 15.1152 18.0057 15.1152 20.8223C15.1152 23.6389 17.4004 25.9239 20.2168 25.9239C23.0334 25.9239 25.3184 23.6389 25.3184 20.8223C25.3184 18.0057 23.0334 15.7207 20.2168 15.7207ZM20.2168 24.1316C18.3897 24.1316 16.9076 22.6496 16.9076 20.8223C16.9076 18.995 18.3897 17.513 20.2168 17.513C22.0442 17.513 23.5261 18.995 23.5261 20.8223C23.5261 22.6496 22.0442 24.1316 20.2168 24.1316Z" fill="#3C4467"/>
<path d="M26.7103 15.5191C26.7103 16.1768 26.177 16.7101 25.5191 16.7101C24.8614 16.7101 24.3281 16.1768 24.3281 15.5191C24.3281 14.8613 24.8614 14.3281 25.5191 14.3281C26.177 14.3281 26.7103 14.8613 26.7103 15.5191Z" fill="#3C4467"/>
</g>
<defs>
<clipPath id="clip0_4353_124075">
<rect width="19.8594" height="19.8594" fill="white" transform="translate(10.25 10.8906)"/>
</clipPath>
</defs>
</svg>
