<svg width="159" height="159" viewBox="0 0 159 159" fill="none" xmlns="http://www.w3.org/2000/svg">
<path d="M79.4999 144.273C114.439 144.273 142.763 115.949 142.763 81.0097C142.763 46.0702 114.439 17.7461 79.4999 17.7461C44.5604 17.7461 16.2363 46.0702 16.2363 81.0097C16.2363 115.949 44.5604 144.273 79.4999 144.273Z" fill="#FAFAFA"/>
<path d="M37.2176 81.0097C37.2176 49.6996 60.0824 23.6337 89.9905 18.6207C86.5772 18.0484 83.0732 17.7461 79.4999 17.7461C44.6162 17.7461 16.2363 46.126 16.2363 81.0097C16.2363 115.893 44.6162 144.273 79.4999 144.273C83.0735 144.273 86.5772 143.971 89.9905 143.399C60.0824 138.386 37.2176 112.32 37.2176 81.0097Z" fill="#F0F1F4"/>
<path opacity="0.9" d="M79.5026 125.193C103.908 125.193 123.692 105.409 123.692 81.0036C123.692 56.5986 103.908 36.8145 79.5026 36.8145C55.0976 36.8145 35.3135 56.5986 35.3135 81.0036C35.3135 105.409 55.0976 125.193 79.5026 125.193Z" fill="#E3E3E8"/>
<path d="M31.6334 124.572L25.2031 75.0768C30.9901 71.0102 35 62.2002 35 51.9822C35 48.359 34.4959 28.4743 33.5875 23.8874C32.5535 18.6662 27.428 19.7657 27.428 25.2125V47.2691C27.428 49.8722 26.021 51.9822 24.2853 51.9822C22.5498 51.9822 21.1427 49.8722 21.1427 47.2691V25.2112C21.1427 22.6081 19.7355 20.498 18 20.498C16.2645 20.498 14.8573 22.6081 14.8573 25.2112V47.2691C14.8573 49.8722 13.4504 51.9822 11.7147 51.9822C9.97898 51.9822 8.57201 49.8722 8.57201 47.2691V25.2125C8.57201 19.7657 3.44651 18.6662 2.41249 23.8874C1.50405 28.4743 1 48.359 1 51.9822C1 62.2076 5.01561 71.0217 10.8092 75.0848L4.38619 124.506C4.37769 124.572 4.3711 124.638 4.36621 124.704C3.91614 130.937 5.35179 137.052 8.30469 141.481C13.6544 149.504 22.3588 149.504 27.7085 141.481C30.6616 137.052 32.0834 130.805 31.6334 124.572Z" fill="#E3E3E8"/>
<path d="M31.9165 124.703C19.6624 114.535 11.6871 96.036 10.6682 75.5044C10.6654 75.5025 10.6626 75.5003 10.6598 75.498L4.10329 124.637C4.09461 124.703 4.08767 124.768 4.0829 124.834C3.62347 131.032 5.08873 137.111 8.1032 141.515C13.564 149.492 22.4493 149.492 27.9101 141.515C30.9246 137.111 32.376 130.9 31.9165 124.703Z" fill="#D9DBE3"/>
<path d="M154.633 125.573L148.203 78.2348C153.99 74.3455 158 65.9194 158 56.1467C158 42.6794 150.389 17.5 141 17.5C131.611 17.5 124 42.6794 124 56.1467C124 65.9264 128.016 74.3571 133.809 78.243L127.386 125.51C127.377 125.573 127.371 125.636 127.366 125.699C126.916 131.661 128.352 137.509 131.304 141.745C136.654 149.418 145.359 149.418 150.708 141.745C153.662 137.509 155.083 131.534 154.633 125.573Z" fill="#E3E3E8"/>
<path d="M140.945 80.5C142.352 77.7898 142.352 74.0706 140.945 71.3603C135.105 71.3603 130.354 64.5269 130.354 56.1276C130.354 51.7466 131.659 43.6391 134.524 36.1897C137.218 29.1832 139.84 26.6397 140.945 26.6397C142.352 23.9294 142.352 20.2102 140.945 17.5C131.586 17.5 124 42.667 124 56.1276C124 69.5882 131.586 80.5 140.945 80.5Z" fill="#D9DBE3"/>
<path d="M154.917 125.655C142.662 115.911 134.687 98.1815 133.668 78.5055L133.66 78.5L127.103 125.592C127.095 125.654 127.088 125.717 127.083 125.78C126.623 131.72 128.089 137.546 131.103 141.766C136.564 149.411 145.449 149.411 150.91 141.766C153.925 137.546 155.376 131.594 154.917 125.655Z" fill="#D9DBE3"/>
</svg>
