<svg width="148" height="151" viewBox="0 0 148 151" fill="none" xmlns="http://www.w3.org/2000/svg">
<path d="M92.5749 98.052C92.2468 98.2304 91.8864 98.315 91.529 98.315C90.9607 98.315 90.3982 98.0953 89.9763 97.6737L74.7595 82.4572C74.3435 82.0412 74.115 81.4787 74.115 80.9013C74.115 81.4787 73.8864 82.0412 73.4704 82.4572L58.2536 97.6737C57.8318 98.0953 57.2693 98.315 56.7009 98.315C56.3435 98.315 55.9831 98.2304 55.655 98.052L17.7188 77.4902V119C17.7185 119.076 17.7223 119.152 17.7299 119.226C17.7331 119.258 17.7393 119.289 17.7437 119.321C17.7492 119.359 17.7536 119.397 17.7612 119.435C17.7706 119.483 17.7835 119.529 17.7958 119.576C17.8017 119.597 17.8061 119.619 17.8125 119.641C17.8269 119.688 17.8442 119.734 17.8614 119.78C17.8691 119.8 17.8755 119.821 17.884 119.842C17.901 119.883 17.9206 119.923 17.94 119.963C17.952 119.987 17.9628 120.012 17.9757 120.037C17.9933 120.069 18.0126 120.101 18.0317 120.132C18.0498 120.162 18.0671 120.193 18.0864 120.223C18.1026 120.247 18.1207 120.27 18.138 120.294C18.1629 120.328 18.1875 120.363 18.2145 120.396C18.2294 120.415 18.2461 120.432 18.2616 120.449C18.2927 120.485 18.3237 120.521 18.3571 120.555C18.3747 120.572 18.3935 120.588 18.4116 120.605C18.445 120.637 18.4778 120.668 18.5133 120.697C18.5476 120.726 18.5839 120.751 18.6196 120.778C18.6407 120.793 18.6604 120.81 18.682 120.825C18.745 120.867 18.8104 120.906 18.8778 120.943L73.0699 150.236C73.3963 150.412 73.7555 150.5 74.115 150.5C74.4744 150.5 74.8339 150.412 75.1597 150.236L129.352 120.943C129.419 120.906 129.485 120.867 129.548 120.825C129.569 120.81 129.589 120.793 129.61 120.778C129.646 120.751 129.682 120.726 129.716 120.697C129.752 120.668 129.785 120.637 129.818 120.605C129.836 120.588 129.855 120.572 129.872 120.555C129.906 120.521 129.937 120.485 129.968 120.449C129.983 120.432 130 120.415 130.015 120.396C130.042 120.363 130.066 120.329 130.091 120.294C130.109 120.27 130.127 120.247 130.143 120.223C130.162 120.193 130.18 120.163 130.198 120.132C130.217 120.1 130.236 120.069 130.254 120.037C130.267 120.012 130.277 119.987 130.289 119.963C130.309 119.923 130.328 119.883 130.345 119.842C130.354 119.821 130.36 119.8 130.368 119.78C130.385 119.734 130.402 119.688 130.417 119.641C130.423 119.619 130.428 119.597 130.434 119.576C130.446 119.529 130.459 119.483 130.468 119.435C130.476 119.397 130.48 119.359 130.486 119.321C130.49 119.289 130.497 119.258 130.499 119.226C130.507 119.151 130.511 119.076 130.511 119V77.4902L92.5749 98.052Z" fill="#E2E4E9"/>
<path d="M72.9658 19.8486C73.5752 19.5208 73.9941 18.9199 74.0937 18.2344C74.1084 18.1292 74.1172 18.0237 74.1172 17.918C74.1172 18.0237 74.126 18.1292 74.1406 18.2314C74.2402 18.917 74.6592 19.5149 75.2685 19.8457L129.468 49.1426C129.799 49.3216 130.156 49.4063 130.514 49.4063C130.156 49.4063 129.799 49.4944 129.468 49.6729L75.2685 78.9697C74.6592 79.2981 74.2402 79.8984 74.1406 80.584C74.126 80.6898 74.1172 80.7952 74.1172 80.9004C74.1172 80.7952 74.1084 80.6898 74.0937 80.584C73.9941 79.8984 73.5752 79.2981 72.9658 78.9697L18.7666 49.6729C18.4766 49.5179 18.166 49.4297 17.8555 49.4092C18.166 49.3887 18.4766 49.3011 18.7666 49.1455L72.9658 19.8486Z" fill="#B3B7C7"/>
<path d="M147.758 31.6736C147.857 32.3591 147.632 33.0502 147.143 33.5424L132.072 48.7569C131.65 49.1843 131.085 49.407 130.514 49.407C130.156 49.407 129.799 49.3223 129.468 49.1433L75.2686 19.8464C74.6592 19.5157 74.2402 18.9177 74.1406 18.2322C74.126 18.1296 74.1172 18.0245 74.1172 17.9187C74.1172 17.9158 74.1172 17.9158 74.1172 17.9128C74.1172 17.336 74.3457 16.7729 74.7617 16.3604L89.9785 1.14331C90.6641 0.454832 91.7217 0.302781 92.5772 0.765672L146.63 30.0625C147.239 30.3901 147.655 30.988 147.758 31.6736Z" fill="#E2E4E9"/>
<path d="M147.143 65.2734C147.632 65.7656 147.857 66.4573 147.758 67.1429C147.655 67.8255 147.239 68.4229 146.63 68.7542L92.5772 98.0511C92.249 98.2295 91.8887 98.3142 91.5313 98.3142C90.9629 98.3142 90.4004 98.0944 89.9785 97.6729L74.7617 82.4563C74.3457 82.0403 74.1172 81.4778 74.1172 80.9004C74.1172 80.7952 74.126 80.6898 74.1406 80.584C74.2402 79.8984 74.6592 79.2981 75.2686 78.9697L129.468 49.6729C129.799 49.4944 130.156 49.4062 130.514 49.4062C131.085 49.4062 131.65 49.6318 132.072 50.0569L147.143 65.2734Z" fill="#C6C8D2"/>
<path d="M74.1169 17.9133C74.1169 17.9162 74.1169 17.9162 74.1169 17.9192C74.1169 18.0249 74.1081 18.1304 74.0934 18.2356C73.9938 18.9211 73.5749 19.522 72.9655 19.8498L18.7663 49.1467C18.4762 49.3023 18.1657 49.3899 17.8551 49.4104C17.7936 49.4074 17.7292 49.4074 17.6676 49.4104C17.1139 49.3989 16.5719 49.1763 16.1618 48.7632L1.09147 33.5458C0.602211 33.0536 0.376625 32.3625 0.476234 31.677C0.578773 30.9944 0.994789 30.3964 1.60416 30.0656L55.6569 0.768775C56.5124 0.305885 57.57 0.460865 58.2555 1.14641L73.4723 16.3635C73.8883 16.7798 74.1139 17.3394 74.1169 17.9133Z" fill="#E2E4E9"/>
<path d="M74.0934 80.585C74.1081 80.6907 74.1169 80.7962 74.1169 80.9014C74.1169 81.4788 73.8883 82.0413 73.4723 82.4573L58.2555 97.6738C57.8337 98.0954 57.2712 98.3151 56.7028 98.3151C56.3454 98.3151 55.985 98.2305 55.6569 98.0521L1.60416 68.7552C0.994789 68.4238 0.578773 67.8265 0.476234 67.1438C0.376625 66.4583 0.602211 65.7666 1.09147 65.2744L16.1618 50.0579C16.5719 49.6448 17.1139 49.4222 17.6676 49.4102C17.6852 49.4131 17.7028 49.4131 17.7204 49.4131C17.7643 49.4131 17.8083 49.4131 17.8551 49.4102C18.1657 49.4307 18.4762 49.5188 18.7663 49.6738L72.9655 78.9707C73.5749 79.2991 73.9938 79.8994 74.0934 80.585Z" fill="#E2E4E9"/>
<path d="M17.8555 49.4104C17.8086 49.4133 17.7646 49.4133 17.7207 49.4133C17.7031 49.4133 17.6855 49.4133 17.668 49.4104C17.7295 49.4075 17.7939 49.4075 17.8555 49.4104Z" fill="#A4A8B7"/>
<path d="M129.881 77.8342C129.853 77.8893 129.823 77.9098 129.793 77.8822H129.793L121.726 82.2545V123.761C121.726 123.837 121.722 123.913 121.715 123.987C121.712 124.019 121.705 124.05 121.701 124.082C121.696 124.12 121.691 124.158 121.683 124.196C121.674 124.244 121.661 124.291 121.649 124.337C121.643 124.359 121.639 124.38 121.632 124.402C121.618 124.449 121.601 124.495 121.583 124.541C121.576 124.561 121.569 124.582 121.561 124.603C121.544 124.644 121.524 124.684 121.505 124.724C121.493 124.748 121.482 124.773 121.469 124.798C121.451 124.83 121.432 124.862 121.413 124.893C121.395 124.924 121.378 124.954 121.358 124.984C121.342 125.008 121.324 125.031 121.307 125.055C121.282 125.089 121.257 125.124 121.23 125.157C121.215 125.176 121.199 125.193 121.183 125.21C121.152 125.246 121.121 125.282 121.088 125.316C121.07 125.334 121.051 125.349 121.033 125.366C121 125.397 120.967 125.429 120.932 125.458C120.897 125.487 120.861 125.513 120.825 125.539C120.804 125.554 120.785 125.571 120.763 125.585C120.749 125.595 120.733 125.603 120.719 125.612L129.357 120.943C129.425 120.906 129.49 120.867 129.553 120.824C129.575 120.809 129.595 120.793 129.615 120.778C129.651 120.751 129.688 120.725 129.722 120.697C129.757 120.668 129.79 120.636 129.823 120.605C129.841 120.588 129.86 120.572 129.878 120.554C129.911 120.521 129.942 120.485 129.973 120.449C129.989 120.431 130.005 120.414 130.02 120.396C130.047 120.363 130.072 120.328 130.097 120.293C130.114 120.27 130.132 120.247 130.148 120.222C130.168 120.192 130.185 120.162 130.203 120.132C130.222 120.1 130.242 120.069 130.259 120.036C130.272 120.012 130.283 119.987 130.295 119.963C130.314 119.922 130.334 119.883 130.351 119.841C130.359 119.821 130.366 119.8 130.373 119.779C130.391 119.734 130.408 119.688 130.422 119.64C130.429 119.619 130.433 119.597 130.439 119.575C130.451 119.529 130.464 119.483 130.473 119.435C130.481 119.397 130.485 119.359 130.491 119.32C130.495 119.289 130.502 119.258 130.505 119.226C130.512 119.151 130.516 119.075 130.516 119V77.4902L129.881 77.8342Z" fill="#E2E4E9"/>
<path d="M73.4704 82.4572L58.2536 97.6737C57.8318 98.0953 57.2693 98.315 56.7009 98.315C56.3435 98.315 55.9831 98.2304 55.655 98.052L17.7188 77.4902V119C17.7185 119.076 17.7223 119.152 17.7299 119.226C17.7331 119.258 17.7393 119.289 17.7437 119.321C17.7492 119.359 17.7536 119.397 17.7612 119.435C17.7706 119.483 17.7835 119.529 17.7958 119.576C17.8017 119.597 17.8061 119.619 17.8125 119.641C17.8269 119.688 17.8442 119.734 17.8614 119.78C17.8691 119.8 17.8755 119.821 17.884 119.842C17.901 119.883 17.9206 119.923 17.94 119.963C17.952 119.987 17.9628 120.012 17.9757 120.037C17.9933 120.069 18.0126 120.101 18.0317 120.132C18.0498 120.162 18.0671 120.193 18.0864 120.223C18.1026 120.247 18.1207 120.27 18.138 120.294C18.1629 120.328 18.1875 120.363 18.2145 120.396C18.2294 120.415 18.2461 120.432 18.2616 120.449C18.2927 120.485 18.3237 120.521 18.3571 120.555C18.3747 120.572 18.3935 120.588 18.4116 120.605C18.445 120.637 18.4778 120.668 18.5133 120.697C18.5476 120.726 18.5839 120.751 18.6196 120.778C18.6407 120.793 18.6604 120.81 18.682 120.825C18.745 120.867 18.8104 120.906 18.8778 120.943L73.0699 150.236C73.3963 150.412 73.7555 150.5 74.115 150.5V80.9013C74.115 81.4787 73.8864 82.0412 73.4704 82.4572Z" fill="#F5F5F5"/>
</svg>
