<svg width="139" height="139" viewBox="0 0 139 139" fill="none" xmlns="http://www.w3.org/2000/svg">
<g clip-path="url(#clip0_1037_144203)">
<path d="M138.5 59.7023C138.5 27.0057 111.873 0.5 79.0273 0.5C46.1814 0.5 19.5547 27.0057 19.5547 59.7023C19.5547 92.3988 46.1814 118.905 79.0273 118.905C85.9211 118.905 92.5389 117.733 98.6961 115.586L116.84 124.348V105.4C130.067 94.5413 138.5 78.1021 138.5 59.7023Z" fill="#F5F5F5"/>
<path d="M79.0262 0.5C77.1532 0.5 75.3015 0.590563 73.4728 0.75902C103.714 3.54732 127.392 28.8703 127.392 59.7023C127.392 90.0237 103.077 115.785 73.3887 118.638C75.2447 118.812 77.1246 118.905 79.0262 118.905C85.92 118.905 92.5378 117.733 98.695 115.586L116.839 124.348V105.4C130.066 94.5413 138.499 78.1021 138.499 59.7023C138.499 27.0057 111.872 0.5 79.0262 0.5V0.5Z" fill="#EFEFF1"/>
<path d="M51.5028 69.2712C56.1351 69.2712 59.8903 65.5159 59.8903 60.8836C59.8903 56.2513 56.1351 52.4961 51.5028 52.4961C46.8705 52.4961 43.1152 56.2513 43.1152 60.8836C43.1152 65.5159 46.8705 69.2712 51.5028 69.2712Z" fill="#E2E4E9"/>
<path d="M79.0243 69.2712C83.6566 69.2712 87.4118 65.5159 87.4118 60.8836C87.4118 56.2513 83.6566 52.4961 79.0243 52.4961C74.3919 52.4961 70.6367 56.2513 70.6367 60.8836C70.6367 65.5159 74.3919 69.2712 79.0243 69.2712Z" fill="#E2E4E9"/>
<path d="M106.55 69.2712C111.182 69.2712 114.937 65.5159 114.937 60.8836C114.937 56.2513 111.182 52.4961 106.55 52.4961C101.917 52.4961 98.1621 56.2513 98.1621 60.8836C98.1621 65.5159 101.917 69.2712 106.55 69.2712Z" fill="#E2E4E9"/>
<path d="M0.5 106.63C0.5 90.5105 13.6267 77.4434 29.8193 77.4434C46.012 77.4434 59.139 90.5105 59.139 106.63C59.139 122.749 46.0122 135.816 29.8193 135.816C26.4208 135.816 23.1581 135.238 20.1227 134.18L11.1783 138.499V129.158C4.65725 123.805 0.5 115.701 0.5 106.63H0.5Z" fill="#F5F5F5"/>
<path d="M29.8207 77.4414C27.9219 77.4414 26.0659 77.6233 24.2676 77.9665C37.8045 80.5505 48.0338 92.3988 48.0338 106.628C48.0338 120.852 37.8118 132.697 24.2819 135.286C26.0761 135.629 27.9262 135.814 29.8207 135.814C46.0134 135.814 59.1403 122.747 59.1403 106.628C59.1403 90.5086 46.0136 77.4414 29.8207 77.4414Z" fill="#EFEFF1"/>
</g>
<defs>
<clipPath id="clip0_1037_144203">
<rect width="138" height="138" fill="white" transform="translate(0.5 0.5)"/>
</clipPath>
</defs>
</svg>
