<svg width="101" height="34" viewBox="0 0 101 34" fill="none" xmlns="http://www.w3.org/2000/svg">
<rect y="0.5" width="101" height="33" rx="16.5" fill="#C6C8D2"/>
<path fill-rule="evenodd" clip-rule="evenodd" d="M30.4998 8.25L27.6561 14.0125L21.2998 14.9313L25.8998 19.4187L24.8123 25.75L30.4998 22.7625L36.1873 25.75L35.0998 19.4187L39.6998 14.9375L33.3436 14.0125L30.4998 8.25Z" fill="white"/>
<path d="M56.6939 23.7876C55.5945 23.7834 54.6484 23.5128 53.8558 22.9759C53.0675 22.4389 52.4602 21.6612 52.0341 20.6428C51.6122 19.6243 51.4034 18.3991 51.4077 16.9673C51.4077 15.5398 51.6186 14.3232 52.0405 13.3175C52.4666 12.3118 53.0739 11.5469 53.8622 11.0227C54.6548 10.4943 55.5987 10.2301 56.6939 10.2301C57.7891 10.2301 58.7308 10.4943 59.5192 11.0227C60.3118 11.5511 60.9212 12.3182 61.3473 13.3239C61.7734 14.3253 61.9844 15.5398 61.9801 16.9673C61.9801 18.4034 61.767 19.6307 61.3409 20.6491C60.919 21.6676 60.3139 22.4453 59.5256 22.9822C58.7372 23.5192 57.7933 23.7876 56.6939 23.7876ZM56.6939 21.4929C57.4439 21.4929 58.0426 21.1158 58.4901 20.3615C58.9375 19.6072 59.1591 18.4759 59.1548 16.9673C59.1548 15.9744 59.0526 15.1477 58.848 14.4872C58.6477 13.8267 58.3622 13.3303 57.9915 12.9979C57.625 12.6655 57.1925 12.4993 56.6939 12.4993C55.9482 12.4993 55.3516 12.8722 54.9041 13.6179C54.4567 14.3636 54.2308 15.4801 54.2266 16.9673C54.2266 17.973 54.3267 18.8125 54.527 19.4858C54.7315 20.1548 55.0192 20.6577 55.3899 20.9943C55.7607 21.3267 56.1953 21.4929 56.6939 21.4929ZM65.0435 23.6662C64.6216 23.6662 64.2594 23.517 63.9569 23.2188C63.6586 22.9162 63.5094 22.554 63.5094 22.1321C63.5094 21.7145 63.6586 21.3565 63.9569 21.0582C64.2594 20.7599 64.6216 20.6108 65.0435 20.6108C65.4526 20.6108 65.8105 20.7599 66.1174 21.0582C66.4242 21.3565 66.5776 21.7145 66.5776 22.1321C66.5776 22.4134 66.5051 22.6712 66.3603 22.9055C66.2196 23.1357 66.0343 23.321 65.8042 23.4616C65.574 23.598 65.3205 23.6662 65.0435 23.6662ZM73.3931 23.7876C72.2937 23.7834 71.3477 23.5128 70.555 22.9759C69.7667 22.4389 69.1594 21.6612 68.7333 20.6428C68.3114 19.6243 68.1026 18.3991 68.1069 16.9673C68.1069 15.5398 68.3178 14.3232 68.7397 13.3175C69.1658 12.3118 69.7731 11.5469 70.5614 11.0227C71.354 10.4943 72.2979 10.2301 73.3931 10.2301C74.4883 10.2301 75.43 10.4943 76.2184 11.0227C77.011 11.5511 77.6204 12.3182 78.0465 13.3239C78.4727 14.3253 78.6836 15.5398 78.6793 16.9673C78.6793 18.4034 78.4663 19.6307 78.0401 20.6491C77.6183 21.6676 77.0131 22.4453 76.2248 22.9822C75.4364 23.5192 74.4925 23.7876 73.3931 23.7876ZM73.3931 21.4929C74.1431 21.4929 74.7418 21.1158 75.1893 20.3615C75.6367 19.6072 75.8583 18.4759 75.854 16.9673C75.854 15.9744 75.7518 15.1477 75.5472 14.4872C75.3469 13.8267 75.0614 13.3303 74.6907 12.9979C74.3242 12.6655 73.8917 12.4993 73.3931 12.4993C72.6474 12.4993 72.0508 12.8722 71.6033 13.6179C71.1559 14.3636 70.93 15.4801 70.9258 16.9673C70.9258 17.973 71.0259 18.8125 71.2262 19.4858C71.4308 20.1548 71.7184 20.6577 72.0891 20.9943C72.4599 21.3267 72.8945 21.4929 73.3931 21.4929Z" fill="white"/>
</svg>
