<svg width="97" height="38" viewBox="0 0 97 38" fill="none" xmlns="http://www.w3.org/2000/svg">
<rect y="0.5" width="97" height="37" rx="8" fill="url(#paint0_linear_2085_152468)"/>
<path d="M8.89284 19.5V12.2273H11.7622C12.3114 12.2273 12.7802 12.3255 13.1684 12.522C13.559 12.7161 13.8561 12.992 14.0597 13.3494C14.2657 13.7045 14.3687 14.1224 14.3687 14.603C14.3687 15.0859 14.2645 15.5014 14.0562 15.8494C13.8479 16.1951 13.546 16.4602 13.1507 16.6449C12.7577 16.8295 12.2818 16.9219 11.7231 16.9219H9.80194V15.6861H11.4745C11.7681 15.6861 12.0119 15.6458 12.2061 15.5653C12.4002 15.4848 12.5446 15.3641 12.6393 15.2031C12.7364 15.0421 12.7849 14.8421 12.7849 14.603C12.7849 14.3615 12.7364 14.1579 12.6393 13.9922C12.5446 13.8265 12.399 13.701 12.2025 13.6158C12.0084 13.5282 11.7633 13.4844 11.4674 13.4844H10.4305V19.5H8.89284ZM12.8204 16.1903L14.6279 19.5H12.9305L11.162 16.1903H12.8204ZM15.4553 19.5V12.2273H20.3559V13.495H16.993V15.228H20.1038V16.4957H16.993V18.2322H20.3701V19.5H15.4553ZM27.9953 14.7734H26.4399C26.4115 14.5722 26.3535 14.3935 26.2659 14.2372C26.1783 14.0786 26.0658 13.9437 25.9285 13.8324C25.7912 13.7211 25.6326 13.6359 25.4527 13.5767C25.2751 13.5175 25.0822 13.4879 24.8738 13.4879C24.4974 13.4879 24.1695 13.5814 23.8902 13.7685C23.6108 13.9531 23.3942 14.223 23.2403 14.5781C23.0864 14.9309 23.0095 15.3594 23.0095 15.8636C23.0095 16.3821 23.0864 16.8177 23.2403 17.1705C23.3966 17.5232 23.6144 17.7895 23.8937 17.9695C24.1731 18.1494 24.4962 18.2393 24.8632 18.2393C25.0692 18.2393 25.2597 18.2121 25.4349 18.1577C25.6125 18.1032 25.7699 18.0239 25.9072 17.9197C26.0445 17.8132 26.1582 17.6842 26.2481 17.5327C26.3405 17.3812 26.4044 17.2083 26.4399 17.0142L27.9953 17.0213C27.955 17.3551 27.8544 17.6771 27.6934 17.9872C27.5348 18.295 27.3206 18.5708 27.0507 18.8146C26.7832 19.0561 26.4636 19.2479 26.0919 19.3899C25.7226 19.5296 25.3047 19.5994 24.8383 19.5994C24.1897 19.5994 23.6096 19.4527 23.0983 19.1591C22.5893 18.8655 22.1868 18.4406 21.8909 17.8842C21.5973 17.3279 21.4506 16.6544 21.4506 15.8636C21.4506 15.0705 21.5997 14.3958 21.898 13.8395C22.1963 13.2831 22.6011 12.8594 23.1125 12.5682C23.6238 12.2746 24.1991 12.1278 24.8383 12.1278C25.2597 12.1278 25.6504 12.187 26.0102 12.3054C26.3724 12.4238 26.6932 12.5966 26.9726 12.8239C27.2519 13.0488 27.4792 13.3246 27.6544 13.6513C27.8319 13.978 27.9456 14.352 27.9953 14.7734ZM35.7812 15.8636C35.7812 16.6567 35.6308 17.3314 35.3302 17.8878C35.0319 18.4441 34.6247 18.8691 34.1086 19.1626C33.5948 19.4538 33.0172 19.5994 32.3756 19.5994C31.7293 19.5994 31.1493 19.4527 30.6356 19.1591C30.1218 18.8655 29.7158 18.4406 29.4175 17.8842C29.1192 17.3279 28.9701 16.6544 28.9701 15.8636C28.9701 15.0705 29.1192 14.3958 29.4175 13.8395C29.7158 13.2831 30.1218 12.8594 30.6356 12.5682C31.1493 12.2746 31.7293 12.1278 32.3756 12.1278C33.0172 12.1278 33.5948 12.2746 34.1086 12.5682C34.6247 12.8594 35.0319 13.2831 35.3302 13.8395C35.6308 14.3958 35.7812 15.0705 35.7812 15.8636ZM34.2222 15.8636C34.2222 15.3499 34.1453 14.9167 33.9914 14.5639C33.8399 14.2112 33.6256 13.9437 33.3486 13.7614C33.0716 13.5791 32.7473 13.4879 32.3756 13.4879C32.0039 13.4879 31.6796 13.5791 31.4026 13.7614C31.1256 13.9437 30.9102 14.2112 30.7563 14.5639C30.6048 14.9167 30.529 15.3499 30.529 15.8636C30.529 16.3774 30.6048 16.8106 30.7563 17.1634C30.9102 17.5161 31.1256 17.7836 31.4026 17.9659C31.6796 18.1482 32.0039 18.2393 32.3756 18.2393C32.7473 18.2393 33.0716 18.1482 33.3486 17.9659C33.6256 17.7836 33.8399 17.5161 33.9914 17.1634C34.1453 16.8106 34.2222 16.3774 34.2222 15.8636ZM36.9202 12.2273H38.8165L40.8193 17.1136H40.9046L42.9074 12.2273H44.8037V19.5H43.3122V14.7663H43.2519L41.3698 19.4645H40.3541L38.472 14.7486H38.4117V19.5H36.9202V12.2273ZM46.0706 12.2273H47.9669L49.9697 17.1136H50.055L52.0578 12.2273H53.9541V19.5H52.4626V14.7663H52.4023L50.5202 19.4645H49.5045L47.6224 14.7486H47.5621V19.5H46.0706V12.2273ZM55.221 19.5V12.2273H60.1215V13.495H56.7586V15.228H59.8694V16.4957H56.7586V18.2322H60.1357V19.5H55.221ZM67.4271 12.2273V19.5H66.099L62.9349 14.9226H62.8817V19.5H61.344V12.2273H62.6934L65.8327 16.8011H65.8966V12.2273H67.4271ZM71.2757 19.5H68.6975V12.2273H71.297C72.0285 12.2273 72.6582 12.3729 73.1862 12.6641C73.7141 12.9529 74.1201 13.3684 74.4042 13.9105C74.6907 14.4527 74.8339 15.1013 74.8339 15.8565C74.8339 16.6141 74.6907 17.2652 74.4042 17.8097C74.1201 18.3542 73.7117 18.772 73.1791 19.0632C72.6488 19.3544 72.0143 19.5 71.2757 19.5ZM70.2352 18.1825H71.2117C71.6663 18.1825 72.0486 18.102 72.3588 17.9411C72.6713 17.7777 72.9056 17.5256 73.0619 17.1847C73.2205 16.8414 73.2998 16.3987 73.2998 15.8565C73.2998 15.3191 73.2205 14.88 73.0619 14.5391C72.9056 14.1982 72.6724 13.9472 72.3623 13.7862C72.0522 13.6252 71.6698 13.5447 71.2153 13.5447H70.2352V18.1825ZM75.9729 19.5V12.2273H80.8735V13.495H77.5106V15.228H80.6214V16.4957H77.5106V18.2322H80.8877V19.5H75.9729ZM84.6741 19.5H82.096V12.2273H84.6954C85.4269 12.2273 86.0567 12.3729 86.5846 12.6641C87.1125 12.9529 87.5186 13.3684 87.8026 13.9105C88.0891 14.4527 88.2323 15.1013 88.2323 15.8565C88.2323 16.6141 88.0891 17.2652 87.8026 17.8097C87.5186 18.3542 87.1102 18.772 86.5775 19.0632C86.0472 19.3544 85.4127 19.5 84.6741 19.5ZM83.6336 18.1825H84.6102C85.0647 18.1825 85.4471 18.102 85.7572 17.9411C86.0697 17.7777 86.3041 17.5256 86.4603 17.1847C86.6189 16.8414 86.6982 16.3987 86.6982 15.8565C86.6982 15.3191 86.6189 14.88 86.4603 14.5391C86.3041 14.1982 86.0709 13.9472 85.7607 13.7862C85.4506 13.6252 85.0683 13.5447 84.6137 13.5447H83.6336V18.1825Z" fill="white"/>
<defs>
<linearGradient id="paint0_linear_2085_152468" x1="-3.88" y1="-0.24" x2="8.73647" y2="56.4611" gradientUnits="userSpaceOnUse">
<stop stop-color="#2BA6FF"/>
<stop offset="1" stop-color="#943FFF"/>
</linearGradient>
</defs>
</svg>
