<svg width="636" height="354" viewBox="0 0 636 354" fill="none" xmlns="http://www.w3.org/2000/svg">
<g clip-path="url(#clip0_902_148811)">
<path d="M453.123 308.285C460.836 302.326 467.666 295.423 472.789 287.104C483.152 270.23 484.329 246.394 471.081 231.703C456.362 215.36 431.043 215.832 409.199 218.015C387.355 220.198 362.449 221.909 346.375 206.923C333.245 194.71 330.478 175.181 329.124 157.304C327.769 139.427 326.651 120.134 315.523 106.092C300.508 87.1534 270.362 84.9114 250.049 97.8914C229.736 110.93 219.137 135.887 218.902 160.018C218.784 170.343 219.432 182.792 210.894 188.633C204.123 193.294 194.761 190.993 187.46 187.217C180.159 183.441 173.271 178.19 165.145 177.069C154.311 175.594 143.478 182.202 137.472 191.347C131.466 200.492 129.406 211.702 129.052 222.676C128.11 253.828 139.945 284.862 160.376 308.226H453.123V308.285Z" fill="#FEFBEC"/>
<path d="M131.359 307.873H474.33" stroke="#FDE6E8" stroke-width="1.0481" stroke-miterlimit="10"/>
<path d="M392.906 304.273H292.4C288.69 304.273 285.688 307.282 285.688 310.999H392.906V304.273Z" fill="#F599A0"/>
<path d="M425.465 259.139H355.929C353.986 259.139 352.278 260.319 351.513 262.089L332.318 307.106C331.553 308.935 332.907 311 334.909 311H406.742C408.685 311 410.392 309.82 411.158 308.05L429.469 265.098C430.647 262.266 428.527 259.139 425.465 259.139Z" fill="#E60112"/>
<path d="M389.422 286.042C388.363 290.349 384.006 293.889 379.707 293.889C375.409 293.889 372.76 290.408 373.819 286.042C374.879 281.735 379.236 278.195 383.534 278.195C387.833 278.195 390.482 281.735 389.422 286.042Z" fill="white"/>
<path d="M452.417 149.752H293.09C285.907 149.752 280.078 155.593 280.078 162.791V230.7C280.078 237.898 285.907 243.739 293.09 243.739H354.384L365.335 254.713L376.287 243.739H452.358C459.542 243.739 465.371 237.898 465.371 230.7V162.791C465.43 155.593 459.601 149.752 452.417 149.752Z" fill="white" stroke="#E60112" stroke-width="1.0481" stroke-miterlimit="10"/>
<path d="M315.147 189.632C322.069 186.711 325.318 178.719 322.403 171.782C319.487 164.845 311.512 161.59 304.589 164.511C297.667 167.433 294.418 175.424 297.333 182.361C300.249 189.298 308.224 192.554 315.147 189.632Z" fill="#FACCD0"/>
<path d="M338.249 164.68L340.722 172.173L348.612 172.114L342.253 176.834L344.785 184.327L338.367 179.725L332.008 184.445L334.363 176.893L327.945 172.291L335.835 172.232L338.249 164.68Z" fill="#FAAF3B"/>
<path d="M363.39 164.68L365.863 172.173L373.752 172.114L367.452 176.834L369.925 184.327L363.508 179.725L357.149 184.445L359.504 176.893L353.086 172.291L360.976 172.232L363.39 164.68Z" fill="#FAAF3B"/>
<path d="M388.534 164.68L391.066 172.173L398.956 172.114L392.597 176.834L395.07 184.327L388.652 179.725L382.293 184.445L384.707 176.893L378.289 172.291L386.179 172.232L388.534 164.68Z" fill="#FAAF3B"/>
<path d="M413.675 164.68L416.206 172.173L424.096 172.114L417.737 176.834L420.21 184.327L413.792 179.725L407.433 184.445L409.848 176.893L403.43 172.291L411.319 172.232L413.675 164.68Z" fill="#FAECB2"/>
<path d="M438.866 164.68L441.339 172.173L449.229 172.114L442.87 176.834L445.402 184.327L438.984 179.725L432.625 184.445L434.98 176.893L428.562 172.291L436.452 172.232L438.866 164.68Z" fill="#FAECB2"/>
<path d="M307.511 196.775H295.5V200.02H307.511V196.775Z" fill="#E60112"/>
<path d="M328.533 196.775H310.516V200.02H328.533V196.775Z" fill="#E60112"/>
<path d="M321.407 206.332H295.5V209.577H321.407V206.332Z" fill="#FACCD0"/>
<path d="M392.653 206.332H332.008V209.577H392.653V206.332Z" fill="#FACCD0"/>
<path d="M449.941 206.332H403.25V209.577H449.941V206.332Z" fill="#FACCD0"/>
<path d="M353.496 216.6H295.5V219.845H353.496V216.6Z" fill="#FACCD0"/>
<path d="M449.937 216.6H420.969V219.845H449.937V216.6Z" fill="#FACCD0"/>
<path d="M414.196 216.6H363.383V219.845H414.196V216.6Z" fill="#FACCD0"/>
<path d="M369.511 226.863H295.5V230.108H369.511V226.863Z" fill="#FACCD0"/>
<path d="M484.392 98.0684H380.471C375.76 98.0684 371.992 101.903 371.992 106.564V127.391C371.992 132.111 375.819 135.887 380.471 135.887H484.451C489.162 135.887 492.93 132.052 492.93 127.391V106.623C492.93 101.903 489.103 98.0684 484.392 98.0684Z" fill="white" stroke="#E60112" stroke-width="1.0481" stroke-miterlimit="10"/>
<path d="M411.908 110.576L413.556 115.473H418.679L414.557 118.541L416.206 123.438L411.966 120.429L407.845 123.497L409.376 118.541L405.195 115.532H410.377L411.908 110.576Z" fill="#FAAF3B"/>
<path d="M428.345 110.576L429.994 115.473H435.116L430.995 118.541L432.643 123.438L428.404 120.429L424.282 123.497L425.813 118.541L421.633 115.532H426.814L428.345 110.576Z" fill="#FAAF3B"/>
<path d="M444.767 110.576L446.415 115.473H451.538L447.416 118.541L449.006 123.438L444.826 120.429L440.704 123.497L442.235 118.541L438.055 115.532H443.177L444.767 110.576Z" fill="#FAAF3B"/>
<path d="M461.197 110.576L462.786 115.473H467.968L463.846 118.541L465.436 123.438L461.255 120.429L457.134 123.497L458.665 118.541L454.484 115.532H459.607L461.197 110.576Z" fill="#FAAF3B"/>
<path d="M477.618 110.576L479.208 115.473H484.39L480.209 118.541L481.858 123.438L477.677 120.429L473.497 123.497L475.087 118.541L470.906 115.532H476.029L477.618 110.576Z" fill="#FAECB2"/>
<path d="M398.208 116.569C398.877 112.419 396.062 108.512 391.921 107.841C387.78 107.171 383.881 109.991 383.211 114.141C382.542 118.29 385.357 122.198 389.498 122.868C393.639 123.539 397.539 120.718 398.208 116.569Z" fill="#FACCD0"/>
<path d="M388.298 124.5H381.586V126.27H388.298V124.5Z" fill="#E60112"/>
<path d="M400.014 124.5H389.945V126.27H400.014V124.5Z" fill="#E60112"/>
<path d="M217.136 132.76H145.774C142.536 132.76 139.945 135.356 139.945 138.601V152.938C139.945 156.183 142.536 158.779 145.774 158.779H217.136C220.374 158.779 222.965 156.183 222.965 152.938V138.601C223.024 135.356 220.374 132.76 217.136 132.76Z" fill="white" stroke="#E60112" stroke-width="1.0481" stroke-miterlimit="10"/>
<path d="M167.382 141.314L168.5 144.677H172.033L169.207 146.801L170.326 150.164L167.441 148.099L164.614 150.164L165.674 146.801L162.789 144.736H166.322L167.382 141.314Z" fill="#FAAF3B"/>
<path d="M178.624 141.314L179.743 144.677H183.334L180.449 146.801L181.568 150.164L178.683 148.099L175.857 150.164L176.916 146.801L174.031 144.736H177.564L178.624 141.314Z" fill="#FAAF3B"/>
<path d="M189.929 141.314L191.047 144.677H194.58L191.754 146.801L192.872 150.164L189.987 148.099L187.102 150.164L188.221 146.801L185.336 144.736H188.869L189.929 141.314Z" fill="#FAAF3B"/>
<path d="M201.179 141.314L202.297 144.677H205.889L203.004 146.801L204.122 150.164L201.237 148.099L198.411 150.164L199.471 146.801L196.586 144.736H200.119L201.179 141.314Z" fill="#FAAF3B"/>
<path d="M212.483 141.314L213.602 144.677H217.135L214.308 146.801L215.427 150.164L212.542 148.099L209.657 150.164L210.776 146.801L207.891 144.736H211.423L212.483 141.314Z" fill="#E8ECFF"/>
<path d="M157.956 145.435C158.42 142.605 156.507 139.935 153.683 139.47C150.86 139.005 148.194 140.922 147.731 143.752C147.267 146.581 149.18 149.252 152.004 149.717C154.827 150.181 157.493 148.264 157.956 145.435Z" fill="#FACCD0"/>
<path d="M151.132 150.932H146.539V152.171H151.132V150.932Z" fill="#E60112"/>
<path d="M159.194 150.932H152.305V152.171H159.194V150.932Z" fill="#E60112"/>
<path d="M458.487 287.281C467.234 287.281 474.325 280.175 474.325 271.41C474.325 262.645 467.234 255.539 458.487 255.539C449.74 255.539 442.648 262.645 442.648 271.41C442.648 280.175 449.74 287.281 458.487 287.281Z" fill="#65BEFF"/>
<path d="M463.198 265.393C460.549 265.393 458.429 267.517 458.429 270.172C458.429 267.517 456.309 265.393 453.66 265.393C451.01 265.393 448.891 267.517 448.891 270.172C448.891 276.131 458.429 281.146 458.429 281.146C458.429 281.146 467.968 276.131 467.968 270.172C467.968 267.576 465.848 265.393 463.198 265.393Z" fill="white"/>
<path d="M177.156 210.008C178.569 201.358 172.716 193.198 164.083 191.782C155.45 190.366 147.307 196.231 145.894 204.882C144.481 213.532 150.334 221.692 158.967 223.108C167.6 224.524 175.743 218.659 177.156 210.008Z" fill="#65BEFF"/>
<path d="M166.269 201.436C163.619 201.436 161.499 203.56 161.499 206.215C161.499 203.56 159.38 201.436 156.73 201.436C154.081 201.436 151.961 203.56 151.961 206.215C151.961 212.174 161.499 217.188 161.499 217.188C161.499 217.188 171.038 212.174 171.038 206.215C171.038 203.56 168.918 201.436 166.269 201.436Z" fill="white"/>
<path d="M247.989 95.7676L251.816 107.686H264.299L254.23 115.002L258.058 126.86L247.989 119.545L237.921 126.86L241.748 115.002L231.68 107.686H244.162L247.989 95.7676Z" fill="#F3D03E"/>
<path d="M267.006 124.205L269.95 133.291H279.429L271.716 138.896L274.66 147.923L267.006 142.377L259.293 147.923L262.237 138.896L254.523 133.291H264.062L267.006 124.205Z" fill="#F3D03E"/>
<path d="M254.586 151.699L256.293 157.009H261.828L257.353 160.254L259.061 165.505L254.586 162.26L250.111 165.505L251.819 160.254L247.344 157.009H252.878L254.586 151.699Z" fill="#F3D03E"/>
<path d="M489.747 214.069C497.748 206.051 497.748 193.051 489.747 185.033C481.745 177.014 468.771 177.015 460.77 185.033C452.768 193.051 452.768 206.051 460.77 214.069C468.771 222.087 481.745 222.087 489.747 214.069Z" fill="#F06771"/>
<path d="M464.898 189.459V196.539L479.265 199.843L464.898 203.147V210.286L491.453 199.843L464.898 189.459Z" fill="white"/>
<path d="M354.032 105.149C354.032 121.728 340.607 135.239 324.18 135.18C307.517 135.121 295.918 122.377 294.328 108.866C293.269 99.9569 295.683 91.9919 301.571 85.266C307.459 78.481 315.113 75 324.121 75C340.431 75.059 354.15 88.275 354.032 105.149Z" fill="#E60112"/>
<path d="M328.247 116.418C325.597 116.418 322.948 116.418 320.298 116.418C319.356 116.418 319.003 116.123 319.003 115.179C319.062 111.049 318.826 106.919 319.12 102.789C319.297 100.134 320.357 97.7737 322.006 95.6497C323.124 94.2337 324.243 92.8177 325.538 91.5787C325.95 91.1657 326.186 90.6937 326.186 90.1038C326.186 89.3958 326.245 88.6878 326.245 87.9798C326.245 87.0948 326.539 86.3868 327.364 86.0328C328.247 85.6788 329.071 85.8558 329.778 86.5048C330.484 87.1538 330.72 87.9798 330.955 88.8648C331.485 91.1067 331.073 93.2307 330.19 95.2367C329.895 95.9447 329.601 96.6527 329.248 97.3017C329.012 97.7147 329.189 97.8917 329.601 97.9507C329.778 98.0097 330.013 97.9507 330.19 97.9507C332.545 97.9507 334.959 97.9507 337.314 97.9507C338.609 97.9507 339.493 98.5407 339.787 99.6617C340.14 100.901 339.61 102.317 338.609 102.907C338.138 103.143 338.138 103.261 338.551 103.556C339.434 104.146 340.023 104.913 339.846 106.093C339.728 106.978 339.257 107.568 338.433 107.863C338.256 107.922 338.021 107.922 337.962 108.099C337.903 108.335 338.197 108.335 338.315 108.453C339.434 109.279 339.61 111.58 337.962 112.288C337.667 112.406 337.491 112.524 337.844 112.819C338.551 113.527 338.609 114.412 338.256 115.297C337.903 116.123 337.196 116.418 336.313 116.418C333.546 116.359 330.896 116.359 328.247 116.418C328.247 116.359 328.247 116.359 328.247 116.418Z" fill="#FDFDFE"/>
<path d="M315.821 118.776C313.642 118.776 311.463 118.776 309.285 118.776C308.637 118.776 308.343 118.422 308.284 117.832C308.225 117.537 308.284 117.183 308.284 116.888C308.284 112.286 308.284 107.684 308.284 103.141C308.284 102.02 308.578 101.725 309.697 101.725C311.64 101.725 313.642 101.725 315.585 101.725C316.35 101.725 316.763 102.079 316.763 102.846C316.763 107.684 316.763 112.463 316.763 117.301V117.36C316.645 117.419 316.645 117.419 316.763 117.478C316.821 118.009 316.763 118.481 316.174 118.717C316.174 118.599 316.115 118.422 315.938 118.481C315.703 118.481 315.879 118.658 315.821 118.776Z" fill="#FDFDFE"/>
<path d="M246.161 192.411C246.986 196.659 246.75 200.966 247.104 205.273C247.398 209.58 248.399 214.005 251.225 217.25C253.639 220.023 257.172 221.734 258.879 224.979C260.175 227.457 260.175 230.466 259.174 233.062C258.232 235.658 256.406 237.9 254.228 239.67C246.927 245.805 235.975 246.749 227.32 242.796C218.665 238.785 212.424 230.289 210.422 220.967C208.361 211.645 210.304 201.674 214.897 193.296C217.487 188.576 221.079 184.21 225.848 181.732C229.852 179.726 235.799 178.959 239.802 181.378C243.276 183.443 245.396 188.694 246.161 192.411Z" fill="#452828"/>
<path d="M315.063 288.283C315.063 288.283 313.532 291.646 309.528 289.64L306.938 294.537L313.414 297.959L318.125 289.109L316.299 280.377C316.299 280.377 314.533 281.085 314.592 282.973C314.592 284.802 315.063 288.283 315.063 288.283Z" fill="#915046"/>
<path d="M320.952 299.791C321.011 297.726 319.892 295.838 318.067 294.894L311.296 291.295L309.883 293.95L320.952 299.791Z" fill="#994F39"/>
<path d="M322.891 302.797C322.949 300.732 321.831 298.844 320.005 297.9L312.233 293.77L310.82 296.425L322.891 302.797Z" fill="#AB6955"/>
<path d="M313.767 272.059L316.064 278.785H323.188L317.418 282.974L319.655 289.759L313.885 285.629L308.174 289.877L310.294 283.033L304.523 278.903L311.648 278.844L313.767 272.059Z" fill="#FAAF3B"/>
<path d="M309.408 289.581L309.761 287.221L312.47 285.038C313.294 284.389 313.765 283.386 313.765 282.324V282.029L305.404 285.038L301.754 289.345L299.398 293.77L311.999 300.437L312.882 298.844C314.589 295.658 313.353 291.646 310.173 289.994L309.408 289.581Z" fill="#B57A68"/>
<path d="M320.945 305.216C321.004 303.151 319.885 301.263 318.06 300.319L310.288 296.189L308.875 298.844L320.945 305.216Z" fill="#B57A68"/>
<path d="M309.296 289.346C308.53 290.585 307.47 291.647 306.352 292.532" stroke="#A15545" stroke-width="1.8647" stroke-miterlimit="10" stroke-linecap="round" stroke-linejoin="round"/>
<path d="M264.184 289.287L302.632 289.936L302.456 295.187L256.766 302.208L264.184 289.287Z" fill="#B57A68"/>
<path d="M228.68 239.904H239.926C245.225 239.904 249.994 243.267 251.701 248.341L268.07 296.308C268.07 296.308 266.951 305.158 260.003 305.984C257.413 306.279 254.881 304.863 253.703 302.562L228.68 255.008V239.904Z" fill="#383757"/>
<path d="M257.173 288.52L294.208 289.759L282.079 305.216L258.645 306.632C255.524 306.809 253.169 303.918 253.935 300.909L255.465 295.069L257.173 288.52Z" fill="#383757"/>
<path d="M264.172 289.287C261.169 291.116 257.754 293.948 256.164 297.134" stroke="#474463" stroke-width="1.8647" stroke-miterlimit="10" stroke-linecap="round"/>
<path d="M264.182 289.287C260.237 289.464 255.409 289.995 252.523 292.65" stroke="#474463" stroke-width="1.8647" stroke-miterlimit="10" stroke-linecap="round"/>
<path d="M199.945 311.59L190.642 247.398L195.294 239.846H237.922L249.639 271.411C249.639 271.411 239.865 301.796 239.865 313.064L250.64 344.393L237.922 349.29L228.148 319.2L217.315 349.054L183.812 335.071L199.945 311.59Z" fill="#474463"/>
<path d="M190.641 247.397L195.41 239.727H201.474L203.3 255.008L197.412 293.947L190.641 247.397Z" fill="#383757"/>
<path d="M235.916 240.023V276.131L205.711 240.023H235.916Z" fill="white"/>
<path d="M217.429 248.695C215.309 248.164 213.249 247.456 211.247 246.571L205.477 239.668H235.917V244.978C231.678 250.052 223.611 250.17 217.429 248.695Z" fill="#B57A68"/>
<path d="M205.477 239.727V262.264H218.371L211.188 277.427L236.859 277.25L205.477 239.727Z" fill="#615F7F"/>
<path d="M235.922 239.727H237.865L252.997 262.264H241.044L253.939 277.427H236.864H236.099L235.922 239.727Z" fill="#615F7F"/>
<path d="M236.042 277.428C233.157 291.175 230.979 305.158 228.094 318.905" stroke="#383757" stroke-width="1.8647" stroke-miterlimit="10"/>
<path d="M203.301 239.668H191.996C186.697 239.668 181.927 243.031 180.22 248.105L163.852 296.072C163.852 296.072 164.028 299.612 165.677 302.68C168.267 307.518 174.744 308.757 177.335 303.919L203.242 254.831V239.668H203.301Z" fill="#474463"/>
<path d="M218.963 291.234L222.084 293.889L229.502 295.6L229.444 295.305C229.326 294.243 228.678 293.358 227.795 292.768L225.911 291.293L226.441 289.228L229.561 286.632L225.793 283.387L217.727 288.697L218.963 291.234Z" fill="#915046"/>
<path d="M226.145 285.982L231.327 290.879L237.568 287.516L234.506 293.947L239.629 298.844L232.563 297.9L229.501 304.331L228.206 297.31L221.141 296.366L227.441 293.003L226.145 285.982Z" fill="#FAAF3B"/>
<path d="M230.8 288.579C230.8 288.579 229.21 286.101 226.325 288.107L223.734 284.508L228.975 280.85L233.626 287.34L232.625 293.299C232.625 293.299 231.153 292.945 230.977 291.47C230.8 289.995 230.8 288.579 230.8 288.579Z" fill="#915046"/>
<path d="M219.257 291.822L216.195 287.692L227.618 278.842L228.678 280.317C230.797 283.267 230.68 285.922 228.854 287.338L226.381 289.285L219.257 291.822Z" fill="#B57A68"/>
<path d="M236.037 282.619C236.39 282.56 236.626 282.855 236.508 283.209C235.978 284.448 234.859 285.451 233.505 285.805L226.558 287.516L225.969 285.156L236.037 282.619Z" fill="#B57A68"/>
<path d="M235.095 272.766C235.449 272.53 235.92 272.707 235.92 273.179C235.979 274.89 235.272 276.542 233.859 277.663L226.97 283.209L225.086 280.849L235.095 272.766Z" fill="#B57A68"/>
<path d="M236.566 277.664C236.92 277.487 237.391 277.782 237.273 278.195C236.979 279.847 235.919 281.322 234.329 282.089L227.44 285.511L226.086 282.797L236.566 277.664Z" fill="#B57A68"/>
<path d="M175.98 286.396L213.78 286.16L202.004 302.621L172.741 307.046C168.973 307.636 165.735 304.273 166.441 300.497C167.442 294.42 169.974 286.868 175.98 286.396Z" fill="#474463"/>
<path d="M186.224 286.338L173.859 286.633" stroke="#383757" stroke-width="1.8647" stroke-miterlimit="10" stroke-linecap="round"/>
<path d="M186.223 286.338L173.328 289.76" stroke="#383757" stroke-width="1.8647" stroke-miterlimit="10" stroke-linecap="round"/>
<path d="M212.898 209.52L214.253 242.854C214.312 244.211 215.43 245.273 216.726 245.273H233.094C235.155 245.273 236.097 242.795 234.684 241.379C231.563 238.311 228.384 233.001 228.384 224.269V210.228L212.898 209.52Z" fill="#B57A68"/>
<path d="M220.434 209.814L228.324 210.168V224.21C228.324 228.045 228.912 231.231 229.913 233.827C220.846 230.759 217.784 218.605 220.434 209.814Z" fill="#915046"/>
<path d="M216.958 221.967C215.84 221.2 214.78 220.315 213.72 219.312C208.48 214.179 205.359 207.276 204.594 199.96C203.887 193.175 205.241 186.39 210.894 181.906C216.899 177.127 226.32 176.714 233.091 180.018C239.568 183.204 243.159 189.281 244.455 196.184C245.102 199.606 245.279 203.146 245.338 206.627C245.397 213.176 244.396 225.743 236.918 227.336C228.793 229.047 222.905 225.979 216.958 221.967Z" fill="#B57A68"/>
<path d="M242.096 193.354C244.274 196.421 244.863 200.315 245.452 204.032C246.806 199.253 246.806 194.12 245.452 189.342C244.804 187.1 243.862 184.917 242.331 183.206C240.8 181.495 238.563 180.256 236.267 180.315C232.616 180.374 228.259 185.389 232.027 188.398C233.146 189.342 235.089 189.106 236.443 189.519C238.74 190.05 240.741 191.348 242.096 193.354Z" fill="#452828"/>
<path d="M233.383 196.068C230.91 198.31 227.908 199.785 224.669 200.434C221.372 201.142 217.368 200.965 214.836 203.62C207.3 211.703 213.659 221.379 217.486 229.521C219.429 233.592 221.431 238.371 220.371 242.972C219.017 248.872 213.247 251.704 207.594 251.704C198.409 251.763 191.285 244.919 189.401 236.07C188.459 231.527 189.106 226.984 190.873 222.677C192.521 218.724 195.112 215.302 196.407 211.231C198.468 204.741 195.524 197.838 197.644 191.23C201.824 178.073 222.02 165.152 234.325 175.89C241.567 182.144 239.271 190.758 233.383 196.068Z" fill="#452828"/>
<path d="M215.362 198.959C213.713 200.552 212.653 202.735 212.418 205.036C212.123 207.632 212.83 210.228 214.125 212.529L215.833 212.234C216.01 209.284 216.775 206.334 217.658 203.561C218.07 202.263 218.6 201.024 219.189 199.785C218.718 197.484 216.893 197.543 215.362 198.959Z" fill="#452828"/>
<path d="M237.617 205.566C238.088 207.749 238.971 209.873 240.208 211.702C240.62 212.351 241.15 213.118 240.973 213.885C240.797 214.593 240.09 215.065 239.442 215.419" stroke="#915046" stroke-width="1.2164" stroke-miterlimit="10" stroke-linecap="round"/>
<path d="M237.567 221.275C238.542 220.914 239.041 219.827 238.68 218.85C238.319 217.872 237.235 217.372 236.259 217.734C235.283 218.095 234.785 219.181 235.146 220.159C235.507 221.137 236.591 221.637 237.567 221.275Z" fill="#FF7A7A"/>
<path d="M239.797 218.426C237.854 219.606 235.381 219.724 233.32 218.839" stroke="#915046" stroke-width="1.2164" stroke-miterlimit="10" stroke-linecap="round"/>
<path d="M244.156 199.607C242.507 198.663 240.741 198.899 239.445 200.256" stroke="#452828" stroke-width="1.8231" stroke-miterlimit="10" stroke-linecap="round"/>
<path d="M231.146 201.319C228.791 200.552 226.318 200.965 224.375 202.44" stroke="#452828" stroke-width="1.8231" stroke-miterlimit="10" stroke-linecap="round"/>
<path d="M230.733 206.45C230.909 207.335 230.262 208.22 229.378 208.397C228.495 208.574 227.612 207.925 227.435 207.04C227.259 206.155 227.906 205.27 228.79 205.093C229.732 204.975 230.556 205.565 230.733 206.45Z" fill="#452828"/>
<path d="M243.396 205.585C243.544 204.685 242.936 203.835 242.038 203.686C241.139 203.538 240.291 204.147 240.143 205.048C239.995 205.948 240.603 206.798 241.502 206.946C242.4 207.095 243.248 206.485 243.396 205.585Z" fill="#452828"/>
<path d="M213.715 208.518C212.596 207.574 210.947 207.043 209.593 207.574C208.474 208.046 207.709 209.108 207.415 210.288C207.12 211.468 207.356 212.707 207.709 213.828C209.004 217.427 212.596 220.082 216.364 220.259C217.13 220.318 216.718 213.946 216.6 213.356C216.305 211.586 215.128 209.698 213.715 208.518Z" fill="#B57A68"/>
<path d="M215.301 218.606C215.477 219.491 214.889 220.376 213.947 220.494C213.063 220.671 212.18 220.081 212.062 219.137C211.886 218.252 212.475 217.367 213.417 217.249C214.3 217.131 215.183 217.721 215.301 218.606Z" fill="white"/>
<path d="M209.883 210.169C210.53 209.638 211.531 209.579 212.297 209.874C213.062 210.228 213.651 210.877 214.063 211.644C214.417 212.411 214.593 213.296 214.652 214.122C214.24 213.709 213.533 213.65 213.062 214.004C212.591 214.358 212.415 215.007 212.65 215.538C212.886 216.069 213.533 216.364 214.122 216.187" stroke="#915046" stroke-width="1.2164" stroke-miterlimit="10" stroke-linecap="round"/>
</g>
<defs>
<clipPath id="clip0_902_148811">
<rect width="375" height="233" fill="white" transform="translate(129 75)"/>
</clipPath>
</defs>
</svg>
