<svg width="448" height="190" viewBox="0 0 448 190" fill="none" xmlns="http://www.w3.org/2000/svg">
<g clip-path="url(#clip0_5221_40799)">
<path d="M244.343 29.3244C264.414 37.3613 280.671 49.4533 294.961 66.8244C309.421 84.2411 321.7 107.06 319.235 129.358C316.601 151.611 299.161 173.234 277.744 181.988C256.373 190.573 231.195 186.334 206.655 179.725C182.161 172.948 158.366 163.908 148.196 146.739C137.964 129.463 141.249 104.119 148.245 80.4996C155.179 56.7731 165.868 34.6027 183.164 25.6466C200.353 16.7524 224.317 21.1182 244.343 29.3244Z" fill="#FFF3EB"/>
<g clip-path="url(#clip1_5221_40799)">
<path d="M287.004 64.1205L268.879 45.9955C268.242 45.3582 267.378 45 266.477 45H175.398C173.522 45 172 46.5216 172 48.3984V157.602C172 159.478 173.522 161 175.398 161H284.602C286.478 161 288 159.478 288 157.602V66.5234C288 65.6222 287.642 64.7578 287.004 64.1205Z" fill="#FFB682"/>
<path d="M287.004 64.1205L268.879 45.9955C268.242 45.3582 267.378 45 266.477 45H230V161H284.602C286.478 161 288 159.478 288 157.602V66.5234C288 65.6222 287.642 64.7578 287.004 64.1205Z" fill="#FF862F"/>
<path d="M263.984 99.8281H196.016C194.139 99.8281 192.617 101.35 192.617 103.227V161H267.383V103.227C267.383 101.35 265.861 99.8281 263.984 99.8281Z" fill="#F9F9F9"/>
<path d="M267.383 103.227C267.383 101.35 265.861 99.8281 263.984 99.8281H230V161H267.383V103.227Z" fill="#DFE4EA"/>
<path d="M250.391 147.406H209.609C207.733 147.406 206.211 145.885 206.211 144.008C206.211 142.131 207.733 140.609 209.609 140.609H250.391C252.267 140.609 253.789 142.131 253.789 144.008C253.789 145.885 252.267 147.406 250.391 147.406Z" fill="#F599A0"/>
<path d="M250.391 120.219H209.609C207.733 120.219 206.211 118.697 206.211 116.82C206.211 114.943 207.733 113.422 209.609 113.422H250.391C252.267 113.422 253.789 114.943 253.789 116.82C253.789 118.697 252.267 120.219 250.391 120.219Z" fill="#F599A0"/>
<path d="M250.391 133.812H209.609C207.733 133.812 206.211 132.291 206.211 130.414C206.211 128.537 207.733 127.016 209.609 127.016H250.391C252.267 127.016 253.789 128.537 253.789 130.414C253.789 132.291 252.267 133.812 250.391 133.812Z" fill="#F599A0"/>
<path d="M253.789 45H192.617V77.8516C192.617 79.7284 194.139 81.25 196.016 81.25H250.391C252.267 81.25 253.789 79.7284 253.789 77.8516V45Z" fill="#505F9D"/>
<path d="M230 45V81.25H250.391C252.267 81.25 253.789 79.7284 253.789 77.8516V45H230Z" fill="#3C4467"/>
<path d="M250.391 140.609H230V147.406H250.391C252.267 147.406 253.789 145.885 253.789 144.008C253.789 142.131 252.267 140.609 250.391 140.609Z" fill="#EB3441"/>
<path d="M250.391 113.422H230V120.219H250.391C252.267 120.219 253.789 118.697 253.789 116.82C253.789 114.943 252.267 113.422 250.391 113.422Z" fill="#EB3441"/>
<path d="M250.391 127.016H230V133.812H250.391C252.267 133.812 253.789 132.291 253.789 130.414C253.789 128.537 252.267 127.016 250.391 127.016Z" fill="#EB3441"/>
</g>
</g>
<defs>
<clipPath id="clip0_5221_40799">
<rect width="447" height="190" fill="white" transform="translate(0.5)"/>
</clipPath>
<clipPath id="clip1_5221_40799">
<rect width="116" height="116" fill="white" transform="translate(172 45)"/>
</clipPath>
</defs>
</svg>
