<svg width="1440" height="148" viewBox="0 0 1440 148" fill="none" xmlns="http://www.w3.org/2000/svg">
<g clip-path="url(#clip0_1474_156362)">
<rect width="1444" height="166" fill="#1DBF73"/>
<g clip-path="url(#clip1_1474_156362)">
<path d="M918.972 632.864L884.443 520.829C849.914 408.793 780.856 184.723 806.698 66.0297C832.54 -52.6636 953.282 -65.9798 1074.02 -79.296C1194.77 -92.6122 1315.51 -105.928 1357.21 -207.004C1398.33 -308.738 1361.89 -496.585 1403.01 -598.319C1444.72 -699.395 1565.46 -712.711 1625.83 -719.369L1686.2 -726.027L2018.35 -357.208L1981.7 -324.205C1945.06 -291.203 1871.77 -225.198 1798.47 -159.193C1725.18 -93.1885 1651.89 -27.1837 1578.6 38.821C1505.31 104.826 1432.02 170.831 1358.72 236.835C1285.43 302.84 1212.14 368.845 1138.85 434.85C1065.56 500.854 992.264 566.859 955.618 599.862L918.972 632.864Z" fill="#D9EFFF"/>
<path d="M1014.31 -0.31433C1078.5 -9.28301 1144.09 -8.3771 1208.01 2.26754C1203.9 8.9261 1200.06 15.7659 1196.44 22.7415C1238 25.6858 1279.06 36.2851 1316.82 53.9054C1312.89 61.8322 1308.92 69.7591 1304.99 77.6407C1324.05 86.4735 1343.11 95.3063 1362.18 104.139C1315.56 155.143 1283.17 219.146 1269.67 287C1247.49 271.464 1222.55 259.913 1196.35 253.119C1199.56 247.547 1202.81 241.976 1206.02 236.359C1185.51 232.871 1164.87 229.927 1144.23 227.526C1143.14 236.948 1142.06 246.37 1141.02 255.791C1095.13 236.495 1045.08 227.345 995.343 229.066C1015.04 154.554 988.974 72.5222 1014.31 -0.31433Z" fill="#FBEEC4"/>
<path d="M1213.07 260.549C1207.42 258.601 1201.73 256.88 1195.99 255.34C1199.2 249.768 1202.45 244.197 1205.66 238.58C1204.62 238.399 1203.54 238.218 1202.5 238.082C1205.48 235.273 1208.96 232.646 1211.31 229.521C1244.28 168.733 1276.53 110.119 1316.28 56.0356C1316.33 56.0809 1316.42 56.0809 1316.46 56.1262C1312.53 64.0531 1308.56 71.98 1304.63 79.8615C1306.84 80.9034 1309.06 81.8999 1311.22 82.9417C1259.5 129.461 1232.22 193.646 1213.07 260.549Z" fill="#FCC302"/>
<path d="M1140.84 216.293C1151.41 142.007 1174.22 71.7977 1202.36 3.71729C1204.12 3.98906 1205.89 4.26084 1207.6 4.53261C1203.49 11.1912 1199.65 18.0309 1196.04 25.0066C1202.59 25.4595 1209.14 26.139 1215.69 26.9996C1203.08 47.9718 1191.48 68.8082 1185.97 92.6793C1174.31 139.516 1165.05 185.356 1160.13 231.83C1154.71 231.105 1149.29 230.426 1143.82 229.791C1142.74 239.213 1141.65 248.635 1140.61 258.056C1139.35 257.513 1138.04 256.969 1136.77 256.471C1137.54 243.154 1138.76 229.746 1140.84 216.293Z" fill="#FCC302"/>
<path d="M1330.97 75.4678C1339.64 75.4678 1346.69 82.534 1346.69 91.2309C1346.69 99.9278 1330.97 115.827 1330.97 115.827C1330.97 115.827 1315.25 99.9278 1315.25 91.2309C1315.29 82.534 1322.34 75.4678 1330.97 75.4678ZM1330.97 98.7501C1335.48 98.7501 1339.14 95.0811 1339.14 90.5514C1339.14 86.0218 1335.48 82.3528 1330.97 82.3528C1326.45 82.3528 1322.79 86.0218 1322.79 90.5514C1322.79 95.0811 1326.45 98.7501 1330.97 98.7501Z" fill="#F06771"/>
<path d="M1265.07 25.6748C1271.12 25.6748 1276.05 30.6121 1276.05 36.6818C1276.05 42.7515 1265.07 53.8944 1265.07 53.8944C1265.07 53.8944 1254.09 42.7515 1254.09 36.6818C1254.09 30.6121 1259.02 25.6748 1265.07 25.6748ZM1265.07 41.9362C1268.23 41.9362 1270.81 39.3543 1270.81 36.1836C1270.81 33.0128 1268.23 30.4309 1265.07 30.4309C1261.91 30.4309 1259.33 33.0128 1259.33 36.1836C1259.38 39.3543 1261.91 41.9362 1265.07 41.9362Z" fill="#F06771"/>
<path d="M1294.11 113.694H1318.69C1322.8 113.694 1326.14 110.342 1326.14 106.22V47.2439C1326.14 43.122 1322.8 39.77 1318.69 39.77H1294.11C1290 39.77 1286.66 43.122 1286.66 47.2439V106.22C1286.62 110.342 1289.96 113.694 1294.11 113.694ZM1318.69 44.1638C1320.36 44.1638 1321.76 45.5227 1321.76 47.2439V106.22C1321.76 107.896 1320.4 109.3 1318.69 109.3H1294.11C1292.44 109.3 1291.04 107.941 1291.04 106.22V47.2439C1291.04 45.568 1292.4 44.1638 1294.11 44.1638H1318.69Z" fill="#6778A5"/>
<path d="M1295.01 39H1317.01V44.8885H1295.01V39Z" fill="#142B54"/>
<path d="M1278.76 72.9258H1333.01V182.543H1278.76V72.9258Z" fill="#142B54"/>
<path d="M1295.11 180.187H1332.42C1339.38 180.187 1345.02 174.525 1345.02 167.549V87.1934C1345.02 80.2177 1339.38 74.5557 1332.42 74.5557H1295.11C1288.15 74.5557 1282.51 80.2177 1282.51 87.1934V167.549C1282.51 174.479 1288.15 180.187 1295.11 180.187Z" fill="#FF890E"/>
<path d="M1283.54 167.507V87.1962C1283.54 80.9453 1288.06 75.7816 1294.02 74.7397C1299.99 75.7816 1304.5 80.9453 1304.5 87.1962V167.552C1304.5 173.803 1299.99 178.967 1294.02 180.009C1288.06 178.967 1283.54 173.758 1283.54 167.507Z" fill="#CF6029"/>
<path d="M1337.48 168.547C1337.48 169.317 1338.11 169.951 1338.88 169.951C1339.65 169.951 1340.28 169.317 1340.28 168.547V86.515C1340.28 85.745 1339.65 85.1108 1338.88 85.1108C1338.11 85.1108 1337.48 85.745 1337.48 86.515V168.547Z" fill="#CF6029"/>
<path d="M1329.57 168.547C1329.57 169.317 1330.2 169.951 1330.97 169.951C1331.74 169.951 1332.37 169.317 1332.37 168.547V86.5155C1332.37 85.7455 1331.74 85.1113 1330.97 85.1113C1330.2 85.1113 1329.57 85.7455 1329.57 86.5155V168.547Z" fill="#CF6029"/>
<path d="M1321.66 168.547C1321.66 169.317 1322.29 169.951 1323.06 169.951C1323.83 169.951 1324.46 169.317 1324.46 168.547V86.515C1324.46 85.745 1323.83 85.1108 1323.06 85.1108C1322.29 85.1108 1321.66 85.745 1321.66 86.515V168.547Z" fill="#CF6029"/>
<path d="M1313.77 168.547C1313.77 169.317 1314.4 169.951 1315.17 169.951C1315.93 169.951 1316.57 169.317 1316.57 168.547V86.515C1316.57 85.745 1315.93 85.1108 1315.17 85.1108C1314.4 85.1108 1313.77 85.745 1313.77 86.515V168.547Z" fill="#CF6029"/>
<path d="M1305.55 83.7518C1304.91 81.8946 1304.28 80.0374 1303.69 78.1803C1315.84 79.6298 1328.22 79.5845 1340.37 78.0444C1342.31 80.1281 1343.35 83.027 1343.22 85.8807C1342.9 84.1141 1341.41 82.8005 1339.74 82.2117C1338.07 81.6228 1336.26 81.6228 1334.5 81.6228C1327 81.6681 1319.46 81.7587 1311.96 81.804C1309.61 81.804 1306.99 81.9399 1305.55 83.7518Z" fill="#FCC302"/>
<path d="M1295.15 182C1297.09 182 1298.81 180.505 1299.62 178.874C1300.57 176.881 1300.57 174.616 1300.57 172.578L1300.39 92.1316C1300.39 88.5985 1300.39 84.6124 1298.76 81.1698C1297.23 77.8632 1293.66 74.919 1289.77 75.5984L1289.86 76.142C1293.48 75.5078 1296.82 78.3162 1298.27 81.4417C1299.8 84.7936 1299.85 88.6891 1299.85 92.1769L1300.03 172.623C1300.03 174.571 1300.03 176.79 1299.12 178.648C1298.31 180.324 1296.37 181.864 1294.38 181.365L1294.25 181.909C1294.56 182 1294.83 182 1295.15 182Z" fill="#142B54"/>
<path d="M1324.1 73.6967V48.6478C1324.15 46.7454 1323.29 44.7976 1321.8 43.6199C1320.31 42.3969 1318.28 41.944 1316.42 42.3516L1316.56 42.8952C1318.23 42.4875 1320.13 42.9405 1321.48 44.0276C1322.84 45.1147 1323.61 46.8813 1323.56 48.6478V73.6967H1324.1Z" fill="#142B54"/>
<path d="M1287.02 75.1469L1287.15 53.0876C1287.15 50.3245 1287.33 47.1991 1288.87 44.5719C1290.27 42.2165 1293.16 40.2687 1296.05 41.0841L1296.19 40.5405C1293.02 39.6799 1289.86 41.7636 1288.42 44.3002C1286.79 47.0632 1286.61 50.4604 1286.61 53.0876L1286.47 75.1469H1287.02Z" fill="#142B54"/>
<path d="M1295.38 39.9062H1316.75V40.4498H1295.38V39.9062Z" fill="#FBEEC4"/>
<path d="M1408.21 110.297C1409.79 110.297 1411.33 110.886 1412.54 111.928C1412.54 112.291 1412.54 112.608 1412.5 112.97C1407.94 113.106 1403.38 113.287 1398.81 113.423C1398.36 113.423 1397.86 113.468 1397.41 113.287C1396.96 113.151 1396.55 112.789 1396.51 112.291C1396.42 111.747 1396.83 111.249 1397.28 111.022C1397.77 110.796 1398.32 110.75 1398.86 110.75C1402.52 110.66 1404.46 110.252 1408.21 110.297Z" fill="white"/>
<path d="M1338.11 109.934C1336.53 109.934 1334.99 110.523 1333.77 111.565C1333.77 111.927 1333.77 112.244 1333.82 112.607C1338.38 112.743 1342.94 112.924 1347.5 113.06C1347.95 113.06 1348.45 113.105 1348.9 112.924C1349.35 112.788 1349.76 112.426 1349.81 111.927C1349.9 111.384 1349.49 110.885 1349.04 110.659C1348.54 110.432 1348 110.387 1347.46 110.387C1343.75 110.297 1341.81 109.889 1338.11 109.934Z" fill="white"/>
<path d="M1317.01 115.959C1318.36 114.329 1320.08 113.015 1322.02 111.973H1414.4C1416.39 112.607 1418.24 113.513 1419.86 114.691C1426.05 119.221 1426.86 127.283 1427.18 134.44C1427.68 146.127 1428.17 157.858 1428.72 169.545C1428.9 174.029 1429.03 178.785 1426.68 182.771C1425.24 185.172 1423.12 187.165 1420.59 188.705H1322.52C1322.38 188.615 1322.25 188.524 1322.11 188.388C1316.11 183.134 1314.21 175.252 1313.17 167.824C1311.32 154.552 1311.23 141.099 1312.9 127.827C1313.4 123.66 1314.16 119.311 1317.01 115.959Z" fill="#CF6029"/>
<path d="M1360.37 112.018C1363.49 117.272 1364.48 123.523 1365.43 129.548C1366.7 137.611 1367.92 145.673 1369.18 153.736C1365.48 153.827 1361.82 154.551 1358.34 155.865C1358.21 152.241 1357.44 148.618 1356.13 145.22C1352.06 144.903 1348 144.631 1343.98 144.314C1347.14 135.391 1349.13 126.015 1349.94 116.593C1353.73 116.004 1357.39 114.419 1360.37 112.018Z" fill="#BF3A3A"/>
<path d="M1419.77 114.964L1419.82 114.421C1391.14 112.654 1361.14 112.428 1322.52 113.651V114.194C1361.14 112.971 1391.14 113.198 1419.77 114.964Z" fill="white"/>
<path d="M1381.02 108.711C1381.38 109.572 1381.65 110.478 1381.78 111.384C1381.87 111.837 1381.83 112.38 1381.33 112.652C1380.97 112.833 1380.52 112.833 1380.07 112.833C1374.01 112.697 1367.96 112.607 1361.86 112.471C1361.68 110.568 1361.68 108.621 1361.86 106.718C1367.1 106.764 1372.34 106.809 1377.63 106.854C1378.26 106.854 1378.94 106.854 1379.48 107.081C1380.38 107.398 1380.74 108.077 1381.02 108.711Z" fill="#142B54"/>
<path d="M1388.92 102.234C1388.79 105.269 1388.7 108.259 1388.56 111.294C1377 110.478 1365.93 110.297 1354.32 110.841C1354.19 107.353 1353.46 103.865 1353.33 100.377C1353.28 99.2902 1354.5 98.4295 1355.86 98.5654C1366.11 99.6525 1376.41 100.241 1386.76 100.423C1388.02 100.468 1388.97 101.283 1388.92 102.234ZM1358.48 107.761C1367.38 107.851 1375.42 107.987 1384.36 108.078C1384.59 106.266 1384.41 104.635 1384.45 102.869C1375.51 102.551 1366.56 102.008 1357.62 101.193C1357.94 103.412 1358.21 105.586 1358.48 107.761Z" fill="#142B54"/>
<path d="M1358.52 98.2485C1366.88 99.2903 1375.28 99.9245 1383.68 100.196C1383.77 101.283 1383.77 102.37 1383.73 103.458C1375.42 103.095 1367.11 102.416 1358.84 101.465C1358.79 100.377 1358.66 99.3356 1358.52 98.2485Z" fill="#CF6029"/>
<path d="M1315.88 171.313C1314.12 156.184 1313.48 140.828 1315.56 125.699C1315.92 123.163 1316.33 120.626 1317.41 118.316C1318.5 116.006 1320.26 113.922 1322.61 113.016C1324.69 112.201 1327.49 112.654 1328.53 114.647C1329.02 115.644 1329.02 116.821 1328.98 117.908C1328.53 139.107 1329.52 160.351 1330.65 181.504C1330.74 183.135 1330.79 184.947 1329.79 186.261C1328.21 188.344 1324.91 188.072 1322.74 186.668C1320.31 185.128 1318.59 182.546 1317.6 179.828C1316.6 177.156 1316.24 174.212 1315.88 171.313Z" fill="#142B54"/>
<path d="M1414.13 111.653C1415.62 111.155 1417.33 111.382 1418.78 112.061C1420.23 112.741 1421.44 113.873 1422.39 115.141C1423.7 116.863 1424.61 118.856 1425.06 120.939C1424.34 120.985 1423.57 121.03 1422.85 121.075C1421.26 117.633 1418.01 115.051 1414.35 114.235C1414.44 113.375 1414.35 112.469 1414.13 111.653Z" fill="#FF890E"/>
<path d="M1331.69 113.872C1331.6 115.774 1331.51 117.676 1331.42 119.624C1330.7 119.579 1330.02 119.534 1329.3 119.488C1329.12 117.586 1328.12 115.729 1326.63 114.596C1325.1 113.419 1323.11 112.92 1321.21 113.283C1321.17 112.467 1321.12 111.652 1321.08 110.837C1323.52 110.791 1326 110.791 1328.44 110.746C1329.43 110.746 1330.56 110.791 1331.19 111.561C1331.74 112.15 1331.74 113.056 1331.69 113.872Z" fill="#FF890E"/>
<path d="M1322.07 186.485L1322.62 186.304C1320.58 180.234 1320.4 173.757 1320.22 167.506C1319.73 152.06 1319.23 136.025 1320 120.307C1320.09 118.676 1320.18 117.363 1320.63 116.094C1321.17 114.645 1322.12 113.558 1323.29 113.105L1323.11 112.606C1321.8 113.105 1320.72 114.328 1320.13 115.958C1319.59 117.408 1319.54 119.039 1319.45 120.352C1318.69 136.115 1319.18 152.105 1319.68 167.596C1319.82 173.802 1320 180.324 1322.07 186.485Z" fill="white"/>
<path d="M1382.19 129.275C1387.7 130.725 1393.12 132.491 1398.45 134.575C1398.14 138.425 1397.1 142.185 1395.38 145.673C1389.83 143.453 1383.91 142.275 1377.95 142.14C1380.34 138.289 1381.83 133.85 1382.19 129.275Z" fill="#99C2C4"/>
<path d="M1410.11 123.933C1410.88 121.713 1413.05 120.082 1415.39 119.992C1417.61 119.901 1419.73 121.17 1421 123.027C1422.26 124.839 1422.67 127.194 1422.4 129.368C1422.21 130.772 1421.76 132.267 1420.72 133.218C1419.64 134.215 1418.01 134.487 1416.57 134.215C1415.12 133.898 1413.81 133.083 1412.73 132.041C1410.56 129.957 1409.16 126.786 1410.11 123.933Z" fill="#FCC302"/>
<path d="M1419.64 139.65C1419.32 145.041 1418.65 150.431 1417.52 155.731C1414.85 154.87 1412.05 154.326 1409.25 154.19C1409.61 148.619 1409.79 143.048 1409.75 137.476C1413.05 138.201 1416.34 138.926 1419.64 139.65Z" fill="#D7E7FF"/>
<path d="M1386.61 136.795C1386.71 131.767 1386.16 126.739 1384.99 121.847C1391.95 121.847 1398.9 121.258 1405.77 120.081C1406.31 125.018 1406.85 130 1407.39 134.938C1400.48 135.527 1393.57 136.161 1386.61 136.795Z" fill="#FCC302"/>
<path d="M1357.8 116.41C1357.89 116.41 1357.98 116.364 1358.02 116.274C1359.56 113.601 1360.46 110.612 1360.64 107.532C1360.64 107.396 1360.55 107.26 1360.37 107.26C1360.24 107.26 1360.1 107.35 1360.1 107.532C1359.97 110.521 1359.06 113.465 1357.57 116.002C1357.48 116.138 1357.53 116.319 1357.66 116.364C1357.71 116.41 1357.75 116.41 1357.8 116.41Z" fill="#142B54"/>
<path d="M1352.24 117.586C1354.19 116.998 1355.99 116.092 1357.62 114.869C1358.66 115.865 1359.7 116.862 1360.74 117.858C1361.05 118.175 1361.41 118.492 1361.55 118.9C1361.73 119.398 1361.69 119.942 1361.59 120.485C1360.47 128.14 1359.79 135.841 1359.61 143.541C1356.49 142.862 1353.33 142.499 1350.17 142.409C1351.39 134.21 1350.57 125.74 1352.24 117.586ZM1356.94 117.722C1357.17 117.949 1357.53 118.039 1357.8 117.858C1358.12 117.677 1358.16 117.224 1358.07 116.862C1358.03 116.635 1357.94 116.363 1357.71 116.228C1357.53 116.137 1357.3 116.182 1357.12 116.273C1356.94 116.409 1356.85 116.59 1356.76 116.771C1356.72 117.134 1356.76 117.451 1356.94 117.722Z" fill="#D7E7FF"/>
<path d="M1357.67 116.77C1357.8 116.77 1357.94 116.634 1357.94 116.498C1358.08 113.373 1358.98 110.292 1360.61 107.62C1360.7 107.484 1360.65 107.303 1360.51 107.258C1360.38 107.167 1360.2 107.212 1360.15 107.348C1358.48 110.111 1357.53 113.282 1357.4 116.498C1357.4 116.634 1357.49 116.77 1357.67 116.77Z" fill="#142B54"/>
<path d="M1356.9 128.596C1358.57 127.509 1360.06 126.105 1361.28 124.474C1362.54 125.154 1363.85 125.788 1365.12 126.467C1365.53 126.694 1365.93 126.875 1366.2 127.237C1366.52 127.645 1366.61 128.234 1366.7 128.732C1367.74 136.387 1369.27 143.952 1371.26 151.425C1368.1 151.652 1364.94 152.196 1361.91 153.011C1360.78 144.767 1357.57 136.885 1356.9 128.596ZM1361.46 127.373C1361.73 127.554 1362.14 127.509 1362.32 127.282C1362.54 127.011 1362.45 126.603 1362.32 126.286C1362.23 126.059 1362.05 125.833 1361.78 125.788C1361.6 125.742 1361.37 125.833 1361.23 126.014C1361.1 126.195 1361.05 126.377 1361.05 126.603C1361.05 126.875 1361.19 127.192 1361.46 127.373Z" fill="#1DBF73"/>
<path d="M1362 126.286C1362.05 126.286 1362.05 126.286 1362.09 126.286C1362.23 126.241 1362.32 126.105 1362.27 125.924C1360.38 120.171 1360.15 113.739 1361.6 107.851C1361.64 107.715 1361.55 107.534 1361.42 107.534C1361.28 107.488 1361.1 107.579 1361.1 107.715C1359.61 113.694 1359.83 120.217 1361.78 126.105C1361.78 126.196 1361.87 126.286 1362 126.286Z" fill="#142B54"/>
<path d="M1361.19 122.707C1361.32 122.707 1361.46 122.617 1361.46 122.436C1361.91 117.589 1362.04 112.652 1361.82 107.76C1361.82 107.624 1361.68 107.488 1361.55 107.488C1361.41 107.488 1361.28 107.624 1361.28 107.76C1361.46 112.606 1361.37 117.498 1360.92 122.345C1360.87 122.571 1361.01 122.707 1361.19 122.707C1361.14 122.707 1361.19 122.707 1361.19 122.707Z" fill="#142B54"/>
<g clip-path="url(#clip2_1474_156362)">
<path d="M773 71.8619H857.695C857.695 71.8619 853.561 62.8113 843.449 64.0963C844.79 58.5095 825.963 42.9783 815.292 67.0572C815.292 67.0572 809.537 58.8447 800.599 67.9511C800.599 67.9511 793.783 63.5935 791.213 69.4596L773 71.8619Z" fill="white"/>
<mask id="mask0_1474_156362" style="mask-type:alpha" maskUnits="userSpaceOnUse" x="933" y="12" width="66" height="76">
<path d="M966.082 12.2022C969.825 12.2022 973.568 12.705 977.311 13.6548C984.741 15.4984 992.339 19.1857 996.25 26.1133C998.094 29.4095 998.932 33.1526 998.932 36.8957C998.932 37.0074 998.932 37.1192 998.932 37.2309C998.876 45.1641 996.473 52.818 992.172 59.4662L973.847 87.7352H966.137H958.428L940.103 59.4662C935.801 52.818 933.343 45.1641 933.343 37.2309C933.343 37.1192 933.343 37.0074 933.343 36.8957C933.343 27.7893 938.539 20.6382 946.528 16.6716C952.617 13.5989 959.322 12.1464 966.082 12.2022Z" fill="#C7534A"/>
</mask>
<g mask="url(#mask0_1474_156362)">
<path d="M966.082 12.2022C969.825 12.2022 973.568 12.705 977.311 13.6548C984.741 15.4984 992.339 19.1857 996.25 26.1133C998.094 29.4095 998.932 33.1526 998.932 36.8957C998.932 37.0074 998.932 37.1192 998.932 37.2309C998.876 45.1641 996.473 52.818 992.172 59.4662L973.847 87.7352H966.137H958.428L940.103 59.4662C935.801 52.818 933.343 45.1641 933.343 37.2309C933.343 37.1192 933.343 37.0074 933.343 36.8957C933.343 27.7893 938.539 20.6382 946.528 16.6716C952.617 13.5989 959.322 12.1464 966.082 12.2022Z" fill="#EB3441"/>
<path d="M968.538 10.3031C968.538 10.3031 970.996 46.5611 967.029 78.5733H970.773C970.773 78.5733 981.834 46.3377 977.309 9.40918L968.538 10.3031Z" fill="white"/>
<path d="M986.08 14.605C986.08 14.605 990.941 56.8409 973.175 78.5734H976.918C976.918 78.5734 1002.9 51.4776 995.075 19.1303L986.08 14.605Z" fill="white"/>
<path d="M962.001 10.3033C962.001 10.3033 956.75 48.7402 963.51 78.5735H959.767C959.767 78.5735 944.962 49.3548 954.459 9.74463L962.001 10.3033Z" fill="white"/>
<path d="M946.023 14.6055C946.023 14.6055 941.163 56.8414 958.929 78.5739H955.186C955.186 78.5739 929.207 51.4781 937.029 19.1307L946.023 14.6055Z" fill="white"/>
<path d="M981.054 78.5176H950.159L957.533 89.747L979.601 89.0766L981.054 78.5176Z" fill="#1A495C"/>
</g>
<path d="M965.411 95.3896H966.752H971.277C971.277 95.3896 970.719 98.4624 969.545 100.921C968.763 102.652 967.031 102.708 966.082 102.597C965.132 102.708 963.456 102.708 962.618 100.921C961.501 98.4624 960.886 95.3896 960.886 95.3896H965.411Z" fill="#1A495C"/>
<path d="M973.735 87.7358L970.774 95.3897" stroke="black" stroke-width="0.4506" stroke-miterlimit="10"/>
<path d="M958.54 87.7358L961.669 95.7807" stroke="black" stroke-width="0.4506" stroke-miterlimit="10"/>
<path d="M966.081 87.7358V95.3897" stroke="black" stroke-width="0.4506" stroke-miterlimit="10"/>
<mask id="mask1_1474_156362" style="mask-type:alpha" maskUnits="userSpaceOnUse" x="1019" y="75" width="29" height="33">
<path d="M1033.4 75.5904C1034.97 75.5904 1036.59 75.8139 1038.15 76.205C1041.28 76.9871 1044.52 78.5514 1046.14 81.4565C1046.92 82.8532 1047.26 84.4175 1047.26 85.9818C1047.26 86.0376 1047.26 86.0935 1047.26 86.1494C1047.26 89.5014 1046.2 92.7417 1044.41 95.5351L1036.64 107.435H1033.4H1030.16L1022.4 95.5351C1020.55 92.7417 1019.55 89.5014 1019.55 86.1494C1019.55 86.0935 1019.55 86.0376 1019.55 85.9818C1019.55 82.1269 1021.73 79.1101 1025.13 77.434C1027.7 76.1491 1030.55 75.5345 1033.4 75.5904Z" fill="#E9CA5C"/>
</mask>
<g mask="url(#mask1_1474_156362)">
<path d="M1033.4 75.5904C1034.97 75.5904 1036.59 75.8139 1038.15 76.205C1041.28 76.9871 1044.52 78.5514 1046.14 81.4565C1046.92 82.8532 1047.26 84.4175 1047.26 85.9818C1047.26 86.0376 1047.26 86.0935 1047.26 86.1494C1047.26 89.5014 1046.2 92.7417 1044.41 95.5351L1036.64 107.435H1033.4H1030.16L1022.4 95.5351C1020.55 92.7417 1019.55 89.5014 1019.55 86.1494C1019.55 86.0935 1019.55 86.0376 1019.55 85.9818C1019.55 82.1269 1021.73 79.1101 1025.13 77.434C1027.7 76.1491 1030.55 75.5345 1033.4 75.5904Z" fill="#F5D965"/>
<path d="M1034.41 74.7529C1034.41 74.7529 1035.41 90.0606 1033.79 103.581H1035.36C1035.36 103.581 1040.05 90.0047 1038.15 74.3618L1034.41 74.7529Z" fill="white"/>
<path d="M1041.84 76.54C1041.84 76.54 1043.9 94.3618 1036.36 103.524H1037.93C1037.93 103.524 1048.88 92.0712 1045.58 78.4395L1041.84 76.54Z" fill="white"/>
<path d="M1031.67 74.7523C1031.67 74.7523 1029.43 90.9539 1032.28 103.58H1030.72C1030.72 103.58 1024.46 91.2332 1028.48 74.5288L1031.67 74.7523Z" fill="white"/>
<path d="M1024.91 76.54C1024.91 76.54 1022.84 94.3618 1030.38 103.524H1028.82C1028.82 103.524 1017.87 92.0712 1021.16 78.4395L1024.91 76.54Z" fill="white"/>
<path d="M1039.71 103.58H1026.64L1029.77 108.329L1039.1 107.994L1039.71 103.58Z" fill="#1A495C"/>
</g>
<path d="M1033.12 110.675H1033.68H1035.58C1035.58 110.675 1035.36 111.96 1034.86 113.022C1034.52 113.748 1033.79 113.748 1033.4 113.748C1033.01 113.804 1032.29 113.804 1031.95 113.022C1031.45 111.96 1031.22 110.675 1031.22 110.675H1033.12Z" fill="#1A495C"/>
<path d="M1036.64 107.435L1035.36 110.675" stroke="black" stroke-width="0.190966" stroke-miterlimit="10"/>
<path d="M1030.22 107.435L1031.45 110.675" stroke="black" stroke-width="0.190966" stroke-miterlimit="10"/>
<path d="M1033.4 107.435V110.675" stroke="black" stroke-width="0.190966" stroke-miterlimit="10"/>
<mask id="mask2_1474_156362" style="mask-type:alpha" maskUnits="userSpaceOnUse" x="879" y="115" width="37" height="42">
<path d="M897.141 115.312C899.208 115.312 901.219 115.591 903.231 116.094C907.253 117.099 911.443 119.111 913.566 122.91C914.572 124.697 915.019 126.765 915.019 128.776C915.019 128.832 915.019 128.888 915.019 128.943C915.019 133.245 913.678 137.435 911.331 141.067L901.331 156.486H897.141H892.951L882.951 141.067C880.604 137.435 879.263 133.245 879.263 128.943C879.263 128.888 879.263 128.832 879.263 128.776C879.263 123.804 882.113 119.949 886.47 117.77C889.822 116.094 893.454 115.256 897.141 115.312Z" fill="#437870"/>
</mask>
<g mask="url(#mask2_1474_156362)">
<path d="M897.141 115.312C899.208 115.312 901.219 115.591 903.231 116.094C907.253 117.099 911.443 119.111 913.566 122.91C914.572 124.697 915.019 126.765 915.019 128.776C915.019 128.832 915.019 128.888 915.019 128.943C915.019 133.245 913.678 137.435 911.331 141.067L901.331 156.486H897.141H892.951L882.951 141.067C880.604 137.435 879.263 133.245 879.263 128.943C879.263 128.888 879.263 128.832 879.263 128.776C879.263 123.804 882.113 119.949 886.47 117.77C889.822 116.094 893.454 115.256 897.141 115.312Z" fill="#4ACC8F"/>
<path d="M898.483 114.25C898.483 114.25 899.824 134.027 897.645 151.458H899.656C899.656 151.458 905.69 133.859 903.232 113.747L898.483 114.25Z" fill="white"/>
<path d="M908.091 116.597C908.091 116.597 910.717 139.67 901.052 151.458H903.119C903.119 151.458 917.309 136.653 913.007 119.055L908.091 116.597Z" fill="white"/>
<path d="M894.905 114.249C894.905 114.249 892.056 135.2 895.743 151.457H893.732C893.732 151.457 885.687 135.535 890.827 113.914L894.905 114.249Z" fill="white"/>
<path d="M886.19 116.596C886.19 116.596 883.564 139.669 893.229 151.457H891.162C891.162 151.457 876.972 136.652 881.274 119.054L886.19 116.596Z" fill="white"/>
</g>
</g>
</g>
</g>
<defs>
<clipPath id="clip0_1474_156362">
<rect width="1440" height="164" fill="white"/>
</clipPath>
<clipPath id="clip1_1474_156362">
<rect width="1479.48" height="329.388" fill="white" transform="translate(745 -147.498) rotate(-1.29756)"/>
</clipPath>
<clipPath id="clip2_1474_156362">
<rect width="603" height="664" fill="white" transform="matrix(-1 0 0 1 1375 -425)"/>
</clipPath>
</defs>
</svg>
