<svg width="1440" height="148" viewBox="0 0 1440 148" fill="none" xmlns="http://www.w3.org/2000/svg">
<g clip-path="url(#clip0_1474_156360)">
<g clip-path="url(#clip1_1474_156360)">
<rect width="1444" height="166" fill="#1DBF73"/>
<g clip-path="url(#clip2_1474_156360)">
<path d="M918.972 632.864L884.443 520.829C849.914 408.793 780.856 184.723 806.698 66.0297C832.54 -52.6636 953.282 -65.9798 1074.02 -79.296C1194.77 -92.6122 1315.51 -105.928 1357.21 -207.004C1398.33 -308.738 1361.89 -496.585 1403.01 -598.319C1444.72 -699.395 1565.46 -712.711 1625.83 -719.369L1686.2 -726.027L2018.35 -357.208L1981.7 -324.205C1945.06 -291.203 1871.77 -225.198 1798.47 -159.193C1725.18 -93.1885 1651.89 -27.1837 1578.6 38.8211C1505.31 104.826 1432.02 170.831 1358.72 236.835C1285.43 302.84 1212.14 368.845 1138.85 434.85C1065.56 500.854 992.264 566.859 955.618 599.862L918.972 632.864Z" fill="#D9EFFF"/>
<path d="M1014.31 -0.31433C1078.5 -9.28301 1144.09 -8.3771 1208.01 2.26754C1203.9 8.9261 1200.06 15.7659 1196.44 22.7415C1238 25.6858 1279.06 36.2851 1316.82 53.9054C1312.89 61.8322 1308.92 69.7591 1304.99 77.6407C1324.05 86.4735 1343.11 95.3062 1362.18 104.139C1315.56 155.143 1283.17 219.146 1269.67 287C1247.49 271.464 1222.55 259.913 1196.35 253.119C1199.56 247.547 1202.81 241.976 1206.02 236.359C1185.51 232.871 1164.87 229.927 1144.23 227.526C1143.14 236.948 1142.06 246.37 1141.02 255.791C1095.13 236.495 1045.08 227.345 995.343 229.066C1015.04 154.554 988.974 72.5222 1014.31 -0.31433Z" fill="#FBEEC4"/>
<path d="M1213.07 260.549C1207.42 258.601 1201.73 256.88 1195.99 255.34C1199.2 249.768 1202.45 244.197 1205.66 238.58C1204.62 238.399 1203.54 238.218 1202.5 238.082C1205.48 235.273 1208.96 232.646 1211.31 229.521C1244.28 168.733 1276.53 110.119 1316.28 56.0356C1316.33 56.0809 1316.42 56.0809 1316.46 56.1262C1312.53 64.0531 1308.56 71.98 1304.63 79.8615C1306.84 80.9034 1309.06 81.8999 1311.22 82.9417C1259.5 129.461 1232.22 193.646 1213.07 260.549Z" fill="#FCC302"/>
<path d="M1140.84 216.293C1151.41 142.007 1174.22 71.7977 1202.36 3.71729C1204.12 3.98906 1205.89 4.26084 1207.6 4.53261C1203.49 11.1912 1199.65 18.0309 1196.04 25.0066C1202.59 25.4595 1209.14 26.139 1215.69 26.9996C1203.08 47.9718 1191.48 68.8082 1185.97 92.6793C1174.31 139.516 1165.05 185.356 1160.13 231.83C1154.71 231.105 1149.29 230.426 1143.82 229.791C1142.74 239.213 1141.65 248.635 1140.61 258.056C1139.35 257.513 1138.04 256.969 1136.77 256.471C1137.54 243.154 1138.76 229.746 1140.84 216.293Z" fill="#FCC302"/>
<path d="M1330.97 75.4678C1339.64 75.4678 1346.69 82.534 1346.69 91.2309C1346.69 99.9278 1330.97 115.827 1330.97 115.827C1330.97 115.827 1315.25 99.9278 1315.25 91.2309C1315.29 82.534 1322.34 75.4678 1330.97 75.4678ZM1330.97 98.7501C1335.48 98.7501 1339.14 95.0811 1339.14 90.5514C1339.14 86.0218 1335.48 82.3528 1330.97 82.3528C1326.45 82.3528 1322.79 86.0218 1322.79 90.5514C1322.79 95.0811 1326.45 98.7501 1330.97 98.7501Z" fill="#F06771"/>
<path d="M1265.07 25.6748C1271.12 25.6748 1276.05 30.6121 1276.05 36.6818C1276.05 42.7515 1265.07 53.8944 1265.07 53.8944C1265.07 53.8944 1254.09 42.7515 1254.09 36.6818C1254.09 30.6121 1259.02 25.6748 1265.07 25.6748ZM1265.07 41.9362C1268.23 41.9362 1270.81 39.3543 1270.81 36.1836C1270.81 33.0128 1268.23 30.4309 1265.07 30.4309C1261.91 30.4309 1259.33 33.0128 1259.33 36.1836C1259.38 39.3543 1261.91 41.9362 1265.07 41.9362Z" fill="#F06771"/>
<path d="M1294.11 113.694H1318.69C1322.8 113.694 1326.14 110.342 1326.14 106.22V47.2439C1326.14 43.122 1322.8 39.77 1318.69 39.77H1294.11C1290 39.77 1286.66 43.122 1286.66 47.2439V106.22C1286.62 110.342 1289.96 113.694 1294.11 113.694ZM1318.69 44.1638C1320.36 44.1638 1321.76 45.5227 1321.76 47.2439V106.22C1321.76 107.896 1320.4 109.3 1318.69 109.3H1294.11C1292.44 109.3 1291.04 107.941 1291.04 106.22V47.2439C1291.04 45.568 1292.4 44.1638 1294.11 44.1638H1318.69Z" fill="#6778A5"/>
<path d="M1295.01 39H1317.01V44.8885H1295.01V39Z" fill="#142B54"/>
<path d="M1278.76 72.9258H1333.01V182.543H1278.76V72.9258Z" fill="#142B54"/>
<path d="M1295.11 180.187H1332.42C1339.38 180.187 1345.02 174.525 1345.02 167.549V87.1934C1345.02 80.2177 1339.38 74.5557 1332.42 74.5557H1295.11C1288.15 74.5557 1282.51 80.2177 1282.51 87.1934V167.549C1282.51 174.479 1288.15 180.187 1295.11 180.187Z" fill="#FF890E"/>
<path d="M1283.54 167.507V87.1962C1283.54 80.9453 1288.06 75.7816 1294.02 74.7397C1299.99 75.7816 1304.5 80.9453 1304.5 87.1962V167.552C1304.5 173.803 1299.99 178.967 1294.02 180.009C1288.06 178.967 1283.54 173.758 1283.54 167.507Z" fill="#CF6029"/>
<path d="M1337.48 168.547C1337.48 169.317 1338.11 169.951 1338.88 169.951C1339.65 169.951 1340.28 169.317 1340.28 168.547V86.515C1340.28 85.745 1339.65 85.1108 1338.88 85.1108C1338.11 85.1108 1337.48 85.745 1337.48 86.515V168.547Z" fill="#CF6029"/>
<path d="M1329.57 168.547C1329.57 169.317 1330.2 169.951 1330.97 169.951C1331.74 169.951 1332.37 169.317 1332.37 168.547V86.5155C1332.37 85.7455 1331.74 85.1113 1330.97 85.1113C1330.2 85.1113 1329.57 85.7455 1329.57 86.5155V168.547Z" fill="#CF6029"/>
<path d="M1321.66 168.547C1321.66 169.317 1322.29 169.951 1323.06 169.951C1323.83 169.951 1324.46 169.317 1324.46 168.547V86.515C1324.46 85.745 1323.83 85.1108 1323.06 85.1108C1322.29 85.1108 1321.66 85.745 1321.66 86.515V168.547Z" fill="#CF6029"/>
<path d="M1313.77 168.547C1313.77 169.317 1314.4 169.951 1315.17 169.951C1315.93 169.951 1316.57 169.317 1316.57 168.547V86.515C1316.57 85.745 1315.93 85.1108 1315.17 85.1108C1314.4 85.1108 1313.77 85.745 1313.77 86.515V168.547Z" fill="#CF6029"/>
<path d="M1305.55 83.7518C1304.91 81.8946 1304.28 80.0374 1303.69 78.1803C1315.84 79.6298 1328.22 79.5845 1340.37 78.0444C1342.31 80.1281 1343.35 83.027 1343.22 85.8807C1342.9 84.1141 1341.41 82.8005 1339.74 82.2117C1338.07 81.6228 1336.26 81.6228 1334.5 81.6228C1327 81.6681 1319.46 81.7587 1311.96 81.804C1309.61 81.804 1306.99 81.9399 1305.55 83.7518Z" fill="#FCC302"/>
<path d="M1295.15 182C1297.09 182 1298.81 180.505 1299.62 178.874C1300.57 176.881 1300.57 174.616 1300.57 172.578L1300.39 92.1316C1300.39 88.5985 1300.39 84.6124 1298.76 81.1698C1297.23 77.8632 1293.66 74.919 1289.77 75.5984L1289.86 76.142C1293.48 75.5078 1296.82 78.3162 1298.27 81.4417C1299.8 84.7936 1299.85 88.6891 1299.85 92.1769L1300.03 172.623C1300.03 174.571 1300.03 176.79 1299.12 178.648C1298.31 180.324 1296.37 181.864 1294.38 181.365L1294.25 181.909C1294.56 182 1294.83 182 1295.15 182Z" fill="#142B54"/>
<path d="M1324.1 73.6967V48.6478C1324.15 46.7454 1323.29 44.7976 1321.8 43.6199C1320.31 42.3969 1318.28 41.944 1316.42 42.3516L1316.56 42.8952C1318.23 42.4875 1320.13 42.9405 1321.48 44.0276C1322.84 45.1147 1323.61 46.8813 1323.56 48.6478V73.6967H1324.1V73.6967Z" fill="#142B54"/>
<path d="M1287.02 75.1469L1287.15 53.0876C1287.15 50.3245 1287.33 47.1991 1288.87 44.5719C1290.27 42.2165 1293.16 40.2687 1296.05 41.0841L1296.19 40.5405C1293.02 39.6799 1289.86 41.7636 1288.42 44.3002C1286.79 47.0632 1286.61 50.4604 1286.61 53.0876L1286.47 75.1469H1287.02Z" fill="#142B54"/>
<path d="M1295.38 39.9062H1316.75V40.4498H1295.38V39.9062Z" fill="#FBEEC4"/>
<path d="M1408.21 110.297C1409.79 110.297 1411.33 110.886 1412.54 111.928C1412.54 112.291 1412.54 112.608 1412.5 112.97C1407.94 113.106 1403.38 113.287 1398.81 113.423C1398.36 113.423 1397.86 113.468 1397.41 113.287C1396.96 113.151 1396.55 112.789 1396.51 112.291C1396.42 111.747 1396.83 111.249 1397.28 111.022C1397.77 110.796 1398.32 110.75 1398.86 110.75C1402.52 110.66 1404.46 110.252 1408.21 110.297Z" fill="white"/>
<path d="M1338.11 109.934C1336.53 109.934 1334.99 110.523 1333.77 111.565C1333.77 111.927 1333.77 112.244 1333.82 112.607C1338.38 112.743 1342.94 112.924 1347.5 113.06C1347.95 113.06 1348.45 113.105 1348.9 112.924C1349.35 112.788 1349.76 112.426 1349.81 111.927C1349.9 111.384 1349.49 110.885 1349.04 110.659C1348.54 110.432 1348 110.387 1347.46 110.387C1343.75 110.297 1341.81 109.889 1338.11 109.934Z" fill="white"/>
<path d="M1317.01 115.959C1318.36 114.329 1320.08 113.015 1322.02 111.973H1414.4C1416.39 112.607 1418.24 113.513 1419.86 114.691C1426.05 119.221 1426.86 127.283 1427.18 134.44C1427.68 146.127 1428.17 157.858 1428.72 169.545C1428.9 174.029 1429.03 178.785 1426.68 182.771C1425.24 185.172 1423.12 187.165 1420.59 188.705H1322.52C1322.38 188.615 1322.25 188.524 1322.11 188.388C1316.11 183.134 1314.21 175.252 1313.17 167.824C1311.32 154.552 1311.23 141.099 1312.9 127.827C1313.4 123.66 1314.16 119.311 1317.01 115.959Z" fill="#CF6029"/>
<path d="M1360.37 112.018C1363.49 117.272 1364.48 123.523 1365.43 129.548C1366.7 137.611 1367.92 145.673 1369.18 153.736C1365.48 153.827 1361.82 154.551 1358.34 155.865C1358.21 152.241 1357.44 148.618 1356.13 145.22C1352.06 144.903 1348 144.631 1343.98 144.314C1347.14 135.391 1349.13 126.015 1349.94 116.593C1353.73 116.004 1357.39 114.419 1360.37 112.018Z" fill="#BF3A3A"/>
<path d="M1419.77 114.964L1419.82 114.421C1391.14 112.654 1361.14 112.428 1322.52 113.651V114.194C1361.14 112.971 1391.14 113.198 1419.77 114.964Z" fill="white"/>
<path d="M1381.02 108.711C1381.38 109.572 1381.65 110.478 1381.78 111.384C1381.87 111.837 1381.83 112.38 1381.33 112.652C1380.97 112.833 1380.52 112.833 1380.07 112.833C1374.01 112.697 1367.96 112.607 1361.86 112.471C1361.68 110.568 1361.68 108.621 1361.86 106.718C1367.1 106.764 1372.34 106.809 1377.63 106.854C1378.26 106.854 1378.94 106.854 1379.48 107.081C1380.38 107.398 1380.74 108.077 1381.02 108.711Z" fill="#142B54"/>
<path d="M1388.92 102.234C1388.79 105.269 1388.7 108.259 1388.56 111.294C1377 110.478 1365.93 110.297 1354.32 110.841C1354.19 107.353 1353.46 103.865 1353.33 100.377C1353.28 99.2902 1354.5 98.4295 1355.86 98.5654C1366.11 99.6525 1376.41 100.241 1386.76 100.423C1388.02 100.468 1388.97 101.283 1388.92 102.234ZM1358.48 107.761C1367.38 107.851 1375.42 107.987 1384.36 108.078C1384.59 106.266 1384.41 104.635 1384.45 102.869C1375.51 102.551 1366.56 102.008 1357.62 101.193C1357.94 103.412 1358.21 105.586 1358.48 107.761Z" fill="#142B54"/>
<path d="M1358.52 98.2485C1366.88 99.2903 1375.28 99.9245 1383.68 100.196C1383.77 101.283 1383.77 102.37 1383.73 103.458C1375.42 103.095 1367.11 102.416 1358.84 101.465C1358.79 100.377 1358.66 99.3356 1358.52 98.2485Z" fill="#CF6029"/>
<path d="M1315.88 171.313C1314.12 156.184 1313.48 140.828 1315.56 125.699C1315.92 123.163 1316.33 120.626 1317.41 118.316C1318.5 116.006 1320.26 113.922 1322.61 113.016C1324.69 112.201 1327.49 112.654 1328.53 114.647C1329.02 115.644 1329.02 116.821 1328.98 117.908C1328.53 139.107 1329.52 160.351 1330.65 181.504C1330.74 183.135 1330.79 184.947 1329.79 186.261C1328.21 188.344 1324.91 188.072 1322.74 186.668C1320.31 185.128 1318.59 182.546 1317.6 179.828C1316.6 177.156 1316.24 174.212 1315.88 171.313Z" fill="#142B54"/>
<path d="M1414.13 111.653C1415.62 111.155 1417.33 111.382 1418.78 112.061C1420.23 112.741 1421.44 113.873 1422.39 115.141C1423.7 116.863 1424.61 118.856 1425.06 120.939C1424.34 120.985 1423.57 121.03 1422.85 121.075C1421.26 117.633 1418.01 115.051 1414.35 114.235C1414.44 113.375 1414.35 112.469 1414.13 111.653Z" fill="#FF890E"/>
<path d="M1331.69 113.872C1331.6 115.774 1331.51 117.676 1331.42 119.624C1330.7 119.579 1330.02 119.534 1329.3 119.488C1329.12 117.586 1328.12 115.729 1326.63 114.596C1325.1 113.419 1323.11 112.92 1321.21 113.283C1321.17 112.467 1321.12 111.652 1321.08 110.837C1323.52 110.791 1326 110.791 1328.44 110.746C1329.43 110.746 1330.56 110.791 1331.19 111.561C1331.74 112.15 1331.74 113.056 1331.69 113.872Z" fill="#FF890E"/>
<path d="M1322.07 186.485L1322.62 186.304C1320.58 180.234 1320.4 173.757 1320.22 167.506C1319.73 152.06 1319.23 136.025 1320 120.307C1320.09 118.676 1320.18 117.363 1320.63 116.094C1321.17 114.645 1322.12 113.558 1323.29 113.105L1323.11 112.606C1321.8 113.105 1320.72 114.328 1320.13 115.958C1319.59 117.408 1319.54 119.039 1319.45 120.352C1318.69 136.115 1319.18 152.105 1319.68 167.596C1319.82 173.802 1320 180.324 1322.07 186.485Z" fill="white"/>
<path d="M1382.19 129.275C1387.7 130.725 1393.12 132.491 1398.45 134.575C1398.14 138.425 1397.1 142.185 1395.38 145.673C1389.83 143.453 1383.91 142.275 1377.95 142.14C1380.34 138.289 1381.83 133.85 1382.19 129.275Z" fill="#99C2C4"/>
<path d="M1410.11 123.933C1410.88 121.713 1413.05 120.082 1415.39 119.992C1417.61 119.901 1419.73 121.17 1421 123.027C1422.26 124.839 1422.67 127.194 1422.4 129.368C1422.21 130.772 1421.76 132.267 1420.72 133.218C1419.64 134.215 1418.01 134.487 1416.57 134.215C1415.12 133.898 1413.81 133.083 1412.73 132.041C1410.56 129.957 1409.16 126.786 1410.11 123.933Z" fill="#FCC302"/>
<path d="M1419.64 139.65C1419.32 145.041 1418.65 150.431 1417.52 155.731C1414.85 154.87 1412.05 154.326 1409.25 154.19C1409.61 148.619 1409.79 143.048 1409.75 137.476C1413.05 138.201 1416.34 138.926 1419.64 139.65Z" fill="#D7E7FF"/>
<path d="M1386.61 136.795C1386.71 131.767 1386.16 126.739 1384.99 121.847C1391.95 121.847 1398.9 121.258 1405.77 120.081C1406.31 125.018 1406.85 130 1407.39 134.938C1400.48 135.527 1393.57 136.161 1386.61 136.795Z" fill="#FCC302"/>
<path d="M1357.8 116.41C1357.89 116.41 1357.98 116.364 1358.02 116.274C1359.56 113.601 1360.46 110.612 1360.64 107.532C1360.64 107.396 1360.55 107.26 1360.37 107.26C1360.24 107.26 1360.1 107.35 1360.1 107.532C1359.97 110.521 1359.06 113.465 1357.57 116.002C1357.48 116.138 1357.53 116.319 1357.66 116.364C1357.71 116.41 1357.75 116.41 1357.8 116.41Z" fill="#142B54"/>
<path d="M1352.24 117.586C1354.19 116.998 1355.99 116.092 1357.62 114.869C1358.66 115.865 1359.7 116.862 1360.74 117.858C1361.05 118.175 1361.41 118.492 1361.55 118.9C1361.73 119.398 1361.69 119.942 1361.59 120.485C1360.47 128.14 1359.79 135.841 1359.61 143.541C1356.49 142.862 1353.33 142.499 1350.17 142.409C1351.39 134.21 1350.57 125.74 1352.24 117.586ZM1356.94 117.722C1357.17 117.949 1357.53 118.039 1357.8 117.858C1358.12 117.677 1358.16 117.224 1358.07 116.862C1358.03 116.635 1357.94 116.363 1357.71 116.228C1357.53 116.137 1357.3 116.182 1357.12 116.273C1356.94 116.409 1356.85 116.59 1356.76 116.771C1356.72 117.134 1356.76 117.451 1356.94 117.722Z" fill="#D7E7FF"/>
<path d="M1357.67 116.77C1357.8 116.77 1357.94 116.634 1357.94 116.498C1358.08 113.373 1358.98 110.292 1360.61 107.62C1360.7 107.484 1360.65 107.303 1360.51 107.258C1360.38 107.167 1360.2 107.212 1360.15 107.348C1358.48 110.111 1357.53 113.282 1357.4 116.498C1357.4 116.634 1357.49 116.77 1357.67 116.77Z" fill="#142B54"/>
<path d="M1356.9 128.596C1358.57 127.509 1360.06 126.105 1361.28 124.474C1362.54 125.154 1363.85 125.788 1365.12 126.467C1365.53 126.694 1365.93 126.875 1366.2 127.237C1366.52 127.645 1366.61 128.234 1366.7 128.732C1367.74 136.387 1369.27 143.952 1371.26 151.425C1368.1 151.652 1364.94 152.196 1361.91 153.011C1360.78 144.767 1357.57 136.885 1356.9 128.596ZM1361.46 127.373C1361.73 127.554 1362.14 127.509 1362.32 127.282C1362.54 127.011 1362.45 126.603 1362.32 126.286C1362.23 126.059 1362.05 125.833 1361.78 125.788C1361.6 125.742 1361.37 125.833 1361.23 126.014C1361.1 126.195 1361.05 126.377 1361.05 126.603C1361.05 126.875 1361.19 127.192 1361.46 127.373Z" fill="#1DBF73"/>
<path d="M1362 126.286C1362.05 126.286 1362.05 126.286 1362.09 126.286C1362.23 126.241 1362.32 126.105 1362.27 125.924C1360.38 120.171 1360.15 113.739 1361.6 107.851C1361.64 107.715 1361.55 107.534 1361.42 107.534C1361.28 107.488 1361.1 107.579 1361.1 107.715C1359.61 113.694 1359.83 120.217 1361.78 126.105C1361.78 126.196 1361.87 126.286 1362 126.286Z" fill="#142B54"/>
<path d="M1361.19 122.707C1361.32 122.707 1361.46 122.617 1361.46 122.436C1361.91 117.589 1362.04 112.652 1361.82 107.76C1361.82 107.624 1361.68 107.488 1361.55 107.488C1361.41 107.488 1361.28 107.624 1361.28 107.76C1361.46 112.606 1361.37 117.498 1360.92 122.345C1360.87 122.571 1361.01 122.707 1361.19 122.707C1361.19 122.707 1361.14 122.707 1361.19 122.707Z" fill="#142B54"/>
<g clip-path="url(#clip3_1474_156360)">
<path d="M773 71.8619H857.695C857.695 71.8619 853.561 62.8113 843.449 64.0963C844.79 58.5095 825.963 42.9783 815.292 67.0572C815.292 67.0572 809.537 58.8447 800.599 67.9511C800.599 67.9511 793.783 63.5935 791.213 69.4596L773 71.8619Z" fill="white"/>
<mask id="mask0_1474_156360" style="mask-type:alpha" maskUnits="userSpaceOnUse" x="933" y="12" width="66" height="76">
<path d="M966.082 12.2022C969.825 12.2022 973.568 12.705 977.311 13.6548C984.741 15.4984 992.339 19.1857 996.25 26.1133C998.094 29.4095 998.932 33.1526 998.932 36.8957C998.932 37.0074 998.932 37.1192 998.932 37.2309C998.876 45.1641 996.473 52.818 992.172 59.4662L973.847 87.7352H966.137H958.428L940.103 59.4662C935.801 52.818 933.343 45.1641 933.343 37.2309C933.343 37.1192 933.343 37.0074 933.343 36.8957C933.343 27.7893 938.539 20.6382 946.528 16.6716C952.617 13.5989 959.322 12.1464 966.082 12.2022Z" fill="#C7534A"/>
</mask>
<g mask="url(#mask0_1474_156360)">
<path d="M966.082 12.2022C969.825 12.2022 973.568 12.705 977.311 13.6548C984.741 15.4984 992.339 19.1857 996.25 26.1133C998.094 29.4095 998.932 33.1526 998.932 36.8957C998.932 37.0074 998.932 37.1192 998.932 37.2309C998.876 45.1641 996.473 52.818 992.172 59.4662L973.847 87.7352H966.137H958.428L940.103 59.4662C935.801 52.818 933.343 45.1641 933.343 37.2309C933.343 37.1192 933.343 37.0074 933.343 36.8957C933.343 27.7893 938.539 20.6382 946.528 16.6716C952.617 13.5989 959.322 12.1464 966.082 12.2022Z" fill="#EB3441"/>
<path d="M968.538 10.3031C968.538 10.3031 970.996 46.5611 967.029 78.5733H970.773C970.773 78.5733 981.834 46.3377 977.309 9.40918L968.538 10.3031Z" fill="white"/>
<path d="M986.08 14.605C986.08 14.605 990.941 56.8409 973.175 78.5734H976.918C976.918 78.5734 1002.9 51.4776 995.075 19.1303L986.08 14.605Z" fill="white"/>
<path d="M962.001 10.3033C962.001 10.3033 956.75 48.7402 963.51 78.5735H959.767C959.767 78.5735 944.962 49.3548 954.459 9.74463L962.001 10.3033Z" fill="white"/>
<path d="M946.023 14.6055C946.023 14.6055 941.163 56.8414 958.929 78.5739H955.186C955.186 78.5739 929.207 51.4781 937.029 19.1307L946.023 14.6055Z" fill="white"/>
<path d="M981.054 78.5176H950.159L957.533 89.747L979.601 89.0766L981.054 78.5176Z" fill="#1A495C"/>
</g>
<path d="M965.411 95.3896H966.752H971.277C971.277 95.3896 970.719 98.4624 969.545 100.921C968.763 102.652 967.031 102.708 966.082 102.597C965.132 102.708 963.456 102.708 962.618 100.921C961.501 98.4624 960.886 95.3896 960.886 95.3896H965.411Z" fill="#1A495C"/>
<path d="M973.735 87.7358L970.774 95.3897" stroke="black" stroke-width="0.4506" stroke-miterlimit="10"/>
<path d="M958.54 87.7358L961.669 95.7807" stroke="black" stroke-width="0.4506" stroke-miterlimit="10"/>
<path d="M966.081 87.7358V95.3897" stroke="black" stroke-width="0.4506" stroke-miterlimit="10"/>
<mask id="mask1_1474_156360" style="mask-type:alpha" maskUnits="userSpaceOnUse" x="1019" y="75" width="29" height="33">
<path d="M1033.4 75.5904C1034.97 75.5904 1036.59 75.8139 1038.15 76.205C1041.28 76.9871 1044.52 78.5514 1046.14 81.4565C1046.92 82.8532 1047.26 84.4175 1047.26 85.9818C1047.26 86.0376 1047.26 86.0935 1047.26 86.1494C1047.26 89.5014 1046.2 92.7417 1044.41 95.5351L1036.64 107.435H1033.4H1030.16L1022.4 95.5351C1020.55 92.7417 1019.55 89.5014 1019.55 86.1494C1019.55 86.0935 1019.55 86.0376 1019.55 85.9818C1019.55 82.1269 1021.73 79.1101 1025.13 77.434C1027.7 76.1491 1030.55 75.5345 1033.4 75.5904Z" fill="#E9CA5C"/>
</mask>
<g mask="url(#mask1_1474_156360)">
<path d="M1033.4 75.5904C1034.97 75.5904 1036.59 75.8139 1038.15 76.205C1041.28 76.9871 1044.52 78.5514 1046.14 81.4565C1046.92 82.8532 1047.26 84.4175 1047.26 85.9818C1047.26 86.0376 1047.26 86.0935 1047.26 86.1494C1047.26 89.5014 1046.2 92.7417 1044.41 95.5351L1036.64 107.435H1033.4H1030.16L1022.4 95.5351C1020.55 92.7417 1019.55 89.5014 1019.55 86.1494C1019.55 86.0935 1019.55 86.0376 1019.55 85.9818C1019.55 82.1269 1021.73 79.1101 1025.13 77.434C1027.7 76.1491 1030.55 75.5345 1033.4 75.5904Z" fill="#F5D965"/>
<path d="M1034.41 74.7529C1034.41 74.7529 1035.41 90.0606 1033.79 103.581H1035.36C1035.36 103.581 1040.05 90.0047 1038.15 74.3618L1034.41 74.7529Z" fill="white"/>
<path d="M1041.84 76.54C1041.84 76.54 1043.9 94.3618 1036.36 103.524H1037.93C1037.93 103.524 1048.88 92.0712 1045.58 78.4395L1041.84 76.54Z" fill="white"/>
<path d="M1031.67 74.7523C1031.67 74.7523 1029.43 90.9539 1032.28 103.58H1030.72C1030.72 103.58 1024.46 91.2332 1028.48 74.5288L1031.67 74.7523Z" fill="white"/>
<path d="M1024.91 76.54C1024.91 76.54 1022.84 94.3618 1030.38 103.524H1028.82C1028.82 103.524 1017.87 92.0712 1021.16 78.4395L1024.91 76.54Z" fill="white"/>
<path d="M1039.71 103.58H1026.64L1029.77 108.329L1039.1 107.994L1039.71 103.58Z" fill="#1A495C"/>
</g>
<path d="M1033.12 110.675H1033.68H1035.58C1035.58 110.675 1035.36 111.96 1034.86 113.022C1034.52 113.748 1033.79 113.748 1033.4 113.748C1033.01 113.804 1032.29 113.804 1031.95 113.022C1031.45 111.96 1031.22 110.675 1031.22 110.675H1033.12Z" fill="#1A495C"/>
<path d="M1036.64 107.435L1035.36 110.675" stroke="black" stroke-width="0.190966" stroke-miterlimit="10"/>
<path d="M1030.22 107.435L1031.45 110.675" stroke="black" stroke-width="0.190966" stroke-miterlimit="10"/>
<path d="M1033.4 107.435V110.675" stroke="black" stroke-width="0.190966" stroke-miterlimit="10"/>
<mask id="mask2_1474_156360" style="mask-type:alpha" maskUnits="userSpaceOnUse" x="879" y="115" width="37" height="42">
<path d="M897.141 115.312C899.208 115.312 901.219 115.591 903.231 116.094C907.253 117.099 911.443 119.111 913.566 122.91C914.572 124.697 915.019 126.765 915.019 128.776C915.019 128.832 915.019 128.888 915.019 128.943C915.019 133.245 913.678 137.435 911.331 141.067L901.331 156.486H897.141H892.951L882.951 141.067C880.604 137.435 879.263 133.245 879.263 128.943C879.263 128.888 879.263 128.832 879.263 128.776C879.263 123.804 882.113 119.949 886.47 117.77C889.822 116.094 893.454 115.256 897.141 115.312Z" fill="#437870"/>
</mask>
<g mask="url(#mask2_1474_156360)">
<path d="M897.141 115.312C899.208 115.312 901.219 115.591 903.231 116.094C907.253 117.099 911.443 119.111 913.566 122.91C914.572 124.697 915.019 126.765 915.019 128.776C915.019 128.832 915.019 128.888 915.019 128.943C915.019 133.245 913.678 137.435 911.331 141.067L901.331 156.486H897.141H892.951L882.951 141.067C880.604 137.435 879.263 133.245 879.263 128.943C879.263 128.888 879.263 128.832 879.263 128.776C879.263 123.804 882.113 119.949 886.47 117.77C889.822 116.094 893.454 115.256 897.141 115.312Z" fill="#4ACC8F"/>
<path d="M898.483 114.25C898.483 114.25 899.824 134.027 897.645 151.458H899.656C899.656 151.458 905.69 133.859 903.232 113.747L898.483 114.25Z" fill="white"/>
<path d="M908.091 116.597C908.091 116.597 910.717 139.67 901.052 151.458H903.119C903.119 151.458 917.309 136.653 913.007 119.055L908.091 116.597Z" fill="white"/>
<path d="M894.905 114.249C894.905 114.249 892.056 135.2 895.743 151.457H893.732C893.732 151.457 885.687 135.535 890.827 113.914L894.905 114.249Z" fill="white"/>
<path d="M886.19 116.596C886.19 116.596 883.564 139.669 893.229 151.457H891.162C891.162 151.457 876.972 136.652 881.274 119.054L886.19 116.596Z" fill="white"/>
</g>
</g>
</g>
</g>
<path d="M147.926 32.6307C147.831 31.589 147.41 30.7794 146.662 30.2017C145.923 29.6146 144.867 29.321 143.494 29.321C142.585 29.321 141.828 29.4394 141.222 29.6761C140.616 29.9129 140.161 30.2396 139.858 30.6562C139.555 31.0634 139.399 31.5322 139.389 32.0625C139.37 32.4981 139.455 32.8816 139.645 33.2131C139.844 33.5445 140.128 33.8381 140.497 34.0938C140.876 34.34 141.33 34.5578 141.861 34.7472C142.391 34.9366 142.988 35.1023 143.651 35.2443L146.151 35.8125C147.59 36.125 148.859 36.5417 149.957 37.0625C151.065 37.5833 151.993 38.2036 152.741 38.9233C153.499 39.643 154.072 40.4716 154.46 41.4091C154.848 42.3466 155.047 43.3977 155.057 44.5625C155.047 46.3996 154.583 47.9763 153.665 49.2926C152.746 50.6089 151.425 51.6174 149.702 52.3182C147.988 53.0189 145.919 53.3693 143.494 53.3693C141.061 53.3693 138.939 53.0047 137.131 52.2756C135.322 51.5464 133.916 50.4384 132.912 48.9517C131.908 47.465 131.392 45.5852 131.364 43.3125H138.097C138.153 44.25 138.404 45.0312 138.849 45.6562C139.295 46.2812 139.905 46.7547 140.682 47.0767C141.468 47.3987 142.377 47.5597 143.409 47.5597C144.356 47.5597 145.161 47.4318 145.824 47.1761C146.496 46.9205 147.012 46.5653 147.372 46.1108C147.732 45.6562 147.917 45.1354 147.926 44.5483C147.917 43.9991 147.746 43.5303 147.415 43.142C147.083 42.7443 146.572 42.4034 145.881 42.1193C145.199 41.8258 144.328 41.5559 143.267 41.3097L140.227 40.5994C137.708 40.0218 135.724 39.089 134.276 37.8011C132.827 36.5038 132.107 34.7519 132.116 32.5455C132.107 30.7462 132.59 29.1695 133.565 27.8153C134.541 26.4612 135.89 25.4053 137.614 24.6477C139.337 23.8902 141.302 23.5114 143.509 23.5114C145.762 23.5114 147.718 23.8949 149.375 24.6619C151.042 25.4195 152.334 26.4848 153.253 27.858C154.171 29.2311 154.64 30.822 154.659 32.6307H147.926ZM168.807 53.4119C166.525 53.4119 164.555 52.9621 162.898 52.0625C161.25 51.1534 159.981 49.8608 159.091 48.1847C158.21 46.4991 157.77 44.4962 157.77 42.1761C157.77 39.9223 158.215 37.9527 159.105 36.267C159.995 34.572 161.25 33.2557 162.869 32.3182C164.489 31.3712 166.397 30.8977 168.594 30.8977C170.147 30.8977 171.567 31.1392 172.855 31.6222C174.143 32.1051 175.256 32.8201 176.193 33.767C177.131 34.714 177.86 35.8835 178.381 37.2756C178.902 38.6581 179.162 40.2443 179.162 42.0341V43.767H160.199V39.733H172.699C172.689 38.9943 172.514 38.3362 172.173 37.7585C171.832 37.1809 171.364 36.7311 170.767 36.4091C170.18 36.0777 169.503 35.9119 168.736 35.9119C167.959 35.9119 167.263 36.0871 166.648 36.4375C166.032 36.7784 165.545 37.2472 165.185 37.8438C164.825 38.4309 164.635 39.0985 164.616 39.8466V43.9517C164.616 44.8419 164.792 45.6231 165.142 46.2955C165.492 46.9583 165.99 47.4744 166.634 47.8438C167.277 48.2131 168.045 48.3977 168.935 48.3977C169.55 48.3977 170.109 48.3125 170.611 48.142C171.113 47.9716 171.544 47.7206 171.903 47.3892C172.263 47.0578 172.533 46.6506 172.713 46.1676L179.091 46.3523C178.826 47.7822 178.243 49.0275 177.344 50.0881C176.454 51.1392 175.284 51.9583 173.835 52.5455C172.386 53.1231 170.71 53.4119 168.807 53.4119ZM192.908 53.4119C190.626 53.4119 188.656 52.9621 186.999 52.0625C185.352 51.1534 184.083 49.8608 183.192 48.1847C182.312 46.4991 181.871 44.4962 181.871 42.1761C181.871 39.9223 182.317 37.9527 183.207 36.267C184.097 34.572 185.352 33.2557 186.971 32.3182C188.59 31.3712 190.498 30.8977 192.695 30.8977C194.248 30.8977 195.669 31.1392 196.957 31.6222C198.245 32.1051 199.357 32.8201 200.295 33.767C201.232 34.714 201.961 35.8835 202.482 37.2756C203.003 38.6581 203.263 40.2443 203.263 42.0341V43.767H184.3V39.733H196.8C196.791 38.9943 196.616 38.3362 196.275 37.7585C195.934 37.1809 195.465 36.7311 194.869 36.4091C194.281 36.0777 193.604 35.9119 192.837 35.9119C192.061 35.9119 191.365 36.0871 190.749 36.4375C190.134 36.7784 189.646 37.2472 189.286 37.8438C188.926 38.4309 188.737 39.0985 188.718 39.8466V43.9517C188.718 44.8419 188.893 45.6231 189.244 46.2955C189.594 46.9583 190.091 47.4744 190.735 47.8438C191.379 48.2131 192.146 48.3977 193.036 48.3977C193.652 48.3977 194.21 48.3125 194.712 48.142C195.214 47.9716 195.645 47.7206 196.005 47.3892C196.365 47.0578 196.635 46.6506 196.815 46.1676L203.192 46.3523C202.927 47.7822 202.345 49.0275 201.445 50.0881C200.555 51.1392 199.386 51.9583 197.937 52.5455C196.488 53.1231 194.812 53.4119 192.908 53.4119ZM224.553 53.4403C222.507 53.4403 220.741 53.0758 219.254 52.3466C217.777 51.6174 216.641 50.6373 215.845 49.4062C215.05 48.1657 214.652 46.7879 214.652 45.2727C214.652 44.1553 214.87 43.1705 215.305 42.3182C215.75 41.4564 216.361 40.6657 217.138 39.946C217.924 39.2169 218.838 38.5019 219.879 37.8011L225.987 33.8949C226.679 33.4593 227.166 33 227.45 32.517C227.744 32.0341 227.891 31.5511 227.891 31.0682C227.891 30.5473 227.687 30.0739 227.28 29.6477C226.882 29.2216 226.29 29.0133 225.504 29.0227C225.002 29.0227 224.567 29.1269 224.197 29.3352C223.828 29.5436 223.539 29.8229 223.331 30.1733C223.132 30.5237 223.033 30.9214 223.033 31.3665C223.033 31.9441 223.198 32.536 223.53 33.142C223.861 33.7481 224.306 34.392 224.865 35.0739C225.433 35.7557 226.063 36.5085 226.754 37.3324L240.689 53H233.615L221.953 40.3438C221.29 39.6051 220.594 38.7765 219.865 37.858C219.136 36.9394 218.52 35.9356 218.018 34.8466C217.517 33.7481 217.266 32.5549 217.266 31.267C217.266 29.8182 217.607 28.5066 218.288 27.3324C218.97 26.1581 219.927 25.2254 221.158 24.5341C222.398 23.8333 223.842 23.483 225.49 23.483C227.081 23.483 228.454 23.8097 229.609 24.4631C230.765 25.1165 231.655 25.983 232.28 27.0625C232.905 28.142 233.217 29.3258 233.217 30.6136C233.217 31.9773 232.881 33.232 232.209 34.3778C231.536 35.5142 230.585 36.5227 229.354 37.4034L223.374 41.679C222.739 42.1335 222.242 42.6212 221.882 43.142C221.522 43.6534 221.342 44.2121 221.342 44.8182C221.342 45.4432 221.489 45.9877 221.783 46.4517C222.086 46.9157 222.512 47.2803 223.061 47.5455C223.61 47.8106 224.254 47.9432 224.993 47.9432C225.978 47.9432 226.963 47.7112 227.947 47.2472C228.932 46.7737 229.832 46.1108 230.646 45.2585C231.461 44.3968 232.114 43.3788 232.607 42.2045C233.099 41.0208 233.345 39.7235 233.345 38.3125H238.942C238.942 40.0549 238.757 41.6742 238.388 43.1705C238.018 44.6572 237.464 45.9924 236.726 47.1761C235.997 48.3504 235.092 49.3258 234.013 50.1023C233.672 50.2917 233.34 50.4716 233.018 50.642C232.696 50.8125 232.365 50.9924 232.024 51.1818C230.907 51.9867 229.695 52.5644 228.388 52.9148C227.09 53.2652 225.812 53.4403 224.553 53.4403ZM262.173 53H251.42V23.9091H262.159C265.123 23.9091 267.675 24.4915 269.815 25.6562C271.965 26.8116 273.622 28.4782 274.787 30.6562C275.952 32.8248 276.534 35.4195 276.534 38.4403C276.534 41.4706 275.952 44.0748 274.787 46.2528C273.632 48.4309 271.979 50.1023 269.83 51.267C267.68 52.4223 265.128 53 262.173 53ZM258.452 47.0057H261.903C263.532 47.0057 264.91 46.7311 266.037 46.1818C267.173 45.6231 268.03 44.7188 268.608 43.4688C269.195 42.2093 269.489 40.5331 269.489 38.4403C269.489 36.3475 269.195 34.6809 268.608 33.4403C268.021 32.1903 267.154 31.2907 266.009 30.7415C264.872 30.1828 263.471 29.9034 261.804 29.9034H258.452V47.0057ZM290.824 53.4119C288.532 53.4119 286.563 52.9432 284.915 52.0057C283.277 51.0587 282.012 49.7424 281.122 48.0568C280.241 46.3617 279.801 44.3968 279.801 42.1619C279.801 39.9176 280.241 37.9527 281.122 36.267C282.012 34.572 283.277 33.2557 284.915 32.3182C286.563 31.3712 288.532 30.8977 290.824 30.8977C293.116 30.8977 295.08 31.3712 296.719 32.3182C298.366 33.2557 299.631 34.572 300.511 36.267C301.402 37.9527 301.847 39.9176 301.847 42.1619C301.847 44.3968 301.402 46.3617 300.511 48.0568C299.631 49.7424 298.366 51.0587 296.719 52.0057C295.08 52.9432 293.116 53.4119 290.824 53.4119ZM290.866 48.1705C291.7 48.1705 292.405 47.9148 292.983 47.4034C293.561 46.892 294.001 46.1818 294.304 45.2727C294.616 44.3636 294.773 43.3125 294.773 42.1193C294.773 40.9072 294.616 39.8466 294.304 38.9375C294.001 38.0284 293.561 37.3182 292.983 36.8068C292.405 36.2955 291.7 36.0398 290.866 36.0398C290.005 36.0398 289.276 36.2955 288.679 36.8068C288.092 37.3182 287.642 38.0284 287.33 38.9375C287.027 39.8466 286.875 40.9072 286.875 42.1193C286.875 43.3125 287.027 44.3636 287.33 45.2727C287.642 46.1818 288.092 46.892 288.679 47.4034C289.276 47.9148 290.005 48.1705 290.866 48.1705Z" fill="white"/>
<path opacity="0.8" d="M131.598 99V84.4545H140.717V86.3438H133.793V90.7756H140.241V92.6577H133.793V97.1108H140.803V99H131.598ZM145.154 88.0909L147.562 92.3381L149.991 88.0909H152.314L148.912 93.5455L152.342 99H150.02L147.562 94.9233L145.112 99H142.782L146.177 93.5455L142.825 88.0909H145.154ZM154.494 103.091V88.0909H156.568V89.8594H156.745C156.868 89.6321 157.046 89.3693 157.278 89.071C157.51 88.7727 157.832 88.5123 158.244 88.2898C158.656 88.0625 159.2 87.9489 159.877 87.9489C160.758 87.9489 161.544 88.1714 162.235 88.6165C162.927 89.0616 163.469 89.7031 163.862 90.5412C164.26 91.3793 164.458 92.3878 164.458 93.5668C164.458 94.7457 164.262 95.7566 163.869 96.5994C163.476 97.4375 162.936 98.0838 162.25 98.5384C161.563 98.9882 160.779 99.2131 159.899 99.2131C159.236 99.2131 158.694 99.1018 158.272 98.8793C157.856 98.6567 157.529 98.3963 157.292 98.098C157.056 97.7997 156.873 97.5346 156.745 97.3026H156.618V103.091H154.494ZM156.575 93.5455C156.575 94.3125 156.686 94.9848 156.909 95.5625C157.131 96.1402 157.453 96.5923 157.875 96.919C158.296 97.241 158.812 97.402 159.423 97.402C160.057 97.402 160.588 97.2339 161.014 96.8977C161.44 96.5568 161.762 96.0952 161.98 95.5128C162.202 94.9304 162.314 94.2746 162.314 93.5455C162.314 92.8258 162.205 92.1795 161.987 91.6065C161.774 91.0336 161.452 90.5814 161.021 90.25C160.595 89.9186 160.062 89.7528 159.423 89.7528C158.807 89.7528 158.287 89.9115 157.86 90.2287C157.439 90.5459 157.119 90.9886 156.902 91.5568C156.684 92.125 156.575 92.7879 156.575 93.5455ZM168.961 84.4545V99H166.838V84.4545H168.961ZM176.413 99.2202C175.391 99.2202 174.498 98.9858 173.736 98.517C172.973 98.0483 172.382 97.3925 171.96 96.5497C171.539 95.7069 171.328 94.7221 171.328 93.5952C171.328 92.4635 171.539 91.474 171.96 90.6264C172.382 89.7789 172.973 89.1207 173.736 88.652C174.498 88.1832 175.391 87.9489 176.413 87.9489C177.436 87.9489 178.329 88.1832 179.091 88.652C179.853 89.1207 180.445 89.7789 180.866 90.6264C181.288 91.474 181.499 92.4635 181.499 93.5952C181.499 94.7221 181.288 95.7069 180.866 96.5497C180.445 97.3925 179.853 98.0483 179.091 98.517C178.329 98.9858 177.436 99.2202 176.413 99.2202ZM176.42 97.4375C177.083 97.4375 177.633 97.2623 178.068 96.9119C178.504 96.5616 178.826 96.0952 179.034 95.5128C179.247 94.9304 179.354 94.2888 179.354 93.5881C179.354 92.892 179.247 92.2528 179.034 91.6705C178.826 91.0833 178.504 90.6122 178.068 90.2571C177.633 89.902 177.083 89.7244 176.42 89.7244C175.753 89.7244 175.199 89.902 174.759 90.2571C174.323 90.6122 173.999 91.0833 173.786 91.6705C173.577 92.2528 173.473 92.892 173.473 93.5881C173.473 94.2888 173.577 94.9304 173.786 95.5128C173.999 96.0952 174.323 96.5616 174.759 96.9119C175.199 97.2623 175.753 97.4375 176.42 97.4375ZM183.869 99V88.0909H185.922V89.8239H186.035C186.234 89.2367 186.584 88.7751 187.086 88.4389C187.593 88.098 188.166 87.9276 188.805 87.9276C188.938 87.9276 189.094 87.9323 189.274 87.9418C189.458 87.9512 189.603 87.9631 189.707 87.9773V90.0085C189.622 89.9848 189.47 89.9588 189.252 89.9304C189.035 89.8973 188.817 89.8807 188.599 89.8807C188.097 89.8807 187.65 89.9872 187.257 90.2003C186.868 90.4086 186.561 90.6998 186.333 91.0739C186.106 91.4432 185.993 91.8646 185.993 92.3381V99H183.869ZM195.856 99.2202C194.781 99.2202 193.855 98.9905 193.079 98.5312C192.307 98.0672 191.71 97.4162 191.289 96.5781C190.872 95.7353 190.664 94.7481 190.664 93.6165C190.664 92.4991 190.872 91.5142 191.289 90.6619C191.71 89.8097 192.298 89.1444 193.05 88.6662C193.808 88.188 194.693 87.9489 195.707 87.9489C196.322 87.9489 196.919 88.0507 197.496 88.2543C198.074 88.4579 198.593 88.7775 199.052 89.2131C199.511 89.6487 199.873 90.2145 200.138 90.9105C200.404 91.6018 200.536 92.4422 200.536 93.4318V94.1847H191.864V92.5938H198.455C198.455 92.035 198.342 91.5402 198.114 91.1094C197.887 90.6738 197.567 90.3305 197.156 90.0795C196.748 89.8286 196.27 89.7031 195.721 89.7031C195.124 89.7031 194.603 89.8499 194.158 90.1435C193.718 90.4323 193.377 90.8111 193.136 91.2798C192.899 91.7438 192.781 92.2481 192.781 92.7926V94.0355C192.781 94.7647 192.908 95.3849 193.164 95.8963C193.424 96.4077 193.787 96.7983 194.251 97.0682C194.715 97.3333 195.257 97.4659 195.877 97.4659C196.28 97.4659 196.647 97.4091 196.978 97.2955C197.309 97.1771 197.596 97.0019 197.837 96.7699C198.079 96.5379 198.263 96.2514 198.391 95.9105L200.401 96.2727C200.24 96.8646 199.951 97.383 199.535 97.8281C199.123 98.2685 198.604 98.6117 197.979 98.858C197.359 99.0994 196.651 99.2202 195.856 99.2202ZM213.377 88.0909V89.7955H207.212V88.0909H213.377ZM208.903 99V86.8267C208.903 86.1449 209.052 85.5791 209.35 85.1293C209.648 84.6747 210.044 84.3362 210.536 84.1136C211.029 83.8864 211.564 83.7727 212.141 83.7727C212.567 83.7727 212.932 83.8082 213.235 83.8793C213.538 83.9455 213.763 84.0071 213.91 84.0639L213.413 85.7827C213.313 85.7543 213.185 85.7211 213.029 85.6832C212.873 85.6406 212.683 85.6193 212.461 85.6193C211.945 85.6193 211.576 85.7472 211.353 86.0028C211.135 86.2585 211.026 86.6278 211.026 87.1108V99H208.903ZM218.411 99.2415C217.72 99.2415 217.095 99.1136 216.536 98.858C215.977 98.5975 215.534 98.2211 215.208 97.7287C214.886 97.2363 214.725 96.6326 214.725 95.9176C214.725 95.3021 214.843 94.7955 215.08 94.3977C215.317 94 215.636 93.6851 216.039 93.4531C216.441 93.2211 216.891 93.0459 217.388 92.9276C217.885 92.8092 218.392 92.7192 218.908 92.6577C219.561 92.5819 220.092 92.5204 220.499 92.473C220.906 92.4209 221.202 92.3381 221.387 92.2244C221.571 92.1108 221.664 91.9261 221.664 91.6705V91.6207C221.664 91.0005 221.489 90.5199 221.138 90.179C220.792 89.8381 220.276 89.6676 219.59 89.6676C218.875 89.6676 218.311 89.8262 217.9 90.1435C217.492 90.456 217.211 90.804 217.054 91.1875L215.059 90.733C215.295 90.0701 215.641 89.535 216.096 89.1278C216.555 88.7159 217.083 88.4176 217.679 88.233C218.276 88.0436 218.903 87.9489 219.561 87.9489C219.997 87.9489 220.459 88.0009 220.946 88.1051C221.439 88.2045 221.898 88.3892 222.324 88.6591C222.755 88.929 223.108 89.3149 223.382 89.8168C223.657 90.3139 223.794 90.9602 223.794 91.7557V99H221.721V97.5085H221.635C221.498 97.7831 221.292 98.053 221.017 98.3182C220.743 98.5833 220.39 98.8035 219.959 98.9787C219.528 99.1539 219.012 99.2415 218.411 99.2415ZM218.873 97.5369C219.46 97.5369 219.962 97.4209 220.378 97.1889C220.8 96.9569 221.119 96.6539 221.337 96.2798C221.56 95.901 221.671 95.4962 221.671 95.0653V93.6591C221.595 93.7348 221.448 93.8059 221.23 93.8722C221.017 93.9337 220.774 93.9882 220.499 94.0355C220.224 94.0781 219.957 94.1184 219.696 94.1562C219.436 94.1894 219.218 94.2178 219.043 94.2415C218.631 94.2936 218.255 94.3812 217.914 94.5043C217.578 94.6274 217.308 94.8049 217.104 95.0369C216.905 95.2642 216.806 95.5672 216.806 95.946C216.806 96.4716 217 96.8693 217.388 97.1392C217.776 97.4044 218.271 97.5369 218.873 97.5369ZM226.623 99V88.0909H228.661V89.8665H228.796C229.023 89.2652 229.395 88.7964 229.911 88.4602C230.427 88.1193 231.045 87.9489 231.765 87.9489C232.494 87.9489 233.105 88.1193 233.597 88.4602C234.094 88.8011 234.461 89.2699 234.698 89.8665H234.812C235.072 89.2841 235.487 88.8201 236.055 88.4744C236.623 88.1241 237.3 87.9489 238.086 87.9489C239.076 87.9489 239.883 88.259 240.508 88.8793C241.138 89.4995 241.452 90.4347 241.452 91.6847V99H239.329V91.8835C239.329 91.1449 239.128 90.6098 238.725 90.2784C238.323 89.947 237.842 89.7812 237.283 89.7812C236.592 89.7812 236.055 89.9943 235.671 90.4205C235.288 90.8419 235.096 91.384 235.096 92.0469V99H232.979V91.7486C232.979 91.1567 232.795 90.6809 232.425 90.321C232.056 89.9612 231.576 89.7812 230.984 89.7812C230.581 89.7812 230.21 89.8878 229.869 90.1009C229.532 90.3092 229.26 90.6004 229.052 90.9744C228.848 91.3485 228.746 91.7817 228.746 92.2741V99H226.623ZM248.894 99.2202C247.871 99.2202 246.979 98.9858 246.216 98.517C245.454 98.0483 244.862 97.3925 244.441 96.5497C244.019 95.7069 243.809 94.7221 243.809 93.5952C243.809 92.4635 244.019 91.474 244.441 90.6264C244.862 89.7789 245.454 89.1207 246.216 88.652C246.979 88.1832 247.871 87.9489 248.894 87.9489C249.917 87.9489 250.809 88.1832 251.571 88.652C252.334 89.1207 252.926 89.7789 253.347 90.6264C253.768 91.474 253.979 92.4635 253.979 93.5952C253.979 94.7221 253.768 95.7069 253.347 96.5497C252.926 97.3925 252.334 98.0483 251.571 98.517C250.809 98.9858 249.917 99.2202 248.894 99.2202ZM248.901 97.4375C249.564 97.4375 250.113 97.2623 250.549 96.9119C250.984 96.5616 251.306 96.0952 251.515 95.5128C251.728 94.9304 251.834 94.2888 251.834 93.5881C251.834 92.892 251.728 92.2528 251.515 91.6705C251.306 91.0833 250.984 90.6122 250.549 90.2571C250.113 89.902 249.564 89.7244 248.901 89.7244C248.233 89.7244 247.679 89.902 247.239 90.2571C246.803 90.6122 246.479 91.0833 246.266 91.6705C246.058 92.2528 245.953 92.892 245.953 93.5881C245.953 94.2888 246.058 94.9304 246.266 95.5128C246.479 96.0952 246.803 96.5616 247.239 96.9119C247.679 97.2623 248.233 97.4375 248.901 97.4375ZM263.26 94.4759V88.0909H265.391V99H263.303V97.1108H263.189C262.938 97.6932 262.536 98.1785 261.982 98.5668C261.432 98.9503 260.748 99.142 259.929 99.142C259.228 99.142 258.608 98.9882 258.068 98.6804C257.533 98.3679 257.112 97.9062 256.804 97.2955C256.501 96.6847 256.349 95.9295 256.349 95.0298V88.0909H258.473V94.7741C258.473 95.5175 258.679 96.1094 259.091 96.5497C259.503 96.9901 260.038 97.2102 260.696 97.2102C261.094 97.2102 261.489 97.1108 261.882 96.9119C262.28 96.7131 262.609 96.4124 262.869 96.0099C263.134 95.6075 263.265 95.0961 263.26 94.4759ZM276.419 90.7543L274.494 91.0952C274.413 90.849 274.286 90.6146 274.11 90.392C273.94 90.1695 273.708 89.9872 273.414 89.8452C273.121 89.7031 272.754 89.6321 272.314 89.6321C271.712 89.6321 271.21 89.767 270.808 90.0369C270.405 90.3021 270.204 90.6454 270.204 91.0668C270.204 91.4313 270.339 91.7249 270.609 91.9474C270.879 92.17 271.315 92.3523 271.916 92.4943L273.649 92.892C274.653 93.1241 275.401 93.4815 275.893 93.9645C276.386 94.4474 276.632 95.0748 276.632 95.8466C276.632 96.5 276.442 97.0824 276.064 97.5938C275.69 98.1004 275.166 98.4981 274.494 98.7869C273.826 99.0758 273.052 99.2202 272.172 99.2202C270.95 99.2202 269.953 98.9598 269.181 98.4389C268.41 97.9134 267.936 97.1676 267.761 96.2017L269.814 95.8892C269.941 96.4242 270.204 96.8291 270.602 97.1037C271 97.3736 271.518 97.5085 272.157 97.5085C272.853 97.5085 273.41 97.3641 273.826 97.0753C274.243 96.7817 274.451 96.4242 274.451 96.0028C274.451 95.6619 274.324 95.3755 274.068 95.1435C273.817 94.9115 273.431 94.7363 272.91 94.6179L271.064 94.2131C270.046 93.9811 269.293 93.6117 268.805 93.1051C268.322 92.5985 268.081 91.9569 268.081 91.1804C268.081 90.5365 268.261 89.973 268.62 89.4901C268.98 89.0071 269.477 88.6307 270.112 88.3608C270.746 88.0862 271.473 87.9489 272.292 87.9489C273.471 87.9489 274.399 88.2045 275.076 88.7159C275.753 89.2225 276.201 89.902 276.419 90.7543ZM287.434 99.2415C286.743 99.2415 286.118 99.1136 285.559 98.858C285.001 98.5975 284.558 98.2211 284.231 97.7287C283.909 97.2363 283.748 96.6326 283.748 95.9176C283.748 95.3021 283.867 94.7955 284.103 94.3977C284.34 94 284.66 93.6851 285.062 93.4531C285.465 93.2211 285.914 93.0459 286.412 92.9276C286.909 92.8092 287.415 92.7192 287.931 92.6577C288.585 92.5819 289.115 92.5204 289.522 92.473C289.93 92.4209 290.225 92.3381 290.41 92.2244C290.595 92.1108 290.687 91.9261 290.687 91.6705V91.6207C290.687 91.0005 290.512 90.5199 290.162 90.179C289.816 89.8381 289.3 89.6676 288.613 89.6676C287.898 89.6676 287.335 89.8262 286.923 90.1435C286.516 90.456 286.234 90.804 286.078 91.1875L284.082 90.733C284.319 90.0701 284.664 89.535 285.119 89.1278C285.578 88.7159 286.106 88.4176 286.703 88.233C287.299 88.0436 287.927 87.9489 288.585 87.9489C289.02 87.9489 289.482 88.0009 289.97 88.1051C290.462 88.2045 290.922 88.3892 291.348 88.6591C291.779 88.929 292.131 89.3149 292.406 89.8168C292.681 90.3139 292.818 90.9602 292.818 91.7557V99H290.744V97.5085H290.659C290.521 97.7831 290.315 98.053 290.041 98.3182C289.766 98.5833 289.413 98.8035 288.983 98.9787C288.552 99.1539 288.036 99.2415 287.434 99.2415ZM287.896 97.5369C288.483 97.5369 288.985 97.4209 289.402 97.1889C289.823 96.9569 290.143 96.6539 290.36 96.2798C290.583 95.901 290.694 95.4962 290.694 95.0653V93.6591C290.618 93.7348 290.472 93.8059 290.254 93.8722C290.041 93.9337 289.797 93.9882 289.522 94.0355C289.248 94.0781 288.98 94.1184 288.72 94.1562C288.459 94.1894 288.242 94.2178 288.066 94.2415C287.654 94.2936 287.278 94.3812 286.937 94.5043C286.601 94.6274 286.331 94.8049 286.127 95.0369C285.929 95.2642 285.829 95.5672 285.829 95.946C285.829 96.4716 286.023 96.8693 286.412 97.1392C286.8 97.4044 287.295 97.5369 287.896 97.5369ZM300.739 88.0909V89.7955H294.78V88.0909H300.739ZM296.378 85.4773H298.501V95.7969C298.501 96.2088 298.563 96.5189 298.686 96.7273C298.809 96.9309 298.968 97.0705 299.162 97.1463C299.361 97.2173 299.576 97.2528 299.808 97.2528C299.979 97.2528 300.128 97.241 300.256 97.2173C300.384 97.1937 300.483 97.1747 300.554 97.1605L300.938 98.9148C300.814 98.9621 300.639 99.0095 300.412 99.0568C300.185 99.1089 299.901 99.1373 299.56 99.142C299.001 99.1515 298.48 99.0521 297.997 98.8438C297.514 98.6354 297.124 98.3134 296.825 97.8778C296.527 97.4422 296.378 96.8954 296.378 96.2372V85.4773ZM308.18 88.0909V89.7955H302.221V88.0909H308.18ZM303.819 85.4773H305.943V95.7969C305.943 96.2088 306.004 96.5189 306.127 96.7273C306.251 96.9309 306.409 97.0705 306.603 97.1463C306.802 97.2173 307.018 97.2528 307.25 97.2528C307.42 97.2528 307.569 97.241 307.697 97.2173C307.825 97.1937 307.924 97.1747 307.995 97.1605L308.379 98.9148C308.256 98.9621 308.081 99.0095 307.853 99.0568C307.626 99.1089 307.342 99.1373 307.001 99.142C306.442 99.1515 305.922 99.0521 305.439 98.8438C304.956 98.6354 304.565 98.3134 304.267 97.8778C303.968 97.4422 303.819 96.8954 303.819 96.2372V85.4773ZM310.529 99V88.0909H312.582V89.8239H312.695C312.894 89.2367 313.245 88.7751 313.746 88.4389C314.253 88.098 314.826 87.9276 315.465 87.9276C315.598 87.9276 315.754 87.9323 315.934 87.9418C316.119 87.9512 316.263 87.9631 316.367 87.9773V90.0085C316.282 89.9848 316.13 89.9588 315.913 89.9304C315.695 89.8973 315.477 89.8807 315.259 89.8807C314.757 89.8807 314.31 89.9872 313.917 90.2003C313.529 90.4086 313.221 90.6998 312.994 91.0739C312.766 91.4432 312.653 91.8646 312.653 92.3381V99H310.529ZM321.282 99.2415C320.591 99.2415 319.966 99.1136 319.407 98.858C318.848 98.5975 318.406 98.2211 318.079 97.7287C317.757 97.2363 317.596 96.6326 317.596 95.9176C317.596 95.3021 317.714 94.7955 317.951 94.3977C318.188 94 318.507 93.6851 318.91 93.4531C319.312 93.2211 319.762 93.0459 320.259 92.9276C320.756 92.8092 321.263 92.7192 321.779 92.6577C322.433 92.5819 322.963 92.5204 323.37 92.473C323.777 92.4209 324.073 92.3381 324.258 92.2244C324.442 92.1108 324.535 91.9261 324.535 91.6705V91.6207C324.535 91.0005 324.36 90.5199 324.009 90.179C323.664 89.8381 323.147 89.6676 322.461 89.6676C321.746 89.6676 321.183 89.8262 320.771 90.1435C320.363 90.456 320.082 90.804 319.925 91.1875L317.93 90.733C318.166 90.0701 318.512 89.535 318.967 89.1278C319.426 88.7159 319.954 88.4176 320.55 88.233C321.147 88.0436 321.774 87.9489 322.433 87.9489C322.868 87.9489 323.33 88.0009 323.817 88.1051C324.31 88.2045 324.769 88.3892 325.195 88.6591C325.626 88.929 325.979 89.3149 326.254 89.8168C326.528 90.3139 326.665 90.9602 326.665 91.7557V99H324.592V97.5085H324.506C324.369 97.7831 324.163 98.053 323.888 98.3182C323.614 98.5833 323.261 98.8035 322.83 98.9787C322.399 99.1539 321.883 99.2415 321.282 99.2415ZM321.744 97.5369C322.331 97.5369 322.833 97.4209 323.249 97.1889C323.671 96.9569 323.99 96.6539 324.208 96.2798C324.431 95.901 324.542 95.4962 324.542 95.0653V93.6591C324.466 93.7348 324.319 93.8059 324.102 93.8722C323.888 93.9337 323.645 93.9882 323.37 94.0355C323.095 94.0781 322.828 94.1184 322.567 94.1562C322.307 94.1894 322.089 94.2178 321.914 94.2415C321.502 94.2936 321.126 94.3812 320.785 94.5043C320.449 94.6274 320.179 94.8049 319.975 95.0369C319.776 95.2642 319.677 95.5672 319.677 95.946C319.677 96.4716 319.871 96.8693 320.259 97.1392C320.647 97.4044 321.142 97.5369 321.744 97.5369ZM334.089 99.2202C333.033 99.2202 332.124 98.9811 331.362 98.5028C330.604 98.0199 330.022 97.3546 329.615 96.5071C329.208 95.6596 329.004 94.6889 329.004 93.5952C329.004 92.4872 329.212 91.5095 329.629 90.6619C330.046 89.8097 330.633 89.1444 331.39 88.6662C332.148 88.188 333.04 87.9489 334.068 87.9489C334.896 87.9489 335.635 88.1027 336.284 88.4105C336.932 88.7135 337.456 89.1397 337.853 89.6889C338.256 90.2382 338.495 90.8797 338.571 91.6136H336.504C336.39 91.1023 336.13 90.6619 335.723 90.2926C335.32 89.9233 334.78 89.7386 334.103 89.7386C333.511 89.7386 332.993 89.8949 332.548 90.2074C332.108 90.5152 331.764 90.9555 331.518 91.5284C331.272 92.0966 331.149 92.7689 331.149 93.5455C331.149 94.3409 331.27 95.0275 331.511 95.6051C331.752 96.1828 332.093 96.6302 332.534 96.9474C332.979 97.2647 333.502 97.4233 334.103 97.4233C334.506 97.4233 334.87 97.3499 335.197 97.2031C335.529 97.0516 335.806 96.8362 336.028 96.5568C336.255 96.2775 336.414 95.9413 336.504 95.5483H338.571C338.495 96.2538 338.265 96.8835 337.882 97.4375C337.498 97.9915 336.984 98.4271 336.341 98.7443C335.701 99.0616 334.951 99.2202 334.089 99.2202ZM345.934 88.0909V89.7955H339.975V88.0909H345.934ZM341.573 85.4773H343.697V95.7969C343.697 96.2088 343.758 96.5189 343.881 96.7273C344.004 96.9309 344.163 97.0705 344.357 97.1463C344.556 97.2173 344.772 97.2528 345.004 97.2528C345.174 97.2528 345.323 97.241 345.451 97.2173C345.579 97.1937 345.678 97.1747 345.749 97.1605L346.133 98.9148C346.01 98.9621 345.835 99.0095 345.607 99.0568C345.38 99.1089 345.096 99.1373 344.755 99.142C344.196 99.1515 343.675 99.0521 343.192 98.8438C342.71 98.6354 342.319 98.3134 342.021 97.8778C341.722 97.4422 341.573 96.8954 341.573 96.2372V85.4773ZM348.283 99V88.0909H350.407V99H348.283ZM349.355 86.4077C348.986 86.4077 348.669 86.2846 348.404 86.0384C348.143 85.7874 348.013 85.4891 348.013 85.1435C348.013 84.7931 348.143 84.4948 348.404 84.2486C348.669 83.9976 348.986 83.8722 349.355 83.8722C349.725 83.8722 350.04 83.9976 350.3 84.2486C350.565 84.4948 350.698 84.7931 350.698 85.1435C350.698 85.4891 350.565 85.7874 350.3 86.0384C350.04 86.2846 349.725 86.4077 349.355 86.4077ZM357.859 99.2202C356.836 99.2202 355.943 98.9858 355.181 98.517C354.419 98.0483 353.827 97.3925 353.406 96.5497C352.984 95.7069 352.773 94.7221 352.773 93.5952C352.773 92.4635 352.984 91.474 353.406 90.6264C353.827 89.7789 354.419 89.1207 355.181 88.652C355.943 88.1832 356.836 87.9489 357.859 87.9489C358.881 87.9489 359.774 88.1832 360.536 88.652C361.299 89.1207 361.89 89.7789 362.312 90.6264C362.733 91.474 362.944 92.4635 362.944 93.5952C362.944 94.7221 362.733 95.7069 362.312 96.5497C361.89 97.3925 361.299 98.0483 360.536 98.517C359.774 98.9858 358.881 99.2202 357.859 99.2202ZM357.866 97.4375C358.529 97.4375 359.078 97.2623 359.513 96.9119C359.949 96.5616 360.271 96.0952 360.479 95.5128C360.692 94.9304 360.799 94.2888 360.799 93.5881C360.799 92.892 360.692 92.2528 360.479 91.6705C360.271 91.0833 359.949 90.6122 359.513 90.2571C359.078 89.902 358.529 89.7244 357.866 89.7244C357.198 89.7244 356.644 89.902 356.204 90.2571C355.768 90.6122 355.444 91.0833 355.231 91.6705C355.022 92.2528 354.918 92.892 354.918 93.5881C354.918 94.2888 355.022 94.9304 355.231 95.5128C355.444 96.0952 355.768 96.5616 356.204 96.9119C356.644 97.2623 357.198 97.4375 357.866 97.4375ZM367.438 92.5227V99H365.314V88.0909H367.353V89.8665H367.488C367.739 89.2888 368.132 88.8248 368.667 88.4744C369.206 88.1241 369.886 87.9489 370.705 87.9489C371.448 87.9489 372.099 88.1051 372.658 88.4176C373.217 88.7254 373.65 89.1847 373.958 89.7955C374.266 90.4062 374.419 91.1615 374.419 92.0611V99H372.296V92.3168C372.296 91.526 372.09 90.9081 371.678 90.4631C371.266 90.0133 370.7 89.7884 369.98 89.7884C369.488 89.7884 369.05 89.8949 368.667 90.108C368.288 90.321 367.987 90.6335 367.765 91.0455C367.547 91.4527 367.438 91.9451 367.438 92.5227ZM385.442 90.7543L383.517 91.0952C383.437 90.849 383.309 90.6146 383.134 90.392C382.963 90.1695 382.731 89.9872 382.438 89.8452C382.144 89.7031 381.777 89.6321 381.337 89.6321C380.736 89.6321 380.234 89.767 379.831 90.0369C379.429 90.3021 379.228 90.6454 379.228 91.0668C379.228 91.4313 379.363 91.7249 379.632 91.9474C379.902 92.17 380.338 92.3523 380.939 92.4943L382.672 92.892C383.676 93.1241 384.424 93.4815 384.917 93.9645C385.409 94.4474 385.655 95.0748 385.655 95.8466C385.655 96.5 385.466 97.0824 385.087 97.5938C384.713 98.1004 384.19 98.4981 383.517 98.7869C382.85 99.0758 382.076 99.2202 381.195 99.2202C379.973 99.2202 378.977 98.9598 378.205 98.4389C377.433 97.9134 376.96 97.1676 376.784 96.2017L378.837 95.8892C378.965 96.4242 379.228 96.8291 379.625 97.1037C380.023 97.3736 380.542 97.5085 381.181 97.5085C381.877 97.5085 382.433 97.3641 382.85 97.0753C383.266 96.7817 383.475 96.4242 383.475 96.0028C383.475 95.6619 383.347 95.3755 383.091 95.1435C382.84 94.9115 382.454 94.7363 381.934 94.6179L380.087 94.2131C379.069 93.9811 378.316 93.6117 377.828 93.1051C377.346 92.5985 377.104 91.9569 377.104 91.1804C377.104 90.5365 377.284 89.973 377.644 89.4901C378.004 89.0071 378.501 88.6307 379.135 88.3608C379.77 88.0862 380.497 87.9489 381.316 87.9489C382.495 87.9489 383.423 88.2045 384.1 88.7159C384.777 89.2225 385.224 89.902 385.442 90.7543ZM390.753 97.0114L390.646 97.7855C390.575 98.3537 390.455 98.9455 390.284 99.5611C390.118 100.181 389.946 100.757 389.766 101.287C389.59 101.817 389.446 102.239 389.332 102.551H387.827C387.888 102.258 387.973 101.86 388.082 101.358C388.191 100.861 388.298 100.304 388.402 99.6889C388.506 99.0734 388.584 98.446 388.636 97.8068L388.707 97.0114H390.753ZM400.763 95.2997L400.749 92.7074H401.119L405.465 88.0909H408.008L403.05 93.3466H402.717L400.763 95.2997ZM398.81 99V84.4545H400.934V99H398.81ZM405.7 99L401.793 93.8153L403.256 92.331L408.306 99H405.7ZM414.196 99.2202C413.121 99.2202 412.195 98.9905 411.419 98.5312C410.647 98.0672 410.05 97.4162 409.629 96.5781C409.212 95.7353 409.004 94.7481 409.004 93.6165C409.004 92.4991 409.212 91.5142 409.629 90.6619C410.05 89.8097 410.637 89.1444 411.39 88.6662C412.148 88.188 413.033 87.9489 414.047 87.9489C414.662 87.9489 415.259 88.0507 415.836 88.2543C416.414 88.4579 416.932 88.7775 417.392 89.2131C417.851 89.6487 418.213 90.2145 418.478 90.9105C418.743 91.6018 418.876 92.4422 418.876 93.4318V94.1847H410.204V92.5938H416.795C416.795 92.035 416.681 91.5402 416.454 91.1094C416.227 90.6738 415.907 90.3305 415.495 90.0795C415.088 89.8286 414.61 89.7031 414.061 89.7031C413.464 89.7031 412.943 89.8499 412.498 90.1435C412.058 90.4323 411.717 90.8111 411.475 91.2798C411.239 91.7438 411.12 92.2481 411.12 92.7926V94.0355C411.12 94.7647 411.248 95.3849 411.504 95.8963C411.764 96.4077 412.127 96.7983 412.591 97.0682C413.055 97.3333 413.597 97.4659 414.217 97.4659C414.619 97.4659 414.986 97.4091 415.318 97.2955C415.649 97.1771 415.936 97.0019 416.177 96.7699C416.419 96.5379 416.603 96.2514 416.731 95.9105L418.741 96.2727C418.58 96.8646 418.291 97.383 417.875 97.8281C417.463 98.2685 416.944 98.6117 416.319 98.858C415.699 99.0994 414.991 99.2202 414.196 99.2202ZM422.262 103.091C421.945 103.091 421.656 103.065 421.396 103.013C421.135 102.965 420.941 102.913 420.813 102.857L421.325 101.116C421.713 101.221 422.058 101.266 422.362 101.251C422.665 101.237 422.932 101.124 423.164 100.911C423.401 100.697 423.609 100.349 423.789 99.8665L424.052 99.142L420.06 88.0909H422.333L425.096 96.5568H425.21L427.972 88.0909H430.252L425.756 100.456C425.548 101.024 425.283 101.505 424.961 101.898C424.639 102.295 424.255 102.594 423.81 102.793C423.365 102.991 422.849 103.091 422.262 103.091ZM439.664 84.4545V99H437.541V84.4545H439.664ZM445.696 99.2415C445.005 99.2415 444.38 99.1136 443.821 98.858C443.262 98.5975 442.82 98.2211 442.493 97.7287C442.171 97.2363 442.01 96.6326 442.01 95.9176C442.01 95.3021 442.128 94.7955 442.365 94.3977C442.602 94 442.921 93.6851 443.324 93.4531C443.726 93.2211 444.176 93.0459 444.673 92.9276C445.17 92.8092 445.677 92.7192 446.193 92.6577C446.847 92.5819 447.377 92.5204 447.784 92.473C448.191 92.4209 448.487 92.3381 448.672 92.2244C448.857 92.1108 448.949 91.9261 448.949 91.6705V91.6207C448.949 91.0005 448.774 90.5199 448.423 90.179C448.078 89.8381 447.562 89.6676 446.875 89.6676C446.16 89.6676 445.597 89.8262 445.185 90.1435C444.777 90.456 444.496 90.804 444.339 91.1875L442.344 90.733C442.58 90.0701 442.926 89.535 443.381 89.1278C443.84 88.7159 444.368 88.4176 444.964 88.233C445.561 88.0436 446.188 87.9489 446.847 87.9489C447.282 87.9489 447.744 88.0009 448.232 88.1051C448.724 88.2045 449.183 88.3892 449.609 88.6591C450.04 88.929 450.393 89.3149 450.668 89.8168C450.942 90.3139 451.08 90.9602 451.08 91.7557V99H449.006V97.5085H448.92C448.783 97.7831 448.577 98.053 448.303 98.3182C448.028 98.5833 447.675 98.8035 447.244 98.9787C446.813 99.1539 446.297 99.2415 445.696 99.2415ZM446.158 97.5369C446.745 97.5369 447.247 97.4209 447.663 97.1889C448.085 96.9569 448.404 96.6539 448.622 96.2798C448.845 95.901 448.956 95.4962 448.956 95.0653V93.6591C448.88 93.7348 448.733 93.8059 448.516 93.8722C448.303 93.9337 448.059 93.9882 447.784 94.0355C447.509 94.0781 447.242 94.1184 446.982 94.1562C446.721 94.1894 446.503 94.2178 446.328 94.2415C445.916 94.2936 445.54 94.3812 445.199 94.5043C444.863 94.6274 444.593 94.8049 444.389 95.0369C444.19 95.2642 444.091 95.5672 444.091 95.946C444.091 96.4716 444.285 96.8693 444.673 97.1392C445.062 97.4044 445.556 97.5369 446.158 97.5369ZM456.032 92.5227V99H453.908V88.0909H455.946V89.8665H456.081C456.332 89.2888 456.725 88.8248 457.26 88.4744C457.8 88.1241 458.48 87.9489 459.299 87.9489C460.042 87.9489 460.693 88.1051 461.252 88.4176C461.81 88.7254 462.244 89.1847 462.551 89.7955C462.859 90.4062 463.013 91.1615 463.013 92.0611V99H460.89V92.3168C460.89 91.526 460.684 90.9081 460.272 90.4631C459.86 90.0133 459.294 89.7884 458.574 89.7884C458.082 89.7884 457.644 89.8949 457.26 90.108C456.882 90.321 456.581 90.6335 456.358 91.0455C456.141 91.4527 456.032 91.9451 456.032 92.5227ZM469.945 99.2131C469.064 99.2131 468.278 98.9882 467.587 98.5384C466.9 98.0838 466.361 97.4375 465.968 96.5994C465.579 95.7566 465.385 94.7457 465.385 93.5668C465.385 92.3878 465.582 91.3793 465.975 90.5412C466.373 89.7031 466.917 89.0616 467.608 88.6165C468.3 88.1714 469.083 87.9489 469.959 87.9489C470.636 87.9489 471.181 88.0625 471.593 88.2898C472.009 88.5123 472.331 88.7727 472.559 89.071C472.791 89.3693 472.971 89.6321 473.098 89.8594H473.226V84.4545H475.35V99H473.276V97.3026H473.098C472.971 97.5346 472.786 97.7997 472.544 98.098C472.308 98.3963 471.981 98.6567 471.564 98.8793C471.148 99.1018 470.608 99.2131 469.945 99.2131ZM470.414 97.402C471.025 97.402 471.541 97.241 471.962 96.919C472.388 96.5923 472.71 96.1402 472.928 95.5625C473.15 94.9848 473.262 94.3125 473.262 93.5455C473.262 92.7879 473.153 92.125 472.935 91.5568C472.717 90.9886 472.398 90.5459 471.976 90.2287C471.555 89.9115 471.034 89.7528 470.414 89.7528C469.775 89.7528 469.242 89.9186 468.816 90.25C468.39 90.5814 468.068 91.0336 467.85 91.6065C467.637 92.1795 467.53 92.8258 467.53 93.5455C467.53 94.2746 467.639 94.9304 467.857 95.5128C468.075 96.0952 468.397 96.5568 468.823 96.8977C469.254 97.2339 469.784 97.402 470.414 97.402ZM478.381 99V88.0909H480.419V89.8665H480.554C480.781 89.2652 481.153 88.7964 481.669 88.4602C482.185 88.1193 482.803 87.9489 483.523 87.9489C484.252 87.9489 484.863 88.1193 485.355 88.4602C485.852 88.8011 486.219 89.2699 486.456 89.8665H486.57C486.83 89.2841 487.244 88.8201 487.812 88.4744C488.381 88.1241 489.058 87.9489 489.844 87.9489C490.833 87.9489 491.641 88.259 492.266 88.8793C492.895 89.4995 493.21 90.4347 493.21 91.6847V99H491.087V91.8835C491.087 91.1449 490.885 90.6098 490.483 90.2784C490.08 89.947 489.6 89.7812 489.041 89.7812C488.35 89.7812 487.812 89.9943 487.429 90.4205C487.045 90.8419 486.854 91.384 486.854 92.0469V99H484.737V91.7486C484.737 91.1567 484.553 90.6809 484.183 90.321C483.814 89.9612 483.333 89.7812 482.741 89.7812C482.339 89.7812 481.967 89.8878 481.626 90.1009C481.29 90.3092 481.018 90.6004 480.81 90.9744C480.606 91.3485 480.504 91.7817 480.504 92.2741V99H478.381ZM499.231 99.2415C498.54 99.2415 497.915 99.1136 497.356 98.858C496.797 98.5975 496.355 98.2211 496.028 97.7287C495.706 97.2363 495.545 96.6326 495.545 95.9176C495.545 95.3021 495.663 94.7955 495.9 94.3977C496.137 94 496.457 93.6851 496.859 93.4531C497.261 93.2211 497.711 93.0459 498.208 92.9276C498.706 92.8092 499.212 92.7192 499.728 92.6577C500.382 92.5819 500.912 92.5204 501.319 92.473C501.726 92.4209 502.022 92.3381 502.207 92.2244C502.392 92.1108 502.484 91.9261 502.484 91.6705V91.6207C502.484 91.0005 502.309 90.5199 501.958 90.179C501.613 89.8381 501.097 89.6676 500.41 89.6676C499.695 89.6676 499.132 89.8262 498.72 90.1435C498.313 90.456 498.031 90.804 497.875 91.1875L495.879 90.733C496.116 90.0701 496.461 89.535 496.916 89.1278C497.375 88.7159 497.903 88.4176 498.5 88.233C499.096 88.0436 499.724 87.9489 500.382 87.9489C500.817 87.9489 501.279 88.0009 501.767 88.1051C502.259 88.2045 502.718 88.3892 503.145 88.6591C503.575 88.929 503.928 89.3149 504.203 89.8168C504.477 90.3139 504.615 90.9602 504.615 91.7557V99H502.541V97.5085H502.456C502.318 97.7831 502.112 98.053 501.838 98.3182C501.563 98.5833 501.21 98.8035 500.779 98.9787C500.349 99.1539 499.833 99.2415 499.231 99.2415ZM499.693 97.5369C500.28 97.5369 500.782 97.4209 501.199 97.1889C501.62 96.9569 501.94 96.6539 502.157 96.2798C502.38 95.901 502.491 95.4962 502.491 95.0653V93.6591C502.415 93.7348 502.269 93.8059 502.051 93.8722C501.838 93.9337 501.594 93.9882 501.319 94.0355C501.045 94.0781 500.777 94.1184 500.517 94.1562C500.256 94.1894 500.038 94.2178 499.863 94.2415C499.451 94.2936 499.075 94.3812 498.734 94.5043C498.398 94.6274 498.128 94.8049 497.924 95.0369C497.725 95.2642 497.626 95.5672 497.626 95.946C497.626 96.4716 497.82 96.8693 498.208 97.1392C498.597 97.4044 499.092 97.5369 499.693 97.5369ZM507.443 99V88.0909H509.496V89.8239H509.609C509.808 89.2367 510.159 88.7751 510.661 88.4389C511.167 88.098 511.74 87.9276 512.379 87.9276C512.512 87.9276 512.668 87.9323 512.848 87.9418C513.033 87.9512 513.177 87.9631 513.281 87.9773V90.0085C513.196 89.9848 513.045 89.9588 512.827 89.9304C512.609 89.8973 512.391 89.8807 512.173 89.8807C511.671 89.8807 511.224 89.9872 510.831 90.2003C510.443 90.4086 510.135 90.6998 509.908 91.0739C509.68 91.4432 509.567 91.8646 509.567 92.3381V99H507.443ZM517.072 95.2997L517.058 92.7074H517.427L521.774 88.0909H524.316L519.359 93.3466H519.025L517.072 95.2997ZM515.119 99V84.4545H517.243V99H515.119ZM522.008 99L518.102 93.8153L519.565 92.331L524.615 99H522.008ZM534.426 90.7543L532.502 91.0952C532.421 90.849 532.293 90.6146 532.118 90.392C531.948 90.1695 531.716 89.9872 531.422 89.8452C531.129 89.7031 530.762 89.6321 530.321 89.6321C529.72 89.6321 529.218 89.767 528.816 90.0369C528.413 90.3021 528.212 90.6454 528.212 91.0668C528.212 91.4313 528.347 91.7249 528.617 91.9474C528.887 92.17 529.322 92.3523 529.924 92.4943L531.657 92.892C532.66 93.1241 533.408 93.4815 533.901 93.9645C534.393 94.4474 534.64 95.0748 534.64 95.8466C534.64 96.5 534.45 97.0824 534.071 97.5938C533.697 98.1004 533.174 98.4981 532.502 98.7869C531.834 99.0758 531.06 99.2202 530.179 99.2202C528.958 99.2202 527.961 98.9598 527.189 98.4389C526.417 97.9134 525.944 97.1676 525.769 96.2017L527.821 95.8892C527.949 96.4242 528.212 96.8291 528.61 97.1037C529.007 97.3736 529.526 97.5085 530.165 97.5085C530.861 97.5085 531.417 97.3641 531.834 97.0753C532.251 96.7817 532.459 96.4242 532.459 96.0028C532.459 95.6619 532.331 95.3755 532.076 95.1435C531.825 94.9115 531.439 94.7363 530.918 94.6179L529.071 94.2131C528.053 93.9811 527.301 93.6117 526.813 93.1051C526.33 92.5985 526.088 91.9569 526.088 91.1804C526.088 90.5365 526.268 89.973 526.628 89.4901C526.988 89.0071 527.485 88.6307 528.12 88.3608C528.754 88.0862 529.481 87.9489 530.3 87.9489C531.479 87.9489 532.407 88.2045 533.084 88.7159C533.761 89.2225 534.209 89.902 534.426 90.7543ZM545.442 99.2415C544.751 99.2415 544.126 99.1136 543.567 98.858C543.008 98.5975 542.566 98.2211 542.239 97.7287C541.917 97.2363 541.756 96.6326 541.756 95.9176C541.756 95.3021 541.874 94.7955 542.111 94.3977C542.348 94 542.667 93.6851 543.07 93.4531C543.472 93.2211 543.922 93.0459 544.419 92.9276C544.917 92.8092 545.423 92.7192 545.939 92.6577C546.593 92.5819 547.123 92.5204 547.53 92.473C547.937 92.4209 548.233 92.3381 548.418 92.2244C548.603 92.1108 548.695 91.9261 548.695 91.6705V91.6207C548.695 91.0005 548.52 90.5199 548.169 90.179C547.824 89.8381 547.308 89.6676 546.621 89.6676C545.906 89.6676 545.343 89.8262 544.931 90.1435C544.524 90.456 544.242 90.804 544.086 91.1875L542.09 90.733C542.327 90.0701 542.672 89.535 543.127 89.1278C543.586 88.7159 544.114 88.4176 544.711 88.233C545.307 88.0436 545.935 87.9489 546.593 87.9489C547.028 87.9489 547.49 88.0009 547.978 88.1051C548.47 88.2045 548.929 88.3892 549.355 88.6591C549.786 88.929 550.139 89.3149 550.414 89.8168C550.688 90.3139 550.826 90.9602 550.826 91.7557V99H548.752V97.5085H548.667C548.529 97.7831 548.323 98.053 548.049 98.3182C547.774 98.5833 547.421 98.8035 546.99 98.9787C546.56 99.1539 546.043 99.2415 545.442 99.2415ZM545.904 97.5369C546.491 97.5369 546.993 97.4209 547.409 97.1889C547.831 96.9569 548.15 96.6539 548.368 96.2798C548.591 95.901 548.702 95.4962 548.702 95.0653V93.6591C548.626 93.7348 548.48 93.8059 548.262 93.8722C548.049 93.9337 547.805 93.9882 547.53 94.0355C547.256 94.0781 546.988 94.1184 546.728 94.1562C546.467 94.1894 546.249 94.2178 546.074 94.2415C545.662 94.2936 545.286 94.3812 544.945 94.5043C544.609 94.6274 544.339 94.8049 544.135 95.0369C543.936 95.2642 543.837 95.5672 543.837 95.946C543.837 96.4716 544.031 96.8693 544.419 97.1392C544.808 97.4044 545.302 97.5369 545.904 97.5369ZM555.778 92.5227V99H553.654V88.0909H555.692V89.8665H555.827C556.078 89.2888 556.471 88.8248 557.006 88.4744C557.546 88.1241 558.226 87.9489 559.045 87.9489C559.788 87.9489 560.439 88.1051 560.998 88.4176C561.557 88.7254 561.99 89.1847 562.298 89.7955C562.605 90.4062 562.759 91.1615 562.759 92.0611V99H560.636V92.3168C560.636 91.526 560.43 90.9081 560.018 90.4631C559.606 90.0133 559.04 89.7884 558.32 89.7884C557.828 89.7884 557.39 89.8949 557.006 90.108C556.628 90.321 556.327 90.6335 556.104 91.0455C555.887 91.4527 555.778 91.9451 555.778 92.5227ZM569.691 99.2131C568.81 99.2131 568.024 98.9882 567.333 98.5384C566.647 98.0838 566.107 97.4375 565.714 96.5994C565.326 95.7566 565.131 94.7457 565.131 93.5668C565.131 92.3878 565.328 91.3793 565.721 90.5412C566.119 89.7031 566.663 89.0616 567.354 88.6165C568.046 88.1714 568.829 87.9489 569.705 87.9489C570.382 87.9489 570.927 88.0625 571.339 88.2898C571.755 88.5123 572.077 88.7727 572.305 89.071C572.537 89.3693 572.717 89.6321 572.844 89.8594H572.972V84.4545H575.096V99H573.022V97.3026H572.844C572.717 97.5346 572.532 97.7997 572.29 98.098C572.054 98.3963 571.727 98.6567 571.31 98.8793C570.894 99.1018 570.354 99.2131 569.691 99.2131ZM570.16 97.402C570.771 97.402 571.287 97.241 571.708 96.919C572.134 96.5923 572.456 96.1402 572.674 95.5625C572.897 94.9848 573.008 94.3125 573.008 93.5455C573.008 92.7879 572.899 92.125 572.681 91.5568C572.463 90.9886 572.144 90.5459 571.722 90.2287C571.301 89.9115 570.78 89.7528 570.16 89.7528C569.521 89.7528 568.988 89.9186 568.562 90.25C568.136 90.5814 567.814 91.0336 567.596 91.6065C567.383 92.1795 567.276 92.8258 567.276 93.5455C567.276 94.2746 567.385 94.9304 567.603 95.5128C567.821 96.0952 568.143 96.5568 568.569 96.8977C569 97.2339 569.53 97.402 570.16 97.402ZM588.121 99.2202C587.047 99.2202 586.121 98.9905 585.344 98.5312C584.573 98.0672 583.976 97.4162 583.555 96.5781C583.138 95.7353 582.93 94.7481 582.93 93.6165C582.93 92.4991 583.138 91.5142 583.555 90.6619C583.976 89.8097 584.563 89.1444 585.316 88.6662C586.074 88.188 586.959 87.9489 587.972 87.9489C588.588 87.9489 589.184 88.0507 589.762 88.2543C590.34 88.4579 590.858 88.7775 591.317 89.2131C591.777 89.6487 592.139 90.2145 592.404 90.9105C592.669 91.6018 592.802 92.4422 592.802 93.4318V94.1847H584.13V92.5938H590.721C590.721 92.035 590.607 91.5402 590.38 91.1094C590.153 90.6738 589.833 90.3305 589.421 90.0795C589.014 89.8286 588.536 89.7031 587.987 89.7031C587.39 89.7031 586.869 89.8499 586.424 90.1435C585.984 90.4323 585.643 90.8111 585.401 91.2798C585.165 91.7438 585.046 92.2481 585.046 92.7926V94.0355C585.046 94.7647 585.174 95.3849 585.43 95.8963C585.69 96.4077 586.052 96.7983 586.516 97.0682C586.98 97.3333 587.522 97.4659 588.143 97.4659C588.545 97.4659 588.912 97.4091 589.244 97.2955C589.575 97.1771 589.862 97.0019 590.103 96.7699C590.344 96.5379 590.529 96.2514 590.657 95.9105L592.667 96.2727C592.506 96.8646 592.217 97.383 591.8 97.8281C591.388 98.2685 590.87 98.6117 590.245 98.858C589.625 99.0994 588.917 99.2202 588.121 99.2202ZM596.58 88.0909L598.988 92.3381L601.417 88.0909H603.739L600.337 93.5455L603.768 99H601.445L598.988 94.9233L596.538 99H594.208L597.603 93.5455L594.251 88.0909H596.58ZM605.92 103.091V88.0909H607.994V89.8594H608.171C608.294 89.6321 608.472 89.3693 608.704 89.071C608.936 88.7727 609.258 88.5123 609.67 88.2898C610.082 88.0625 610.626 87.9489 611.303 87.9489C612.184 87.9489 612.97 88.1714 613.661 88.6165C614.353 89.0616 614.895 89.7031 615.288 90.5412C615.685 91.3793 615.884 92.3878 615.884 93.5668C615.884 94.7457 615.688 95.7566 615.295 96.5994C614.902 97.4375 614.362 98.0838 613.675 98.5384C612.989 98.9882 612.205 99.2131 611.325 99.2131C610.662 99.2131 610.12 99.1018 609.698 98.8793C609.281 98.6567 608.955 98.3963 608.718 98.098C608.481 97.7997 608.299 97.5346 608.171 97.3026H608.043V103.091H605.92ZM608.001 93.5455C608.001 94.3125 608.112 94.9848 608.335 95.5625C608.557 96.1402 608.879 96.5923 609.3 96.919C609.722 97.241 610.238 97.402 610.849 97.402C611.483 97.402 612.013 97.2339 612.44 96.8977C612.866 96.5568 613.188 96.0952 613.406 95.5128C613.628 94.9304 613.739 94.2746 613.739 93.5455C613.739 92.8258 613.63 92.1795 613.413 91.6065C613.2 91.0336 612.878 90.5814 612.447 90.25C612.021 89.9186 611.488 89.7528 610.849 89.7528C610.233 89.7528 609.712 89.9115 609.286 90.2287C608.865 90.5459 608.545 90.9886 608.327 91.5568C608.11 92.125 608.001 92.7879 608.001 93.5455ZM622.965 99.2202C621.89 99.2202 620.965 98.9905 620.188 98.5312C619.416 98.0672 618.82 97.4162 618.398 96.5781C617.982 95.7353 617.773 94.7481 617.773 93.6165C617.773 92.4991 617.982 91.5142 618.398 90.6619C618.82 89.8097 619.407 89.1444 620.16 88.6662C620.917 88.188 621.803 87.9489 622.816 87.9489C623.432 87.9489 624.028 88.0507 624.606 88.2543C625.183 88.4579 625.702 88.7775 626.161 89.2131C626.621 89.6487 626.983 90.2145 627.248 90.9105C627.513 91.6018 627.646 92.4422 627.646 93.4318V94.1847H618.974V92.5938H625.565C625.565 92.035 625.451 91.5402 625.224 91.1094C624.996 90.6738 624.677 90.3305 624.265 90.0795C623.858 89.8286 623.379 89.7031 622.83 89.7031C622.234 89.7031 621.713 89.8499 621.268 90.1435C620.827 90.4323 620.487 90.8111 620.245 91.2798C620.008 91.7438 619.89 92.2481 619.89 92.7926V94.0355C619.89 94.7647 620.018 95.3849 620.273 95.8963C620.534 96.4077 620.896 96.7983 621.36 97.0682C621.824 97.3333 622.366 97.4659 622.987 97.4659C623.389 97.4659 623.756 97.4091 624.087 97.2955C624.419 97.1771 624.705 97.0019 624.947 96.7699C625.188 96.5379 625.373 96.2514 625.501 95.9105L627.511 96.2727C627.35 96.8646 627.061 97.383 626.644 97.8281C626.232 98.2685 625.714 98.6117 625.089 98.858C624.469 99.0994 623.761 99.2202 622.965 99.2202ZM630.002 99V88.0909H632.054V89.8239H632.168C632.367 89.2367 632.717 88.7751 633.219 88.4389C633.726 88.098 634.299 87.9276 634.938 87.9276C635.07 87.9276 635.227 87.9323 635.407 87.9418C635.591 87.9512 635.736 87.9631 635.84 87.9773V90.0085C635.755 89.9848 635.603 89.9588 635.385 89.9304C635.167 89.8973 634.95 89.8807 634.732 89.8807C634.23 89.8807 633.783 89.9872 633.39 90.2003C633.001 90.4086 632.694 90.6998 632.466 91.0739C632.239 91.4432 632.125 91.8646 632.125 92.3381V99H630.002ZM637.678 99V88.0909H639.801V99H637.678ZM638.75 86.4077C638.381 86.4077 638.063 86.2846 637.798 86.0384C637.538 85.7874 637.408 85.4891 637.408 85.1435C637.408 84.7931 637.538 84.4948 637.798 84.2486C638.063 83.9976 638.381 83.8722 638.75 83.8722C639.119 83.8722 639.434 83.9976 639.695 84.2486C639.96 84.4948 640.092 84.7931 640.092 85.1435C640.092 85.4891 639.96 85.7874 639.695 86.0384C639.434 86.2846 639.119 86.4077 638.75 86.4077ZM647.36 99.2202C646.285 99.2202 645.359 98.9905 644.583 98.5312C643.811 98.0672 643.214 97.4162 642.793 96.5781C642.376 95.7353 642.168 94.7481 642.168 93.6165C642.168 92.4991 642.376 91.5142 642.793 90.6619C643.214 89.8097 643.801 89.1444 644.554 88.6662C645.312 88.188 646.197 87.9489 647.211 87.9489C647.826 87.9489 648.423 88.0507 649 88.2543C649.578 88.4579 650.096 88.7775 650.556 89.2131C651.015 89.6487 651.377 90.2145 651.642 90.9105C651.908 91.6018 652.04 92.4422 652.04 93.4318V94.1847H643.368V92.5938H649.959C649.959 92.035 649.846 91.5402 649.618 91.1094C649.391 90.6738 649.071 90.3305 648.659 90.0795C648.252 89.8286 647.774 89.7031 647.225 89.7031C646.628 89.7031 646.107 89.8499 645.662 90.1435C645.222 90.4323 644.881 90.8111 644.64 91.2798C644.403 91.7438 644.284 92.2481 644.284 92.7926V94.0355C644.284 94.7647 644.412 95.3849 644.668 95.8963C644.928 96.4077 645.291 96.7983 645.755 97.0682C646.219 97.3333 646.761 97.4659 647.381 97.4659C647.783 97.4659 648.15 97.4091 648.482 97.2955C648.813 97.1771 649.1 97.0019 649.341 96.7699C649.583 96.5379 649.767 96.2514 649.895 95.9105L651.905 96.2727C651.744 96.8646 651.455 97.383 651.039 97.8281C650.627 98.2685 650.108 98.6117 649.483 98.858C648.863 99.0994 648.155 99.2202 647.36 99.2202ZM656.52 92.5227V99H654.396V88.0909H656.435V89.8665H656.57C656.821 89.2888 657.214 88.8248 657.749 88.4744C658.288 88.1241 658.968 87.9489 659.787 87.9489C660.53 87.9489 661.181 88.1051 661.74 88.4176C662.299 88.7254 662.732 89.1847 663.04 89.7955C663.348 90.4062 663.501 91.1615 663.501 92.0611V99H661.378V92.3168C661.378 91.526 661.172 90.9081 660.76 90.4631C660.348 90.0133 659.782 89.7884 659.062 89.7884C658.57 89.7884 658.132 89.8949 657.749 90.108C657.37 90.321 657.069 90.6335 656.847 91.0455C656.629 91.4527 656.52 91.9451 656.52 92.5227ZM670.945 99.2202C669.889 99.2202 668.98 98.9811 668.217 98.5028C667.46 98.0199 666.877 97.3546 666.47 96.5071C666.063 95.6596 665.859 94.6889 665.859 93.5952C665.859 92.4872 666.068 91.5095 666.484 90.6619C666.901 89.8097 667.488 89.1444 668.246 88.6662C669.003 88.188 669.896 87.9489 670.923 87.9489C671.752 87.9489 672.491 88.1027 673.139 88.4105C673.788 88.7135 674.311 89.1397 674.709 89.6889C675.111 90.2382 675.35 90.8797 675.426 91.6136H673.359C673.246 91.1023 672.985 90.6619 672.578 90.2926C672.176 89.9233 671.636 89.7386 670.959 89.7386C670.367 89.7386 669.848 89.8949 669.403 90.2074C668.963 90.5152 668.62 90.9555 668.374 91.5284C668.127 92.0966 668.004 92.7689 668.004 93.5455C668.004 94.3409 668.125 95.0275 668.366 95.6051C668.608 96.1828 668.949 96.6302 669.389 96.9474C669.834 97.2647 670.357 97.4233 670.959 97.4233C671.361 97.4233 671.726 97.3499 672.053 97.2031C672.384 97.0516 672.661 96.8362 672.884 96.5568C673.111 96.2775 673.269 95.9413 673.359 95.5483H675.426C675.35 96.2538 675.121 96.8835 674.737 97.4375C674.354 97.9915 673.84 98.4271 673.196 98.7443C672.557 99.0616 671.806 99.2202 670.945 99.2202ZM682.399 99.2202C681.324 99.2202 680.398 98.9905 679.622 98.5312C678.85 98.0672 678.253 97.4162 677.832 96.5781C677.415 95.7353 677.207 94.7481 677.207 93.6165C677.207 92.4991 677.415 91.5142 677.832 90.6619C678.253 89.8097 678.841 89.1444 679.593 88.6662C680.351 88.188 681.236 87.9489 682.25 87.9489C682.865 87.9489 683.462 88.0507 684.039 88.2543C684.617 88.4579 685.136 88.7775 685.595 89.2131C686.054 89.6487 686.416 90.2145 686.681 90.9105C686.947 91.6018 687.079 92.4422 687.079 93.4318V94.1847H678.407V92.5938H684.998C684.998 92.035 684.885 91.5402 684.657 91.1094C684.43 90.6738 684.11 90.3305 683.699 90.0795C683.291 89.8286 682.813 89.7031 682.264 89.7031C681.667 89.7031 681.146 89.8499 680.701 90.1435C680.261 90.4323 679.92 90.8111 679.679 91.2798C679.442 91.7438 679.324 92.2481 679.324 92.7926V94.0355C679.324 94.7647 679.451 95.3849 679.707 95.8963C679.967 96.4077 680.33 96.7983 680.794 97.0682C681.258 97.3333 681.8 97.4659 682.42 97.4659C682.823 97.4659 683.19 97.4091 683.521 97.2955C683.852 97.1771 684.139 97.0019 684.38 96.7699C684.622 96.5379 684.806 96.2514 684.934 95.9105L686.944 96.2727C686.783 96.8646 686.494 97.383 686.078 97.8281C685.666 98.2685 685.147 98.6117 684.522 98.858C683.902 99.0994 683.194 99.2202 682.399 99.2202ZM696.852 84.4545V99H694.728V84.4545H696.852ZM704.304 99.2202C703.281 99.2202 702.389 98.9858 701.626 98.517C700.864 98.0483 700.272 97.3925 699.851 96.5497C699.429 95.7069 699.219 94.7221 699.219 93.5952C699.219 92.4635 699.429 91.474 699.851 90.6264C700.272 89.7789 700.864 89.1207 701.626 88.652C702.389 88.1832 703.281 87.9489 704.304 87.9489C705.327 87.9489 706.219 88.1832 706.982 88.652C707.744 89.1207 708.336 89.7789 708.757 90.6264C709.179 91.474 709.389 92.4635 709.389 93.5952C709.389 94.7221 709.179 95.7069 708.757 96.5497C708.336 97.3925 707.744 98.0483 706.982 98.517C706.219 98.9858 705.327 99.2202 704.304 99.2202ZM704.311 97.4375C704.974 97.4375 705.523 97.2623 705.959 96.9119C706.394 96.5616 706.716 96.0952 706.925 95.5128C707.138 94.9304 707.244 94.2888 707.244 93.5881C707.244 92.892 707.138 92.2528 706.925 91.6705C706.716 91.0833 706.394 90.6122 705.959 90.2571C705.523 89.902 704.974 89.7244 704.311 89.7244C703.643 89.7244 703.089 89.902 702.649 90.2571C702.214 90.6122 701.889 91.0833 701.676 91.6705C701.468 92.2528 701.364 92.892 701.364 93.5881C701.364 94.2888 701.468 94.9304 701.676 95.5128C701.889 96.0952 702.214 96.5616 702.649 96.9119C703.089 97.2623 703.643 97.4375 704.311 97.4375ZM716.355 99.2202C715.299 99.2202 714.39 98.9811 713.627 98.5028C712.87 98.0199 712.288 97.3546 711.88 96.5071C711.473 95.6596 711.27 94.6889 711.27 93.5952C711.27 92.4872 711.478 91.5095 711.895 90.6619C712.311 89.8097 712.898 89.1444 713.656 88.6662C714.413 88.188 715.306 87.9489 716.333 87.9489C717.162 87.9489 717.901 88.1027 718.549 88.4105C719.198 88.7135 719.721 89.1397 720.119 89.6889C720.521 90.2382 720.761 90.8797 720.836 91.6136H718.77C718.656 91.1023 718.395 90.6619 717.988 90.2926C717.586 89.9233 717.046 89.7386 716.369 89.7386C715.777 89.7386 715.259 89.8949 714.814 90.2074C714.373 90.5152 714.03 90.9555 713.784 91.5284C713.538 92.0966 713.414 92.7689 713.414 93.5455C713.414 94.3409 713.535 95.0275 713.777 95.6051C714.018 96.1828 714.359 96.6302 714.799 96.9474C715.244 97.2647 715.768 97.4233 716.369 97.4233C716.771 97.4233 717.136 97.3499 717.463 97.2031C717.794 97.0516 718.071 96.8362 718.294 96.5568C718.521 96.2775 718.68 95.9413 718.77 95.5483H720.836C720.761 96.2538 720.531 96.8835 720.147 97.4375C719.764 97.9915 719.25 98.4271 718.606 98.7443C717.967 99.0616 717.217 99.2202 716.355 99.2202ZM726.282 99.2415C725.591 99.2415 724.966 99.1136 724.407 98.858C723.848 98.5975 723.406 98.2211 723.079 97.7287C722.757 97.2363 722.596 96.6326 722.596 95.9176C722.596 95.3021 722.714 94.7955 722.951 94.3977C723.188 94 723.507 93.6851 723.91 93.4531C724.312 93.2211 724.762 93.0459 725.259 92.9276C725.756 92.8092 726.263 92.7192 726.779 92.6577C727.433 92.5819 727.963 92.5204 728.37 92.473C728.777 92.4209 729.073 92.3381 729.258 92.2244C729.442 92.1108 729.535 91.9261 729.535 91.6705V91.6207C729.535 91.0005 729.36 90.5199 729.009 90.179C728.664 89.8381 728.147 89.6676 727.461 89.6676C726.746 89.6676 726.183 89.8262 725.771 90.1435C725.363 90.456 725.082 90.804 724.925 91.1875L722.93 90.733C723.166 90.0701 723.512 89.535 723.967 89.1278C724.426 88.7159 724.954 88.4176 725.55 88.233C726.147 88.0436 726.774 87.9489 727.433 87.9489C727.868 87.9489 728.33 88.0009 728.817 88.1051C729.31 88.2045 729.769 88.3892 730.195 88.6591C730.626 88.929 730.979 89.3149 731.254 89.8168C731.528 90.3139 731.665 90.9602 731.665 91.7557V99H729.592V97.5085H729.506C729.369 97.7831 729.163 98.053 728.888 98.3182C728.614 98.5833 728.261 98.8035 727.83 98.9787C727.399 99.1539 726.883 99.2415 726.282 99.2415ZM726.744 97.5369C727.331 97.5369 727.833 97.4209 728.249 97.1889C728.671 96.9569 728.99 96.6539 729.208 96.2798C729.431 95.901 729.542 95.4962 729.542 95.0653V93.6591C729.466 93.7348 729.319 93.8059 729.102 93.8722C728.888 93.9337 728.645 93.9882 728.37 94.0355C728.095 94.0781 727.828 94.1184 727.567 94.1562C727.307 94.1894 727.089 94.2178 726.914 94.2415C726.502 94.2936 726.126 94.3812 725.785 94.5043C725.449 94.6274 725.179 94.8049 724.975 95.0369C724.776 95.2642 724.677 95.5672 724.677 95.946C724.677 96.4716 724.871 96.8693 725.259 97.1392C725.647 97.4044 726.142 97.5369 726.744 97.5369ZM736.618 84.4545V99H734.494V84.4545H736.618ZM739.474 99V88.0909H741.598V99H739.474ZM740.547 86.4077C740.178 86.4077 739.86 86.2846 739.595 86.0384C739.335 85.7874 739.205 85.4891 739.205 85.1435C739.205 84.7931 739.335 84.4948 739.595 84.2486C739.86 83.9976 740.178 83.8722 740.547 83.8722C740.916 83.8722 741.231 83.9976 741.491 84.2486C741.757 84.4948 741.889 84.7931 741.889 85.1435C741.889 85.4891 741.757 85.7874 741.491 86.0384C741.231 86.2846 740.916 86.4077 740.547 86.4077ZM744.228 99V97.544L750.137 90.0369V89.9375H744.419V88.0909H752.786V89.6392L747.104 97.054V97.1534H752.985V99H744.228ZM759.879 99.2202C758.804 99.2202 757.879 98.9905 757.102 98.5312C756.33 98.0672 755.734 97.4162 755.312 96.5781C754.896 95.7353 754.688 94.7481 754.688 93.6165C754.688 92.4991 754.896 91.5142 755.312 90.6619C755.734 89.8097 756.321 89.1444 757.074 88.6662C757.831 88.188 758.717 87.9489 759.73 87.9489C760.346 87.9489 760.942 88.0507 761.52 88.2543C762.098 88.4579 762.616 88.7775 763.075 89.2131C763.535 89.6487 763.897 90.2145 764.162 90.9105C764.427 91.6018 764.56 92.4422 764.56 93.4318V94.1847H755.888V92.5938H762.479C762.479 92.035 762.365 91.5402 762.138 91.1094C761.911 90.6738 761.591 90.3305 761.179 90.0795C760.772 89.8286 760.294 89.7031 759.744 89.7031C759.148 89.7031 758.627 89.8499 758.182 90.1435C757.741 90.4323 757.401 90.8111 757.159 91.2798C756.922 91.7438 756.804 92.2481 756.804 92.7926V94.0355C756.804 94.7647 756.932 95.3849 757.188 95.8963C757.448 96.4077 757.81 96.7983 758.274 97.0682C758.738 97.3333 759.28 97.4659 759.901 97.4659C760.303 97.4659 760.67 97.4091 761.001 97.2955C761.333 97.1771 761.619 97.0019 761.861 96.7699C762.102 96.5379 762.287 96.2514 762.415 95.9105L764.425 96.2727C764.264 96.8646 763.975 97.383 763.558 97.8281C763.146 98.2685 762.628 98.6117 762.003 98.858C761.383 99.0994 760.675 99.2202 759.879 99.2202ZM771 99.2131C770.119 99.2131 769.333 98.9882 768.642 98.5384C767.955 98.0838 767.415 97.4375 767.022 96.5994C766.634 95.7566 766.44 94.7457 766.44 93.5668C766.44 92.3878 766.636 91.3793 767.029 90.5412C767.427 89.7031 767.972 89.0616 768.663 88.6165C769.354 88.1714 770.138 87.9489 771.014 87.9489C771.691 87.9489 772.235 88.0625 772.647 88.2898C773.064 88.5123 773.386 88.7727 773.613 89.071C773.845 89.3693 774.025 89.6321 774.153 89.8594H774.281V84.4545H776.404V99H774.331V97.3026H774.153C774.025 97.5346 773.841 97.7997 773.599 98.098C773.362 98.3963 773.036 98.6567 772.619 98.8793C772.202 99.1018 771.663 99.2131 771 99.2131ZM771.468 97.402C772.079 97.402 772.595 97.241 773.017 96.919C773.443 96.5923 773.765 96.1402 773.983 95.5625C774.205 94.9848 774.316 94.3125 774.316 93.5455C774.316 92.7879 774.208 92.125 773.99 91.5568C773.772 90.9886 773.452 90.5459 773.031 90.2287C772.609 89.9115 772.089 89.7528 771.468 89.7528C770.829 89.7528 770.297 89.9186 769.87 90.25C769.444 90.5814 769.122 91.0336 768.904 91.6065C768.691 92.1795 768.585 92.8258 768.585 93.5455C768.585 94.2746 768.694 94.9304 768.912 95.5128C769.129 96.0952 769.451 96.5568 769.877 96.8977C770.308 97.2339 770.839 97.402 771.468 97.402ZM134.602 129.241C133.911 129.241 133.286 129.114 132.727 128.858C132.169 128.598 131.726 128.221 131.399 127.729C131.077 127.236 130.916 126.633 130.916 125.918C130.916 125.302 131.035 124.795 131.271 124.398C131.508 124 131.828 123.685 132.23 123.453C132.633 123.221 133.082 123.046 133.58 122.928C134.077 122.809 134.583 122.719 135.099 122.658C135.753 122.582 136.283 122.52 136.69 122.473C137.098 122.421 137.393 122.338 137.578 122.224C137.763 122.111 137.855 121.926 137.855 121.67V121.621C137.855 121 137.68 120.52 137.33 120.179C136.984 119.838 136.468 119.668 135.781 119.668C135.066 119.668 134.503 119.826 134.091 120.143C133.684 120.456 133.402 120.804 133.246 121.188L131.25 120.733C131.487 120.07 131.832 119.535 132.287 119.128C132.746 118.716 133.274 118.418 133.871 118.233C134.467 118.044 135.095 117.949 135.753 117.949C136.188 117.949 136.65 118.001 137.138 118.105C137.63 118.205 138.089 118.389 138.516 118.659C138.946 118.929 139.299 119.315 139.574 119.817C139.848 120.314 139.986 120.96 139.986 121.756V129H137.912V127.509H137.827C137.689 127.783 137.483 128.053 137.209 128.318C136.934 128.583 136.581 128.804 136.151 128.979C135.72 129.154 135.204 129.241 134.602 129.241ZM135.064 127.537C135.651 127.537 136.153 127.421 136.57 127.189C136.991 126.957 137.311 126.654 137.528 126.28C137.751 125.901 137.862 125.496 137.862 125.065V123.659C137.786 123.735 137.64 123.806 137.422 123.872C137.209 123.934 136.965 123.988 136.69 124.036C136.416 124.078 136.148 124.118 135.888 124.156C135.627 124.189 135.41 124.218 135.234 124.241C134.822 124.294 134.446 124.381 134.105 124.504C133.769 124.627 133.499 124.805 133.295 125.037C133.097 125.264 132.997 125.567 132.997 125.946C132.997 126.472 133.191 126.869 133.58 127.139C133.968 127.404 134.463 127.537 135.064 127.537ZM147.409 129.22C146.354 129.22 145.444 128.981 144.682 128.503C143.925 128.02 143.342 127.355 142.935 126.507C142.528 125.66 142.324 124.689 142.324 123.595C142.324 122.487 142.533 121.509 142.949 120.662C143.366 119.81 143.953 119.144 144.711 118.666C145.468 118.188 146.361 117.949 147.388 117.949C148.217 117.949 148.955 118.103 149.604 118.411C150.253 118.714 150.776 119.14 151.174 119.689C151.576 120.238 151.815 120.88 151.891 121.614H149.824C149.711 121.102 149.45 120.662 149.043 120.293C148.641 119.923 148.101 119.739 147.424 119.739C146.832 119.739 146.313 119.895 145.868 120.207C145.428 120.515 145.085 120.955 144.838 121.528C144.592 122.097 144.469 122.769 144.469 123.545C144.469 124.341 144.59 125.027 144.831 125.605C145.073 126.183 145.414 126.63 145.854 126.947C146.299 127.265 146.822 127.423 147.424 127.423C147.826 127.423 148.191 127.35 148.517 127.203C148.849 127.052 149.126 126.836 149.348 126.557C149.576 126.277 149.734 125.941 149.824 125.548H151.891C151.815 126.254 151.586 126.884 151.202 127.438C150.819 127.991 150.305 128.427 149.661 128.744C149.022 129.062 148.271 129.22 147.409 129.22ZM159.254 118.091V119.795H153.295V118.091H159.254ZM154.893 115.477H157.017V125.797C157.017 126.209 157.079 126.519 157.202 126.727C157.325 126.931 157.483 127.071 157.678 127.146C157.876 127.217 158.092 127.253 158.324 127.253C158.494 127.253 158.643 127.241 158.771 127.217C158.899 127.194 158.999 127.175 159.07 127.161L159.453 128.915C159.33 128.962 159.155 129.009 158.928 129.057C158.7 129.109 158.416 129.137 158.075 129.142C157.517 129.152 156.996 129.052 156.513 128.844C156.03 128.635 155.639 128.313 155.341 127.878C155.043 127.442 154.893 126.895 154.893 126.237V115.477ZM161.603 129V118.091H163.727V129H161.603ZM162.676 116.408C162.306 116.408 161.989 116.285 161.724 116.038C161.464 115.787 161.333 115.489 161.333 115.143C161.333 114.793 161.464 114.495 161.724 114.249C161.989 113.998 162.306 113.872 162.676 113.872C163.045 113.872 163.36 113.998 163.62 114.249C163.886 114.495 164.018 114.793 164.018 115.143C164.018 115.489 163.886 115.787 163.62 116.038C163.36 116.285 163.045 116.408 162.676 116.408ZM175.916 118.091L171.96 129H169.688L165.724 118.091H168.004L170.767 126.486H170.881L173.636 118.091H175.916ZM177.912 129V118.091H180.036V129H177.912ZM178.984 116.408C178.615 116.408 178.298 116.285 178.033 116.038C177.772 115.787 177.642 115.489 177.642 115.143C177.642 114.793 177.772 114.495 178.033 114.249C178.298 113.998 178.615 113.872 178.984 113.872C179.354 113.872 179.669 113.998 179.929 114.249C180.194 114.495 180.327 114.793 180.327 115.143C180.327 115.489 180.194 115.787 179.929 116.038C179.669 116.285 179.354 116.408 178.984 116.408ZM187.985 118.091V119.795H182.026V118.091H187.985ZM183.624 115.477H185.748V125.797C185.748 126.209 185.809 126.519 185.932 126.727C186.055 126.931 186.214 127.071 186.408 127.146C186.607 127.217 186.822 127.253 187.054 127.253C187.225 127.253 187.374 127.241 187.502 127.217C187.63 127.194 187.729 127.175 187.8 127.161L188.184 128.915C188.06 128.962 187.885 129.009 187.658 129.057C187.431 129.109 187.147 129.137 186.806 129.142C186.247 129.152 185.726 129.052 185.243 128.844C184.76 128.635 184.37 128.313 184.071 127.878C183.773 127.442 183.624 126.895 183.624 126.237V115.477ZM190.334 129V118.091H192.457V129H190.334ZM191.406 116.408C191.037 116.408 190.72 116.285 190.455 116.038C190.194 115.787 190.064 115.489 190.064 115.143C190.064 114.793 190.194 114.495 190.455 114.249C190.72 113.998 191.037 113.872 191.406 113.872C191.776 113.872 192.09 113.998 192.351 114.249C192.616 114.495 192.749 114.793 192.749 115.143C192.749 115.489 192.616 115.787 192.351 116.038C192.09 116.285 191.776 116.408 191.406 116.408ZM200.016 129.22C198.941 129.22 198.016 128.991 197.239 128.531C196.467 128.067 195.871 127.416 195.449 126.578C195.033 125.735 194.824 124.748 194.824 123.616C194.824 122.499 195.033 121.514 195.449 120.662C195.871 119.81 196.458 119.144 197.211 118.666C197.968 118.188 198.854 117.949 199.867 117.949C200.482 117.949 201.079 118.051 201.657 118.254C202.234 118.458 202.753 118.777 203.212 119.213C203.671 119.649 204.033 120.214 204.299 120.911C204.564 121.602 204.696 122.442 204.696 123.432V124.185H196.025V122.594H202.615C202.615 122.035 202.502 121.54 202.275 121.109C202.047 120.674 201.728 120.33 201.316 120.08C200.908 119.829 200.43 119.703 199.881 119.703C199.284 119.703 198.764 119.85 198.319 120.143C197.878 120.432 197.537 120.811 197.296 121.28C197.059 121.744 196.941 122.248 196.941 122.793V124.036C196.941 124.765 197.069 125.385 197.324 125.896C197.585 126.408 197.947 126.798 198.411 127.068C198.875 127.333 199.417 127.466 200.037 127.466C200.44 127.466 200.807 127.409 201.138 127.295C201.47 127.177 201.756 127.002 201.998 126.77C202.239 126.538 202.424 126.251 202.551 125.911L204.561 126.273C204.4 126.865 204.112 127.383 203.695 127.828C203.283 128.268 202.765 128.612 202.14 128.858C201.519 129.099 200.811 129.22 200.016 129.22ZM215.227 120.754L213.303 121.095C213.222 120.849 213.094 120.615 212.919 120.392C212.749 120.17 212.517 119.987 212.223 119.845C211.929 119.703 211.563 119.632 211.122 119.632C210.521 119.632 210.019 119.767 209.616 120.037C209.214 120.302 209.013 120.645 209.013 121.067C209.013 121.431 209.148 121.725 209.418 121.947C209.688 122.17 210.123 122.352 210.724 122.494L212.457 122.892C213.461 123.124 214.209 123.482 214.702 123.964C215.194 124.447 215.44 125.075 215.44 125.847C215.44 126.5 215.251 127.082 214.872 127.594C214.498 128.1 213.975 128.498 213.303 128.787C212.635 129.076 211.861 129.22 210.98 129.22C209.759 129.22 208.762 128.96 207.99 128.439C207.218 127.913 206.745 127.168 206.57 126.202L208.622 125.889C208.75 126.424 209.013 126.829 209.411 127.104C209.808 127.374 210.327 127.509 210.966 127.509C211.662 127.509 212.218 127.364 212.635 127.075C213.052 126.782 213.26 126.424 213.26 126.003C213.26 125.662 213.132 125.375 212.876 125.143C212.625 124.911 212.24 124.736 211.719 124.618L209.872 124.213C208.854 123.981 208.101 123.612 207.614 123.105C207.131 122.598 206.889 121.957 206.889 121.18C206.889 120.536 207.069 119.973 207.429 119.49C207.789 119.007 208.286 118.631 208.92 118.361C209.555 118.086 210.282 117.949 211.101 117.949C212.28 117.949 213.208 118.205 213.885 118.716C214.562 119.223 215.009 119.902 215.227 120.754ZM219.174 129.135C218.786 129.135 218.452 128.998 218.173 128.723C217.894 128.444 217.754 128.107 217.754 127.714C217.754 127.326 217.894 126.995 218.173 126.72C218.452 126.441 218.786 126.301 219.174 126.301C219.563 126.301 219.896 126.441 220.176 126.72C220.455 126.995 220.595 127.326 220.595 127.714C220.595 127.975 220.529 128.214 220.396 128.432C220.268 128.645 220.098 128.815 219.885 128.943C219.672 129.071 219.435 129.135 219.174 129.135Z" fill="white"/>
</g>
<defs>
<clipPath id="clip0_1474_156360">
<rect width="1440" height="148" fill="white"/>
</clipPath>
<clipPath id="clip1_1474_156360">
<rect width="1440" height="164" fill="white"/>
</clipPath>
<clipPath id="clip2_1474_156360">
<rect width="1479.48" height="329.388" fill="white" transform="translate(745 -147.498) rotate(-1.29756)"/>
</clipPath>
<clipPath id="clip3_1474_156360">
<rect width="603" height="664" fill="white" transform="matrix(-1 0 0 1 1375 -425)"/>
</clipPath>
</defs>
</svg>
