<svg width="239" height="190" viewBox="0 0 239 190" fill="none" xmlns="http://www.w3.org/2000/svg">
<path d="M140.343 29.3244C160.414 37.3613 176.671 49.4533 190.961 66.8244C205.421 84.2411 217.7 107.06 215.235 129.358C212.601 151.611 195.161 173.234 173.744 181.988C152.373 190.573 127.195 186.334 102.655 179.725C78.1607 172.948 54.366 163.908 44.1959 146.739C33.9641 129.463 37.2494 104.119 44.245 80.4996C51.1787 56.7731 61.8683 34.6027 79.1643 25.6466C96.3528 16.7524 120.317 21.1182 140.343 29.3244Z" fill="#E9F9F2"/>
<g clip-path="url(#clip0_882_148396)">
<path d="M127.694 52.5416C130.172 55.2338 133.98 56.2543 137.472 55.1617C142.749 53.5103 148.311 56.7213 149.52 62.117C150.319 65.6874 153.107 68.4756 156.678 69.2754C162.074 70.4838 165.285 76.0456 163.633 81.3227C162.541 84.8146 163.561 88.6234 166.253 91.1011C170.322 94.8455 170.322 101.268 166.253 105.012C163.561 107.49 162.541 111.299 163.633 114.79C165.285 120.068 162.074 125.629 156.678 126.838C153.108 127.637 150.319 130.426 149.52 133.996C148.311 139.392 142.749 142.603 137.472 140.951C133.98 139.859 130.172 140.879 127.694 143.572C123.949 147.64 117.527 147.64 113.783 143.572C111.305 140.879 107.496 139.859 104.005 140.951C98.7274 142.603 93.1658 139.392 91.9572 133.996C91.1577 130.426 88.3694 127.637 84.7988 126.838C79.4031 125.629 76.1919 120.068 77.8435 114.79C78.9362 111.299 77.9156 107.49 75.2235 105.012C71.1547 101.268 71.1547 94.8455 75.2235 91.1011C77.9156 88.6234 78.9362 84.8146 77.8435 81.3227C76.1922 76.0456 79.4031 70.484 84.7988 69.2754C88.3692 68.4759 91.1575 65.6876 91.9572 62.117C93.1656 56.7213 98.7274 53.5101 104.005 55.1617C107.496 56.2543 111.305 55.2338 113.783 52.5416C117.527 48.4731 123.949 48.4731 127.694 52.5416Z" fill="#F599A0"/>
<path d="M166.252 91.1015C163.559 88.6238 162.539 84.815 163.632 81.3231C165.283 76.046 162.072 70.4844 156.676 69.2758C153.106 68.4763 150.318 65.688 149.518 62.1174C148.363 56.9615 143.234 53.8039 138.176 54.9738C141.585 55.7679 144.441 58.4323 145.266 62.1174C146.066 65.6878 148.854 68.476 152.424 69.2758C157.82 70.4842 161.031 76.046 159.38 81.3231C158.287 84.815 159.307 88.6238 162 91.1015C166.068 94.8459 166.068 101.268 162 105.012C159.307 107.49 158.287 111.299 159.38 114.791C161.031 120.068 157.82 125.63 152.424 126.838C148.854 127.638 146.066 130.426 145.266 133.997C144.441 137.682 141.584 140.346 138.176 141.14C143.234 142.31 148.363 139.152 149.518 133.997C150.317 130.426 153.106 127.638 156.676 126.838C162.072 125.63 165.283 120.068 163.632 114.791C162.539 111.299 163.559 107.49 166.252 105.012C170.32 101.268 170.32 94.8459 166.252 91.1015Z" fill="#E60112"/>
<path d="M120.734 135.95C141.662 135.95 158.628 118.985 158.628 98.0562C158.628 77.1279 141.662 60.1621 120.734 60.1621C99.8056 60.1621 82.8398 77.1279 82.8398 98.0562C82.8398 118.985 99.8056 135.95 120.734 135.95Z" fill="#1DBF73"/>
<path d="M120.739 60.1621C119.779 60.1621 118.828 60.1984 117.887 60.2686C137.483 61.7268 152.929 78.0876 152.929 98.0562C152.929 118.025 137.483 134.386 117.887 135.844C118.829 135.914 119.78 135.951 120.739 135.951C141.668 135.951 158.633 118.985 158.633 98.0564C158.633 77.1283 141.667 60.1621 120.739 60.1621Z" fill="#77D9AB"/>
<path d="M113.385 98.4567L107.182 92.2529C105.694 90.7655 103.282 90.7655 101.795 92.2529L96.7406 97.3076C95.2531 98.7951 95.2531 101.207 96.7406 102.694L109.225 115.178L110.577 115.997L116.337 115.767L143.416 88.4734L140.44 83.0438L134.42 80.7266L133.515 81.4029L116.461 98.4564C115.612 99.3058 114.235 99.3058 113.385 98.4567Z" fill="#EAF6FF"/>
<path d="M144.735 84.932L140.053 80.2504C138.566 78.7629 136.154 78.7629 134.667 80.2504L133.516 81.4006C134.621 81.2839 135.766 81.647 136.612 82.4933L139.031 84.932C140.518 86.4195 140.518 88.8311 139.031 90.3183L115.988 113.431C114.157 115.261 111.55 115.842 109.227 115.175L109.693 115.642C112.377 118.326 116.728 118.326 119.412 115.642L144.735 90.3186C146.222 88.8311 146.222 86.4195 144.735 84.932Z" fill="#C8EFFE"/>
<path d="M165.198 54.9057C164.734 54.9057 164.269 54.7285 163.915 54.3739C163.206 53.6649 163.206 52.5153 163.915 51.8066L179.099 36.6216C179.808 35.9126 180.958 35.9126 181.667 36.6216C182.376 37.3306 182.376 38.4801 181.667 39.1889L166.482 54.3739C166.127 54.7283 165.663 54.9057 165.198 54.9057Z" fill="#77D9AB"/>
<path d="M172.791 65.8711C171.993 65.8711 171.261 65.3405 171.041 64.533C170.777 63.5657 171.347 62.5674 172.314 62.3038L179.907 60.2325C180.875 59.9684 181.872 60.5387 182.136 61.506C182.4 62.4733 181.83 63.4715 180.863 63.7351L173.27 65.8064C173.11 65.8503 172.949 65.8711 172.791 65.8711Z" fill="#3FAEFF"/>
<path d="M154.071 47.3143C153.913 47.3143 153.752 47.2935 153.592 47.2497C152.625 46.9858 152.054 45.9878 152.318 45.0205L154.39 37.428C154.654 36.4608 155.652 35.89 156.619 36.1546C157.586 36.4184 158.156 37.4164 157.892 38.3837L155.821 45.9762C155.601 46.7835 154.869 47.3143 154.071 47.3143Z" fill="#F3D03E"/>
<path d="M76.2738 54.9057C75.8093 54.9057 75.3446 54.7285 74.9902 54.3739L59.8052 39.1889C59.0962 38.4799 59.0962 37.3303 59.8052 36.6216C60.5142 35.9126 61.6637 35.9126 62.3725 36.6216L77.5575 51.8066C78.2665 52.5156 78.2665 53.6651 77.5575 54.3739C77.2031 54.7283 76.7383 54.9057 76.2738 54.9057Z" fill="#D2F2E3"/>
<path d="M68.683 65.8713C68.5247 65.8713 68.3642 65.8505 68.204 65.8066L60.6115 63.7353C59.6442 63.4715 59.0739 62.4734 59.338 61.5062C59.6018 60.5389 60.5998 59.9681 61.5671 60.2327L69.1596 62.304C70.1269 62.5679 70.6972 63.5659 70.4331 64.5332C70.2131 65.3407 69.4813 65.8713 68.683 65.8713Z" fill="#A5E5C7"/>
<path d="M87.3978 47.3142C86.5995 47.3142 85.8678 46.7834 85.6475 45.9761L83.5762 38.3836C83.3123 37.4163 83.8824 36.4181 84.8497 36.1545C85.8179 35.8901 86.8152 36.4609 87.0788 37.4279L89.1501 45.0204C89.414 45.9877 88.8439 46.986 87.8766 47.2496C87.7166 47.2934 87.5559 47.3142 87.3978 47.3142Z" fill="#4ACC8F"/>
<path d="M180.383 160.023C179.919 160.023 179.454 159.846 179.1 159.491L163.915 144.306C163.206 143.597 163.206 142.448 163.915 141.739C164.624 141.03 165.773 141.03 166.482 141.739L181.667 156.924C182.376 157.633 182.376 158.782 181.667 159.491C181.312 159.845 180.848 160.023 180.383 160.023Z" fill="#D2F2E3"/>
<path d="M180.386 135.945C180.228 135.945 180.067 135.924 179.907 135.881L172.315 133.809C171.347 133.546 170.777 132.548 171.041 131.58C171.305 130.613 172.303 130.042 173.27 130.307L180.863 132.378C181.83 132.642 182.4 133.64 182.136 134.607C181.917 135.414 181.185 135.945 180.386 135.945Z" fill="#77D9AB"/>
<path d="M156.14 160.025C155.342 160.025 154.61 159.494 154.39 158.687L152.318 151.094C152.055 150.127 152.625 149.129 153.592 148.865C154.559 148.601 155.557 149.172 155.821 150.139L157.892 157.731C158.156 158.698 157.586 159.697 156.619 159.96C156.459 160.004 156.298 160.025 156.14 160.025Z" fill="#4ACC8F"/>
<path d="M61.0888 160.023C60.6243 160.023 60.1596 159.846 59.8052 159.491C59.0962 158.782 59.0962 157.633 59.8052 156.924L74.9902 141.739C75.6992 141.03 76.8487 141.03 77.5575 141.739C78.2665 142.448 78.2665 143.597 77.5575 144.306L62.3725 159.491C62.0181 159.845 61.5534 160.023 61.0888 160.023Z" fill="#77D9AB"/>
<path d="M61.0882 135.945C60.2899 135.945 59.5582 135.415 59.3379 134.607C59.074 133.64 59.6441 132.642 60.6114 132.378L68.2039 130.307C69.1716 130.042 70.1694 130.613 70.433 131.58C70.6969 132.548 70.1268 133.546 69.1595 133.809L61.567 135.881C61.4073 135.925 61.2465 135.945 61.0882 135.945Z" fill="#F8E38B"/>
<path d="M85.3288 160.025C85.1705 160.025 85.01 160.004 84.8497 159.96C83.8825 159.696 83.3122 158.698 83.5763 157.731L85.6476 150.139C85.9114 149.172 86.9094 148.601 87.8767 148.865C88.844 149.129 89.4143 150.127 89.1502 151.094L87.0789 158.687C86.8591 159.494 86.1273 160.025 85.3288 160.025Z" fill="#F06771"/>
</g>
<defs>
<clipPath id="clip0_882_148396">
<rect width="123.935" height="123.935" fill="white" transform="translate(58.7695 36.0898)"/>
</clipPath>
</defs>
</svg>
