<svg width="636" height="354" viewBox="0 0 636 354" fill="none" xmlns="http://www.w3.org/2000/svg">
<path d="M475.9 301.736C484.104 295.392 491.369 288.042 496.817 279.184C507.84 261.218 509.092 235.838 495.001 220.196C479.345 202.795 452.415 203.298 429.181 205.622C405.946 207.946 379.455 209.768 362.358 193.812C348.393 180.808 345.449 160.015 344.009 140.98C342.568 121.946 341.379 101.404 329.542 86.4525C313.572 66.2873 281.508 63.9001 259.902 77.7205C238.295 91.6037 227.023 118.177 226.772 143.87C226.647 154.863 227.336 168.118 218.255 174.338C211.053 179.3 201.095 176.85 193.33 172.83C185.564 168.809 178.237 163.218 169.594 162.025C158.071 160.454 146.548 167.49 140.16 177.227C133.772 186.964 131.58 198.9 131.204 210.585C130.202 243.754 142.79 276.797 164.521 301.674H475.9V301.736Z" fill="#ECF7FF"/>
<path d="M140.797 302.731V216.647H208.446V159.852H402.264V174.807H473.348L474.524 302.731H140.797Z" fill="#F1F2F5"/>
<path d="M357.836 302.734H225.128C220.569 302.734 216.883 299.048 216.883 294.49V119.203C216.883 114.645 220.569 110.959 225.128 110.959H357.836C362.394 110.959 366.081 114.645 366.081 119.203V294.477C366.081 299.035 362.381 302.734 357.836 302.734Z" fill="#1D2238"/>
<path d="M356.793 122.373H226.172V291.306H356.793V122.373Z" fill="white"/>
<path d="M301.607 107.946C301.554 102.41 297.036 97.9316 291.486 97.9316C285.937 97.9316 281.418 102.41 281.365 107.946H271.984V123.984H310.988V107.946H301.607ZM291.486 109.558C289.518 109.558 287.919 107.959 287.919 105.991C287.919 104.022 289.518 102.423 291.486 102.423C293.455 102.423 295.054 104.022 295.054 105.991C295.054 107.959 293.455 109.558 291.486 109.558Z" fill="#E60112"/>
<path d="M351.446 140.023H263.039V145.427H351.446V140.023Z" fill="#F1F2F5"/>
<path d="M351.446 150.564H263.039V155.968H351.446V150.564Z" fill="#F1F2F5"/>
<path d="M306.126 161.109H263.039V166.513H306.126V161.109Z" fill="#F1F2F5"/>
<path d="M259.366 166.908H234.5V139.627H259.366V166.908V166.908ZM235.293 166.116H258.574V140.42H235.293V166.116Z" fill="#9EA9BD"/>
<path d="M243.606 144.844L249.433 152.955L265.499 137.842L268.353 141.528L248.6 160.393L240.078 148.054L243.606 144.844Z" fill="#1DBF73"/>
<path d="M351.446 174.807H263.039V180.21H351.446V174.807Z" fill="#F1F2F5"/>
<path d="M351.446 185.348H263.039V190.751H351.446V185.348Z" fill="#F1F2F5"/>
<path d="M306.126 195.893H263.039V201.296H306.126V195.893Z" fill="#F1F2F5"/>
<path d="M259.366 201.693H234.5V174.412H259.366V201.693V201.693ZM235.293 200.901H258.574V175.205H235.293V200.901Z" fill="#9EA9BD"/>
<path d="M243.606 179.645L249.433 187.743L265.499 172.643L268.353 176.315L248.6 195.194L240.078 182.842L243.606 179.645Z" fill="#1DBF73"/>
<path d="M351.446 209.607H263.039V215.011H351.446V209.607Z" fill="#F1F2F5"/>
<path d="M351.446 220.148H263.039V225.552H351.446V220.148Z" fill="#F1F2F5"/>
<path d="M306.126 230.693H263.039V236.097H306.126V230.693Z" fill="#F1F2F5"/>
<path d="M259.366 236.49H234.5V209.209H259.366V236.49V236.49ZM235.293 235.698H258.574V210.002H235.293V235.698Z" fill="#9EA9BD"/>
<path d="M243.606 214.428L249.433 222.539L265.499 207.426L268.353 211.112L248.6 229.977L240.078 217.638L243.606 214.428Z" fill="#1DBF73"/>
<path d="M351.446 244.391H263.039V249.794H351.446V244.391Z" fill="#F1F2F5"/>
<path d="M351.446 254.932H263.039V260.335H351.446V254.932Z" fill="#F1F2F5"/>
<path d="M306.126 265.477H263.039V270.88H306.126V265.477Z" fill="#F1F2F5"/>
<path d="M259.366 271.275H234.5V243.994H259.366V271.275V271.275ZM235.293 270.483H258.574V244.787H235.293V270.483Z" fill="#9EA9BD"/>
<path d="M243.606 249.215L249.433 257.327L265.499 242.213L268.353 245.899L248.6 264.765L240.078 252.425L243.606 249.215Z" fill="#1DBF73"/>
<path d="M431.878 261.484H390.812V302.73H431.878V261.484Z" fill="#9EA9BD"/>
<path d="M413.838 261.484H408.883V268.011H413.838V261.484Z" fill="#1D2238"/>
<path d="M461.31 261.484H431.898V302.73H461.31V261.484Z" fill="#D2D6E1"/>
<path d="M448.477 261.484H444.711V268.011H448.477V261.484Z" fill="#1D2238"/>
<path d="M423.979 182.559H382.914V261.483H423.979V182.559Z" fill="#EDB248"/>
<path d="M405.931 182.559H400.977V195.056H405.931V182.559Z" fill="#1D2238"/>
<path d="M453.396 182.559H423.984V261.483H453.396V182.559Z" fill="#F8E38B"/>
<path d="M440.578 182.559H436.812V195.056H440.578V182.559Z" fill="#1D2238"/>
<path d="M366.684 261.484H313.859V302.73H366.684V261.484Z" fill="#3FAEFF"/>
<path d="M343.462 261.484H337.094V268.011H343.462V261.484Z" fill="#1D2238"/>
<path d="M401.635 261.484H366.688V302.73H401.635V261.484Z" fill="#D9EFFF"/>
<path d="M388.361 261.484H381.992V268.011H388.361V261.484Z" fill="#1D2238"/>
<path d="M361.432 220.252H320.367V261.498H361.432V220.252Z" fill="#D2D6E1"/>
<path d="M343.377 220.252H338.422V226.778H343.377V220.252Z" fill="#1D2238"/>
<path d="M390.841 220.252H361.43V261.498H390.841V220.252Z" fill="#F1F2F5"/>
<path d="M378.008 220.252H374.242V226.778H378.008V220.252Z" fill="#1D2238"/>
<path d="M484.43 302.4H131.148V303.061H484.43V302.4Z" fill="#1D2238"/>
<path d="M197.062 181.106L195.701 182.017L188.434 171.158C188.183 170.788 188.288 170.273 188.658 170.022C189.028 169.771 189.544 169.876 189.795 170.246L197.062 181.106Z" fill="#1D2238"/>
<path d="M189.891 183.959C189.891 183.959 190.446 179.295 191.621 179.084C192.784 178.872 196.246 178.951 196.933 179.084C197.62 179.216 199.523 180.418 199.919 181.633L192.533 188.807L189.891 183.959Z" fill="#EB9481"/>
<path d="M183.08 144.773C183.08 144.773 184.547 146.583 185.009 149.146C185.194 150.164 184.89 151.194 183.992 151.709L178.984 144.773H183.08Z" fill="#1D2238"/>
<path d="M175.94 143.559C171.646 143.559 168.131 146.875 167.814 151.089L167.748 151.076L165.977 162.081C165.594 164.498 167.233 166.784 169.664 167.167C172.082 167.55 173.945 168.25 174.751 163.481L174.87 162.702C175.213 162.741 175.57 162.768 175.927 162.768C180.432 162.768 184.079 159.121 184.079 154.616V151.697C184.092 147.205 180.445 143.559 175.94 143.559Z" fill="#EB9481"/>
<path d="M180.92 150.323C180.986 150.535 181.039 150.746 181.079 150.97C181.105 151.076 181.118 151.182 181.131 151.288C181.145 151.393 181.171 151.499 181.171 151.605C181.197 151.816 181.224 152.027 181.237 152.252L181.264 152.569L181.277 152.886L180.92 152.529C181.052 152.529 181.198 152.516 181.33 152.529C181.396 152.529 181.449 152.529 181.567 152.543C181.673 152.556 181.766 152.582 181.871 152.622C182.255 152.78 182.492 153.203 182.466 153.6C182.453 153.798 182.373 153.983 182.255 154.128C182.136 154.273 181.977 154.379 181.805 154.432C181.726 154.458 181.634 154.458 181.541 154.458C181.449 154.445 181.382 154.432 181.316 154.419C181.184 154.392 181.039 154.353 180.907 154.313C180.894 154.313 180.894 154.3 180.894 154.287C180.894 154.273 180.907 154.273 180.907 154.273H181.316C181.382 154.273 181.449 154.273 181.515 154.273C181.581 154.26 181.647 154.247 181.7 154.22C181.937 154.115 182.109 153.864 182.109 153.613C182.109 153.349 181.937 153.097 181.7 153.005C181.634 152.979 181.581 152.965 181.515 152.952C181.449 152.952 181.382 152.952 181.316 152.952H180.907H180.867V152.913C180.867 152.054 180.867 151.208 180.88 150.35C180.88 150.336 180.894 150.323 180.907 150.336C180.907 150.31 180.907 150.31 180.92 150.323Z" fill="#1D2238"/>
<path d="M182.607 150.955C182.921 150.955 183.175 150.7 183.175 150.386C183.175 150.073 182.921 149.818 182.607 149.818C182.293 149.818 182.039 150.073 182.039 150.386C182.039 150.7 182.293 150.955 182.607 150.955Z" fill="#1D2238"/>
<path d="M182.142 156.109C182.142 156.109 181.204 154.735 178.469 154.774L182.142 156.109Z" fill="white"/>
<path d="M181.176 148.103C181.123 148.315 181.559 148.605 182.154 148.751C182.749 148.896 183.264 148.843 183.317 148.632C183.37 148.42 182.934 148.13 182.339 147.984C181.744 147.839 181.229 147.892 181.176 148.103Z" fill="#1D2238"/>
<path d="M179.326 151.22C179.64 151.22 179.894 150.966 179.894 150.652C179.894 150.338 179.64 150.084 179.326 150.084C179.012 150.084 178.758 150.338 178.758 150.652C178.758 150.966 179.012 151.22 179.326 151.22Z" fill="#1D2238"/>
<path d="M177.903 148.895C177.956 149.107 178.484 149.146 179.065 149.001C179.66 148.843 180.096 148.552 180.03 148.341C179.977 148.129 179.449 148.09 178.867 148.235C178.286 148.393 177.85 148.684 177.903 148.895Z" fill="#1D2238"/>
<path d="M182.682 156.492C182.272 156.466 181.876 156.373 181.48 156.268C181.281 156.228 181.096 156.149 180.898 156.096C180.713 156.03 180.528 155.964 180.33 155.898C180.145 155.819 179.96 155.753 179.775 155.673C179.59 155.594 179.405 155.515 179.233 155.422C178.877 155.237 178.52 155.039 178.19 154.788C178.176 154.788 178.176 154.775 178.19 154.762C178.19 154.762 178.203 154.749 178.203 154.762L180.449 155.594L182.682 156.466C182.695 156.466 182.695 156.479 182.695 156.492C182.708 156.492 182.695 156.492 182.682 156.492Z" fill="#1D2238"/>
<path d="M166.629 151.907C166.629 151.907 173.738 145.645 180.622 145.645C180.622 145.645 183.621 145.513 184.731 148.063C184.731 148.063 183.41 137.666 171.915 139.423C160.419 141.18 165.004 152.898 165.004 152.898L166.629 151.907Z" fill="#E60112"/>
<path d="M174.728 146.928C174.728 146.928 173.327 148.632 170.407 151.71C169.681 152.476 168.425 153.533 168.425 153.533C168.425 153.533 168.729 151.935 168.188 150.772C168.188 150.772 171.464 148.13 174.728 146.928Z" fill="#1D2238"/>
<path d="M179.249 145.488C179.249 145.488 180.147 147.113 182.446 147.232C182.446 147.232 178.786 148.434 177.359 145.885L179.249 145.488Z" fill="#1D2238"/>
<path d="M167.222 154.496L166.68 157.693L165.016 152.898L167.804 151.088L167.222 154.496Z" fill="#1D2238"/>
<path d="M167.141 154.309C168.038 154.309 168.766 153.41 168.766 152.301C168.766 151.192 168.038 150.293 167.141 150.293C166.243 150.293 165.516 151.192 165.516 152.301C165.516 153.41 166.243 154.309 167.141 154.309Z" fill="#EB9481"/>
<path d="M168.077 151.745C167.932 151.626 167.786 151.533 167.641 151.494C167.575 151.467 167.496 151.467 167.443 151.467C167.377 151.467 167.324 151.467 167.258 151.494C167.047 151.573 166.888 151.745 166.796 151.996C166.769 152.049 166.756 152.115 166.743 152.181C166.743 152.207 166.729 152.247 166.729 152.273V152.326V152.366C166.729 152.379 166.729 152.379 166.729 152.379C166.729 152.379 166.729 152.366 166.716 152.353C166.703 152.326 166.637 152.287 166.611 152.287C166.558 152.287 166.637 152.313 166.703 152.3C166.848 152.287 167.033 152.247 167.218 152.22C167.403 152.194 167.615 152.168 167.813 152.247C167.826 152.247 167.826 152.26 167.826 152.273C167.826 152.287 167.813 152.287 167.813 152.287C167.641 152.3 167.469 152.366 167.298 152.432C167.126 152.498 166.967 152.577 166.796 152.63C166.703 152.656 166.611 152.683 166.505 152.656C166.452 152.643 166.399 152.604 166.386 152.564C166.359 152.511 166.346 152.471 166.346 152.419C166.333 152.234 166.373 152.049 166.439 151.877C166.505 151.705 166.611 151.547 166.756 151.428C166.901 151.309 167.073 151.216 167.258 151.203C167.443 151.19 167.641 151.243 167.786 151.348C167.945 151.454 168.064 151.6 168.143 151.771C168.143 151.784 168.143 151.798 168.13 151.798C168.09 151.758 168.077 151.758 168.077 151.745Z" fill="#1D2238"/>
<path d="M176.234 146.371C176.234 146.371 181.11 139.844 187.003 141.416C192.896 143.002 184.73 148.048 184.73 148.048C184.73 148.048 182.471 144.23 176.234 146.371Z" fill="#F1F2F5"/>
<path d="M171.411 139.726C171.463 140.016 170.856 140.373 170.036 140.531C169.23 140.69 168.517 140.584 168.464 140.294C168.411 140.003 169.019 139.646 169.838 139.488C170.644 139.329 171.358 139.435 171.411 139.726Z" fill="#1D2238"/>
<path d="M174.876 162.713C174.876 162.713 173.118 161.761 171.242 159.846C171.242 159.846 172.022 162.567 174.744 163.492L174.876 162.713Z" fill="#1D2238"/>
<path d="M188.625 292.699L200.979 298.076C202.816 298.882 204.005 300.718 203.965 302.726L177.117 302.673L178.544 292.686L188.625 292.699Z" fill="#4A4E60"/>
<path d="M177.102 300.887C179.308 301.019 181.528 301.085 183.734 301.138C184.844 301.165 185.941 301.178 187.051 301.191L190.367 301.218L193.684 301.204C194.793 301.191 195.89 301.191 197 301.165C199.206 301.125 201.426 301.072 203.633 300.953C201.426 300.821 199.206 300.755 197 300.702C195.89 300.676 194.793 300.663 193.684 300.649L190.367 300.623L187.051 300.636C185.941 300.649 184.844 300.649 183.734 300.676C181.528 300.702 179.321 300.768 177.102 300.887Z" fill="#1D2238"/>
<path d="M184.506 298.654C185.46 297.7 185.46 296.152 184.506 295.198C183.551 294.243 182.003 294.243 181.049 295.198C180.094 296.152 180.094 297.7 181.049 298.654C182.003 299.608 183.551 299.608 184.506 298.654Z" fill="#1D2238"/>
<path d="M199.286 297.114C198.969 296.981 198.665 296.982 198.374 297.021C198.083 297.074 197.806 297.18 197.568 297.338C197.317 297.497 197.106 297.721 196.947 297.972C196.789 298.237 196.696 298.554 196.736 298.884L196.789 298.91C196.868 298.805 196.934 298.686 197.026 298.593C197.066 298.54 197.106 298.488 197.159 298.448L197.291 298.303C197.476 298.131 197.687 297.959 197.898 297.827C198.11 297.682 198.348 297.55 198.586 297.444C198.704 297.391 198.823 297.338 198.942 297.285C199.061 297.233 199.18 297.193 199.312 297.153L199.286 297.114Z" fill="#1D2238"/>
<path d="M196.137 295.766C195.82 295.634 195.516 295.634 195.226 295.673C194.935 295.726 194.658 295.832 194.42 295.991C194.169 296.149 193.957 296.374 193.799 296.625C193.64 296.889 193.548 297.206 193.587 297.536L193.64 297.563C193.719 297.457 193.785 297.338 193.878 297.246C193.918 297.193 193.957 297.14 194.01 297.1L194.142 296.955C194.327 296.783 194.539 296.612 194.75 296.479C194.961 296.334 195.199 296.202 195.437 296.096C195.556 296.043 195.675 295.991 195.794 295.938C195.913 295.885 196.032 295.845 196.164 295.806L196.137 295.766Z" fill="#1D2238"/>
<path d="M193.223 294.537C192.906 294.405 192.602 294.405 192.312 294.445C192.021 294.498 191.743 294.604 191.506 294.762C191.255 294.921 191.043 295.145 190.885 295.396C190.726 295.66 190.634 295.977 190.673 296.308L190.726 296.334C190.805 296.228 190.871 296.11 190.964 296.017C191.004 295.964 191.043 295.911 191.096 295.872L191.228 295.726C191.413 295.555 191.625 295.383 191.836 295.251C192.047 295.106 192.285 294.973 192.523 294.868C192.642 294.815 192.761 294.762 192.88 294.709C192.999 294.656 193.118 294.617 193.25 294.577L193.223 294.537Z" fill="#1D2238"/>
<path d="M172.54 292.699L184.893 298.076C186.73 298.882 187.919 300.718 187.88 302.726L161.031 302.673L162.458 292.686L172.54 292.699Z" fill="#9EA9BD"/>
<path d="M161.016 300.887C163.222 301.019 165.442 301.085 167.648 301.138C168.758 301.165 169.855 301.178 170.965 301.191L174.281 301.218L177.598 301.204C178.707 301.191 179.804 301.191 180.914 301.165C183.121 301.125 185.34 301.072 187.547 300.953C185.34 300.821 183.121 300.755 180.914 300.702C179.804 300.676 178.707 300.663 177.598 300.649L174.281 300.623L170.965 300.636C169.855 300.649 168.758 300.649 167.648 300.676C165.442 300.702 163.235 300.768 161.016 300.887Z" fill="#1D2238"/>
<path d="M168.427 298.65C169.382 297.696 169.382 296.148 168.427 295.194C167.473 294.239 165.925 294.239 164.971 295.194C164.016 296.148 164.016 297.696 164.971 298.65C165.925 299.605 167.473 299.605 168.427 298.65Z" fill="#1D2238"/>
<path d="M183.215 297.114C182.898 296.981 182.594 296.982 182.304 297.021C182.013 297.074 181.736 297.18 181.498 297.338C181.247 297.497 181.035 297.721 180.877 297.972C180.718 298.237 180.626 298.554 180.665 298.884L180.718 298.91C180.798 298.805 180.864 298.686 180.956 298.593C180.996 298.54 181.035 298.488 181.088 298.448L181.22 298.303C181.405 298.131 181.617 297.959 181.828 297.827C182.04 297.682 182.277 297.55 182.515 297.444C182.634 297.391 182.753 297.338 182.872 297.285C182.991 297.233 183.11 297.193 183.242 297.153L183.215 297.114Z" fill="#1D2238"/>
<path d="M180.075 295.766C179.758 295.634 179.454 295.634 179.163 295.673C178.872 295.726 178.595 295.832 178.357 295.991C178.106 296.149 177.895 296.374 177.736 296.625C177.578 296.889 177.485 297.206 177.525 297.536L177.578 297.563C177.657 297.457 177.723 297.338 177.815 297.246C177.855 297.193 177.895 297.14 177.948 297.1L178.08 296.955C178.265 296.783 178.476 296.612 178.688 296.479C178.899 296.334 179.137 296.202 179.375 296.096C179.493 296.043 179.612 295.991 179.731 295.938C179.85 295.885 179.969 295.845 180.101 295.806L180.075 295.766Z" fill="#1D2238"/>
<path d="M177.153 294.537C176.836 294.405 176.532 294.405 176.241 294.445C175.951 294.498 175.673 294.604 175.435 294.762C175.184 294.921 174.973 295.145 174.814 295.396C174.656 295.66 174.563 295.977 174.603 296.308L174.656 296.334C174.735 296.228 174.801 296.11 174.894 296.017C174.933 295.964 174.973 295.911 175.026 295.872L175.158 295.726C175.343 295.555 175.554 295.383 175.766 295.251C175.977 295.106 176.215 294.973 176.453 294.868C176.572 294.815 176.691 294.762 176.809 294.709C176.928 294.656 177.047 294.617 177.179 294.577L177.153 294.537Z" fill="#1D2238"/>
<path d="M192.901 292.595L190.496 243.092C190.43 241.705 190.259 240.318 190.008 238.944L184.881 212.032L153.831 209.602C153.831 209.602 150.779 222.007 157.029 233.937L160.239 292.965L176.808 292.859V292.674L192.901 292.595Z" fill="#1D2238"/>
<path d="M174.312 213.672L174.524 216.142L174.722 218.613L175.118 223.554L175.845 233.449L176.03 235.92L176.189 238.39L176.519 243.331L177.166 253.226L177.206 253.847C177.219 254.059 177.206 254.257 177.206 254.468V255.71L177.193 258.194L177.18 263.148L177.166 268.102L177.153 270.586L177.127 273.07L177.021 282.991L176.942 287.946L176.902 290.429L176.849 292.913H176.81L176.797 273.096V263.188V258.233V255.75V254.508C176.797 254.296 176.797 254.098 176.797 253.887L176.757 253.266L174.312 213.698V213.672Z" fill="#4A4E60"/>
<path d="M198.762 197.013L194.508 190.394L184.678 193.049L182.101 175.439C182.075 175.254 182.048 175.095 182.035 174.963C181.388 171.092 174.53 164.341 174.53 164.341L173.011 165.9L165.968 162.082C165.968 162.082 160.115 164.434 156.508 169.005C152.914 173.576 153.8 209.616 153.8 209.616C153.8 209.616 161.08 215.508 166.338 216.486C171.597 217.45 185.418 213.672 185.418 213.672C185.418 213.672 185.18 210.647 184.823 206.287L198.762 197.013Z" fill="#E60112"/>
<path d="M173.023 165.899L169.707 168.752C169.165 169.215 168.372 169.228 167.817 168.765C166.285 167.471 163.563 164.802 164.422 162.82L165.981 162.094L173.023 165.899Z" fill="white"/>
<path d="M173.023 165.899L174.662 167.669C175.111 168.145 175.891 168.052 176.208 167.484L176.683 166.625L174.53 164.34L173.023 165.899Z" fill="white"/>
<path d="M164.269 173.537L170.4 191.056L189.453 181.411L192.465 188.81L175.513 202.827C173.901 204.161 171.919 204.967 169.832 205.139C166.291 205.429 162.855 203.884 160.741 201.03C157.874 197.159 154.228 191.848 153.871 189.364C153.25 185.203 150.105 177.263 156.527 169.006L164.269 173.537Z" fill="#E60112"/>
<path d="M183.028 184.661C181.997 185.229 180.953 185.797 179.923 186.352C178.879 186.907 177.835 187.462 176.791 188.017C175.747 188.558 174.704 189.113 173.66 189.655C172.616 190.197 171.559 190.738 170.515 191.28L170.211 191.425L170.145 191.095C169.987 190.342 169.815 189.576 169.643 188.823C169.471 188.07 169.286 187.316 169.088 186.563C168.705 185.057 168.309 183.564 167.859 182.072C167.41 180.592 166.935 179.112 166.366 177.672C166.089 176.946 165.785 176.232 165.442 175.545C165.098 174.845 164.728 174.171 164.266 173.537C164.781 174.132 165.204 174.792 165.587 175.466C165.97 176.153 166.314 176.853 166.631 177.567C167.265 178.993 167.793 180.46 168.282 181.953C168.758 183.432 169.194 184.938 169.59 186.445C169.987 187.951 170.343 189.47 170.647 191.002L170.277 190.831C171.334 190.302 172.391 189.774 173.448 189.259C174.505 188.73 175.563 188.215 176.633 187.7C177.69 187.184 178.76 186.669 179.83 186.167C180.887 185.652 181.957 185.15 183.028 184.661Z" fill="#1D2238"/>
<path d="M153.875 189.367L154.509 190.517L155.143 191.666C155.566 192.432 155.989 193.198 156.412 193.965C156.835 194.731 157.257 195.497 157.693 196.25L158.354 197.386C158.579 197.77 158.79 198.153 159.002 198.536C159.86 200.055 160.706 201.601 161.855 202.869C162.146 203.173 162.45 203.49 162.78 203.741C162.939 203.886 163.111 203.992 163.282 204.124C163.467 204.23 163.639 204.349 163.824 204.454C164.564 204.864 165.383 205.115 166.216 205.26C167.894 205.538 169.638 205.34 171.276 204.824C172.095 204.573 172.888 204.23 173.641 203.82C174.011 203.609 174.381 203.384 174.738 203.147C175.095 202.909 175.425 202.631 175.768 202.354C177.129 201.257 178.49 200.161 179.864 199.064L181.926 197.439L182.956 196.62L183.987 195.814L182.996 196.686L182.005 197.545L180.023 199.262C178.688 200.399 177.367 201.535 176.033 202.671C175.702 202.948 175.359 203.239 175.002 203.503C174.645 203.767 174.262 204.005 173.879 204.217C173.1 204.653 172.28 205.009 171.435 205.287C170.589 205.564 169.704 205.749 168.819 205.828C167.933 205.908 167.022 205.908 166.136 205.749C165.251 205.604 164.379 205.313 163.586 204.877C163.388 204.772 163.19 204.653 163.005 204.521C162.82 204.388 162.635 204.256 162.463 204.111C162.107 203.834 161.789 203.503 161.499 203.173C160.904 202.499 160.402 201.773 159.94 201.006C159.477 200.253 159.068 199.474 158.658 198.708C158.46 198.324 158.248 197.941 158.037 197.558C157.826 197.175 157.614 196.792 157.416 196.396C157.006 195.616 156.597 194.85 156.2 194.057C155.804 193.278 155.421 192.485 155.038 191.706L154.456 190.53L153.875 189.367Z" fill="#1D2238"/>
<path d="M168.165 197.37C168.112 197.212 168.086 197.053 168.046 196.894C168.02 196.736 167.967 196.564 167.967 196.406C167.941 196.075 167.914 195.745 167.941 195.402C167.967 194.728 168.126 194.067 168.35 193.433C168.575 192.799 168.918 192.204 169.341 191.689C169.764 191.174 170.253 190.698 170.847 190.395C170.477 190.936 170.147 191.478 169.856 192.033C169.566 192.588 169.302 193.142 169.09 193.724C168.879 194.305 168.681 194.886 168.548 195.494C168.456 195.798 168.416 196.102 168.35 196.419C168.284 196.723 168.258 197.04 168.165 197.37Z" fill="#1D2238"/>
<path d="M194.358 195.638L186.496 192.348C186.007 192.15 185.888 191.503 186.285 191.146L206.579 172.346C206.936 172.016 207.504 172.122 207.729 172.558L212.023 181.079C212.182 181.409 212.102 181.792 211.825 182.03L195.362 195.492C195.084 195.73 194.688 195.783 194.358 195.638Z" fill="#4A4E60"/>
<path d="M184.733 206.338C184.6 205.532 184.495 204.726 184.402 203.907C184.349 203.497 184.31 203.101 184.27 202.691C184.23 202.282 184.191 201.885 184.151 201.476C184.072 200.67 184.006 199.851 183.953 199.045C183.913 198.635 183.9 198.226 183.874 197.83C183.847 197.42 183.821 197.01 183.794 196.614L183.781 196.456L183.913 196.389C184.31 196.178 184.706 195.954 185.116 195.742C185.512 195.531 185.922 195.306 186.318 195.108C186.728 194.897 187.124 194.685 187.534 194.487C187.943 194.289 188.353 194.091 188.762 193.893C188.392 194.157 188.009 194.408 187.626 194.659C187.243 194.91 186.86 195.148 186.477 195.399C186.093 195.65 185.71 195.874 185.314 196.112C184.931 196.35 184.534 196.574 184.151 196.812L184.27 196.588C184.31 196.997 184.336 197.394 184.376 197.803C184.402 198.213 184.442 198.609 184.468 199.019C184.521 199.838 184.574 200.644 184.614 201.463C184.64 201.872 184.653 202.282 184.667 202.678C184.68 203.088 184.693 203.497 184.706 203.907C184.746 204.713 184.746 205.518 184.733 206.338Z" fill="#1D2238"/>
<path d="M204.524 189.259C204.498 189.061 204.432 188.849 204.392 188.664C204.286 188.255 204.194 187.845 204.088 187.436C203.956 186.868 203.811 186.299 203.678 185.731C203.533 185.15 202.952 184.793 202.384 184.939C201.802 185.084 201.445 185.665 201.591 186.233L201.63 186.392C201.379 186.181 201.023 186.075 200.679 186.167C200.098 186.313 199.741 186.894 199.886 187.462C199.926 187.647 199.979 187.819 200.018 188.004C199.992 187.951 199.939 187.898 199.9 187.872C199.556 187.634 198.975 187.687 198.75 188.07C198.618 188.294 198.658 188.559 198.671 188.81C198.75 189.946 198.922 191.095 199.041 192.231L196.953 194.173L197.429 194.913C197.865 194.768 198.261 194.675 198.697 194.53C199.265 194.332 199.86 194.173 200.415 193.922C200.864 193.724 201.234 193.447 201.604 193.13C202.304 192.522 202.938 191.835 203.546 191.135C203.824 190.804 204.101 190.487 204.352 190.144C204.564 189.893 204.577 189.576 204.524 189.259Z" fill="#EB9481"/>
<path d="M199.038 192.244C199.038 192.244 198.8 193.143 199.249 193.803C199.249 193.803 198.47 193.618 198.747 192.522L199.038 192.244Z" fill="#1D2238"/>
<path d="M201.633 186.402C201.923 186.64 202.161 186.957 202.28 187.34C202.399 187.697 202.492 188.067 202.584 188.437C202.677 188.807 202.756 189.177 202.835 189.547L202.954 190.101C202.981 190.286 203.02 190.471 203.047 190.656C202.994 190.471 202.941 190.3 202.888 190.115L202.743 189.573C202.637 189.203 202.558 188.846 202.465 188.477L202.201 187.38C202.161 187.195 202.082 187.023 201.99 186.865C201.884 186.693 201.765 186.548 201.633 186.402Z" fill="#1D2238"/>
<path d="M200.016 188.018C200.293 188.189 200.557 188.454 200.65 188.797C200.742 189.127 200.808 189.444 200.888 189.775C200.954 190.105 201.02 190.435 201.073 190.766L201.152 191.268C201.178 191.439 201.205 191.598 201.218 191.77C201.178 191.611 201.139 191.439 201.086 191.281L200.967 190.792C200.888 190.462 200.822 190.131 200.756 189.814C200.69 189.484 200.623 189.154 200.557 188.837C200.531 188.678 200.452 188.533 200.359 188.401C200.253 188.255 200.148 188.136 200.016 188.018Z" fill="#1D2238"/>
<path d="M187.43 191.054C188.209 190.288 189.002 189.548 189.795 188.795C190.588 188.042 191.38 187.302 192.173 186.549L194.565 184.329L196.969 182.123C198.581 180.657 200.193 179.19 201.818 177.737L203.034 176.64L204.263 175.557C205.082 174.831 205.901 174.117 206.72 173.39L206.918 173.219L207.037 173.443L207.962 175.293L208.887 177.142L209.799 179.005C210.103 179.626 210.407 180.247 210.697 180.868C210.354 180.274 210.01 179.666 209.68 179.071L208.676 177.261L207.672 175.451L206.681 173.642L206.998 173.694C206.205 174.434 205.399 175.174 204.593 175.914L203.391 177.024L202.175 178.12C200.563 179.573 198.938 181.027 197.313 182.48L194.868 184.646L192.411 186.8C191.592 187.513 190.759 188.227 189.927 188.94C189.094 189.64 188.262 190.354 187.43 191.054Z" fill="#1D2238"/>
<path d="M129.922 121.886C129.153 121.002 129.268 119.655 130.192 118.886L148.194 103.807C149.079 103.038 150.425 103.153 151.194 104.076C151.964 104.961 152.541 105.692 151.617 106.461L132.923 122.156C132 122.887 130.653 122.771 129.922 121.886Z" fill="#65BEFF"/>
<path d="M129.18 121.115L130.064 122.038L130.911 122.269L130.641 120.846L129.18 121.115Z" fill="#65BEFF"/>
<path d="M165.457 73.3772C155.302 71.8 145.801 78.7625 144.262 88.9177C142.685 99.0729 149.647 108.536 159.802 110.113C169.958 111.69 179.459 104.727 180.998 94.6107C182.536 84.4171 175.612 74.9158 165.457 73.3772ZM160.226 107.228C151.648 105.92 145.762 97.8804 147.108 89.3023C148.416 80.7627 156.456 74.8774 165.034 76.1852C173.612 77.5316 179.497 85.5326 178.151 94.1107C176.805 102.689 168.804 108.574 160.226 107.228Z" fill="#65BEFF"/>
<g opacity="0.49">
<path opacity="0.49" d="M166.637 107.035C175.492 104.318 180.468 94.9372 177.752 86.0821C175.035 77.227 165.654 72.2509 156.799 74.9677C147.944 77.6844 142.968 87.0652 145.685 95.9202C148.401 104.775 157.782 109.751 166.637 107.035Z" fill="white"/>
</g>
<path d="M164.574 72.6857C154.419 71.1086 144.918 78.0711 143.379 88.2263C141.802 98.3815 148.764 107.844 158.92 109.421C169.075 110.999 178.576 104.036 180.115 93.9193C181.653 83.7257 174.729 74.2629 164.574 72.6857ZM159.343 106.575C150.765 105.267 144.879 97.2275 146.226 88.6494C147.534 80.0713 155.573 74.1859 164.151 75.5323C172.729 76.8786 178.615 84.8797 177.268 93.4577C175.922 101.997 167.921 107.883 159.343 106.575Z" fill="#8CCEFF"/>
<path d="M129.188 121.115C128.419 120.23 128.534 118.884 129.457 118.115L147.46 103.036C148.344 102.266 149.691 102.382 150.46 103.305C151.229 104.19 151.114 105.536 150.191 106.305L132.188 121.384C131.265 122.115 129.957 122 129.188 121.115Z" fill="#8CCEFF"/>
<path d="M153.957 80.9557C153.919 80.9557 153.88 80.9557 153.88 80.9172C153.842 80.8787 153.842 80.8018 153.88 80.7633C153.919 80.7249 158.804 75.8011 165.536 78.6092C165.613 78.6477 165.613 78.6861 165.613 78.7631C165.574 78.84 165.536 78.84 165.459 78.84C158.843 76.0704 154.073 80.8787 154.034 80.9172C153.996 80.9557 153.996 80.9557 153.957 80.9557Z" fill="white"/>
<g clip-path="url(#clip0_899_147723)">
<path d="M493.402 138.48C493.402 151.313 482.971 161.744 470.138 161.744C457.305 161.744 446.938 151.313 446.938 138.48C446.938 125.647 457.305 115.279 470.138 115.279C474.184 115.279 477.977 116.291 481.328 118.124C487.713 121.601 492.264 128.049 493.213 135.635C493.339 136.584 493.402 137.532 493.402 138.48Z" fill="#F3D03E"/>
<path d="M493.214 135.634L470.203 138.542L481.329 118.123C487.714 121.663 492.266 128.048 493.214 135.634Z" fill="#FAECB2"/>
</g>
<defs>
<clipPath id="clip0_899_147723">
<rect width="46.4649" height="46.4649" fill="white" transform="translate(446.938 115.279)"/>
</clipPath>
</defs>
</svg>
