<svg width="41" height="41" viewBox="0 0 41 41" fill="none" xmlns="http://www.w3.org/2000/svg">
<circle cx="20.5" cy="20.5" r="20.0729" stroke="#E0E0E0" stroke-width="0.854166"/>
<path d="M20.4432 11.0169C21.5338 11 22.6182 11.01 23.7013 11C23.7669 12.2756 24.2257 13.575 25.1594 14.4769C26.0913 15.4012 27.4094 15.8244 28.6919 15.9675V19.3231C27.49 19.2838 26.2825 19.0337 25.1919 18.5163C24.7169 18.3012 24.2744 18.0244 23.8413 17.7413C23.8357 20.1763 23.8513 22.6081 23.8257 25.0331C23.7607 26.1981 23.3763 27.3575 22.6988 28.3175C21.6088 29.9156 19.7169 30.9575 17.7738 30.99C16.5819 31.0581 15.3913 30.7331 14.3757 30.1344C12.6925 29.1419 11.5082 27.325 11.3357 25.375C11.3139 24.962 11.3106 24.5483 11.3257 24.135C11.4757 22.5494 12.26 21.0325 13.4775 20.0006C14.8575 18.7987 16.7907 18.2263 18.6007 18.565C18.6175 19.7994 18.5682 21.0325 18.5682 22.2669C17.7413 21.9994 16.775 22.0744 16.0525 22.5763C15.5239 22.9245 15.1245 23.4368 14.9157 24.0344C14.7432 24.4569 14.7925 24.9263 14.8025 25.375C15.0007 26.7425 16.3157 27.8919 17.7194 27.7675C18.65 27.7575 19.5419 27.2175 20.0269 26.4269C20.1838 26.15 20.3594 25.8669 20.3688 25.5413C20.4507 24.0506 20.4182 22.5662 20.4282 21.0756C20.435 17.7163 20.4182 14.3662 20.4438 11.0175L20.4432 11.0169Z" fill="#3C4467"/>
</svg>
