<svg width="636" height="354" viewBox="0 0 636 354" fill="none" xmlns="http://www.w3.org/2000/svg">
<path d="M484.001 319.706C492.664 312.995 500.334 305.221 506.087 295.853C517.725 276.851 519.048 250.008 504.17 233.464C487.638 215.06 459.204 215.591 434.671 218.05C410.138 220.508 382.167 222.435 364.115 205.559C349.368 191.805 346.26 169.813 344.74 149.681C343.219 129.549 341.962 107.823 329.464 92.0095C312.602 70.6817 278.746 68.1569 255.932 82.7741C233.119 97.4577 221.216 125.563 220.952 152.737C220.819 164.365 221.547 178.384 211.958 184.962C204.354 190.211 193.84 187.619 185.64 183.367C177.441 179.115 169.704 173.201 160.578 171.939C148.411 170.278 136.244 177.719 129.499 188.018C122.754 198.316 120.44 210.94 120.043 223.299C118.985 258.38 132.276 293.328 155.222 319.639H484.001V319.706Z" fill="#FEF1F2"/>
<g clip-path="url(#clip0_902_149103)">
<path d="M569.004 317.43C569.004 318.947 554.594 320.188 536.873 320.188C519.153 320.188 504.742 318.947 504.742 317.43C504.742 315.913 519.153 314.672 536.873 314.672C554.594 314.672 569.004 315.913 569.004 317.43Z" fill="#FCA338"/>
<path d="M569.004 311.295H504.742V317.432H569.004V311.295Z" fill="#FCA338"/>
<path d="M536.873 314.051C554.619 314.051 569.004 312.816 569.004 311.293C569.004 309.77 554.619 308.535 536.873 308.535C519.128 308.535 504.742 309.77 504.742 311.293C504.742 312.816 519.128 314.051 536.873 314.051Z" fill="#FFB655"/>
<path d="M569.004 310.604C569.004 312.121 554.594 313.362 536.873 313.362C519.153 313.362 504.742 312.121 504.742 310.604C504.742 309.087 519.153 307.846 536.873 307.846C554.594 307.915 569.004 309.087 569.004 310.604Z" fill="#FCA338"/>
<path d="M569.004 304.537H504.742V310.674H569.004V304.537Z" fill="#FCA338"/>
<path d="M536.873 307.293C554.619 307.293 569.004 306.059 569.004 304.535C569.004 303.012 554.619 301.777 536.873 301.777C519.128 301.777 504.742 303.012 504.742 304.535C504.742 306.059 519.128 307.293 536.873 307.293Z" fill="#FFB655"/>
</g>
<g clip-path="url(#clip1_902_149103)">
<path d="M121.322 319.707C133.481 319.707 143.339 318.861 143.339 317.818C143.339 316.774 133.481 315.928 121.322 315.928C109.162 315.928 99.3047 316.774 99.3047 317.818C99.3047 318.861 109.162 319.707 121.322 319.707Z" fill="#FCA338"/>
<path d="M143.339 313.611H99.3047V317.816H143.339V313.611Z" fill="#FCA338"/>
<path d="M143.339 313.611C143.339 314.65 133.464 315.5 121.322 315.5C109.179 315.5 99.3047 314.65 99.3047 313.611C99.3047 312.571 109.179 311.721 121.322 311.721C133.464 311.721 143.339 312.571 143.339 313.611Z" fill="#FFB655"/>
<path d="M127.138 316.684C126.855 316.684 126.666 316.684 126.666 316.684C126.571 316.684 126.477 316.59 126.477 316.495C126.477 316.401 126.571 316.306 126.666 316.306C126.666 316.306 126.855 316.306 127.138 316.306C128.744 316.306 133.894 316.259 137.816 315.881C137.91 315.881 138.005 315.928 138.005 316.023C138.005 316.117 137.958 316.212 137.863 316.212C133.942 316.684 128.744 316.684 127.138 316.684Z" fill="#F2871C"/>
<path d="M121.322 315.079C133.481 315.079 143.339 314.232 143.339 313.189C143.339 312.145 133.481 311.299 121.322 311.299C109.162 311.299 99.3047 312.145 99.3047 313.189C99.3047 314.232 109.162 315.079 121.322 315.079Z" fill="#FCA338"/>
<path d="M143.339 308.98H99.3047V313.185H143.339V308.98Z" fill="#FCA338"/>
<path d="M143.339 308.982C143.339 310.021 133.464 310.872 121.322 310.872C109.179 310.872 99.3047 310.021 99.3047 308.982C99.3047 307.942 109.179 307.092 121.322 307.092C133.464 307.092 143.339 307.942 143.339 308.982Z" fill="#FFB655"/>
<path d="M127.138 312.053C126.855 312.053 126.666 312.053 126.666 312.053C126.571 312.053 126.477 311.959 126.477 311.864C126.477 311.77 126.571 311.675 126.666 311.675C126.666 311.675 126.855 311.675 127.138 311.675C128.697 311.675 133.894 311.628 137.863 311.25C137.958 311.25 138.052 311.297 138.052 311.392C138.052 311.486 138.005 311.581 137.91 311.581C133.942 312.006 128.697 312.053 127.138 312.053Z" fill="#F2871C"/>
<path d="M145.94 308.368C145.94 309.408 136.066 310.258 123.923 310.258C111.781 310.258 101.906 309.408 101.906 308.368C101.906 307.329 111.781 306.479 123.923 306.479C136.113 306.479 145.94 307.329 145.94 308.368Z" fill="#FCA338"/>
<path d="M145.94 304.164H101.906V308.369H145.94V304.164Z" fill="#FCA338"/>
<path d="M123.923 306.053C136.083 306.053 145.94 305.207 145.94 304.163C145.94 303.12 136.083 302.273 123.923 302.273C111.764 302.273 101.906 303.12 101.906 304.163C101.906 305.207 111.764 306.053 123.923 306.053Z" fill="#FFB655"/>
<path d="M129.74 307.235C129.456 307.235 129.267 307.235 129.267 307.235C129.173 307.235 129.078 307.14 129.078 307.046C129.078 306.951 129.173 306.857 129.267 306.857C129.267 306.857 129.456 306.857 129.74 306.857C131.299 306.857 136.496 306.81 140.465 306.432C140.559 306.432 140.654 306.479 140.654 306.573C140.654 306.668 140.606 306.762 140.512 306.762C136.543 307.188 131.346 307.235 129.74 307.235Z" fill="#F2871C"/>
<path d="M145.94 303.689C145.94 304.728 136.066 305.579 123.923 305.579C111.781 305.579 101.906 304.728 101.906 303.689C101.906 302.649 111.781 301.799 123.923 301.799C136.113 301.846 145.94 302.649 145.94 303.689Z" fill="#FCA338"/>
<path d="M145.94 299.533H101.906V303.738H145.94V299.533Z" fill="#FCA338"/>
<path d="M123.923 301.422C136.083 301.422 145.94 300.576 145.94 299.532C145.94 298.489 136.083 297.643 123.923 297.643C111.764 297.643 101.906 298.489 101.906 299.532C101.906 300.576 111.764 301.422 123.923 301.422Z" fill="#FFB655"/>
<path d="M129.74 302.602C129.456 302.602 129.267 302.602 129.267 302.602C129.173 302.602 129.078 302.508 129.078 302.413C129.078 302.319 129.173 302.224 129.267 302.224C129.267 302.224 129.456 302.224 129.74 302.224C131.299 302.224 136.496 302.177 140.465 301.799C140.559 301.799 140.654 301.846 140.654 301.941C140.654 302.035 140.606 302.13 140.512 302.13C136.543 302.555 131.346 302.602 129.74 302.602Z" fill="#F2871C"/>
</g>
<g opacity="0.5">
<path d="M502.124 127.352H446.18C446.074 127.352 445.969 127.246 445.969 127.141C445.969 127.035 446.074 126.93 446.18 126.93H502.124C502.229 126.93 502.334 127.035 502.334 127.141C502.334 127.299 502.229 127.352 502.124 127.352Z" fill="#F599A0"/>
<path d="M496.01 84.4336H484.727V127.196H496.01V84.4336Z" fill="#F599A0"/>
<path d="M479.812 91.6582H475.172V127.197H479.812V91.6582Z" fill="#F599A0"/>
<path d="M471.753 100.463H465.531V127.196H471.753V100.463Z" fill="#F599A0"/>
<path d="M461.729 108.637H451.5V127.144H461.729V108.637Z" fill="#F599A0"/>
<path d="M165.619 120.023C156.392 120.023 148.852 112.483 148.852 103.256C148.852 94.0283 156.339 86.4883 165.619 86.4883C174.846 86.4883 182.386 94.0283 182.386 103.256C182.386 112.483 174.846 120.023 165.619 120.023ZM165.619 87.5428C156.972 87.5428 149.906 94.6083 149.906 103.256C149.906 111.903 156.919 118.968 165.619 118.968C174.266 118.968 181.332 111.903 181.332 103.256C181.332 94.6083 174.266 87.5428 165.619 87.5428Z" fill="#F599A0"/>
<path d="M165.619 117.49C157.763 117.49 151.383 111.11 151.383 103.254C151.383 95.3976 157.763 89.0176 165.619 89.0176C173.476 89.0176 179.856 95.3976 179.856 103.254C179.856 111.11 173.476 117.49 165.619 117.49ZM165.619 89.5449C158.079 89.5449 151.91 95.714 151.91 103.254C151.91 110.794 158.079 116.963 165.619 116.963C173.159 116.963 179.328 110.794 179.328 103.254C179.328 95.714 173.159 89.5449 165.619 89.5449Z" fill="#F599A0"/>
<path d="M173.05 110.216C172.944 110.216 172.892 110.216 172.786 110.163L164.402 105.312C164.139 105.154 164.086 104.891 164.192 104.627L169.253 93.9759C169.359 93.7123 169.675 93.6068 169.939 93.7123C170.202 93.8177 170.308 94.1341 170.202 94.3977L165.352 104.574L173.313 109.161C173.577 109.32 173.63 109.636 173.524 109.9C173.366 110.111 173.208 110.216 173.05 110.216Z" fill="#F599A0"/>
<path d="M141.312 152.66H167.939C171.419 152.66 173.845 148.917 172.157 145.859C170.47 142.8 165.883 142.326 163.405 146.333C164.881 134.364 146.057 129.671 145.319 146.333C142.472 140.164 135.934 143.222 136.566 148.653C136.935 150.973 138.992 152.66 141.312 152.66Z" fill="#F599A0"/>
<path d="M266.194 297.423C265.897 296.272 265.711 295.122 265.6 293.934C265.489 292.746 265.563 291.521 266.045 290.444C266.454 289.479 267.085 288.663 267.753 287.846C269.535 285.544 271.242 283.206 272.913 280.83C273.136 283.02 273.358 285.21 273.284 287.438C273.21 289.071 273.061 290.704 272.467 292.226C271.391 294.75 268.941 296.755 266.194 297.423Z" fill="#F599A0"/>
<path d="M265.522 303.147C265.002 299.25 266.598 295.426 268.269 292.16C268.566 291.603 268.826 291.046 269.123 290.489C270.57 287.668 272.092 284.772 272.612 281.654L272.835 281.691C272.315 284.847 270.793 287.779 269.308 290.6C269.011 291.157 268.751 291.714 268.454 292.271C266.821 295.5 265.225 299.287 265.744 303.11L265.522 303.147Z" fill="#FACCD0"/>
<path d="M261.629 294.458C261.221 292.825 260.293 291.414 259.662 289.855C259.031 288.296 258.548 286.589 258.883 284.918C259.068 283.953 259.514 283.025 259.959 282.134C261.741 278.571 263.523 275.007 265.304 271.443C266.195 273.485 267.198 275.415 267.717 277.568C268.274 279.721 268.423 281.986 267.829 284.102C267.383 285.772 266.455 287.294 265.527 288.779C264.265 290.709 262.929 292.639 261.629 294.458Z" fill="#F599A0"/>
<path d="M262.08 303H261.857C262.006 301.033 261.857 299.028 261.709 297.061C261.56 295.242 261.412 293.311 261.523 291.455C261.709 288.523 262.526 285.627 263.305 282.843C264.307 279.28 265.347 275.605 265.05 271.893H265.272C265.569 275.642 264.53 279.354 263.528 282.918C262.748 285.702 261.932 288.597 261.746 291.492C261.635 293.349 261.783 295.242 261.932 297.061C262.08 298.991 262.229 301.033 262.08 303Z" fill="#FACCD0"/>
<path d="M258.354 296.531C259.022 293.821 259.43 290.852 258.279 288.29C257.5 286.546 256.089 285.172 254.716 283.799C252.6 281.72 250.521 279.678 248.405 277.6C248.145 280.718 248.145 283.836 248.479 286.954C248.665 288.81 248.999 290.703 250.076 292.262C250.967 293.524 252.266 294.453 253.676 295.121C255.124 295.752 256.832 296.086 258.354 296.531Z" fill="#F599A0"/>
<path d="M258.962 302.584H258.739C258.999 299.169 258.331 295.753 256.772 292.672C255.844 290.891 254.656 289.183 253.468 287.587C253.097 287.067 252.689 286.547 252.318 285.991C250.907 283.949 249.385 281.536 248.828 278.789L249.051 278.752C249.608 281.425 251.093 283.838 252.503 285.842C252.874 286.362 253.246 286.881 253.654 287.438C254.842 289.072 256.067 290.742 256.958 292.561C258.554 295.642 259.259 299.131 258.962 302.584Z" fill="#FACCD0"/>
<path d="M266.199 318.734H257.884C257.884 318.734 253.244 309.973 255.656 301.213H268.463C268.686 302.03 268.834 302.846 268.946 303.626C269.02 304.22 269.094 304.777 269.094 305.37C269.465 312.535 266.199 318.734 266.199 318.734Z" fill="#F599A0"/>
<path d="M269.091 305.37L259.031 303.625H268.943C269.017 304.219 269.054 304.813 269.091 305.37Z" fill="#FACCD0"/>
<path d="M412.244 318.738H404.968L399.586 300.697H417.627L412.244 318.738Z" fill="#F599A0"/>
<path d="M416.841 303.258H405.445L416.099 305.782L416.841 303.258Z" fill="#FACCD0"/>
<path d="M404.819 300.701H400.291C397.173 294.688 395.465 287.895 395.094 281.139C397.581 283.997 399.474 287.301 400.996 290.753C402.407 294.02 403.706 297.323 404.819 300.701Z" fill="#F599A0"/>
<path d="M409.649 300.702H404.934C403.561 291.941 404.675 282.883 407.644 274.531C409.5 283.106 410.354 291.978 409.649 300.702Z" fill="#F599A0"/>
<path d="M419.114 280.91C418.372 287.74 416.59 294.534 413.583 300.696H409.648C410.762 293.383 414.214 286.441 419.114 280.91Z" fill="#F599A0"/>
<path d="M423.89 290.6C422.294 294.349 419.992 297.764 417.134 300.697H413.57C415.872 296.428 419.584 292.901 423.89 290.6Z" fill="#F599A0"/>
<path d="M417.635 300.846H399.594C399.52 300.846 399.445 300.772 399.445 300.697C399.445 300.623 399.52 300.549 399.594 300.549H417.635C417.709 300.549 417.783 300.623 417.783 300.697C417.746 300.772 417.709 300.846 417.635 300.846Z" fill="#FACCD0"/>
<path d="M323.144 278.256V276.103H322.104C321.993 275.732 321.882 275.398 321.696 275.101L322.438 274.358L320.917 272.836L320.174 273.579C319.877 273.393 319.506 273.244 319.172 273.17V272.131H317.019V273.17C316.648 273.282 316.314 273.393 316.017 273.579L315.274 272.836L313.752 274.358L314.495 275.101C314.309 275.398 314.161 275.769 314.086 276.103H313.047V278.256H314.086C314.198 278.627 314.309 278.961 314.495 279.258L313.752 280L315.274 281.522L316.017 280.78C316.351 280.966 316.685 281.114 317.019 281.188V282.265H319.172V281.188C319.543 281.077 319.877 280.966 320.174 280.78L320.917 281.522L322.438 280L321.696 279.258C321.882 278.961 322.03 278.59 322.104 278.256H323.144ZM320.879 277.179C320.879 278.738 319.617 280 318.058 280C316.499 280 315.237 278.738 315.237 277.179C315.237 275.62 316.499 274.358 318.058 274.358C319.617 274.358 320.879 275.62 320.879 277.179Z" fill="#F599A0"/>
<path d="M503.92 161.626V158.251H502.285C502.127 157.671 501.916 157.144 501.652 156.669L502.813 155.509L500.44 153.137L499.28 154.297C498.805 154.033 498.278 153.769 497.698 153.664V152.029H494.323V153.664C493.743 153.822 493.216 154.033 492.742 154.297L491.582 153.137L489.209 155.509L490.369 156.669C490.105 157.144 489.842 157.671 489.736 158.251H488.102V161.626H489.736C489.894 162.206 490.105 162.733 490.369 163.208L489.209 164.368L491.582 166.74L492.742 165.58C493.216 165.844 493.743 166.108 494.323 166.213V167.848H497.698V166.213C498.278 166.055 498.805 165.844 499.28 165.58L500.44 166.74L502.813 164.368L501.652 163.208C501.916 162.733 502.18 162.206 502.285 161.626H503.92ZM500.387 159.938C500.387 162.364 498.436 164.315 496.011 164.315C493.585 164.315 491.634 162.364 491.634 159.938C491.634 157.513 493.585 155.562 496.011 155.562C498.436 155.509 500.387 157.513 500.387 159.938Z" fill="#F599A0"/>
<path d="M154.129 249.786V246.411H152.494C152.336 245.831 152.125 245.304 151.861 244.829L153.022 243.669L150.649 241.297L149.489 242.457C149.014 242.193 148.487 241.929 147.907 241.824V240.189H144.532V241.824C143.952 241.982 143.425 242.193 142.951 242.457L141.791 241.297L139.418 243.669L140.578 244.829C140.314 245.304 140.051 245.831 139.945 246.411H138.258V249.786H139.892C140.051 250.366 140.261 250.893 140.525 251.368L139.365 252.528L141.738 254.9L142.898 253.74C143.372 254.004 143.9 254.268 144.48 254.373V256.008H147.854V254.373C148.434 254.215 148.961 254.004 149.436 253.74L150.596 254.9L152.969 252.528L151.809 251.368C152.072 250.893 152.336 250.366 152.441 249.786H154.129ZM150.596 248.151C150.596 250.577 148.645 252.528 146.22 252.528C143.794 252.528 141.843 250.577 141.843 248.151C141.843 245.726 143.794 243.775 146.22 243.775C148.645 243.722 150.596 245.726 150.596 248.151Z" fill="#F599A0"/>
<path d="M343.187 289.724V285.864H341.294C341.109 285.195 340.849 284.601 340.552 284.045L341.888 282.708L339.141 279.961L337.805 281.298C337.248 280.964 336.617 280.704 335.986 280.555V278.662H332.125V280.555C331.457 280.741 330.863 281.001 330.269 281.335L328.933 279.998L326.186 282.745L327.522 284.082C327.188 284.639 326.928 285.27 326.78 285.901H324.812V289.761H326.706C326.891 290.429 327.151 291.023 327.448 291.58L326.112 292.917L328.859 295.664L330.195 294.327C330.752 294.661 331.383 294.921 332.051 295.107V297.037H335.949V295.107C336.617 294.921 337.211 294.661 337.768 294.364L339.104 295.701L341.851 292.954L340.515 291.617C340.849 291.061 341.109 290.429 341.257 289.798H343.187V289.724ZM339.067 287.757C339.067 290.578 336.803 292.842 333.981 292.842C331.16 292.842 328.896 290.578 328.896 287.757C328.896 284.936 331.197 282.671 333.981 282.671C336.803 282.671 339.067 284.973 339.067 287.757Z" fill="#F599A0"/>
<path d="M487.787 258.434C486.89 258.223 486.047 257.854 485.361 257.274L485.994 256.43C486.574 256.905 487.259 257.221 487.997 257.379L487.787 258.434ZM490.476 258.434L490.265 257.432C491.003 257.274 491.688 256.905 492.268 256.483L492.901 257.327C492.216 257.854 491.372 258.223 490.476 258.434ZM483.674 255.165C483.252 254.321 483.094 253.478 483.094 252.529H484.148C484.148 253.267 484.306 254.005 484.623 254.69L483.674 255.165ZM494.588 255.165L493.639 254.69C493.956 254.005 494.114 253.267 494.114 252.529H495.168C495.221 253.425 495.01 254.321 494.588 255.165ZM484.623 250.367L483.674 249.892C484.043 249.101 484.623 248.363 485.361 247.783L486.047 248.627C485.414 249.101 484.939 249.681 484.623 250.367ZM493.639 250.314C493.323 249.629 492.848 249.048 492.216 248.574L492.848 247.73C493.534 248.31 494.167 248.996 494.536 249.839L493.639 250.314ZM487.997 247.625L487.787 246.623C488.208 246.518 488.683 246.465 489.157 246.465C489.579 246.465 490.054 246.518 490.476 246.623L490.265 247.678C489.896 247.572 489.527 247.572 489.157 247.572C488.736 247.519 488.367 247.572 487.997 247.625Z" fill="#F599A0"/>
<path d="M298.23 87.1742C297.333 86.9633 296.49 86.5942 295.804 86.0142L296.437 85.1706C297.017 85.6451 297.703 85.9615 298.441 86.1197L298.23 87.1742ZM300.919 87.1742L300.708 86.1197C301.446 85.9615 302.132 85.5924 302.712 85.1706L303.344 86.0142C302.606 86.5942 301.763 87.016 300.919 87.1742ZM294.064 83.9051C293.643 83.0615 293.484 82.2178 293.484 81.2687H294.539C294.539 82.0069 294.697 82.7451 295.013 83.4306L294.064 83.9051ZM305.032 83.9051L304.083 83.4306C304.399 82.7451 304.557 82.0069 304.557 81.2687H305.612C305.612 82.2178 305.401 83.0615 305.032 83.9051ZM295.013 79.1069L294.064 78.6324C294.433 77.8415 295.013 77.1033 295.752 76.5233L296.437 77.3669C295.804 77.8415 295.33 78.4215 295.013 79.1069ZM304.083 79.1069C303.766 78.4215 303.292 77.8415 302.659 77.3669L303.292 76.5233C303.977 77.1033 304.61 77.7887 304.979 78.6324L304.083 79.1069ZM298.441 76.3651L298.23 75.3633C299.126 75.1524 300.023 75.1524 300.919 75.3633L300.708 76.4178C299.917 76.2069 299.126 76.2069 298.441 76.3651Z" fill="#F599A0"/>
<path d="M502.601 274.09H501.547V279.415H502.601V274.09Z" fill="#F599A0"/>
<path d="M504.755 276.199H499.43V277.254H504.755V276.199Z" fill="#F599A0"/>
<path d="M204.742 84.4336H203.688V89.7591H204.742V84.4336Z" fill="#F599A0"/>
<path d="M206.904 86.543H201.578V87.5975H206.904V86.543Z" fill="#F599A0"/>
<path d="M438.531 81.7402H437.477V87.0657H438.531V81.7402Z" fill="#F599A0"/>
<path d="M440.7 83.9023H435.375V84.9569H440.7V83.9023Z" fill="#F599A0"/>
<path d="M153.383 274.09H152.328V279.415H153.383V274.09Z" fill="#F599A0"/>
<path d="M155.552 276.199H150.227V277.254H155.552V276.199Z" fill="#F599A0"/>
<path d="M502.075 319.016H138.256C138.098 319.016 137.992 318.91 137.992 318.752C137.992 318.594 138.098 318.488 138.256 318.488H502.075C502.234 318.488 502.339 318.594 502.339 318.752C502.339 318.91 502.234 319.016 502.075 319.016Z" fill="#FACCD0"/>
</g>
<path d="M428.313 255.386H230.209C227.43 255.386 225.156 253.119 225.156 250.347V117.098C225.156 114.326 227.43 112.059 230.209 112.059H428.313C431.092 112.059 433.366 114.326 433.366 117.098V250.347C433.366 253.119 431.092 255.386 428.313 255.386Z" fill="white"/>
<path d="M433.366 117.098V122.793H225.156V117.098C225.156 114.326 227.43 112.059 230.209 112.059H428.313C431.092 112.059 433.366 114.326 433.366 117.098Z" fill="#2C2F37"/>
<path d="M238.313 112.059H236.797C236.797 108.682 239.525 105.961 242.91 105.961V107.473C240.384 107.473 238.313 109.539 238.313 112.059Z" fill="#5B5D63"/>
<path d="M242.961 118.207C242.557 118.207 242.203 117.855 242.203 117.451C242.203 117.048 242.557 116.695 242.961 116.695C245.487 116.695 247.559 114.629 247.559 112.109C247.559 109.589 245.487 107.473 242.961 107.473C242.557 107.473 242.203 107.12 242.203 106.717C242.203 106.314 242.557 105.961 242.961 105.961C246.346 105.961 249.074 108.682 249.074 112.059C249.074 115.435 246.296 118.207 242.961 118.207Z" fill="#5B5D63"/>
<path d="M255.578 112.059H254.062C254.062 108.682 256.791 105.961 260.176 105.961V107.473C257.65 107.473 255.578 109.539 255.578 112.059Z" fill="#5B5D63"/>
<path d="M260.172 118.207C259.768 118.207 259.414 117.855 259.414 117.451C259.414 117.048 259.768 116.695 260.172 116.695C262.698 116.695 264.77 114.629 264.77 112.109C264.77 109.589 262.749 107.473 260.172 107.473C259.768 107.473 259.414 107.12 259.414 106.717C259.414 106.314 259.768 105.961 260.172 105.961C263.557 105.961 266.285 108.682 266.285 112.059C266.336 115.435 263.557 118.207 260.172 118.207Z" fill="#5B5D63"/>
<path d="M272.867 112.059H271.352C271.352 108.682 274.08 105.961 277.465 105.961V107.473C274.939 107.473 272.867 109.539 272.867 112.059Z" fill="#5B5D63"/>
<path d="M277.469 118.207C277.065 118.207 276.711 117.855 276.711 117.451C276.711 117.048 277.065 116.695 277.469 116.695C279.995 116.695 282.066 114.629 282.066 112.109C282.066 109.589 279.995 107.473 277.469 107.473C277.065 107.473 276.711 107.12 276.711 106.717C276.711 106.314 277.065 105.961 277.469 105.961C280.854 105.961 283.582 108.682 283.582 112.059C283.582 115.435 280.854 118.207 277.469 118.207Z" fill="#5B5D63"/>
<path d="M290.149 112.059H288.633C288.633 108.682 291.361 105.961 294.746 105.961V107.473C292.22 107.473 290.149 109.539 290.149 112.059Z" fill="#5B5D63"/>
<path d="M294.742 118.207C294.338 118.207 293.984 117.855 293.984 117.451C293.984 117.048 294.338 116.695 294.742 116.695C297.268 116.695 299.34 114.629 299.34 112.109C299.34 109.589 297.268 107.473 294.742 107.473C294.338 107.473 293.984 107.12 293.984 106.717C293.984 106.314 294.338 105.961 294.742 105.961C298.127 105.961 300.856 108.682 300.856 112.059C300.856 115.435 298.127 118.207 294.742 118.207Z" fill="#5B5D63"/>
<path d="M307.375 112.059H305.859C305.859 108.682 308.638 105.961 312.023 105.961V107.473C309.447 107.473 307.375 109.539 307.375 112.059Z" fill="#5B5D63"/>
<path d="M312.023 118.207C311.619 118.207 311.266 117.855 311.266 117.451C311.266 117.048 311.619 116.695 312.023 116.695C314.55 116.695 316.621 114.629 316.621 112.109C316.621 109.589 314.55 107.473 312.023 107.473C311.619 107.473 311.266 107.12 311.266 106.717C311.266 106.314 311.619 105.961 312.023 105.961C315.409 105.961 318.137 108.682 318.137 112.059C318.137 115.435 315.409 118.207 312.023 118.207Z" fill="#5B5D63"/>
<path d="M324.649 112.059H323.133C323.133 108.682 325.861 105.961 329.246 105.961V107.473C326.72 107.473 324.649 109.539 324.649 112.059Z" fill="#5B5D63"/>
<path d="M329.25 118.207C328.846 118.207 328.492 117.855 328.492 117.451C328.492 117.048 328.846 116.695 329.25 116.695C331.776 116.695 333.848 114.629 333.848 112.109C333.848 109.589 331.827 107.473 329.25 107.473C328.846 107.473 328.492 107.12 328.492 106.717C328.492 106.314 328.846 105.961 329.25 105.961C332.635 105.961 335.363 108.682 335.363 112.059C335.414 115.435 332.635 118.207 329.25 118.207Z" fill="#5B5D63"/>
<path d="M341.922 112.059H340.406C340.406 108.682 343.135 105.961 346.52 105.961V107.473C343.993 107.473 341.922 109.539 341.922 112.059Z" fill="#5B5D63"/>
<path d="M346.523 118.207C346.119 118.207 345.766 117.855 345.766 117.451C345.766 117.048 346.119 116.695 346.523 116.695C349.05 116.695 351.121 114.629 351.121 112.109C351.121 109.589 349.1 107.473 346.523 107.473C346.119 107.473 345.766 107.12 345.766 106.717C345.766 106.314 346.119 105.961 346.523 105.961C349.909 105.961 352.637 108.682 352.637 112.059C352.687 115.435 349.909 118.207 346.523 118.207Z" fill="#5B5D63"/>
<path d="M359.219 112.059H357.703C357.703 108.682 360.431 105.961 363.817 105.961V107.473C361.29 107.473 359.219 109.539 359.219 112.059Z" fill="#5B5D63"/>
<path d="M363.82 118.207C363.416 118.207 363.062 117.855 363.062 117.451C363.062 117.048 363.416 116.695 363.82 116.695C366.347 116.695 368.418 114.629 368.418 112.109C368.418 109.589 366.347 107.473 363.82 107.473C363.416 107.473 363.062 107.12 363.062 106.717C363.062 106.314 363.416 105.961 363.82 105.961C367.205 105.961 369.934 108.682 369.934 112.059C369.934 115.435 367.205 118.207 363.82 118.207Z" fill="#5B5D63"/>
<path d="M376.438 112.059H374.922C374.922 108.682 377.65 105.961 381.035 105.961V107.473C378.509 107.473 376.438 109.539 376.438 112.059Z" fill="#5B5D63"/>
<path d="M381.086 118.207C380.682 118.207 380.328 117.855 380.328 117.451C380.328 117.048 380.682 116.695 381.086 116.695C383.612 116.695 385.684 114.629 385.684 112.109C385.684 109.589 383.612 107.473 381.086 107.473C380.682 107.473 380.328 107.12 380.328 106.717C380.328 106.314 380.682 105.961 381.086 105.961C384.471 105.961 387.199 108.682 387.199 112.059C387.199 115.435 384.471 118.207 381.086 118.207Z" fill="#5B5D63"/>
<path d="M393.719 112.059H392.203C392.203 108.682 394.982 105.961 398.317 105.961V107.473C395.79 107.473 393.719 109.539 393.719 112.059Z" fill="#5B5D63"/>
<path d="M398.32 118.207C397.916 118.207 397.562 117.855 397.562 117.451C397.562 117.048 397.916 116.695 398.32 116.695C400.847 116.695 402.918 114.629 402.918 112.109C402.918 109.589 400.897 107.473 398.32 107.473C397.916 107.473 397.562 107.12 397.562 106.717C397.562 106.314 397.916 105.961 398.32 105.961C401.705 105.961 404.434 108.682 404.434 112.059C404.484 115.435 401.705 118.207 398.32 118.207Z" fill="#5B5D63"/>
<path d="M411.008 112.059H409.492C409.492 108.682 412.22 105.961 415.606 105.961V107.473C413.079 107.473 411.008 109.539 411.008 112.059Z" fill="#5B5D63"/>
<path d="M415.602 118.207C415.197 118.207 414.844 117.855 414.844 117.451C414.844 117.048 415.197 116.695 415.602 116.695C418.128 116.695 420.199 114.629 420.199 112.109C420.199 109.589 418.178 107.473 415.602 107.473C415.197 107.473 414.844 107.12 414.844 106.717C414.844 106.314 415.197 105.961 415.602 105.961C418.987 105.961 421.715 108.682 421.715 112.059C421.766 115.435 418.987 118.207 415.602 118.207Z" fill="#5B5D63"/>
<path d="M320.62 130.449V157.462H293.539C293.539 142.544 305.665 130.449 320.62 130.449Z" fill="#1DBF73"/>
<path d="M347.682 157.462C347.682 164.92 344.651 171.673 339.75 176.562L320.602 157.462L339.75 138.361C344.651 143.25 347.682 150.003 347.682 157.462Z" fill="#EBB044"/>
<path d="M339.75 138.361L320.602 157.462V130.449C328.079 130.449 334.849 133.473 339.75 138.361Z" fill="#D82F3C"/>
<path d="M339.769 176.561C334.868 181.45 328.097 184.474 320.62 184.474C305.665 184.474 293.539 172.378 293.539 157.461H320.62L339.769 176.561Z" fill="#2F83BF"/>
<path d="M370.733 134.534C373.108 134.534 375.28 135.39 376.948 136.802L379.727 133.576C377.301 131.51 374.169 130.25 370.733 130.25C368.157 130.25 365.731 130.956 363.609 132.215L365.782 135.844C367.247 135.038 368.914 134.534 370.733 134.534Z" fill="#D82F3C"/>
<path d="M377.35 151.015C375.632 152.628 373.308 153.636 370.731 153.636C367.093 153.636 363.91 151.62 362.293 148.646L358.555 150.662C360.879 154.946 365.476 157.919 370.731 157.919C374.419 157.919 377.804 156.458 380.28 154.089L377.35 151.015Z" fill="#1DBF73"/>
<path d="M384.574 144.111C384.574 148.042 382.907 151.62 380.28 154.09L377.349 151.015C379.168 149.251 380.33 146.832 380.33 144.061C380.33 141.138 379.017 138.517 376.945 136.804L379.724 133.578C382.705 136.148 384.574 139.878 384.574 144.111Z" fill="#65BEFF"/>
<path d="M361.127 144.109C361.127 145.772 361.531 147.334 362.289 148.695L358.55 150.711C357.489 148.745 356.883 146.528 356.883 144.109C356.883 139.069 359.561 134.685 363.653 132.266L365.826 135.894C362.996 137.557 361.127 140.581 361.127 144.109Z" fill="#D82F3C"/>
<path d="M408.679 134.276C411.053 134.276 413.226 135.133 414.893 136.544L417.672 133.318C415.247 131.252 412.114 129.992 408.679 129.992C406.102 129.992 403.677 130.698 401.555 131.958L403.727 135.586C405.192 134.78 406.86 134.276 408.679 134.276Z" fill="#1DBF73"/>
<path d="M415.295 150.757C413.577 152.37 411.253 153.378 408.676 153.378C405.039 153.378 401.856 151.362 400.239 148.389L396.5 150.405C398.824 154.688 403.422 157.662 408.676 157.662C412.365 157.662 415.75 156.2 418.225 153.832L415.295 150.757Z" fill="#D82F3C"/>
<path d="M422.528 143.853C422.528 147.784 420.86 151.362 418.233 153.832L415.303 150.758C417.121 148.994 418.284 146.575 418.284 143.803C418.284 140.88 416.97 138.259 414.898 136.546L417.677 133.32C420.608 135.891 422.528 139.62 422.528 143.853Z" fill="#EBB044"/>
<path d="M399.096 143.857C399.096 145.52 399.5 147.082 400.258 148.443L396.519 150.459C395.458 148.493 394.852 146.276 394.852 143.857C394.852 138.817 397.529 134.433 401.622 132.014L403.794 135.642C400.965 137.305 399.096 140.329 399.096 143.857Z" fill="#EBB044"/>
<path d="M238.242 153.28V244.347H313.018V205.844C313.22 202.77 311.957 199.494 309.683 197.377C307.46 195.26 304.227 194.152 301.145 194.505C297.81 194.908 294.88 196.823 291.899 198.335C288.918 199.847 285.381 201.056 282.249 199.897C278.358 198.486 276.438 194.001 276.337 189.868C276.186 185.736 277.348 181.704 277.499 177.571C277.904 168.45 273.003 159.277 265.222 154.439C257.441 149.652 247.387 153.28 238.242 153.28Z" fill="#FEF1F2"/>
<path d="M319.981 244.092H234.242V244.596H319.981V244.092Z" fill="#A4ACE3"/>
<path d="M319.031 245.198L319.89 244.341L319.031 243.484H319.739L320.597 244.341L319.739 245.198H319.031Z" fill="#A4ACE3"/>
<path d="M238.497 142.49H237.992V248.777H238.497V142.49Z" fill="#A4ACE3"/>
<path d="M239.101 143.496L238.242 142.639L237.383 143.496V142.79L238.242 141.934L239.101 142.79V143.496Z" fill="#A4ACE3"/>
<path d="M252.693 146.373H252.188V244.344H252.693V146.373Z" fill="#A4ACE3"/>
<path d="M266.997 151.264H266.492V244.346H266.997V151.264Z" fill="#A4ACE3"/>
<path d="M281.255 190.121H280.75V244.398H281.255V190.121Z" fill="#A4ACE3"/>
<path d="M295.482 191.529H294.977V244.345H295.482V191.529Z" fill="#A4ACE3"/>
<path d="M309.732 193.342H309.227V244.394H309.732V193.342Z" fill="#A4ACE3"/>
<path d="M424.005 214.313H326.039V213.809H423.5V160.59H424.005V214.313Z" fill="#A4ACE3"/>
<path d="M422.898 161.599L423.757 160.742L424.616 161.599V160.843L423.757 159.986L422.898 160.843V161.599Z" fill="#A4ACE3"/>
<path d="M327.062 213.199L326.203 214.056L327.062 214.913H326.304L325.445 214.056L326.304 213.199H327.062Z" fill="#A4ACE3"/>
<path d="M328.506 205.087L328.203 204.684L344.169 192.186C344.27 192.135 344.371 192.135 344.472 192.186L358.113 202.517L374.988 174.446C375.039 174.396 375.089 174.345 375.19 174.345C375.291 174.345 375.342 174.345 375.393 174.446L400.503 201.559L418.085 166.08L418.54 166.282L400.806 202.063C400.756 202.114 400.705 202.164 400.604 202.214C400.503 202.214 400.452 202.214 400.402 202.114L375.291 174.95L358.416 202.97C358.366 203.021 358.315 203.071 358.265 203.071C358.214 203.071 358.113 203.071 358.063 203.021L344.27 192.689L328.506 205.087Z" fill="#A4ACE3"/>
<path d="M344.25 193.899C345.087 193.899 345.766 193.222 345.766 192.387C345.766 191.552 345.087 190.875 344.25 190.875C343.413 190.875 342.734 191.552 342.734 192.387C342.734 193.222 343.413 193.899 344.25 193.899Z" fill="#EBB044"/>
<path d="M358.149 204.381C358.986 204.381 359.664 203.704 359.664 202.869C359.664 202.034 358.986 201.357 358.149 201.357C357.311 201.357 356.633 202.034 356.633 202.869C356.633 203.704 357.311 204.381 358.149 204.381Z" fill="#EBB044"/>
<path d="M375.172 176.11C376.009 176.11 376.688 175.433 376.688 174.598C376.688 173.763 376.009 173.086 375.172 173.086C374.335 173.086 373.656 173.763 373.656 174.598C373.656 175.433 374.335 176.11 375.172 176.11Z" fill="#EBB044"/>
<path d="M400.336 202.871C401.173 202.871 401.852 202.195 401.852 201.36C401.852 200.525 401.173 199.848 400.336 199.848C399.499 199.848 398.82 200.525 398.82 201.36C398.82 202.195 399.499 202.871 400.336 202.871Z" fill="#EBB044"/>
<path d="M332.2 223.488H325.43V230.241H332.2V223.488Z" fill="#1DBF73"/>
<path d="M332.2 237.248H325.43V244.001H332.2V237.248Z" fill="#D82F3C"/>
<path d="M337.508 228.604H370.5V225.076H337.508V228.604Z" fill="#FACCD0"/>
<path d="M337.508 242.365H370.5V238.837H337.508V242.365Z" fill="#FACCD0"/>
<path d="M385.192 223.488H378.422V230.241H385.192V223.488Z" fill="#65BEFF"/>
<path d="M385.192 237.248H378.422V244.001H385.192V237.248Z" fill="#EBB044"/>
<path d="M390.508 228.604H423.5V225.076H390.508V228.604Z" fill="#FACCD0"/>
<path d="M390.508 242.365H423.5V238.837H390.508V242.365Z" fill="#FACCD0"/>
<path d="M479.587 308.3H472.362C471.049 310.669 463.167 317.472 461.5 318.43C459.832 319.387 460.338 320.395 460.338 320.395H470.644C472.413 319.488 476.808 316.918 477.566 316.212L479.132 320.395H481.962C481.962 320.395 481.305 309.157 480.85 308.3C480.497 307.595 479.688 307.897 479.587 308.3Z" fill="#2C2F37"/>
<path d="M464.438 316.167C468.985 317.376 477.877 311.631 479.595 308.305H472.37C471.46 309.968 467.418 313.697 464.438 316.167Z" fill="#FFCFAC"/>
<path d="M479.594 308.301V301.347L472.016 301.195L472.42 308.301H479.594Z" fill="#FFCFAC"/>
<path d="M459.171 302.606L452.198 304.522C451.542 307.142 445.782 315.81 444.418 317.171C443.054 318.532 443.811 319.389 443.811 319.389L453.765 316.667C455.23 315.306 458.817 311.678 459.322 310.821L461.95 314.45L464.678 313.694C464.678 313.694 461.04 303.01 460.383 302.304C459.878 301.649 459.221 302.153 459.171 302.606Z" fill="#2C2F37"/>
<path d="M446.688 314.201C451.386 314.15 458.46 306.288 459.217 302.609L452.245 304.524C451.79 306.288 448.86 310.975 446.688 314.201Z" fill="#FFCFAC"/>
<path d="M459.172 302.609L457.353 295.855L449.977 297.72L452.301 304.473L459.172 302.609Z" fill="#FFCFAC"/>
<path d="M451.088 210.687C449.016 217.138 442.347 245.057 439.922 255.389C439.316 257.908 439.316 260.529 439.872 263.049C441.994 272.675 447.4 297.369 448.966 303.013L460.586 299.889C460.334 294.496 456.342 267.484 453.816 260.327C457.1 256.447 465.235 238.808 466.599 234.928V209.578L451.088 210.687Z" fill="#2C2F37"/>
<path d="M473.578 210.686C477.064 217.59 482.116 244.401 477.771 262.796C482.268 272.925 482.116 291.522 481.409 305.985H471.052C468.323 293.084 458.673 237.446 458.774 228.173V211.139L473.578 210.686Z" fill="#2C2F37"/>
<path d="M461.087 248.128C460.986 248.128 460.936 248.078 460.885 247.977C459.369 237.545 458.561 230.893 458.612 228.171V211.137C458.612 211.036 458.713 210.936 458.814 210.936C458.915 210.936 459.016 211.036 459.016 211.137V228.171C458.965 230.842 459.723 237.495 461.289 247.876C461.289 248.027 461.239 248.078 461.087 248.128C461.138 248.128 461.087 248.128 461.087 248.128Z" fill="#5B5D63"/>
<path d="M444.052 259.72C442.335 259.72 440.617 259.367 439.051 258.662C438.95 258.611 438.899 258.51 438.95 258.41C439 258.309 439.101 258.258 439.202 258.309C441.021 259.166 443.092 259.468 445.113 259.317C445.214 259.317 445.316 259.367 445.316 259.468C445.316 259.569 445.265 259.67 445.164 259.67C444.81 259.72 444.457 259.72 444.052 259.72Z" fill="#5B5D63"/>
<path d="M464.478 262.794C464.023 262.794 463.518 262.744 463.063 262.693C462.962 262.693 462.861 262.592 462.912 262.492C462.912 262.391 463.013 262.34 463.114 262.34C464.731 262.542 466.398 262.391 467.964 261.937C468.065 261.887 468.166 261.988 468.217 262.088C468.267 262.189 468.166 262.29 468.065 262.34C466.954 262.643 465.691 262.794 464.478 262.794Z" fill="#5B5D63"/>
<path d="M459.112 299.483C459.011 299.483 458.91 299.432 458.91 299.331C457.748 286.48 455.121 273.226 451.18 259.871C451.18 259.821 451.18 259.77 451.23 259.72C454.514 255.638 457.394 251.203 459.819 246.617C459.87 246.516 459.971 246.465 460.072 246.516C460.173 246.566 460.223 246.667 460.173 246.768C457.748 251.404 454.868 255.789 451.634 259.871C455.575 273.176 458.203 286.43 459.365 299.281C459.314 299.382 459.264 299.432 459.112 299.483Z" fill="#5B5D63"/>
<path d="M479.782 304.976C479.681 304.976 479.58 304.875 479.58 304.774C480.186 292.024 479.53 273.478 475.791 263.298C475.791 263.248 475.791 263.247 475.791 263.197C478.873 248.632 478.165 233.362 473.77 219.15C473.719 219.05 473.77 218.949 473.871 218.899C473.972 218.848 474.073 218.949 474.123 218.999C478.519 233.262 479.226 248.582 476.144 263.197C479.883 273.428 480.49 291.974 479.934 304.724C479.984 304.925 479.883 304.976 479.782 304.976Z" fill="#5B5D63"/>
<path d="M418.652 187.755L416.327 191.938C414.761 191.585 410.82 190.174 410.82 190.174L413.397 184.277C414.913 184.58 417.591 186.596 418.652 187.755Z" fill="#FFCFAC"/>
<path d="M413.392 184.278C412.331 184.026 406.622 183.32 406.419 184.076C406.217 184.832 411.724 186.042 412.583 186.193L413.392 184.278Z" fill="#FFCFAC"/>
<path d="M411.119 185.694C410.462 185.543 409.856 186.651 410.361 187.206C409.553 187.458 409.604 188.264 410.008 188.718C409.3 188.969 409.503 189.826 410.058 190.129C410.614 190.431 412.837 190.784 413.292 190.834C413.747 190.885 414.1 190.078 413.595 189.826C414.1 189.776 414.605 188.969 414.05 188.718C414.808 188.617 414.858 187.81 414.302 187.508C413.747 187.206 411.776 185.845 411.119 185.694Z" fill="#FFCFAC"/>
<path d="M413.33 190.985H413.28C412.825 190.935 410.602 190.582 409.996 190.28C409.895 190.229 409.844 190.129 409.895 190.028C409.945 189.927 410.046 189.877 410.147 189.927C410.653 190.179 412.825 190.532 413.28 190.582C413.431 190.582 413.533 190.431 413.583 190.33C413.583 190.229 413.634 190.028 413.431 189.927C413.381 189.877 413.33 189.826 413.33 189.725C413.33 189.625 413.431 189.574 413.482 189.574C413.684 189.574 413.937 189.322 413.987 189.07C413.987 188.97 413.987 188.919 413.886 188.869C413.785 188.818 413.785 188.768 413.785 188.667C413.785 188.566 413.886 188.516 413.937 188.516C414.189 188.466 414.341 188.365 414.391 188.163C414.442 188.012 414.341 187.76 414.139 187.659C413.937 187.558 413.634 187.357 413.28 187.105C412.522 186.601 411.461 185.946 411.006 185.845C410.905 185.845 410.855 185.744 410.855 185.643C410.855 185.543 410.956 185.492 411.057 185.492C411.562 185.593 412.623 186.248 413.482 186.802C413.836 187.054 414.189 187.256 414.341 187.306C414.695 187.508 414.846 187.861 414.796 188.214C414.745 188.466 414.594 188.667 414.341 188.768C414.391 188.869 414.391 189.02 414.391 189.121C414.341 189.423 414.139 189.675 413.886 189.826C413.987 189.977 413.987 190.179 413.937 190.431C413.886 190.733 413.634 190.985 413.33 190.985Z" fill="#EB3441"/>
<path d="M413.583 189.975H413.533L409.996 188.867C409.895 188.816 409.844 188.715 409.895 188.615C409.945 188.514 410.046 188.464 410.147 188.514L413.684 189.623C413.785 189.673 413.836 189.774 413.785 189.875C413.735 189.925 413.634 189.975 413.583 189.975Z" fill="#EB3441"/>
<path d="M414.039 188.92H413.989L410.301 187.408C410.2 187.357 410.149 187.257 410.2 187.156C410.25 187.055 410.351 187.005 410.452 187.055L414.14 188.567C414.241 188.617 414.292 188.718 414.241 188.819C414.191 188.869 414.09 188.92 414.039 188.92Z" fill="#EB3441"/>
<path d="M418.648 187.758C418.295 187.204 415.819 184.482 415.061 184.482C414.303 184.533 410.817 185.843 410.868 186.448C410.918 187.053 413.242 186.952 413.697 186.649C414 187.607 415.819 189.22 416.931 188.968L418.648 187.758Z" fill="#FFCFAC"/>
<path d="M416.782 189.171C415.62 189.171 414.104 187.86 413.65 186.903C413.043 187.155 411.679 187.205 411.073 186.903C410.82 186.752 410.719 186.6 410.719 186.5C410.669 185.693 414.054 184.585 414.559 184.433C414.66 184.383 414.761 184.484 414.812 184.585C414.862 184.685 414.761 184.786 414.66 184.837C413.195 185.24 411.174 186.147 411.123 186.5C411.123 186.55 411.174 186.55 411.275 186.6C411.831 186.852 413.347 186.752 413.7 186.55C413.751 186.5 413.801 186.5 413.852 186.55C413.902 186.55 413.953 186.6 413.953 186.651C414.256 187.558 415.974 189.07 416.984 188.868C417.085 188.868 417.186 188.919 417.186 189.019C417.186 189.12 417.136 189.221 417.035 189.221C416.934 189.171 416.883 189.171 416.782 189.171Z" fill="#EB3441"/>
<path d="M448.212 177.93C445.787 179.996 437.501 190.882 436.642 192.998C433.813 191.436 418.302 186.195 418.302 186.195L415.422 192.998C419.514 195.367 432.802 202.876 436.996 203.178C441.189 203.481 451.092 194.712 451.092 194.712L453.315 182.667L448.212 177.93Z" fill="#77D9AB"/>
<path d="M439.219 195.418C439.169 195.418 439.118 195.368 439.068 195.368C438.361 194.41 437.401 193.654 436.39 193.05C436.34 192.999 436.289 192.949 436.289 192.848C436.289 192.747 436.39 192.697 436.441 192.697C437.249 192.596 438.057 192.646 438.664 192.848C438.765 192.898 438.815 192.999 438.765 193.1C438.714 193.201 438.613 193.251 438.512 193.201C438.108 193.05 437.552 192.999 437.047 192.999C437.906 193.554 438.714 194.259 439.321 195.116C439.371 195.217 439.371 195.317 439.27 195.368C439.27 195.418 439.27 195.418 439.219 195.418Z" fill="#1DBF73"/>
<path d="M432.81 202.019C432.759 202.019 432.709 202.019 432.709 201.968C432.608 201.918 432.608 201.767 432.709 201.716C433.871 200.406 435.487 199.65 437.256 199.549C438.974 199.448 440.691 200.104 441.955 201.313C442.056 201.363 442.056 201.515 441.955 201.565C441.904 201.666 441.752 201.666 441.702 201.565C440.54 200.456 438.873 199.852 437.256 199.902C435.639 199.952 434.073 200.708 433.012 201.918C432.911 202.019 432.86 202.019 432.81 202.019Z" fill="#1DBF73"/>
<path d="M477.871 186.695C477.568 189.265 473.98 208.366 473.576 210.634C473.576 211.39 468.524 211.994 462.309 211.994C456.095 211.994 451.042 211.39 451.042 210.634C451.346 206.753 451.396 202.772 451.093 198.841C450.032 198.74 448.971 198.236 448.264 197.43C447.556 196.623 447.102 195.565 447.102 194.507C447.102 191.332 450.436 188.862 450.638 185.738C447.607 184.125 447.152 178.682 448.112 177.876C449.072 177.07 457.964 174.298 459.884 173.895C459.884 173.895 458.975 180.244 462.208 180.244C467.665 180.244 468.978 173.895 468.978 173.895C470.292 174.247 480.245 177.473 480.953 178.128C481.66 178.783 484.54 185.587 477.871 186.695Z" fill="white"/>
<path d="M452.515 199.142C452.01 199.142 451.505 199.091 451.05 199.041C450.949 199.041 450.898 198.94 450.898 198.839C450.898 198.738 450.999 198.638 451.101 198.688C452.919 198.94 454.789 198.688 456.507 198.033C457.315 197.73 458.224 197.68 459.033 197.932C460.953 198.537 462.62 198.738 464.186 198.638C466.51 198.486 468.632 197.529 469.997 196.017C470.047 195.916 470.199 195.916 470.249 196.017C470.35 196.067 470.35 196.219 470.249 196.269C468.834 197.831 466.611 198.839 464.186 198.99C462.569 199.091 460.852 198.839 458.881 198.234C458.123 197.982 457.315 198.033 456.608 198.335C455.294 198.89 453.879 199.142 452.515 199.142Z" fill="#C8C3CA"/>
<path d="M482.209 225.554C478.571 227.469 467.557 228.426 464.424 228.074C464.071 222.127 463.969 216.785 464.02 211.997C464.273 192.796 467.506 182.313 470.083 174.25C473.013 175.157 480.339 177.627 480.996 178.181C481.703 178.836 484.583 185.589 477.914 186.698C476.651 200.154 479.885 218.347 482.209 225.554Z" fill="#77D9AB"/>
<path d="M464.882 198.993C464.781 198.993 464.73 198.942 464.68 198.842C464.68 198.741 464.73 198.64 464.831 198.64C466.903 198.338 468.722 197.43 469.934 196.07C469.985 195.969 470.136 195.969 470.187 196.07C470.288 196.12 470.288 196.271 470.187 196.322C468.974 197.733 467.054 198.69 464.882 198.993Z" fill="#1DBF73"/>
<path d="M479.982 225.855C479.881 225.855 479.831 225.804 479.78 225.704C475.789 213.407 474.475 200.102 476.041 187.301C476.041 187.201 476.142 187.1 476.243 187.15C476.345 187.15 476.446 187.251 476.395 187.352C474.829 200.152 476.142 213.356 480.134 225.603C480.184 225.704 480.134 225.804 480.033 225.855C480.033 225.855 480.033 225.855 479.982 225.855Z" fill="#1DBF73"/>
<path d="M478.931 218.748H478.881C475.041 217.236 472.161 213.608 471.555 209.526C471.555 209.425 471.605 209.324 471.706 209.324C471.807 209.324 471.908 209.375 471.908 209.475C472.464 213.457 475.293 216.934 478.982 218.396C479.083 218.446 479.133 218.547 479.083 218.648C479.083 218.698 479.032 218.748 478.931 218.748Z" fill="#1DBF73"/>
<path d="M465.585 226.056C465.484 226.056 465.383 225.955 465.383 225.854C465.383 225.753 465.484 225.653 465.585 225.653C470.89 225.451 476.195 224.796 481.399 223.637C481.5 223.637 481.601 223.687 481.601 223.788C481.601 223.889 481.55 223.989 481.449 223.989C476.296 225.199 470.94 225.905 465.585 226.056C465.635 226.056 465.585 226.056 465.585 226.056Z" fill="#1DBF73"/>
<path d="M455.586 227.418C452.453 227.922 445.986 226.562 444.773 225.251C446.794 218.901 451.038 205.647 451.089 198.894H451.038C450.028 198.743 449.068 198.239 448.411 197.533C447.704 196.727 447.249 195.669 447.249 194.61C447.249 191.435 450.584 188.966 450.786 185.791C447.754 184.178 447.3 178.735 448.26 177.929C449.068 177.274 455.838 175.056 458.92 174.25C457.101 181.91 455.333 196.828 455.181 211.745C455.03 217.087 455.181 222.429 455.586 227.418Z" fill="#77D9AB"/>
<path d="M448.348 197.683C448.298 197.683 448.247 197.683 448.197 197.632C447.439 196.826 446.984 195.717 446.984 194.558C446.984 192.895 447.894 191.383 448.753 189.922C449.561 188.611 450.42 187.2 450.471 185.739C450.471 185.638 450.572 185.537 450.673 185.537C450.774 185.537 450.875 185.638 450.875 185.739C450.774 187.301 449.915 188.712 449.056 190.123C448.146 191.585 447.338 192.996 447.338 194.558C447.338 195.566 447.742 196.624 448.45 197.38C448.5 197.481 448.5 197.582 448.45 197.632C448.45 197.683 448.399 197.683 448.348 197.683Z" fill="#1DBF73"/>
<path d="M449.983 188.459C449.882 188.459 449.832 188.409 449.781 188.308C449.579 187.552 449.327 186.796 448.973 186.141C448.922 186.04 448.973 185.939 449.074 185.889C449.175 185.839 449.276 185.889 449.327 185.99C449.68 186.695 449.983 187.451 450.186 188.258C450.186 188.308 450.135 188.409 449.983 188.459C450.034 188.459 449.983 188.459 449.983 188.459Z" fill="#1DBF73"/>
<path d="M452.515 199.146C452.01 199.146 451.555 199.096 451.05 199.046C450.949 199.046 450.898 198.945 450.898 198.844C450.898 198.743 450.999 198.642 451.101 198.693C452.515 198.894 454.031 198.794 455.446 198.39C455.547 198.34 455.648 198.441 455.698 198.542C455.749 198.642 455.648 198.743 455.547 198.794C454.536 198.995 453.526 199.146 452.515 199.146Z" fill="#1DBF73"/>
<path d="M454.483 225.854C451.502 225.653 448.623 225.35 445.894 223.99C445.793 223.939 445.743 223.839 445.793 223.738C445.844 223.637 445.945 223.587 446.046 223.637C448.724 224.947 451.553 225.25 454.483 225.451C454.584 225.451 454.685 225.552 454.635 225.653C454.685 225.804 454.584 225.854 454.483 225.854Z" fill="#1DBF73"/>
<path d="M489.744 226.804L494.494 226.148C495.302 229.424 495.706 236.278 495.605 236.984C495.504 237.639 494.898 237.588 494.797 236.984C494.696 236.429 494.19 233.305 494.19 233.305C494.19 233.305 494.14 237.538 494.089 238.092C494.039 238.697 493.433 239 493.231 238.143C493.028 237.286 492.877 233.557 492.877 233.557C492.877 233.557 492.725 238.344 492.624 238.798C492.523 239.201 491.917 239.504 491.765 238.697C491.614 237.941 491.412 233.557 491.412 233.557C491.412 233.557 491.007 237.639 490.957 238.092C490.856 238.546 490.3 238.748 490.149 237.84C489.997 236.933 489.593 228.315 489.744 226.804Z" fill="#FFCFAC"/>
<path d="M489.753 226.805C488.995 227.611 487.378 230.03 487.227 230.736C487.075 231.441 487.075 234.314 487.631 234.364C488.187 234.415 488.641 233.054 488.49 232.046C489.349 231.794 490.511 231.139 491.067 230.131C491.622 229.173 489.753 226.805 489.753 226.805Z" fill="#FFCFAC"/>
<path d="M481.019 178.174C487.435 184.977 492.487 197.274 493.801 202.969C495.064 208.664 495.822 228.167 495.822 228.167H487.587C487.081 225.143 484.858 208.815 485.162 206.094C483.292 204.178 476.269 193.898 475.36 187.85C474.45 181.853 481.019 178.174 481.019 178.174Z" fill="#77D9AB"/>
<path d="M477.838 194.956C477.787 194.956 477.686 194.905 477.686 194.855C476.322 192.083 475.463 189.765 475.21 187.95C475.059 186.942 475.109 185.935 475.362 184.927C475.412 184.826 475.513 184.775 475.614 184.775C475.715 184.775 475.766 184.927 475.766 185.027C475.513 185.985 475.463 186.942 475.614 187.9C475.867 189.664 476.726 191.982 478.09 194.704C478.141 194.804 478.09 194.905 477.989 194.956C477.888 194.905 477.838 194.956 477.838 194.956Z" fill="#1DBF73"/>
<path d="M485.064 206.298C485.014 206.298 484.963 206.247 484.913 206.247C484.862 206.197 484.862 206.096 484.913 206.046C485.317 205.441 485.772 204.836 486.53 204.433C486.631 204.383 486.732 204.433 486.782 204.483C486.833 204.584 486.782 204.685 486.732 204.735C486.227 205.038 485.873 205.391 485.57 205.794C486.631 205.491 487.692 205.34 488.803 205.34C488.904 205.34 489.005 205.441 489.005 205.542C489.005 205.643 488.955 205.743 488.803 205.743C487.54 205.743 486.328 205.945 485.166 206.348C485.115 206.298 485.115 206.298 485.064 206.298Z" fill="#1DBF73"/>
<path d="M494.161 208.362H494.111C492.292 207.656 490.877 205.893 490.524 203.977C490.17 202.012 490.928 199.946 492.393 198.635C492.494 198.585 492.595 198.585 492.646 198.635C492.696 198.736 492.696 198.837 492.646 198.887C491.231 200.097 490.574 202.062 490.877 203.877C491.18 205.691 492.494 207.304 494.212 207.959C494.313 208.009 494.363 208.11 494.313 208.211C494.313 208.312 494.262 208.362 494.161 208.362Z" fill="#1DBF73"/>
<path d="M454.345 155.698C454.041 154.438 453.89 153.128 454.142 151.868C454.395 150.608 455.102 149.398 456.264 148.793C457.426 148.189 458.993 148.34 459.801 149.348C461.014 147.786 463.085 146.979 465.056 147.03C467.632 147.08 470.26 148.289 471.775 150.406C473.291 152.523 473.594 155.496 472.331 157.764L476.373 171.875H450.656L454.345 155.698Z" fill="#2C2F37"/>
<path d="M459.747 169.81C461.011 169.81 462.274 169.507 463.385 168.902C464.497 168.298 465.406 167.491 466.113 166.433L467.276 164.77V154.64C467.276 152.524 465.558 150.81 463.436 150.86L459.95 150.961C457.878 151.012 457.019 152.826 456.261 154.741C455.352 157.009 456.059 158.47 456.009 160.94C456.009 161.242 455.958 161.494 455.958 161.797C455.958 161.897 455.908 162.049 455.908 162.149C455.908 162.2 455.908 162.25 455.857 162.351C455.857 162.452 455.807 162.603 455.807 162.704C455.807 162.804 455.756 162.905 455.756 163.006C455.756 163.056 455.756 163.107 455.756 163.157C455.706 163.409 455.706 163.661 455.655 163.863C455.655 164.064 455.605 164.316 455.605 164.518C455.503 168.6 458.03 169.81 459.747 169.81Z" fill="#FFCFAC"/>
<path d="M459.946 173.938C459.946 173.938 459.037 180.288 462.27 180.288C467.727 180.288 469.04 173.938 469.04 173.938L467.272 164.766L460.653 168.999L460.502 169.805L460.249 171.468L459.946 173.938Z" fill="#FFCFAC"/>
<path d="M460.312 171.419C461.576 171.167 462.738 170.563 463.748 169.756C464.708 168.95 465.516 167.892 465.971 166.732C465.314 167.64 464.405 168.396 463.445 168.95C462.586 169.403 461.626 169.706 460.616 169.807L460.312 171.419Z" fill="#2C2F37"/>
<path d="M465.695 162.707C465.695 164.118 466.807 165.227 468.222 165.227C469.636 165.227 470.748 164.118 470.748 162.707C470.748 161.296 469.636 160.188 468.222 160.188C466.807 160.188 465.695 161.347 465.695 162.707Z" fill="#FFCFAC"/>
<path d="M466.757 164.267C466.656 164.267 466.555 164.166 466.555 164.065C466.605 163.309 466.959 162.604 467.565 162.15C468.171 161.697 468.929 161.495 469.687 161.596C469.788 161.596 469.839 161.697 469.839 161.797C469.839 161.898 469.738 161.949 469.637 161.949C469.03 161.848 468.323 161.999 467.818 162.402C467.313 162.805 467.009 163.41 466.959 164.065C466.959 164.166 466.858 164.267 466.757 164.267Z" fill="#EB3441"/>
<path d="M469.28 163.914C469.179 163.914 469.128 163.863 469.078 163.763C468.876 163.108 468.32 162.604 467.613 162.452C467.511 162.452 467.461 162.352 467.461 162.251C467.461 162.15 467.562 162.1 467.663 162.1C468.471 162.251 469.179 162.856 469.431 163.662C469.482 163.763 469.381 163.863 469.28 163.914C469.33 163.914 469.33 163.914 469.28 163.914Z" fill="#EB3441"/>
<path d="M460.211 162.958C460.16 162.958 460.16 162.958 460.109 162.958C459.907 162.857 459.655 162.757 459.453 162.555C459.251 162.354 459.15 162.001 459.251 161.698C459.301 161.547 459.453 161.446 459.554 161.346L459.655 161.245C459.907 160.993 460.059 160.59 460.059 160.338C460.109 159.985 460.109 159.632 460.109 159.229C460.109 159.128 460.211 159.027 460.312 159.027C460.413 159.027 460.514 159.128 460.514 159.229C460.514 159.632 460.514 159.985 460.463 160.388C460.362 160.842 460.211 161.245 459.907 161.497C459.857 161.547 459.857 161.547 459.806 161.598C459.705 161.648 459.655 161.749 459.604 161.799C459.554 161.95 459.604 162.152 459.705 162.253C459.857 162.404 460.059 162.505 460.261 162.555C460.362 162.605 460.413 162.706 460.362 162.807C460.362 162.908 460.261 162.958 460.211 162.958Z" fill="#2C2F37"/>
<path d="M459.161 157.412C459.161 157.563 459.161 157.714 459.06 157.815C459.009 157.916 458.908 158.017 458.756 158.117C458.504 157.916 458.201 157.765 457.898 157.714C457.594 157.664 457.291 157.765 457.039 157.916C456.786 158.067 456.533 158.269 456.331 158.47C456.23 158.47 456.18 158.369 456.18 158.319C456.432 157.815 456.938 157.362 457.493 157.21C457.999 157.009 458.655 157.11 459.161 157.412Z" fill="#2C2F37"/>
<path d="M458.851 160.385C458.801 160.385 458.7 160.334 458.7 160.284C458.548 159.931 458.245 159.73 457.79 159.73C457.386 159.73 456.982 159.931 456.78 160.334C456.729 160.435 456.628 160.486 456.527 160.435C456.426 160.385 456.376 160.284 456.426 160.183C456.679 159.679 457.184 159.377 457.74 159.377C458.346 159.377 458.801 159.679 459.003 160.183C459.053 160.284 459.003 160.385 458.902 160.435C458.902 160.385 458.902 160.385 458.851 160.385Z" fill="#2C2F37"/>
<path d="M461.375 157.412C461.375 157.563 461.375 157.714 461.476 157.815C461.527 157.916 461.628 158.017 461.779 158.117C462.032 157.916 462.335 157.765 462.638 157.714C462.941 157.664 463.244 157.765 463.497 157.916C463.75 158.067 464.002 158.269 464.204 158.47C464.305 158.47 464.356 158.369 464.356 158.319C464.103 157.815 463.598 157.362 463.042 157.21C462.537 157.009 461.88 157.11 461.375 157.412Z" fill="#2C2F37"/>
<path d="M461.679 160.386H461.629C461.528 160.336 461.477 160.235 461.528 160.134C461.73 159.631 462.184 159.328 462.791 159.328C463.347 159.328 463.852 159.631 464.104 160.134C464.155 160.235 464.104 160.336 464.003 160.386C463.902 160.437 463.801 160.386 463.751 160.286C463.549 159.933 463.195 159.681 462.74 159.681C462.286 159.681 461.982 159.882 461.831 160.235C461.831 160.336 461.73 160.386 461.679 160.386Z" fill="#2C2F37"/>
<path d="M458.984 165.78C459.186 166.032 459.641 166.082 459.994 166.183C460.348 166.233 460.702 166.284 461.055 166.183C461.662 166.032 462.318 165.629 462.521 165.024C462.622 164.671 462.521 164.318 462.268 164.117C462.015 163.915 461.662 163.915 461.358 163.965C461.005 164.066 460.752 164.318 460.5 164.52C460.449 164.57 460.348 164.621 460.298 164.671C460.045 164.873 459.641 164.822 459.388 164.923C458.933 165.024 458.681 165.427 458.984 165.78Z" fill="white"/>
<path d="M469.301 154.74L468.594 160.234C468.442 160.183 468.341 160.183 468.189 160.183C467.229 160.183 466.37 160.738 465.966 161.544C465.714 161.292 465.512 160.939 465.512 160.586C465.461 160.032 465.663 159.478 465.916 158.923C466.168 158.419 466.421 157.865 466.472 157.311C466.522 156.756 466.269 156.101 465.764 155.849C465.411 155.698 465.006 155.698 464.602 155.748C463.693 155.849 462.783 156 461.924 155.9C461.015 155.799 460.105 155.496 459.499 154.791C458.893 154.136 458.64 153.077 459.095 152.271C457.529 152.926 456.215 154.186 455.508 155.748L456.619 151.717L459.6 150.154L465.916 150.406L469.301 154.74Z" fill="#2C2F37"/>
<path d="M214.719 306.289L216.639 315.764H222.146L221.994 306.692L214.719 306.289Z" fill="#C96742"/>
<path d="M235.784 319.137H213.402C213.352 318.482 213.806 316.617 214.312 315.962C214.362 314.954 214.564 312.586 216.03 312.586C217.495 312.586 218.152 314.702 219.617 314.702C221.082 314.702 221.284 312.283 222.901 312.283C224.518 312.283 225.478 314.047 225.478 314.047L232.652 316.063C234.067 316.567 235.279 317.676 235.784 319.137Z" fill="white"/>
<path d="M213.245 320.4H235.88C236.031 320.4 236.132 320.299 236.132 320.148V319.342C236.132 319.191 236.031 319.09 235.88 319.09H213.245C213.093 319.09 212.992 319.191 212.992 319.342V320.148C212.992 320.299 213.144 320.4 213.245 320.4Z" fill="#2C2F37"/>
<path d="M187.18 306.289L188.089 315.764H193.596L194.405 306.692L187.18 306.289Z" fill="#C96742"/>
<path d="M207.238 319.137H184.855C184.805 318.482 185.26 316.617 185.765 315.962C185.815 314.954 186.017 312.586 187.483 312.586C188.948 312.586 189.605 314.702 191.07 314.702C192.535 314.702 192.737 312.283 194.354 312.283C195.971 312.283 196.931 314.047 196.931 314.047L204.105 316.063C205.52 316.567 206.732 317.676 207.238 319.137Z" fill="white"/>
<path d="M184.706 320.4H207.34C207.492 320.4 207.593 320.299 207.593 320.148V319.342C207.593 319.191 207.492 319.09 207.34 319.09H184.706C184.554 319.09 184.453 319.191 184.453 319.342V320.148C184.453 320.299 184.605 320.4 184.706 320.4Z" fill="#2C2F37"/>
<path d="M217.137 219.602C219.057 226.607 223.705 296.154 223.705 308.199H212.944C211.024 298.775 203.597 252.057 202.688 241.524V220.055L217.137 219.602Z" fill="#2C2F37"/>
<path d="M187.427 219.398C184.749 232.502 184.951 299.579 185.355 308.197H196.925C198.593 295.397 204.757 249.183 205.363 239.91V219.902L187.427 219.398Z" fill="#2C2F37"/>
<path d="M203.936 253.065C203.785 253.065 203.734 252.964 203.734 252.864C204.543 246.413 204.997 242.079 205.149 239.861V219.854C205.149 219.753 205.25 219.652 205.351 219.652C205.452 219.652 205.553 219.753 205.553 219.854V239.861C205.402 242.079 204.896 246.463 204.139 252.864C204.139 253.015 204.038 253.065 203.936 253.065Z" fill="#5B5D63"/>
<path d="M205.41 234.418H201.772C201.671 234.418 201.57 234.317 201.57 234.216C201.57 234.115 201.671 234.015 201.772 234.015H205.461C207.229 234.015 208.694 232.553 208.694 230.789V220.004C208.694 219.904 208.795 219.803 208.896 219.803C208.997 219.803 209.098 219.904 209.098 220.004V230.789C209.048 232.805 207.431 234.418 205.41 234.418Z" fill="#5B5D63"/>
<path d="M186.859 231.093C186.808 231.093 186.707 231.042 186.707 230.992C186.657 230.891 186.707 230.79 186.808 230.74C188.728 229.782 190.345 228.22 191.406 226.355C192.467 224.491 192.972 222.324 192.821 220.157C192.821 220.056 192.871 219.955 192.972 219.955C193.073 219.955 193.174 220.005 193.174 220.106C193.326 222.324 192.77 224.592 191.709 226.507C190.598 228.422 188.93 230.034 186.96 231.042C186.909 231.093 186.909 231.093 186.859 231.093Z" fill="#5B5D63"/>
<path d="M218.14 230.034C218.09 230.034 218.039 230.034 217.989 229.984C215.261 227.514 213.644 224.037 213.492 220.358C213.492 220.257 213.593 220.156 213.694 220.156C213.795 220.156 213.896 220.257 213.896 220.358C213.997 223.886 215.665 227.363 218.241 229.732C218.342 229.782 218.342 229.933 218.241 229.984C218.241 230.034 218.191 230.034 218.14 230.034Z" fill="#5B5D63"/>
<path d="M218.287 266.519C217.176 266.519 216.064 266.368 215.003 266.116C214.902 266.066 214.852 265.965 214.852 265.864C214.902 265.763 215.003 265.713 215.104 265.713C217.125 266.217 219.298 266.267 221.319 265.763C221.42 265.713 221.521 265.814 221.571 265.914C221.571 266.015 221.521 266.116 221.42 266.166C220.359 266.368 219.348 266.519 218.287 266.519Z" fill="#5B5D63"/>
<path d="M199.79 267.58C198.274 267.58 196.809 267.328 195.394 266.874C195.293 266.824 195.243 266.723 195.293 266.623C195.344 266.522 195.445 266.471 195.546 266.522C197.668 267.177 199.941 267.378 202.114 267.026C202.215 267.026 202.316 267.076 202.316 267.177C202.316 267.278 202.266 267.378 202.165 267.378C201.356 267.53 200.548 267.58 199.79 267.58Z" fill="#5B5D63"/>
<path d="M213.289 304.469C213.188 304.469 213.137 304.419 213.087 304.318C210.611 291.316 208.691 278.061 206.771 265.21C206.115 260.876 205.508 256.592 204.852 252.258C204.852 252.157 204.902 252.057 205.003 252.057C205.104 252.057 205.205 252.107 205.205 252.208C205.862 256.542 206.519 260.826 207.125 265.16C208.995 278.011 210.965 291.265 213.441 304.267C213.491 304.368 213.441 304.469 213.289 304.469C213.34 304.469 213.289 304.469 213.289 304.469Z" fill="#5B5D63"/>
<path d="M187.108 304.016C187.007 304.016 186.906 303.915 186.906 303.814C186.148 279.976 186.451 255.836 187.815 232.049C187.815 231.948 187.916 231.848 188.018 231.848C188.119 231.848 188.22 231.948 188.22 232.049C186.855 255.836 186.552 279.976 187.31 303.814C187.31 303.965 187.209 304.016 187.108 304.016Z" fill="#5B5D63"/>
<path d="M226.405 203.071C226.81 204.935 226.456 211.688 221.05 211.688C217.362 211.688 210.895 189.161 211.248 186.742C211.602 184.323 217.968 180.745 219.938 182.912C221.909 185.029 225.85 200.349 226.405 203.071Z" fill="#C96742"/>
<path d="M233.437 191.381L240.965 189.869C238.489 193.296 228.486 211.691 221.412 211.691C218.027 211.691 218.735 203.375 221.21 201.259C223.686 199.142 230.709 193.951 233.437 191.381Z" fill="#C96742"/>
<path d="M221.166 201.41C221.115 201.41 221.065 201.41 221.014 201.36C220.964 201.259 220.964 201.158 221.014 201.108C221.873 200.352 223.541 198.941 225.461 197.58C225.562 197.53 225.663 197.53 225.713 197.63C225.764 197.731 225.764 197.832 225.663 197.882C223.793 199.243 222.075 200.654 221.267 201.41C221.267 201.36 221.217 201.41 221.166 201.41Z" fill="#EB3441"/>
<path d="M222.421 198.79C222.32 198.79 222.269 198.74 222.219 198.639C222.219 198.538 222.269 198.437 222.37 198.437L224.694 198.135C224.795 198.135 224.897 198.185 224.897 198.286C224.897 198.387 224.846 198.488 224.745 198.488L222.421 198.79Z" fill="#EB3441"/>
<path d="M218.174 177.422C220.296 179.387 224.944 192.138 225.146 194.103C224.691 195.716 219.184 198.941 216.506 198.639L213.172 182.21L218.174 177.422Z" fill="#65BEFF"/>
<path d="M215.151 183.468C218.132 182.813 219.496 178.277 218.183 177.421C216.869 176.564 207.876 174.145 206.107 173.943H197.064C195.548 174.095 185.797 176.06 184.988 177.32C184.18 178.63 182.614 184.678 186.049 185.585C186.807 188.76 184.433 218.04 186.504 221.115C188.576 224.189 216.717 223.685 218.132 221.568C219.496 219.401 216.92 188.256 215.151 183.468Z" fill="#65BEFF"/>
<path d="M201.91 178.678C199.232 178.678 196.857 177.267 195.645 174.949C195.594 174.848 195.645 174.747 195.746 174.697C195.847 174.646 195.948 174.697 195.998 174.798C197.514 177.721 200.495 178.527 202.668 178.275C204.941 178.023 206.71 176.713 207.215 174.798C207.265 174.697 207.366 174.646 207.467 174.646C207.568 174.697 207.619 174.798 207.619 174.898C207.063 176.965 205.194 178.376 202.718 178.628C202.415 178.628 202.162 178.678 201.91 178.678Z" fill="#3FAEFF"/>
<path d="M188.174 220.259C188.073 220.259 188.023 220.209 187.972 220.108C186.659 213.808 187.214 207.257 187.77 200.907C188.124 196.623 188.528 192.188 188.326 187.854C188.326 187.753 188.427 187.652 188.528 187.652C188.629 187.652 188.73 187.703 188.73 187.854C188.932 192.238 188.528 196.673 188.174 200.957C187.619 207.257 187.063 213.758 188.376 220.007C188.427 220.108 188.326 220.209 188.174 220.259C188.225 220.259 188.225 220.259 188.174 220.259Z" fill="#3FAEFF"/>
<path d="M217.173 196.674C217.072 196.674 216.97 196.623 216.97 196.523C216.263 189.87 215.556 185.133 214.95 183.571C214.899 183.47 214.95 183.369 215.051 183.319C215.152 183.268 215.253 183.319 215.303 183.419C215.909 185.032 216.617 189.769 217.324 196.472C217.375 196.573 217.274 196.674 217.173 196.674Z" fill="#3FAEFF"/>
<path d="M215.859 186.643H215.808C215.707 186.593 215.657 186.492 215.707 186.391C216.112 185.383 216.415 184.325 216.617 183.266C216.617 183.166 216.718 183.115 216.819 183.115C216.92 183.115 216.97 183.216 216.97 183.317C216.768 184.426 216.415 185.484 216.01 186.492C216.01 186.593 215.96 186.643 215.859 186.643Z" fill="#3FAEFF"/>
<path d="M173.11 204.842C171.695 206.404 162.399 208.773 164.723 199.903C165.834 195.67 180.234 181.609 182.507 180.752C184.781 179.896 190.995 183.827 190.035 186.548C189.075 189.32 175.686 201.969 173.11 204.842Z" fill="#C96742"/>
<path d="M191.952 182.869C191.446 181.558 188.365 175.36 185.636 176.821C181.695 178.938 177.35 182.718 172.5 188.916C173.308 191.89 178.462 196.98 181.19 198.139C184.373 195.266 193.316 186.296 191.952 182.869Z" fill="#65BEFF"/>
<path d="M181.135 198.337C181.084 198.337 181.034 198.337 180.983 198.287C180.933 198.186 180.933 198.085 180.983 198.035C183.004 196.221 187.652 191.534 189.875 188.359C189.926 188.258 190.078 188.258 190.128 188.308C190.229 188.359 190.229 188.51 190.179 188.56C187.956 191.786 183.257 196.523 181.236 198.287C181.236 198.337 181.185 198.337 181.135 198.337Z" fill="#3FAEFF"/>
<path d="M253.086 183.101L246.352 169.389L165.501 208.895L172.236 222.607L253.086 183.101Z" fill="#F3D03E"/>
<path d="M167.944 225.198L160.82 210.633C160.567 210.129 160.769 209.525 161.274 209.323L164.003 208.013C164.508 207.761 165.114 207.962 165.316 208.466L172.44 223.031C172.693 223.535 172.491 224.14 171.985 224.341L169.257 225.652C168.802 225.904 168.196 225.702 167.944 225.198Z" fill="#2C2F37"/>
<path d="M167.745 224.796L161.026 211.088L157.439 212.801C154.154 214.414 152.79 218.345 154.407 221.621L155.317 223.485C156.933 226.761 160.874 228.122 164.158 226.509L167.745 224.796Z" fill="#DF646E"/>
<path d="M253.087 183.12L265.364 168.605L246.367 169.361L253.087 183.12Z" fill="#EBD7B3"/>
<path d="M259.352 168.857L261.524 173.242L265.364 168.605L259.352 168.857Z" fill="#2C2F37"/>
<path d="M246.55 169.286L246.188 169.463L252.922 183.176L253.285 182.998L246.55 169.286Z" fill="#2C2F37"/>
<path d="M249.655 176.088L168.805 215.594L168.982 215.956L249.833 176.45L249.655 176.088Z" fill="#2C2F37"/>
<path d="M247.413 171.492L166.562 210.998L166.74 211.36L247.591 171.854L247.413 171.492Z" fill="#2C2F37"/>
<path d="M251.906 180.685L171.047 220.182L171.225 220.544L252.084 181.047L251.906 180.685Z" fill="#2C2F37"/>
<path d="M194.164 206.252L192.648 211.493C196.185 212.955 203.915 214.567 204.673 214.567C205.431 214.567 205.482 213.862 204.825 213.66C204.218 213.459 200.783 212.35 200.783 212.35C200.783 212.35 205.583 213.005 206.239 213.055C206.896 213.106 207.401 212.451 206.441 212.098C205.482 211.745 201.288 210.888 201.288 210.888C201.288 210.888 206.745 211.544 207.25 211.544C207.755 211.493 208.159 210.888 207.3 210.586C206.441 210.284 201.541 209.276 201.541 209.276C201.541 209.276 206.189 209.528 206.745 209.528C207.25 209.528 207.553 208.873 206.593 208.57C205.583 208.268 195.932 206.353 194.164 206.252Z" fill="#C96742"/>
<path d="M194.164 206.253C195.175 205.548 198.206 204.137 199.065 204.086C199.924 203.985 203.157 204.54 203.107 205.195C203.056 205.85 201.44 206.152 200.328 205.8C199.873 206.707 198.913 207.916 197.751 208.37C196.539 208.773 194.164 206.253 194.164 206.253Z" fill="#C96742"/>
<path d="M200.271 213.358C200.22 213.358 200.17 213.358 200.17 213.307C200.069 213.257 200.069 213.106 200.119 213.055C201.029 211.896 201.483 209.981 201.332 208.217C201.332 208.116 201.382 208.016 201.483 208.016C201.584 208.016 201.685 208.066 201.685 208.167C201.837 209.981 201.332 211.997 200.372 213.257C200.372 213.358 200.321 213.358 200.271 213.358Z" fill="#EB3441"/>
<path d="M199.423 207.313H199.373C198.009 206.96 196.644 206.658 195.23 206.456C195.129 206.456 195.078 206.355 195.078 206.255C195.078 206.154 195.179 206.104 195.28 206.104C196.695 206.305 198.11 206.607 199.474 207.011C199.575 207.061 199.625 207.162 199.625 207.263C199.625 207.263 199.524 207.313 199.423 207.313Z" fill="#EB3441"/>
<path d="M194.165 206.253L192.65 211.494C188.456 210.89 169.257 208.773 165.468 205.447C162.487 202.826 169.358 197.887 172.39 199.046C175.472 200.205 190.629 205.044 194.165 206.253Z" fill="#C96742"/>
<path d="M173.761 200.961C173.66 200.961 173.609 200.911 173.559 200.81C173.508 200.709 173.559 200.608 173.66 200.558C174.62 200.256 175.63 200.155 176.641 200.306C176.136 199.852 175.58 199.5 174.923 199.348C174.822 199.298 174.771 199.197 174.771 199.097C174.822 198.996 174.923 198.945 175.024 198.945C175.883 199.197 176.691 199.701 177.348 200.457C177.399 200.508 177.399 200.608 177.348 200.659C177.298 200.709 177.197 200.76 177.146 200.76C176.035 200.457 174.873 200.508 173.812 200.911C173.812 200.961 173.761 200.961 173.761 200.961Z" fill="#EB3441"/>
<path d="M234.242 192.24C236.516 192.794 241.72 190.325 242.528 189.115C243.336 187.906 242.225 184.781 242.124 184.177C242.023 183.622 240.81 183.673 240.861 184.428C240.911 185.184 240.76 186.596 240.76 186.596C240.76 186.596 240.356 184.227 240.153 183.572C239.951 182.917 238.89 183.169 238.89 184.025C238.89 184.882 239.092 187.805 239.092 187.805C239.092 187.805 238.537 185.285 238.284 184.781C238.031 184.277 237.072 184.378 237.021 185.285C237.021 186.192 237.375 188.914 237.375 188.914C237.375 188.914 236.768 186.797 236.465 186.192C236.213 185.588 235.253 186.041 235.354 187.301C235.404 188.561 235.556 190.879 235.556 190.879C235.051 191.03 234.495 191.434 234.242 192.24Z" fill="#C96742"/>
<path d="M234.995 192.491C234.692 192.491 234.44 192.44 234.238 192.39C234.136 192.39 234.086 192.239 234.086 192.138C234.086 192.037 234.238 191.987 234.339 191.987C235.804 192.34 238.886 191.281 240.957 190.072C241.058 190.021 241.159 190.072 241.21 190.122C241.26 190.223 241.21 190.324 241.159 190.374C239.29 191.533 236.713 192.491 234.995 192.491Z" fill="#EB3441"/>
<path d="M237.518 189.97C237.417 189.97 237.366 189.92 237.316 189.819L237.164 188.811C237.164 188.71 237.215 188.609 237.316 188.609C237.417 188.609 237.518 188.66 237.518 188.761L237.669 189.768C237.72 189.819 237.669 189.92 237.518 189.97Z" fill="#EB3441"/>
<path d="M239.295 188.76C239.194 188.76 239.143 188.709 239.093 188.608L238.891 187.399C238.891 187.298 238.941 187.197 239.042 187.197C239.143 187.197 239.244 187.248 239.244 187.348L239.446 188.558C239.497 188.608 239.396 188.709 239.295 188.76Z" fill="#EB3441"/>
<path d="M240.963 187.65C240.862 187.65 240.761 187.6 240.761 187.499L240.609 186.289C240.609 186.189 240.66 186.088 240.761 186.088C240.862 186.088 240.963 186.138 240.963 186.239L241.115 187.449C241.165 187.549 241.064 187.65 240.963 187.65Z" fill="#EB3441"/>
<path d="M211.628 155.753C211.527 157.365 210.769 158.877 209.607 159.986C209.455 158.474 209.405 157.063 209.506 155.602C210.264 155.602 210.92 155.702 211.628 155.753Z" fill="#2C2F37"/>
<path d="M206.325 169.81C205.062 169.81 203.799 169.507 202.687 168.902C201.576 168.298 200.666 167.491 199.959 166.433L198.797 164.77V154.64C198.797 152.524 200.515 150.81 202.637 150.86L206.123 150.961C208.194 151.012 209.053 152.826 209.811 154.741C210.721 157.009 210.013 158.47 210.064 160.94C210.064 161.242 210.114 161.494 210.114 161.797C210.114 161.897 210.165 162.049 210.165 162.149C210.165 162.2 210.165 162.25 210.215 162.351C210.215 162.452 210.266 162.603 210.266 162.704C210.266 162.804 210.316 162.905 210.316 163.006C210.316 163.056 210.316 163.107 210.316 163.157C210.367 163.409 210.367 163.661 210.417 163.863C210.417 164.064 210.468 164.316 210.468 164.518C210.619 168.6 208.043 169.81 206.325 169.81Z" fill="#C96742"/>
<path d="M206.126 173.94C206.126 173.94 204.913 176.157 201.679 176.157C198.597 176.157 197.031 173.94 197.031 173.94L198.8 164.768L205.418 169.001L205.57 169.807L205.822 171.47L206.126 173.94Z" fill="#C96742"/>
<path d="M205.823 171.421C204.56 171.169 203.398 170.565 202.387 169.758C201.427 168.952 200.619 167.893 200.164 166.734C200.821 167.642 201.73 168.397 202.69 168.952C203.549 169.405 204.509 169.708 205.52 169.809L205.823 171.421Z" fill="#2C2F37"/>
<path d="M200.427 162.707C200.427 164.118 199.316 165.227 197.901 165.227C196.487 165.227 195.375 164.118 195.375 162.707C195.375 161.296 196.487 160.188 197.901 160.188C199.265 160.188 200.427 161.347 200.427 162.707Z" fill="#C96742"/>
<path d="M199.316 164.269C199.215 164.269 199.114 164.168 199.114 164.067C199.064 163.412 198.761 162.807 198.255 162.404C197.75 162.001 197.093 161.85 196.436 161.951C196.335 161.951 196.234 161.9 196.234 161.799C196.234 161.699 196.285 161.598 196.386 161.598C197.093 161.497 197.902 161.648 198.508 162.152C199.114 162.606 199.468 163.311 199.518 164.067C199.518 164.168 199.468 164.269 199.316 164.269Z" fill="#EB3441"/>
<path d="M196.796 163.916H196.745C196.644 163.865 196.594 163.765 196.594 163.664C196.846 162.858 197.503 162.253 198.362 162.102C198.463 162.102 198.564 162.152 198.564 162.253C198.564 162.354 198.514 162.454 198.413 162.454C197.756 162.555 197.15 163.059 196.947 163.765C196.947 163.865 196.897 163.916 196.796 163.916Z" fill="#EB3441"/>
<path d="M205.928 162.955C205.878 162.955 205.777 162.904 205.777 162.854C205.726 162.753 205.777 162.652 205.878 162.602C206.08 162.501 206.282 162.4 206.433 162.3C206.534 162.199 206.635 161.997 206.534 161.846C206.484 161.745 206.433 161.695 206.332 161.644C206.282 161.594 206.282 161.594 206.231 161.544C205.979 161.292 205.777 160.888 205.676 160.435C205.625 160.032 205.625 159.629 205.625 159.276C205.625 159.175 205.676 159.074 205.827 159.074C205.928 159.074 206.029 159.175 206.029 159.276C206.029 159.629 206.029 160.032 206.08 160.385C206.13 160.637 206.231 161.04 206.484 161.292L206.585 161.392C206.686 161.493 206.787 161.594 206.888 161.745C207.04 162.048 206.888 162.4 206.686 162.602C206.484 162.804 206.231 162.904 206.029 163.005C205.979 162.955 205.928 162.955 205.928 162.955Z" fill="#2C2F37"/>
<path d="M207 157.404C207 157.555 207 157.707 207.101 157.807C207.202 157.908 207.253 158.009 207.404 158.11C207.657 157.908 207.96 157.757 208.263 157.707C208.566 157.656 208.869 157.757 209.122 157.908C209.375 158.059 209.627 158.261 209.829 158.462C209.93 158.462 209.981 158.362 209.981 158.311C209.728 157.807 209.223 157.354 208.667 157.203C208.112 157.001 207.505 157.102 207 157.404Z" fill="#2C2F37"/>
<path d="M207.242 160.379H207.191C207.09 160.328 207.04 160.227 207.09 160.127C207.292 159.623 207.747 159.32 208.353 159.32C208.909 159.32 209.414 159.623 209.667 160.127C209.717 160.227 209.667 160.328 209.566 160.379C209.465 160.429 209.364 160.379 209.313 160.278C209.111 159.925 208.757 159.673 208.303 159.673C207.848 159.673 207.545 159.875 207.393 160.227C207.393 160.328 207.343 160.379 207.242 160.379Z" fill="#2C2F37"/>
<path d="M207.906 160.128C207.906 160.481 208.108 160.783 208.411 160.783C208.664 160.783 208.917 160.481 208.917 160.128C208.917 159.775 208.715 159.473 208.411 159.473C208.108 159.473 207.906 159.775 207.906 160.128Z" fill="#2C2F37"/>
<path d="M204.723 157.404C204.723 157.555 204.723 157.707 204.622 157.807C204.572 157.908 204.47 158.009 204.319 158.11C204.066 157.908 203.763 157.757 203.46 157.707C203.157 157.656 202.854 157.757 202.601 157.908C202.348 158.059 202.096 158.261 201.894 158.462C201.793 158.462 201.742 158.362 201.742 158.311C201.995 157.807 202.5 157.354 203.056 157.203C203.612 157.001 204.218 157.102 204.723 157.404Z" fill="#2C2F37"/>
<path d="M204.468 160.381C204.418 160.381 204.317 160.331 204.317 160.28C204.165 159.927 203.862 159.726 203.407 159.726C203.003 159.726 202.599 159.927 202.397 160.331C202.346 160.431 202.245 160.482 202.144 160.431C202.043 160.381 201.993 160.28 202.043 160.179C202.296 159.675 202.801 159.373 203.357 159.373C203.963 159.373 204.418 159.675 204.62 160.179C204.671 160.28 204.62 160.381 204.519 160.431C204.519 160.381 204.468 160.381 204.468 160.381Z" fill="#2C2F37"/>
<path d="M202.852 160.128C202.852 160.481 203.054 160.783 203.357 160.783C203.609 160.783 203.862 160.481 203.862 160.128C203.862 159.775 203.66 159.473 203.357 159.473C203.054 159.473 202.852 159.775 202.852 160.128Z" fill="#2C2F37"/>
<path d="M203.75 165.224C205.266 164.569 207.085 164.518 208.6 165.123C208.196 166.03 207.236 166.736 206.226 166.736C205.215 166.736 204.154 166.081 203.75 165.224Z" fill="white"/>
<path d="M194.65 155.701C194.953 157.415 195.66 159.027 196.519 160.59C196.923 160.338 197.378 160.186 197.883 160.186C198.894 160.186 199.752 160.791 200.157 161.648C200.409 161.598 200.611 161.396 200.712 161.194C200.864 160.892 200.915 160.539 200.915 160.186C201.016 158.624 200.965 157.062 200.864 155.5C201.672 154.643 202.784 154.038 203.997 153.836C205.159 153.685 206.422 153.887 207.432 154.441C208.443 154.996 209.251 155.852 210.261 156.407C211.322 156.961 212.586 157.112 213.798 156.81C214.404 156.659 214.96 156.407 215.314 155.852C215.769 155.096 215.516 154.088 214.91 153.433C214.303 152.778 213.444 152.526 212.586 152.375C213.242 152.173 213.849 151.871 214.253 151.317C214.607 150.762 214.607 149.906 214.051 149.502C213.798 149.301 213.444 149.25 213.091 149.2C211.979 149.099 210.868 149.301 209.857 149.704C210.16 149.402 210.464 149.049 210.666 148.646C210.918 148.242 211.019 147.789 210.918 147.386C210.817 146.983 210.514 146.68 210.11 146.479C209.756 146.277 209.302 146.227 208.897 146.227C207.836 146.227 206.826 146.579 205.916 147.083C205.007 147.587 204.249 148.293 203.441 148.998C203.794 148.494 203.794 147.738 203.491 147.184C203.188 146.63 202.582 146.277 201.976 146.277C201.47 146.277 201.016 146.479 200.611 146.831C200.207 147.134 199.904 147.537 199.651 147.94C198.54 149.553 197.883 151.417 197.176 153.232C196.923 152.728 196.115 152.577 195.61 152.778C195.104 152.98 194.751 153.433 194.599 153.988C194.549 154.643 194.599 155.147 194.65 155.701Z" fill="#2C2F37"/>
<defs>
<clipPath id="clip0_902_149103">
<rect width="64.2623" height="18.4099" fill="white" transform="translate(504.742 301.779)"/>
</clipPath>
<clipPath id="clip1_902_149103">
<rect width="46.6327" height="22.0643" fill="white" transform="translate(99.3047 297.643)"/>
</clipPath>
</defs>
</svg>
