<svg width="42" height="23" viewBox="0 0 42 23" fill="none" xmlns="http://www.w3.org/2000/svg">
<path d="M42 18.9808L32.9587 21.1217L40.4113 26.2389L31.1389 25.0901L35.8473 32.4005L27.7593 28.1448L29.0303 36.5256L23.3686 29.7896L21 37.9615L18.6314 29.7896L12.9697 36.5256L14.2407 28.1448L6.15268 32.4005L10.8611 25.0901L1.58872 26.2389L9.07015 21.1217L0 18.9808L9.07015 16.8399L1.58872 11.7227L10.8611 12.8714L6.15268 5.56108L14.2407 9.81674L12.9697 1.43596L18.6314 8.19802L21 0L23.3686 8.19802L29.0303 1.43596L27.7593 9.81674L35.8473 5.56108L31.1389 12.8714L40.4113 11.7227L32.9587 16.8399L42 18.9808Z" fill="#F3D03E"/>
</svg>
