<svg width="60" height="60" viewBox="0 0 60 60" fill="none" xmlns="http://www.w3.org/2000/svg">
<g clip-path="url(#clip0_5137_34538)">
<path d="M16.2257 59.9992C16.0852 59.9992 15.9437 59.9823 15.804 59.9479C15.2061 59.8002 14.7293 59.3504 14.5467 58.7624L11.4006 48.6259L1.2641 45.4797C0.675937 45.2971 0.226406 44.8202 0.0787494 44.2225C-0.069024 43.6247 0.106757 42.9933 0.542226 42.5579L22.429 20.6712C22.7586 20.3415 23.2057 20.1562 23.6719 20.1562C24.138 20.1562 24.5852 20.3415 24.9148 20.6712L39.3552 35.1116C40.0417 35.7981 40.0417 36.911 39.3552 37.5975L17.4686 59.4843C17.135 59.818 16.6862 59.9992 16.2257 59.9992V59.9992Z" fill="#F06771"/>
<path d="M43.7715 59.9991C43.3109 59.9991 42.8621 59.8178 42.5286 59.4841L20.6418 37.5975C19.9553 36.911 19.9553 35.7981 20.6418 35.1116L35.0822 20.6712C35.4119 20.3415 35.859 20.1562 36.3251 20.1562C36.7913 20.1562 37.2385 20.3415 37.568 20.6712L59.4548 42.5579C59.8903 42.9933 60.066 43.6248 59.9183 44.2225C59.7706 44.8202 59.321 45.2971 58.7329 45.4796L48.5964 48.6259L45.4503 58.7624C45.2677 59.3504 44.7909 59.8001 44.193 59.9478C44.0534 59.9822 43.9119 59.9991 43.7715 59.9991V59.9991Z" fill="#E60112"/>
<path d="M45.4856 39.1651C54.0423 30.6084 54.0423 16.7353 45.4856 8.17863C36.9289 -0.378046 23.0558 -0.378044 14.4991 8.17863C5.94242 16.7353 5.94242 30.6084 14.4991 39.1651C23.0558 47.7218 36.9289 47.7218 45.4856 39.1651Z" fill="#FFF26C"/>
<path fill-rule="evenodd" clip-rule="evenodd" d="M29.998 1.75781V45.5859C42.0679 45.5859 51.912 35.7417 51.912 23.6719C51.912 11.602 42.0679 1.75781 29.998 1.75781Z" fill="#FFDB00"/>
<path d="M29.998 47.3438C16.9454 47.3438 6.32617 36.7246 6.32617 23.6719C6.32617 10.6192 16.9454 0 29.998 0C43.0507 0 53.6699 10.6192 53.6699 23.6719C53.6699 36.7246 43.0507 47.3438 29.998 47.3438ZM29.998 3.51562C18.8839 3.51562 9.8418 12.5577 9.8418 23.6719C9.8418 34.7861 18.8839 43.8281 29.998 43.8281C41.1122 43.8281 50.1543 34.7861 50.1543 23.6719C50.1543 12.5577 41.1122 3.51562 29.998 3.51562Z" fill="#FDBF00"/>
<path d="M29.998 40.5469C20.6931 40.5469 13.123 32.9768 13.123 23.6719C13.123 14.367 20.6931 6.79688 29.998 6.79688C39.303 6.79688 46.873 14.367 46.873 23.6719C46.873 32.9768 39.3031 40.5469 29.998 40.5469Z" fill="#FDBF00"/>
<path d="M29.998 0V3.51562C41.1122 3.51562 50.1542 12.5577 50.1542 23.6719C50.1542 34.7861 41.1121 43.8281 29.998 43.8281V47.3438C43.0507 47.3438 53.6698 36.7246 53.6698 23.6719C53.6698 10.6192 43.0507 0 29.998 0Z" fill="#FF8856"/>
<path d="M29.998 6.79688V40.5469C39.303 40.5469 46.8729 32.9768 46.8729 23.6719C46.8729 14.367 39.303 6.79699 29.998 6.79688Z" fill="#FF8856"/>
<path d="M34.9954 32.6071C34.7885 32.6071 34.5808 32.5706 34.3816 32.4963L29.998 30.8623L25.6146 32.4963C25.0627 32.7021 24.4443 32.6177 23.9675 32.2713C23.4907 31.925 23.2192 31.3629 23.2444 30.7743L23.444 26.1005L20.5354 22.4365C20.1691 21.975 20.0583 21.3607 20.2403 20.8004C20.4223 20.2402 20.873 19.8082 21.4407 19.6502L25.9473 18.3956L28.5331 14.4971C28.8587 14.0061 29.4088 13.7109 29.9979 13.7109C30.587 13.7109 31.1371 14.0061 31.4628 14.4971L34.0485 18.3956L38.5552 19.6502C39.1228 19.8083 39.5734 20.2402 39.7555 20.8004C39.9376 21.3607 39.8268 21.9751 39.4605 22.4365L36.5519 26.1004L36.7514 30.7741C36.7766 31.3628 36.5051 31.9249 36.0284 32.2712C35.7241 32.4927 35.3615 32.6071 34.9954 32.6071V32.6071Z" fill="#F06771"/>
<path d="M39.7557 20.8004C39.5736 20.24 39.123 19.8082 38.5553 19.6502L34.0486 18.3956L31.4628 14.4971C31.1371 14.0061 30.5871 13.7109 29.998 13.7109V30.8623L34.3813 32.4962C34.5805 32.5705 34.7884 32.607 34.9952 32.607C35.3612 32.607 35.7238 32.4926 36.0284 32.2712C36.5051 31.9249 36.7766 31.3628 36.7514 30.7741L36.5519 26.1004L39.4605 22.4365C39.8269 21.9751 39.9378 21.3607 39.7557 20.8004V20.8004Z" fill="#E60112"/>
</g>
<defs>
<clipPath id="clip0_5137_34538">
<rect width="60" height="60" fill="white"/>
</clipPath>
</defs>
</svg>
