<svg width="130" height="131" viewBox="0 0 130 131" fill="none" xmlns="http://www.w3.org/2000/svg">
<circle cx="61.5" cy="65" r="56.5" fill="#FEEDEE"/>
<g clip-path="url(#clip0_648_67369)">
<path d="M93.5 65.5H29.5L28 74.5L29.5 80.5H34.5H93.5L95 76.5L93.5 65.5Z" fill="#F06771"/>
<path d="M31.4 82.0333H37.0667V88.8333C37.0704 91.9614 39.6053 94.4963 42.7333 94.5H81.2667C84.3947 94.4963 86.9296 91.9614 86.9333 88.8333V82.0333H92.6C94.4778 82.0333 96 80.5111 96 78.6333V67.3C96 65.4222 94.4778 63.9 92.6 63.9H86.9333V57.1C86.9296 53.9719 84.3947 51.4371 81.2667 51.4333V45.7667C81.2667 35.126 72.6407 26.5 62 26.5C51.3593 26.5 42.7333 35.126 42.7333 45.7667V51.4333C39.6053 51.4371 37.0704 53.9719 37.0667 57.1V63.9H31.4C29.5222 63.9 28 65.4222 28 67.3V78.6333C28 80.5111 29.5222 82.0333 31.4 82.0333ZM84.6667 88.8333C84.6667 90.7111 83.1444 92.2333 81.2667 92.2333H42.7333C40.8556 92.2333 39.3333 90.7111 39.3333 88.8333V82.0333H84.6667V88.8333ZM45 45.7667C45 36.3778 52.6112 28.7667 62 28.7667C71.3888 28.7667 79 36.3778 79 45.7667V51.4333H74.4667V45.7667C74.4667 38.8815 68.8852 33.3 62 33.3C55.1148 33.3 49.5333 38.8815 49.5333 45.7667V51.4333H45V45.7667ZM51.8 51.4333V45.7667C51.8 40.1334 56.3667 35.5667 62 35.5667C67.6333 35.5667 72.2 40.1334 72.2 45.7667V51.4333H51.8ZM39.3333 57.1C39.3333 55.2222 40.8556 53.7 42.7333 53.7H81.2667C83.1444 53.7 84.6667 55.2222 84.6667 57.1V63.9H39.3333V57.1ZM30.2667 67.3C30.2667 66.6741 30.7741 66.1667 31.4 66.1667H92.6C93.2259 66.1667 93.7333 66.6741 93.7333 67.3V78.6333C93.7333 79.2593 93.2259 79.7667 92.6 79.7667H31.4C30.7741 79.7667 30.2667 79.2593 30.2667 78.6333V67.3Z" fill="black"/>
<path d="M32.2239 75.8626C32.3907 76.1127 32.65 76.2863 32.9448 76.3452C33.2396 76.4041 33.5457 76.3434 33.7958 76.1765L35.4335 75.084V76.3669C35.4335 76.9929 35.9409 77.5003 36.5668 77.5003C37.1927 77.5003 37.7001 76.9929 37.7001 76.3669V75.084L39.3378 76.1765C39.6747 76.4012 40.1058 76.4292 40.4689 76.2498C40.832 76.0704 41.0717 75.711 41.0979 75.3069C41.1241 74.9028 40.9327 74.5154 40.5958 74.2907L38.6068 72.9669L40.5924 71.6432C40.9293 71.4185 41.1207 71.0311 41.0945 70.627C41.0683 70.2229 40.8286 69.8634 40.4655 69.6841C40.1024 69.5047 39.6713 69.5326 39.3344 69.7573L37.7001 70.8499V69.5669C37.7001 68.941 37.1927 68.4336 36.5668 68.4336C35.9409 68.4336 35.4335 68.941 35.4335 69.5669V70.8499L33.7958 69.7573C33.275 69.4099 32.5713 69.5505 32.2239 70.0713C31.8765 70.592 32.017 71.2958 32.5378 71.6432L34.5268 72.9669L32.5378 74.2907C32.2877 74.4575 32.1141 74.7168 32.0552 75.0116C31.9963 75.3064 32.057 75.6125 32.2239 75.8626Z" fill="black"/>
<path d="M44.6907 75.8626C44.8575 76.1127 45.1168 76.2863 45.4116 76.3452C45.7064 76.4041 46.0125 76.3434 46.2626 76.1765L47.9003 75.084V76.3669C47.9003 76.9929 48.4077 77.5003 49.0336 77.5003C49.6595 77.5003 50.1669 76.9929 50.1669 76.3669V75.084L51.8046 76.1765C52.1415 76.4012 52.5726 76.4292 52.9357 76.2498C53.2988 76.0704 53.5385 75.711 53.5647 75.3069C53.5909 74.9028 53.3995 74.5154 53.0626 74.2907L51.0736 72.9669L53.0592 71.6432C53.3961 71.4185 53.5875 71.0311 53.5613 70.627C53.5351 70.2229 53.2954 69.8634 52.9323 69.6841C52.5692 69.5047 52.1381 69.5326 51.8012 69.7573L50.1669 70.8499V69.5669C50.1669 68.941 49.6595 68.4336 49.0336 68.4336C48.4077 68.4336 47.9003 68.941 47.9003 69.5669V70.8499L46.2626 69.7573C45.7418 69.4099 45.038 69.5505 44.6907 70.0713C44.3433 70.592 44.4838 71.2958 45.0046 71.6432L46.9936 72.9669L45.008 74.2907C44.7573 74.4569 44.583 74.716 44.5235 75.0109C44.464 75.3057 44.5241 75.6121 44.6907 75.8626Z" fill="black"/>
<path d="M69.6243 75.8626C69.7911 76.1127 70.0504 76.2863 70.3452 76.3452C70.64 76.4041 70.9461 76.3434 71.1962 76.1765L72.8339 75.084V76.3669C72.8339 76.9929 73.3413 77.5003 73.9672 77.5003C74.5931 77.5003 75.1005 76.9929 75.1005 76.3669V75.084L76.7382 76.1765C77.0751 76.4012 77.5062 76.4292 77.8693 76.2498C78.2323 76.0704 78.4721 75.711 78.4983 75.3069C78.5245 74.9028 78.3331 74.5154 77.9962 74.2907L76.0072 72.9669L77.9928 71.6432C78.3297 71.4185 78.5211 71.0311 78.4949 70.627C78.4687 70.2229 78.2289 69.8634 77.8659 69.6841C77.5028 69.5047 77.0717 69.5326 76.7348 69.7573L75.1005 70.8499V69.5669C75.1005 68.941 74.5931 68.4336 73.9672 68.4336C73.3413 68.4336 72.8339 68.941 72.8339 69.5669V70.8499L71.1962 69.7573C70.6754 69.4099 69.9716 69.5505 69.6243 70.0713C69.2769 70.592 69.4174 71.2958 69.9382 71.6432L71.9272 72.9669L69.9416 74.2907C69.6909 74.4569 69.5166 74.716 69.4571 75.0109C69.3976 75.3057 69.4577 75.6121 69.6243 75.8626Z" fill="black"/>
<path d="M57.1575 75.8626C57.3243 76.1127 57.5836 76.2863 57.8784 76.3452C58.1732 76.4041 58.4793 76.3434 58.7294 76.1765L60.3671 75.084V76.3669C60.3671 76.9929 60.8745 77.5003 61.5004 77.5003C62.1263 77.5003 62.6337 76.9929 62.6337 76.3669V75.084L64.2714 76.1765C64.6083 76.4012 65.0394 76.4292 65.4025 76.2498C65.7655 76.0704 66.0053 75.711 66.0315 75.3069C66.0577 74.9028 65.8663 74.5154 65.5294 74.2907L63.5404 72.9669L65.526 71.6432C65.8629 71.4185 66.0543 71.0311 66.0281 70.627C66.0019 70.2229 65.7621 69.8634 65.3991 69.6841C65.036 69.5047 64.6049 69.5326 64.268 69.7573L62.6337 70.8499V69.5669C62.6337 68.941 62.1263 68.4336 61.5004 68.4336C60.8745 68.4336 60.3671 68.941 60.3671 69.5669V70.8499L58.7294 69.7573C58.2086 69.4099 57.5048 69.5505 57.1575 70.0713C56.8101 70.592 56.9506 71.2958 57.4714 71.6432L59.4604 72.9669L57.4748 74.2907C57.2241 74.4569 57.0498 74.716 56.9903 75.0109C56.9308 75.3057 56.9909 75.6121 57.1575 75.8626Z" fill="black"/>
<path d="M45.6329 55.9668H42.2329C41.607 55.9668 41.0996 56.4742 41.0996 57.1001V60.5001C41.0996 61.1261 41.607 61.6335 42.2329 61.6335C42.8589 61.6335 43.3663 61.1261 43.3663 60.5001V58.2335H45.6329C46.2589 58.2335 46.7663 57.7261 46.7663 57.1001C46.7663 56.4742 46.2589 55.9668 45.6329 55.9668Z" fill="black"/>
<path d="M83.0337 77.4991H89.8337C90.4596 77.4991 90.9671 76.9917 90.9671 76.3658C90.9671 75.7398 90.4596 75.2324 89.8337 75.2324H83.0337C82.4078 75.2324 81.9004 75.7398 81.9004 76.3658C81.9004 76.9917 82.4078 77.4991 83.0337 77.4991Z" fill="black"/>
</g>
<rect x="98.334" y="19.834" width="21.3333" height="21.3333" rx="10.6667" fill="#1DBF73" stroke="#1DBF73" stroke-width="1.5"/>
<path d="M105.445 29.6115L108.493 32.2782L112.556 28.7227" stroke="white" stroke-width="1.5" stroke-linecap="round"/>
<defs>
<clipPath id="clip0_648_67369">
<rect width="68" height="68" fill="white" transform="translate(27.5 26.5)"/>
</clipPath>
</defs>
</svg>
