<svg width="118" height="37" viewBox="0 0 118 37" fill="none" xmlns="http://www.w3.org/2000/svg">
<path d="M0 8.5C0 4.08172 3.58172 0.5 8 0.5H110C114.418 0.5 118 4.08172 118 8.5V28.5C118 32.9183 114.418 36.5 110 36.5H8C3.58172 36.5 0 32.9183 0 28.5V8.5Z" fill="#3FAEFF"/>
<path fill-rule="evenodd" clip-rule="evenodd" d="M20.8346 16.6109C20.4358 16.6109 20.1124 16.9343 20.1124 17.3332V23.8332C20.1124 24.232 20.4358 24.5554 20.8346 24.5554H27.3346C27.7335 24.5554 28.0569 24.232 28.0569 23.8332V17.3332C28.0569 16.9343 27.7335 16.6109 27.3346 16.6109H20.8346ZM18.668 17.3332C18.668 16.1366 19.638 15.1665 20.8346 15.1665H27.3346C28.5313 15.1665 29.5013 16.1366 29.5013 17.3332V23.8332C29.5013 25.0298 28.5313 25.9998 27.3346 25.9998H20.8346C19.638 25.9998 18.668 25.0298 18.668 23.8332V17.3332Z" fill="white"/>
<path fill-rule="evenodd" clip-rule="evenodd" d="M16.6667 12.4444C16.4751 12.4444 16.2914 12.5205 16.156 12.656C16.0205 12.7914 15.9444 12.9751 15.9444 13.1667V19.6667C15.9444 19.8582 16.0205 20.0419 16.156 20.1774C16.2914 20.3128 16.4751 20.3889 16.6667 20.3889H17.3889C17.7878 20.3889 18.1111 20.7122 18.1111 21.1111C18.1111 21.51 17.7878 21.8333 17.3889 21.8333H16.6667C16.092 21.8333 15.5409 21.6051 15.1346 21.1987C14.7283 20.7924 14.5 20.2413 14.5 19.6667V13.1667C14.5 12.592 14.7283 12.0409 15.1346 11.6346C15.5409 11.2283 16.092 11 16.6667 11H23.1667C23.7413 11 24.2924 11.2283 24.6987 11.6346C25.1051 12.0409 25.3333 12.592 25.3333 13.1667V13.8889C25.3333 14.2878 25.01 14.6111 24.6111 14.6111C24.2122 14.6111 23.8889 14.2878 23.8889 13.8889V13.1667C23.8889 12.9751 23.8128 12.7914 23.6774 12.656C23.5419 12.5205 23.3582 12.4444 23.1667 12.4444H16.6667Z" fill="white"/>
<path d="M51.8686 16.8828H49.6911C49.6513 16.6011 49.5701 16.3509 49.4474 16.1321C49.3248 15.91 49.1674 15.7211 48.9751 15.5653C48.7829 15.4096 48.5608 15.2902 48.3089 15.2074C48.0604 15.1245 47.7902 15.0831 47.4986 15.0831C46.9716 15.0831 46.5125 15.214 46.1214 15.4759C45.7304 15.7344 45.4271 16.1122 45.2116 16.6094C44.9962 17.1032 44.8885 17.7031 44.8885 18.4091C44.8885 19.1349 44.9962 19.7448 45.2116 20.2386C45.4304 20.7325 45.7353 21.1054 46.1264 21.3572C46.5175 21.6091 46.9699 21.7351 47.4837 21.7351C47.772 21.7351 48.0388 21.697 48.2841 21.6207C48.5327 21.5445 48.7531 21.4335 48.9453 21.2876C49.1375 21.1385 49.2966 20.9579 49.4226 20.7457C49.5518 20.5336 49.6413 20.2917 49.6911 20.0199L51.8686 20.0298C51.8123 20.4972 51.6714 20.9479 51.446 21.3821C51.224 21.813 50.924 22.1991 50.5462 22.5405C50.1716 22.8786 49.7242 23.147 49.2038 23.3459C48.6868 23.5414 48.1018 23.6392 47.4489 23.6392C46.5407 23.6392 45.7287 23.4337 45.0128 23.0227C44.3002 22.6117 43.7367 22.0168 43.3224 21.2379C42.9115 20.459 42.706 19.5161 42.706 18.4091C42.706 17.2988 42.9148 16.3542 43.3324 15.5753C43.75 14.7964 44.3168 14.2031 45.0327 13.7955C45.7486 13.3845 46.554 13.179 47.4489 13.179C48.0388 13.179 48.5857 13.2618 49.0895 13.4276C49.5966 13.5933 50.0457 13.8352 50.4368 14.1534C50.8279 14.4683 51.1461 14.8544 51.3913 15.3118C51.6399 15.7692 51.799 16.2929 51.8686 16.8828ZM56.8228 23.6491C56.0505 23.6491 55.3827 23.4851 54.8192 23.157C54.2591 22.8255 53.8266 22.3648 53.5217 21.7749C53.2167 21.1816 53.0643 20.4938 53.0643 19.7116C53.0643 18.9228 53.2167 18.2334 53.5217 17.6435C53.8266 17.0502 54.2591 16.5895 54.8192 16.2614C55.3827 15.9299 56.0505 15.7642 56.8228 15.7642C57.5951 15.7642 58.2612 15.9299 58.8214 16.2614C59.3848 16.5895 59.819 17.0502 60.1239 17.6435C60.4289 18.2334 60.5813 18.9228 60.5813 19.7116C60.5813 20.4938 60.4289 21.1816 60.1239 21.7749C59.819 22.3648 59.3848 22.8255 58.8214 23.157C58.2612 23.4851 57.5951 23.6491 56.8228 23.6491ZM56.8327 22.0085C57.1841 22.0085 57.4774 21.9091 57.7127 21.7102C57.948 21.508 58.1254 21.233 58.2447 20.8849C58.3673 20.5369 58.4286 20.1409 58.4286 19.6967C58.4286 19.2526 58.3673 18.8565 58.2447 18.5085C58.1254 18.1605 57.948 17.8854 57.7127 17.6832C57.4774 17.4811 57.1841 17.38 56.8327 17.38C56.4781 17.38 56.1798 17.4811 55.9379 17.6832C55.6992 17.8854 55.5186 18.1605 55.396 18.5085C55.2766 18.8565 55.217 19.2526 55.217 19.6967C55.217 20.1409 55.2766 20.5369 55.396 20.8849C55.5186 21.233 55.6992 21.508 55.9379 21.7102C56.1798 21.9091 56.4781 22.0085 56.8327 22.0085ZM61.9585 26.3636V15.8636H64.0465V17.1463H64.141C64.2338 16.9408 64.368 16.732 64.5437 16.5199C64.7227 16.3045 64.9547 16.1255 65.2397 15.983C65.5281 15.8371 65.886 15.7642 66.3136 15.7642C66.8704 15.7642 67.3841 15.91 67.8548 16.2017C68.3254 16.4901 68.7016 16.9259 68.9833 17.5092C69.265 18.0893 69.4059 18.8168 69.4059 19.6918C69.4059 20.5436 69.2683 21.2628 68.9933 21.8494C68.7215 22.4328 68.3503 22.8752 67.8796 23.1768C67.4123 23.4751 66.8886 23.6243 66.3086 23.6243C65.8976 23.6243 65.5479 23.5563 65.2596 23.4205C64.9746 23.2846 64.7409 23.1139 64.5586 22.9084C64.3763 22.6996 64.2371 22.4891 64.141 22.277H64.0763V26.3636H61.9585ZM64.0316 19.6818C64.0316 20.1359 64.0946 20.532 64.2205 20.87C64.3465 21.2081 64.5288 21.4716 64.7674 21.6605C65.006 21.8461 65.296 21.9389 65.6374 21.9389C65.9821 21.9389 66.2738 21.8445 66.5124 21.6555C66.7511 21.4633 66.9317 21.1982 67.0543 20.8601C67.1803 20.5187 67.2433 20.1259 67.2433 19.6818C67.2433 19.241 67.1819 18.8532 67.0593 18.5185C66.9367 18.1837 66.756 17.9219 66.5174 17.733C66.2788 17.544 65.9854 17.4496 65.6374 17.4496C65.2927 17.4496 65.0011 17.5407 64.7624 17.723C64.5271 17.9053 64.3465 18.1638 64.2205 18.4986C64.0946 18.8333 64.0316 19.2277 64.0316 19.6818ZM71.8793 26.3636C71.6108 26.3636 71.3589 26.3421 71.1236 26.299C70.8916 26.2592 70.6993 26.2079 70.5469 26.1449L71.0241 24.5639C71.2727 24.6402 71.4964 24.6816 71.6953 24.6882C71.8975 24.6948 72.0715 24.6484 72.2173 24.549C72.3665 24.4496 72.4875 24.2805 72.5803 24.0419L72.7045 23.7188L69.9652 15.8636H72.1925L73.7734 21.4716H73.853L75.4489 15.8636H77.6911L74.723 24.3253C74.5805 24.7363 74.3866 25.0942 74.1413 25.3991C73.8994 25.7074 73.5928 25.9444 73.2216 26.1101C72.8504 26.2791 72.4029 26.3636 71.8793 26.3636ZM84.133 13.3182V23.5H82.0151V13.3182H84.133ZM85.8295 23.5V15.8636H87.9474V23.5H85.8295ZM86.8935 14.8793C86.5786 14.8793 86.3085 14.7749 86.0831 14.5661C85.861 14.3539 85.75 14.1004 85.75 13.8054C85.75 13.5137 85.861 13.2635 86.0831 13.0547C86.3085 12.8426 86.5786 12.7365 86.8935 12.7365C87.2083 12.7365 87.4768 12.8426 87.6989 13.0547C87.9242 13.2635 88.0369 13.5137 88.0369 13.8054C88.0369 14.1004 87.9242 14.3539 87.6989 14.5661C87.4768 14.7749 87.2083 14.8793 86.8935 14.8793ZM91.7619 19.0852V23.5H89.644V15.8636H91.6625V17.2109H91.752C91.921 16.7668 92.2044 16.4155 92.6021 16.157C92.9998 15.8951 93.4821 15.7642 94.0488 15.7642C94.5791 15.7642 95.0415 15.8802 95.4359 16.1122C95.8303 16.3442 96.1369 16.6757 96.3556 17.1065C96.5744 17.5341 96.6838 18.0445 96.6838 18.6378V23.5H94.5659V19.0156C94.5692 18.5483 94.4499 18.1837 94.2079 17.9219C93.966 17.6567 93.6329 17.5241 93.2086 17.5241C92.9236 17.5241 92.6717 17.5855 92.4529 17.7081C92.2375 17.8307 92.0685 18.0097 91.9458 18.245C91.8265 18.477 91.7652 18.7571 91.7619 19.0852ZM100.272 21.3026L100.277 18.7621H100.585L103.031 15.8636H105.462L102.176 19.7017H101.674L100.272 21.3026ZM98.353 23.5V13.3182H100.471V23.5H98.353ZM103.126 23.5L100.879 20.174L102.29 18.6776L105.607 23.5H103.126Z" fill="white"/>
</svg>
