<svg width="24" height="24" viewBox="0 0 24 24" fill="none" xmlns="http://www.w3.org/2000/svg">
<path d="M12 22C17.5228 22 22 17.5228 22 12C22 6.47715 17.5228 2 12 2C6.47715 2 2 6.47715 2 12C2 17.5228 6.47715 22 12 22Z" fill="#1977F3"/>
<path d="M15.8931 14.8914L16.3361 12.0001H13.5629V10.1241C13.5629 9.33376 13.9496 8.56172 15.1928 8.56172H16.4542V6.10075C16.4542 6.10075 15.3095 5.90527 14.2154 5.90527C11.9316 5.90527 10.4382 7.28905 10.4382 9.79643V12.0001H7.89844V14.8914H10.4382V21.8791C10.9472 21.9593 11.469 22.0001 12.0005 22.0001C12.5321 22.0001 13.0538 21.9579 13.5629 21.8791V14.8914H15.8931Z" fill="white"/>
</svg>
