<svg width="73" height="73" viewBox="0 0 73 73" fill="none" xmlns="http://www.w3.org/2000/svg">
<g filter="url(#filter0_d_5136_32879)">
<circle cx="36.5" cy="32.5" r="20.5" fill="white"/>
</g>
<path d="M37 42C42.5228 42 47 37.5228 47 32C47 26.4772 42.5228 22 37 22C31.4772 22 27 26.4772 27 32C27 37.5228 31.4772 42 37 42Z" fill="#1977F3"/>
<path d="M40.8931 34.8914L41.3361 32.0001H38.5629V30.1241C38.5629 29.3338 38.9496 28.5617 40.1928 28.5617H41.4542V26.1007C41.4542 26.1007 40.3095 25.9053 39.2154 25.9053C36.9316 25.9053 35.4382 27.289 35.4382 29.7964V32.0001H32.8984V34.8914H35.4382V41.8791C35.9472 41.9593 36.469 42.0001 37.0005 42.0001C37.5321 42.0001 38.0538 41.9579 38.5629 41.8791V34.8914H40.8931Z" fill="white"/>
<defs>
<filter id="filter0_d_5136_32879" x="0" y="0" width="73" height="73" filterUnits="userSpaceOnUse" color-interpolation-filters="sRGB">
<feFlood flood-opacity="0" result="BackgroundImageFix"/>
<feColorMatrix in="SourceAlpha" type="matrix" values="0 0 0 0 0 0 0 0 0 0 0 0 0 0 0 0 0 0 127 0" result="hardAlpha"/>
<feOffset dy="4"/>
<feGaussianBlur stdDeviation="8"/>
<feComposite in2="hardAlpha" operator="out"/>
<feColorMatrix type="matrix" values="0 0 0 0 0 0 0 0 0 0 0 0 0 0 0 0 0 0 0.1 0"/>
<feBlend mode="normal" in2="BackgroundImageFix" result="effect1_dropShadow_5136_32879"/>
<feBlend mode="normal" in="SourceGraphic" in2="effect1_dropShadow_5136_32879" result="shape"/>
</filter>
</defs>
</svg>
