<svg width="25" height="24" viewBox="0 0 25 24" fill="none" xmlns="http://www.w3.org/2000/svg">
<path d="M12.5 22C18.0228 22 22.5 17.5228 22.5 12C22.5 6.47715 18.0228 2 12.5 2C6.97715 2 2.5 6.47715 2.5 12C2.5 17.5228 6.97715 22 12.5 22Z" fill="#1977F3"/>
<path d="M16.3931 14.8914L16.8361 12.0001H14.0629V10.1241C14.0629 9.33376 14.4496 8.56172 15.6928 8.56172H16.9542V6.10075C16.9542 6.10075 15.8095 5.90527 14.7154 5.90527C12.4316 5.90527 10.9382 7.28905 10.9382 9.79643V12.0001H8.39844V14.8914H10.9382V21.8791C11.4472 21.9593 11.969 22.0001 12.5005 22.0001C13.0321 22.0001 13.5538 21.9579 14.0629 21.8791V14.8914H16.3931Z" fill="white"/>
</svg>
