<svg width="35" height="35" viewBox="0 0 35 35" fill="none" xmlns="http://www.w3.org/2000/svg">
<path d="M33.3901 17.5009L34.9256 13.4959C35.094 13.0541 34.9628 12.5532 34.5931 12.2536L31.2641 9.55441L30.5904 5.31759C30.516 4.84951 30.1485 4.48422 29.6804 4.40986L25.4436 3.73616L22.7467 0.404889C22.4492 0.0352329 21.9374 -0.0960058 21.5065 0.0724172L17.4993 1.6101L13.4943 0.0746045C13.0503 -0.0960058 12.5538 0.0396075 12.2541 0.407076L9.55498 3.73835L5.31816 4.41204C4.85226 4.48641 4.48479 4.85388 4.41043 5.31978L3.73673 9.5566L0.405457 12.2557C0.037989 12.5532 -0.095437 13.0541 0.072986 13.4959L1.60848 17.5009L0.072986 21.5059C-0.0976243 21.9477 0.037989 22.4486 0.405457 22.7461L3.73673 25.443L4.41043 29.6799C4.48479 30.148 4.85008 30.5154 5.31816 30.5898L9.55498 31.2635L12.2541 34.5926C12.5538 34.9644 13.0547 35.0956 13.4965 34.925L17.4993 33.3917L21.5043 34.9272C21.6311 34.9753 21.7624 34.9994 21.8958 34.9994C22.2173 34.9994 22.5345 34.8572 22.7467 34.5926L25.4436 31.2635L29.6804 30.5898C30.1485 30.5154 30.516 30.148 30.5904 29.6799L31.2641 25.443L34.5931 22.7461C34.9628 22.4464 35.094 21.9477 34.9256 21.5059L33.3901 17.5009Z" fill="url(#paint0_linear_910_154691)"/>
<path d="M6.77918 21.9805V14.9931H11.4056V16.2111H8.25649V17.8761H11.0985V19.0941H8.25649V21.9805H6.77918ZM12.3993 21.9805V14.9931H15.156C15.6837 14.9931 16.1341 15.0875 16.5071 15.2763C16.8824 15.4628 17.1679 15.7277 17.3635 16.0712C17.5614 16.4124 17.6603 16.8138 17.6603 17.2756C17.6603 17.7396 17.5602 18.1388 17.3601 18.4731C17.1599 18.8052 16.8699 19.06 16.4901 19.2374C16.1125 19.4148 15.6553 19.5035 15.1185 19.5035H13.2727V18.3162H14.8797C15.1617 18.3162 15.396 18.2775 15.5825 18.2002C15.769 18.1228 15.9078 18.0068 15.9988 17.8522C16.092 17.6975 16.1386 17.5053 16.1386 17.2756C16.1386 17.0436 16.092 16.848 15.9988 16.6887C15.9078 16.5295 15.7679 16.409 15.5791 16.3271C15.3926 16.2429 15.1572 16.2009 14.8729 16.2009H13.8766V21.9805H12.3993ZM16.1728 18.8007L17.9094 21.9805H16.2785L14.5794 18.8007H16.1728ZM18.7043 21.9805V14.9931H23.4126V16.2111H20.1816V17.8761H23.1704V19.0941H20.1816V20.7625H23.4263V21.9805H18.7043ZM24.5872 21.9805V14.9931H29.2955V16.2111H26.0645V17.8761H29.0532V19.0941H26.0645V20.7625H29.3091V21.9805H24.5872Z" fill="white"/>
<defs>
<linearGradient id="paint0_linear_910_154691" x1="-1.39992" y1="-0.699988" x2="23.1001" y2="41.2985" gradientUnits="userSpaceOnUse">
<stop stop-color="#2BA6FF"/>
<stop offset="1" stop-color="#943FFF"/>
</linearGradient>
</defs>
</svg>
