<svg width="42" height="18" viewBox="0 0 42 18" fill="none" xmlns="http://www.w3.org/2000/svg">
<rect y="0.5" width="42" height="17" rx="8.5" fill="url(#paint0_linear_5728_7281)"/>
<path d="M8.496 4.6H10.44V11.416H14.652V13H8.496V4.6ZM23.2283 4.6L19.5923 13H17.6723L14.0482 4.6H16.1483L18.7043 10.6L21.2963 4.6H23.2283ZM24.2243 13.096C23.8963 13.096 23.6203 12.984 23.3963 12.76C23.1723 12.536 23.0603 12.256 23.0603 11.92C23.0603 11.576 23.1723 11.3 23.3963 11.092C23.6203 10.876 23.8963 10.768 24.2243 10.768C24.5523 10.768 24.8283 10.876 25.0523 11.092C25.2763 11.3 25.3883 11.576 25.3883 11.92C25.3883 12.256 25.2763 12.536 25.0523 12.76C24.8283 12.984 24.5523 13.096 24.2243 13.096ZM32.1262 8.584C32.5422 8.792 32.8582 9.064 33.0742 9.4C33.2982 9.736 33.4102 10.124 33.4102 10.564C33.4102 11.084 33.2622 11.54 32.9662 11.932C32.6702 12.316 32.2542 12.616 31.7182 12.832C31.1822 13.04 30.5622 13.144 29.8582 13.144C29.1542 13.144 28.5342 13.04 27.9982 12.832C27.4702 12.616 27.0582 12.316 26.7622 11.932C26.4742 11.54 26.3302 11.084 26.3302 10.564C26.3302 10.124 26.4382 9.736 26.6542 9.4C26.8782 9.064 27.1942 8.792 27.6022 8.584C27.2902 8.392 27.0502 8.152 26.8822 7.864C26.7142 7.568 26.6302 7.232 26.6302 6.856C26.6302 6.368 26.7662 5.944 27.0382 5.584C27.3102 5.224 27.6902 4.948 28.1782 4.756C28.6662 4.556 29.2262 4.456 29.8582 4.456C30.4982 4.456 31.0622 4.556 31.5502 4.756C32.0462 4.948 32.4302 5.224 32.7022 5.584C32.9742 5.944 33.1102 6.368 33.1102 6.856C33.1102 7.232 33.0262 7.568 32.8582 7.864C32.6902 8.152 32.4462 8.392 32.1262 8.584ZM29.8582 5.884C29.4662 5.884 29.1502 5.98 28.9102 6.172C28.6782 6.356 28.5622 6.612 28.5622 6.94C28.5622 7.26 28.6782 7.512 28.9102 7.696C29.1422 7.88 29.4582 7.972 29.8582 7.972C30.2582 7.972 30.5782 7.88 30.8182 7.696C31.0582 7.512 31.1782 7.26 31.1782 6.94C31.1782 6.612 31.0582 6.356 30.8182 6.172C30.5782 5.98 30.2582 5.884 29.8582 5.884ZM29.8582 11.716C30.3462 11.716 30.7302 11.608 31.0102 11.392C31.2982 11.168 31.4422 10.872 31.4422 10.504C31.4422 10.136 31.2982 9.844 31.0102 9.628C30.7302 9.412 30.3462 9.304 29.8582 9.304C29.3782 9.304 28.9982 9.412 28.7182 9.628C28.4382 9.844 28.2982 10.136 28.2982 10.504C28.2982 10.88 28.4382 11.176 28.7182 11.392C28.9982 11.608 29.3782 11.716 29.8582 11.716Z" fill="white"/>
<defs>
<linearGradient id="paint0_linear_5728_7281" x1="53.8696" y1="28.6154" x2="-13.4052" y2="-20.7361" gradientUnits="userSpaceOnUse">
<stop stop-color="#F3D03E"/>
<stop offset="1" stop-color="#F33E3E"/>
</linearGradient>
</defs>
</svg>
