<svg width="42" height="18" viewBox="0 0 42 18" fill="none" xmlns="http://www.w3.org/2000/svg">
<rect y="0.5" width="42" height="17" rx="8.5" fill="url(#paint0_linear_5728_12368)"/>
<path d="M8.996 4.6H10.94V11.416H15.152V13H8.996V4.6ZM23.7283 4.6L20.0923 13H18.1723L14.5482 4.6H16.6483L19.2043 10.6L21.7963 4.6H23.7283ZM24.7243 13.096C24.3963 13.096 24.1203 12.984 23.8963 12.76C23.6723 12.536 23.5603 12.256 23.5603 11.92C23.5603 11.576 23.6723 11.3 23.8963 11.092C24.1203 10.876 24.3963 10.768 24.7243 10.768C25.0523 10.768 25.3283 10.876 25.5523 11.092C25.7763 11.3 25.8883 11.576 25.8883 11.92C25.8883 12.256 25.7763 12.536 25.5523 12.76C25.3283 12.984 25.0523 13.096 24.7243 13.096ZM30.6526 7.732C31.1886 7.732 31.6766 7.84 32.1166 8.056C32.5566 8.272 32.9046 8.58 33.1606 8.98C33.4166 9.372 33.5446 9.828 33.5446 10.348C33.5446 10.908 33.4046 11.4 33.1246 11.824C32.8446 12.248 32.4606 12.576 31.9726 12.808C31.4926 13.032 30.9566 13.144 30.3646 13.144C29.1886 13.144 28.2686 12.784 27.6046 12.064C26.9406 11.344 26.6086 10.316 26.6086 8.98C26.6086 8.028 26.7886 7.212 27.1486 6.532C27.5086 5.852 28.0086 5.336 28.6486 4.984C29.2966 4.632 30.0446 4.456 30.8926 4.456C31.3406 4.456 31.7686 4.508 32.1766 4.612C32.5926 4.708 32.9446 4.848 33.2326 5.032L32.5126 6.46C32.0966 6.18 31.5726 6.04 30.9406 6.04C30.2286 6.04 29.6646 6.248 29.2486 6.664C28.8326 7.08 28.6086 7.684 28.5766 8.476C29.0726 7.98 29.7646 7.732 30.6526 7.732ZM30.2566 11.692C30.6726 11.692 31.0086 11.58 31.2646 11.356C31.5286 11.132 31.6606 10.828 31.6606 10.444C31.6606 10.06 31.5286 9.756 31.2646 9.532C31.0086 9.3 30.6646 9.184 30.2326 9.184C29.8086 9.184 29.4606 9.304 29.1886 9.544C28.9166 9.776 28.7806 10.076 28.7806 10.444C28.7806 10.812 28.9126 11.112 29.1766 11.344C29.4406 11.576 29.8006 11.692 30.2566 11.692Z" fill="white"/>
<defs>
<linearGradient id="paint0_linear_5728_12368" x1="-1.7193" y1="-0.849876" x2="3.55625" y2="30.6793" gradientUnits="userSpaceOnUse">
<stop stop-color="#3FAEFF"/>
<stop offset="1" stop-color="#5BEBFF"/>
</linearGradient>
</defs>
</svg>
