<svg width="42" height="18" viewBox="0 0 42 18" fill="none" xmlns="http://www.w3.org/2000/svg">
<rect y="0.5" width="42" height="17" rx="8.5" fill="url(#paint0_linear_5728_12297)"/>
<path d="M8.496 4.6H10.44V11.416H14.652V13H8.496V4.6ZM23.2283 4.6L19.5923 13H17.6723L14.0482 4.6H16.1483L18.7043 10.6L21.2963 4.6H23.2283ZM24.2243 13.096C23.8963 13.096 23.6203 12.984 23.3963 12.76C23.1723 12.536 23.0603 12.256 23.0603 11.92C23.0603 11.576 23.1723 11.3 23.3963 11.092C23.6203 10.876 23.8963 10.768 24.2243 10.768C24.5523 10.768 24.8283 10.876 25.0523 11.092C25.2763 11.3 25.3883 11.576 25.3883 11.92C25.3883 12.256 25.2763 12.536 25.0523 12.76C24.8283 12.984 24.5523 13.096 24.2243 13.096ZM33.953 11.236H32.585V13H30.689V11.236H26.165V9.928L30.125 4.6H32.165L28.493 9.652H30.749V8.08H32.585V9.652H33.953V11.236Z" fill="white"/>
<defs>
<linearGradient id="paint0_linear_5728_12297" x1="-17.0495" y1="17.5" x2="66.1188" y2="17.5" gradientUnits="userSpaceOnUse">
<stop stop-color="#1DBF73"/>
<stop offset="1" stop-color="#B0D51B"/>
</linearGradient>
</defs>
</svg>
