<svg width="42" height="18" viewBox="0 0 42 18" fill="none" xmlns="http://www.w3.org/2000/svg">
<rect y="0.5" width="42" height="17" rx="8.5" fill="url(#paint0_linear_5728_1584)"/>
<path d="M6.496 4.6H8.44V11.416H12.652V13H6.496V4.6ZM21.2283 4.6L17.5923 13H15.6723L12.0482 4.6H14.1483L16.7043 10.6L19.2963 4.6H21.2283ZM22.2243 13.096C21.8963 13.096 21.6203 12.984 21.3963 12.76C21.1723 12.536 21.0603 12.256 21.0603 11.92C21.0603 11.576 21.1723 11.3 21.3963 11.092C21.6203 10.876 21.8963 10.768 22.2243 10.768C22.5523 10.768 22.8283 10.876 23.0523 11.092C23.2763 11.3 23.3883 11.576 23.3883 11.92C23.3883 12.256 23.2763 12.536 23.0523 12.76C22.8283 12.984 22.5523 13.096 22.2243 13.096ZM27.3135 4.6V13H25.3695V6.16H23.6895V4.6H27.3135ZM32.3727 13.144C31.6767 13.144 31.0567 12.972 30.5127 12.628C29.9687 12.284 29.5407 11.788 29.2287 11.14C28.9247 10.484 28.7727 9.704 28.7727 8.8C28.7727 7.896 28.9247 7.12 29.2287 6.472C29.5407 5.816 29.9687 5.316 30.5127 4.972C31.0567 4.628 31.6767 4.456 32.3727 4.456C33.0687 4.456 33.6887 4.628 34.2327 4.972C34.7767 5.316 35.2007 5.816 35.5047 6.472C35.8167 7.12 35.9727 7.896 35.9727 8.8C35.9727 9.704 35.8167 10.484 35.5047 11.14C35.2007 11.788 34.7767 12.284 34.2327 12.628C33.6887 12.972 33.0687 13.144 32.3727 13.144ZM32.3727 11.5C32.8847 11.5 33.2847 11.28 33.5727 10.84C33.8687 10.4 34.0167 9.72 34.0167 8.8C34.0167 7.88 33.8687 7.2 33.5727 6.76C33.2847 6.32 32.8847 6.1 32.3727 6.1C31.8687 6.1 31.4687 6.32 31.1727 6.76C30.8847 7.2 30.7407 7.88 30.7407 8.8C30.7407 9.72 30.8847 10.4 31.1727 10.84C31.4687 11.28 31.8687 11.5 32.3727 11.5Z" fill="white"/>
<defs>
<linearGradient id="paint0_linear_5728_1584" x1="-1.68" y1="0.16" x2="4.43478" y2="26.0579" gradientUnits="userSpaceOnUse">
<stop stop-color="#2BA6FF"/>
<stop offset="1" stop-color="#943FFF"/>
</linearGradient>
</defs>
</svg>
