<svg width="42" height="18" viewBox="0 0 42 18" fill="none" xmlns="http://www.w3.org/2000/svg">
<rect y="0.5" width="42" height="17" rx="8.5" fill="url(#paint0_linear_5728_995)"/>
<path d="M8.996 4.6H10.94V11.416H15.152V13H8.996V4.6ZM23.7283 4.6L20.0923 13H18.1723L14.5482 4.6H16.6483L19.2043 10.6L21.7963 4.6H23.7283ZM24.7243 13.096C24.3963 13.096 24.1203 12.984 23.8963 12.76C23.6723 12.536 23.5603 12.256 23.5603 11.92C23.5603 11.576 23.6723 11.3 23.8963 11.092C24.1203 10.876 24.3963 10.768 24.7243 10.768C25.0523 10.768 25.3283 10.876 25.5523 11.092C25.7763 11.3 25.8883 11.576 25.8883 11.92C25.8883 12.256 25.7763 12.536 25.5523 12.76C25.3283 12.984 25.0523 13.096 24.7243 13.096ZM29.713 4.456C30.889 4.456 31.809 4.816 32.473 5.536C33.137 6.248 33.469 7.276 33.469 8.62C33.469 9.572 33.289 10.388 32.929 11.068C32.577 11.748 32.077 12.264 31.429 12.616C30.781 12.968 30.033 13.144 29.185 13.144C28.737 13.144 28.309 13.096 27.901 13C27.493 12.896 27.145 12.752 26.857 12.568L27.577 11.14C27.985 11.42 28.509 11.56 29.149 11.56C29.861 11.56 30.425 11.352 30.841 10.936C31.257 10.512 31.481 9.904 31.513 9.112C31.009 9.616 30.313 9.868 29.425 9.868C28.889 9.868 28.401 9.76 27.961 9.544C27.521 9.328 27.173 9.024 26.917 8.632C26.661 8.232 26.533 7.772 26.533 7.252C26.533 6.692 26.673 6.2 26.953 5.776C27.233 5.352 27.613 5.028 28.093 4.804C28.581 4.572 29.121 4.456 29.713 4.456ZM29.857 8.416C30.281 8.416 30.625 8.3 30.889 8.068C31.161 7.828 31.297 7.524 31.297 7.156C31.297 6.788 31.165 6.488 30.901 6.256C30.645 6.024 30.289 5.908 29.833 5.908C29.417 5.908 29.077 6.02 28.813 6.244C28.557 6.468 28.429 6.772 28.429 7.156C28.429 7.54 28.557 7.848 28.813 8.08C29.077 8.304 29.425 8.416 29.857 8.416Z" fill="white"/>
<defs>
<linearGradient id="paint0_linear_5728_995" x1="-9.49875" y1="-8.2491" x2="18.9813" y2="47.8" gradientUnits="userSpaceOnUse">
<stop stop-color="#E60112"/>
<stop offset="1" stop-color="#FF842B"/>
</linearGradient>
</defs>
</svg>
