<svg width="42" height="18" viewBox="0 0 42 18" fill="none" xmlns="http://www.w3.org/2000/svg">
<rect y="0.5" width="42" height="17" rx="8.5" fill="url(#paint0_linear_5728_12293)"/>
<path d="M8.996 4.6H10.94V11.416H15.152V13H8.996V4.6ZM23.7283 4.6L20.0923 13H18.1723L14.5482 4.6H16.6483L19.2043 10.6L21.7963 4.6H23.7283ZM24.7243 13.096C24.3963 13.096 24.1203 12.984 23.8963 12.76C23.6723 12.536 23.5603 12.256 23.5603 11.92C23.5603 11.576 23.6723 11.3 23.8963 11.092C24.1203 10.876 24.3963 10.768 24.7243 10.768C25.0523 10.768 25.3283 10.876 25.5523 11.092C25.7763 11.3 25.8883 11.576 25.8883 11.92C25.8883 12.256 25.7763 12.536 25.5523 12.76C25.3283 12.984 25.0523 13.096 24.7243 13.096ZM30.8022 8.02C31.5382 8.14 32.1022 8.416 32.4942 8.848C32.8862 9.272 33.0822 9.8 33.0822 10.432C33.0822 10.92 32.9542 11.372 32.6982 11.788C32.4422 12.196 32.0502 12.524 31.5222 12.772C31.0022 13.02 30.3622 13.144 29.6022 13.144C29.0102 13.144 28.4262 13.068 27.8502 12.916C27.2822 12.756 26.7982 12.532 26.3982 12.244L27.1542 10.756C27.4742 10.996 27.8422 11.184 28.2582 11.32C28.6822 11.448 29.1142 11.512 29.5542 11.512C30.0422 11.512 30.4262 11.42 30.7062 11.236C30.9862 11.044 31.1262 10.776 31.1262 10.432C31.1262 9.744 30.6022 9.4 29.5542 9.4H28.6662V8.116L30.3942 6.16H26.8182V4.6H32.6982V5.86L30.8022 8.02Z" fill="white"/>
<defs>
<linearGradient id="paint0_linear_5728_12293" x1="-17.0495" y1="17.5" x2="66.1188" y2="17.5" gradientUnits="userSpaceOnUse">
<stop stop-color="#1DBF73"/>
<stop offset="1" stop-color="#B0D51B"/>
</linearGradient>
</defs>
</svg>
