<svg width="42" height="18" viewBox="0 0 42 18" fill="none" xmlns="http://www.w3.org/2000/svg">
<rect y="0.5" width="42" height="17" rx="8.5" fill="url(#paint0_linear_5728_12304)"/>
<path d="M8.996 4.6H10.94V11.416H15.152V13H8.996V4.6ZM23.7283 4.6L20.0923 13H18.1723L14.5482 4.6H16.6483L19.2043 10.6L21.7963 4.6H23.7283ZM24.7243 13.096C24.3963 13.096 24.1203 12.984 23.8963 12.76C23.6723 12.536 23.5603 12.256 23.5603 11.92C23.5603 11.576 23.6723 11.3 23.8963 11.092C24.1203 10.876 24.3963 10.768 24.7243 10.768C25.0523 10.768 25.3283 10.876 25.5523 11.092C25.7763 11.3 25.8883 11.576 25.8883 11.92C25.8883 12.256 25.7763 12.536 25.5523 12.76C25.3283 12.984 25.0523 13.096 24.7243 13.096ZM29.641 7.756C30.825 7.756 31.697 7.992 32.257 8.464C32.825 8.936 33.109 9.568 33.109 10.36C33.109 10.872 32.981 11.34 32.725 11.764C32.469 12.18 32.077 12.516 31.549 12.772C31.029 13.02 30.385 13.144 29.617 13.144C29.025 13.144 28.441 13.068 27.865 12.916C27.297 12.756 26.813 12.532 26.413 12.244L27.181 10.756C27.501 10.996 27.869 11.184 28.285 11.32C28.701 11.448 29.129 11.512 29.569 11.512C30.057 11.512 30.441 11.416 30.721 11.224C31.001 11.032 31.141 10.764 31.141 10.42C31.141 10.06 30.993 9.788 30.697 9.604C30.409 9.42 29.905 9.328 29.185 9.328H27.037L27.469 4.6H32.593V6.16H29.089L28.957 7.756H29.641Z" fill="white"/>
<defs>
<linearGradient id="paint0_linear_5728_12304" x1="-1.7193" y1="-0.849876" x2="3.55625" y2="30.6793" gradientUnits="userSpaceOnUse">
<stop stop-color="#3FAEFF"/>
<stop offset="1" stop-color="#5BEBFF"/>
</linearGradient>
</defs>
</svg>
