<svg width="42" height="18" viewBox="0 0 42 18" fill="none" xmlns="http://www.w3.org/2000/svg">
<rect y="0.5" width="42" height="17" rx="8.5" fill="url(#paint0_linear_5728_1304)"/>
<path d="M8.996 4.6H10.94V11.416H15.152V13H8.996V4.6ZM23.7283 4.6L20.0923 13H18.1723L14.5482 4.6H16.6483L19.2043 10.6L21.7963 4.6H23.7283ZM24.7243 13.096C24.3963 13.096 24.1203 12.984 23.8963 12.76C23.6723 12.536 23.5603 12.256 23.5603 11.92C23.5603 11.576 23.6723 11.3 23.8963 11.092C24.1203 10.876 24.3963 10.768 24.7243 10.768C25.0523 10.768 25.3283 10.876 25.5523 11.092C25.7763 11.3 25.8883 11.576 25.8883 11.92C25.8883 12.256 25.7763 12.536 25.5523 12.76C25.3283 12.984 25.0523 13.096 24.7243 13.096ZM33.1542 11.416V13H26.8062V11.74L30.0462 8.68C30.3902 8.352 30.6222 8.072 30.7422 7.84C30.8622 7.6 30.9222 7.364 30.9222 7.132C30.9222 6.796 30.8062 6.54 30.5742 6.364C30.3502 6.18 30.0182 6.088 29.5782 6.088C29.2102 6.088 28.8782 6.16 28.5822 6.304C28.2862 6.44 28.0382 6.648 27.8382 6.928L26.4222 6.016C26.7502 5.528 27.2022 5.148 27.7782 4.876C28.3542 4.596 29.0142 4.456 29.7582 4.456C30.3822 4.456 30.9262 4.56 31.3902 4.768C31.8622 4.968 32.2262 5.256 32.4822 5.632C32.7462 6 32.8782 6.436 32.8782 6.94C32.8782 7.396 32.7822 7.824 32.5902 8.224C32.3982 8.624 32.0262 9.08 31.4742 9.592L29.5422 11.416H33.1542Z" fill="white"/>
<defs>
<linearGradient id="paint0_linear_5728_1304" x1="-3.90698" y1="0.500001" x2="29.7258" y2="33.1039" gradientUnits="userSpaceOnUse">
<stop stop-color="#8289A7"/>
<stop offset="1" stop-color="#A4A8B7"/>
</linearGradient>
</defs>
</svg>
