<svg width="42" height="18" viewBox="0 0 42 18" fill="none" xmlns="http://www.w3.org/2000/svg">
<rect y="0.5" width="42" height="17" rx="8.5" fill="url(#paint0_linear_5137_34413)"/>
<path d="M10.496 4.6H12.44V11.416H16.652V13H10.496V4.6ZM25.2283 4.6L21.5923 13H19.6723L16.0482 4.6H18.1483L20.7043 10.6L23.2963 4.6H25.2283ZM26.2243 13.096C25.8963 13.096 25.6203 12.984 25.3963 12.76C25.1723 12.536 25.0603 12.256 25.0603 11.92C25.0603 11.576 25.1723 11.3 25.3963 11.092C25.6203 10.876 25.8963 10.768 26.2243 10.768C26.5523 10.768 26.8283 10.876 27.0523 11.092C27.2763 11.3 27.3883 11.576 27.3883 11.92C27.3883 12.256 27.2763 12.536 27.0523 12.76C26.8283 12.984 26.5523 13.096 26.2243 13.096ZM31.3135 4.6V13H29.3695V6.16H27.6895V4.6H31.3135Z" fill="white"/>
<defs>
<linearGradient id="paint0_linear_5137_34413" x1="-3.90698" y1="0.500001" x2="29.7258" y2="33.1039" gradientUnits="userSpaceOnUse">
<stop stop-color="#8289A7"/>
<stop offset="1" stop-color="#A4A8B7"/>
</linearGradient>
</defs>
</svg>
