<svg width="42" height="18" viewBox="0 0 42 18" fill="none" xmlns="http://www.w3.org/2000/svg">
<rect y="0.5" width="42" height="17" rx="8.5" fill="url(#paint0_linear_5728_1542)"/>
<path d="M8.996 4.6H10.94V11.416H15.152V13H8.996V4.6ZM23.7283 4.6L20.0923 13H18.1723L14.5482 4.6H16.6483L19.2043 10.6L21.7963 4.6H23.7283ZM24.7243 13.096C24.3963 13.096 24.1203 12.984 23.8963 12.76C23.6723 12.536 23.5603 12.256 23.5603 11.92C23.5603 11.576 23.6723 11.3 23.8963 11.092C24.1203 10.876 24.3963 10.768 24.7243 10.768C25.0523 10.768 25.3283 10.876 25.5523 11.092C25.7763 11.3 25.8883 11.576 25.8883 11.92C25.8883 12.256 25.7763 12.536 25.5523 12.76C25.3283 12.984 25.0523 13.096 24.7243 13.096ZM33.1495 4.6V5.86L30.0295 13H27.9175L30.9295 6.184H28.1455V7.552H26.4175V4.6H33.1495Z" fill="white"/>
<defs>
<linearGradient id="paint0_linear_5728_1542" x1="53.8696" y1="28.6154" x2="-13.4052" y2="-20.7361" gradientUnits="userSpaceOnUse">
<stop stop-color="#F3D03E"/>
<stop offset="1" stop-color="#F33E3E"/>
</linearGradient>
</defs>
</svg>
