<svg width="20" height="20" viewBox="0 0 20 20" fill="none" xmlns="http://www.w3.org/2000/svg">
<path d="M5.89225 18.2737C4.90107 18.2287 4.36264 18.0637 4.00451 17.924C3.52998 17.7393 3.19166 17.5193 2.83551 17.1637C2.47936 16.808 2.25894 16.4697 2.07517 15.9952C1.93548 15.637 1.77053 15.0986 1.72546 14.1074C1.67592 13.036 1.66602 12.7146 1.66602 10.0001C1.66602 7.28564 1.67691 6.96466 1.72496 5.89225C1.77004 4.90107 1.93598 4.36363 2.07467 4.00451C2.25943 3.52998 2.47986 3.19166 2.83502 2.83502C3.19067 2.47936 3.52899 2.25844 4.00402 2.07467C4.36215 1.93498 4.90058 1.77004 5.89175 1.72496C6.96367 1.67592 7.28564 1.66602 9.9991 1.66602C12.7136 1.66602 13.0345 1.67691 14.1069 1.72496C15.0981 1.77004 15.6356 1.93598 15.9947 2.07467C16.4692 2.25844 16.8075 2.47936 17.1637 2.83502C17.5198 3.19067 17.7393 3.52948 17.924 4.00402C18.0637 4.36215 18.2287 4.90058 18.2737 5.89175C18.3228 6.96416 18.3327 7.28514 18.3327 9.9996C18.3327 12.7131 18.3228 13.035 18.2737 14.1074C18.2287 15.0986 18.0627 15.637 17.924 15.9952C17.7393 16.4697 17.5193 16.808 17.1637 17.1637C16.808 17.5193 16.4692 17.7393 15.9947 17.924C15.6366 18.0637 15.0981 18.2287 14.1069 18.2737C13.0355 18.3228 12.7136 18.3327 9.9991 18.3327C7.28564 18.3327 6.96367 18.3233 5.89225 18.2737Z" fill="url(#paint0_radial_874_213053)"/>
<path d="M5.89225 18.2737C4.90107 18.2287 4.36264 18.0637 4.00451 17.924C3.52998 17.7393 3.19166 17.5193 2.83551 17.1637C2.47936 16.808 2.25894 16.4697 2.07517 15.9952C1.93548 15.637 1.77053 15.0986 1.72546 14.1074C1.67592 13.036 1.66602 12.7146 1.66602 10.0001C1.66602 7.28564 1.67691 6.96466 1.72496 5.89225C1.77004 4.90107 1.93598 4.36363 2.07467 4.00451C2.25943 3.52998 2.47986 3.19166 2.83502 2.83502C3.19067 2.47936 3.52899 2.25844 4.00402 2.07467C4.36215 1.93498 4.90058 1.77004 5.89175 1.72496C6.96367 1.67592 7.28564 1.66602 9.9991 1.66602C12.7136 1.66602 13.0345 1.67691 14.1069 1.72496C15.0981 1.77004 15.6356 1.93598 15.9947 2.07467C16.4692 2.25844 16.8075 2.47936 17.1637 2.83502C17.5198 3.19067 17.7393 3.52948 17.924 4.00402C18.0637 4.36215 18.2287 4.90058 18.2737 5.89175C18.3228 6.96416 18.3327 7.28514 18.3327 9.9996C18.3327 12.7131 18.3228 13.035 18.2737 14.1074C18.2287 15.0986 18.0627 15.637 17.924 15.9952C17.7393 16.4697 17.5193 16.808 17.1637 17.1637C16.808 17.5193 16.4692 17.7393 15.9947 17.924C15.6366 18.0637 15.0981 18.2287 14.1069 18.2737C13.0355 18.3228 12.7136 18.3327 9.9991 18.3327C7.28564 18.3327 6.96367 18.3233 5.89225 18.2737Z" fill="url(#paint1_radial_874_213053)"/>
<path d="M7.95236 10.0354C7.95236 8.89562 8.87611 7.97137 10.0159 7.97137C11.1558 7.97137 12.08 8.89562 12.08 10.0354C12.08 11.1752 11.1558 12.0995 10.0159 12.0995C8.87611 12.0995 7.95236 11.1752 7.95236 10.0354ZM6.83656 10.0354C6.83656 11.7914 8.25996 13.2148 10.0159 13.2148C11.7719 13.2148 13.1953 11.7914 13.1953 10.0354C13.1953 8.27947 11.7719 6.85608 10.0159 6.85608C8.25996 6.85608 6.83661 8.27937 6.83661 10.0354H6.83656ZM12.5782 6.73002C12.5782 6.87697 12.6217 7.02064 12.7033 7.14286C12.7849 7.26507 12.9009 7.36035 13.0366 7.41664C13.1724 7.47293 13.3217 7.48771 13.4659 7.4591C13.61 7.43048 13.7424 7.35977 13.8464 7.2559C13.9503 7.15203 14.0212 7.01967 14.0499 6.87556C14.0786 6.73144 14.064 6.58204 14.0078 6.44625C13.9516 6.31046 13.8564 6.19439 13.7343 6.11269C13.6121 6.031 13.4685 5.98737 13.3215 5.98731H13.3212C13.1242 5.9874 12.9354 6.06567 12.796 6.20493C12.6567 6.34418 12.5784 6.53304 12.5782 6.73002ZM7.51448 15.0754C6.91081 15.0479 6.5827 14.9473 6.36465 14.8624C6.07558 14.7498 5.86932 14.6158 5.65246 14.3992C5.4356 14.1827 5.30136 13.9766 5.18932 13.6875C5.10432 13.4696 5.00377 13.1414 4.97632 12.5377C4.94631 11.8851 4.94031 11.689 4.94031 10.0355C4.94031 8.38206 4.9468 8.18655 4.97632 7.53335C5.00381 6.92968 5.10511 6.60212 5.18932 6.38353C5.30186 6.09445 5.4359 5.88819 5.65246 5.67134C5.86902 5.45448 6.07508 5.32024 6.36465 5.2082C6.5826 5.1232 6.91081 5.02265 7.51448 4.9952C8.16714 4.96519 8.36319 4.95919 10.0159 4.95919C11.6687 4.95919 11.8649 4.96558 12.5181 4.9953C13.1218 5.0228 13.4494 5.12409 13.668 5.2083C13.957 5.32034 14.1633 5.45488 14.3801 5.67144C14.597 5.888 14.7307 6.09455 14.8433 6.38363C14.9283 6.60158 15.0288 6.92978 15.0563 7.53345C15.0863 8.18665 15.0923 8.38215 15.0923 10.0356C15.0923 11.6891 15.0863 11.8846 15.0563 12.5378C15.0288 13.1415 14.9277 13.4696 14.8433 13.6876C14.7307 13.9767 14.5967 14.183 14.3801 14.3993C14.1636 14.6157 13.957 14.7499 13.668 14.8625C13.45 14.9475 13.1218 15.048 12.5181 15.0755C11.8655 15.1055 11.6694 15.1115 10.0159 15.1115C8.36245 15.1115 8.16694 15.1055 7.51448 15.0755V15.0754ZM7.46321 3.88125C6.80407 3.91126 6.35366 4.01578 5.96031 4.16884C5.55319 4.3269 5.20809 4.53895 4.86349 4.88301C4.51888 5.22707 4.30737 5.57222 4.14931 5.97983C3.99625 6.37342 3.89173 6.82358 3.86172 7.48273C3.8312 8.14291 3.82422 8.35397 3.82422 10.0354C3.82422 11.7169 3.8312 11.928 3.86172 12.5881C3.89173 13.2473 3.99625 13.6974 4.14931 14.091C4.30737 14.4981 4.51893 14.8439 4.86349 15.1879C5.20804 15.5318 5.5527 15.7435 5.96031 15.902C6.3544 16.0551 6.80407 16.1596 7.46321 16.1896C8.12375 16.2196 8.33446 16.2271 10.0159 16.2271C11.6974 16.2271 11.9085 16.2201 12.5687 16.1896C13.2278 16.1596 13.678 16.0551 14.0716 15.902C14.4787 15.7435 14.8238 15.5319 15.1684 15.1879C15.513 14.8438 15.724 14.4981 15.8826 14.091C16.0356 13.6974 16.1406 13.2473 16.1701 12.5881C16.2002 11.9275 16.2072 11.7169 16.2072 10.0354C16.2072 8.35397 16.2002 8.14291 16.1701 7.48273C16.1401 6.82353 16.0356 6.37318 15.8826 5.97983C15.724 5.57272 15.5124 5.22762 15.1684 4.88301C14.8243 4.53841 14.4787 4.3269 14.0721 4.16884C13.678 4.01578 13.2278 3.91077 12.5691 3.88125C11.9089 3.85108 11.6979 3.84375 10.0167 3.84375C8.33545 3.84375 8.12399 3.85073 7.46346 3.88125" fill="white"/>
<defs>
<radialGradient id="paint0_radial_874_213053" cx="0" cy="0" r="1" gradientUnits="userSpaceOnUse" gradientTransform="translate(2.74467 17.9676) scale(21.1605)">
<stop offset="0.09" stop-color="#FA8F21"/>
<stop offset="0.78" stop-color="#D82D7E"/>
</radialGradient>
<radialGradient id="paint1_radial_874_213053" cx="0" cy="0" r="1" gradientUnits="userSpaceOnUse" gradientTransform="translate(13.2104 17.4324) scale(18.6214)">
<stop offset="0.64" stop-color="#8C3AAA" stop-opacity="0"/>
<stop offset="1" stop-color="#8C3AAA"/>
</radialGradient>
</defs>
</svg>
