<svg width="69" height="71" viewBox="0 0 69 71" fill="none" xmlns="http://www.w3.org/2000/svg">
<path d="M31.619 37.3573C32.7233 38.1859 34.081 38.6744 35.5492 38.6744H48.1075V44.9973L56.0681 38.6744H59.5024C63.2045 38.6744 66.2057 35.5677 66.2057 31.7353V6.93914C66.2059 3.10671 63.2047 0 59.5024 0H35.549C31.8469 0 28.8457 3.10671 28.8457 6.93914V37.3573H31.619Z" fill="#3C4467"/>
<path d="M59.5033 0H53.7617C57.464 0 60.4652 3.10686 60.4652 6.93914V31.7353C60.4652 35.5677 57.464 38.6744 53.7618 38.6744H50.3276L48.1084 40.437V44.9973L56.0691 38.6744H59.5033C63.2055 38.6744 66.2066 35.5677 66.2066 31.7353V6.93914C66.2068 3.10686 63.2055 0 59.5033 0V0Z" fill="#131620"/>
<path d="M42.3623 28.5031L43.0532 29.0838C44.1486 30.0046 45.5154 30.507 46.9246 30.507H56.733C57.6627 30.507 58.4114 29.7016 58.3671 28.726C58.3257 27.8123 58.3691 19.491 58.3691 18.5528C58.3691 17.6147 57.6366 16.854 56.733 16.854L50.0819 16.8331L50.8963 14.8306C51.7424 12.7497 51.6056 10.378 50.5263 8.41685C49.9412 7.4777 48.5203 7.82328 48.4926 8.9777C48.4926 10.7736 47.8611 12.5076 46.7169 13.8541L42.4758 18.8371H40.9297V28.503H42.3623V28.5031Z" fill="#FFD36C"/>
<path d="M41.6997 30.0359H37.2216C36.9256 30.0359 36.6855 29.7868 36.6855 29.4793V17.6259C36.6855 17.3186 36.9255 17.0693 37.2216 17.0693H41.6997C41.9956 17.0693 42.2357 17.3185 42.2357 17.6259V29.4793C42.2355 29.7866 41.9956 30.0359 41.6997 30.0359Z" fill="#1DBF73"/>
<path d="M31.6296 49.7833V24.7573C31.6296 21.7352 29.263 19.2852 26.3434 19.2852H7.45421C4.53476 19.2852 2.16797 21.7352 2.16797 24.7573V44.3112C2.16797 47.3333 4.53462 49.7833 7.45421 49.7833H17.8312V54.8162L24.1088 49.7833H31.6296Z" fill="#72D1FB"/>
<path d="M26.343 19.2852H18.8574C21.7769 19.2852 24.1437 21.7352 24.1437 24.7573V49.7833H31.6293V24.7573C31.6291 21.7352 29.2625 19.2852 26.343 19.2852Z" fill="#65BEFF"/>
<path d="M23.8263 36.1426H20.0273L20.4434 33.5289H23.8263C25.1574 33.5289 25.1574 31.386 23.8263 31.386H20.7846L21.3528 27.8176C21.57 26.4542 19.534 26.1044 19.3168 27.4682L18.693 31.386H16.2038L16.772 27.8176C16.9891 26.4542 14.9534 26.1043 14.7359 27.4682L14.1121 31.386H9.97195C8.64086 31.386 8.64086 33.5289 9.97195 33.5289H13.7709L13.3548 36.1426H9.97195C8.64086 36.1426 8.64086 38.2854 9.97195 38.2854H13.0136L12.4454 41.8539C12.2305 43.2029 14.2639 43.5689 14.4814 42.2033L15.1052 38.2854H17.5944L17.0262 41.8539C16.8113 43.2029 18.8448 43.5689 19.0623 42.2033L19.6861 38.2854H23.8263C25.1574 38.2854 25.1574 36.1426 23.8263 36.1426ZM17.9356 36.1426H15.4465L15.8627 33.5289H18.352L17.9356 36.1426Z" fill="#F7F3F1"/>
<path d="M41.8543 45.7852H28.4496C26.3778 45.7852 24.6982 47.5237 24.6982 49.6684V63.5447C24.6982 65.6894 26.3778 67.428 28.4496 67.428H35.8136V70.9997L40.2686 67.4282H41.8543C43.9262 67.4282 45.6057 65.6896 45.6057 63.5449V49.6686C45.6057 47.5239 43.9262 45.7852 41.8543 45.7852Z" fill="#E60112"/>
<path d="M41.8552 45.7852H36.0768C38.1486 45.7852 39.8282 47.5237 39.8282 49.6684V63.5449C39.8282 65.6896 38.1486 67.4282 36.0768 67.4282H35.8145V70.9997L40.2694 67.4282H41.8552C43.927 67.4282 45.6066 65.6896 45.6066 63.5449V49.6684C45.6066 47.5239 43.927 45.7852 41.8552 45.7852Z" fill="#F06771"/>
<path d="M35.1518 61.3217C38.3775 59.5461 40.0487 58.0353 40.0487 55.6947C40.0487 52.4663 36.2399 51.6591 35.1518 54.0806C33.908 51.5786 30.2549 52.4664 30.2549 55.6947C30.2549 58.0353 31.9261 59.546 35.1518 61.3217Z" fill="#F7F3F1"/>
</svg>
