<svg width="25" height="24" viewBox="0 0 25 24" fill="none" xmlns="http://www.w3.org/2000/svg">
<path d="M18.6192 22.8002H6.37925C3.79459 22.8002 1.69922 20.7048 1.69922 18.1202V5.88022C1.69922 3.29556 3.79459 1.2002 6.37925 1.2002H18.6193C21.2038 1.2002 23.2992 3.29556 23.2992 5.88022V18.1203C23.2992 20.7048 21.2038 22.8002 18.6192 22.8002Z" fill="#00B900"/>
<path d="M20.3301 11.0506C20.3301 7.53155 16.8024 4.66846 12.4657 4.66846C8.12886 4.66846 4.60156 7.53155 4.60156 11.0506C4.60156 14.2054 7.39927 16.8475 11.1786 17.347C11.4348 17.4022 11.7832 17.516 11.8713 17.7348C11.9506 17.9336 11.9231 18.2451 11.8966 18.4461L11.7844 19.1194C11.7501 19.3181 11.6262 19.897 12.4656 19.5433C13.3049 19.1896 16.9948 16.8765 18.6446 14.9773H18.6443C19.784 13.7275 20.3301 12.4591 20.3301 11.0507" fill="white"/>
<path d="M10.869 9.35054H10.3172C10.2326 9.35054 10.1641 9.41913 10.1641 9.50351V12.9301C10.1641 13.0144 10.2327 13.082 10.3172 13.082H10.869C10.9536 13.082 11.0222 13.0145 11.0222 12.9301V9.50267C11.0222 9.41829 10.9536 9.34969 10.869 9.34969V9.35054ZM14.6659 9.35054H14.1135C14.0287 9.35054 13.9603 9.41913 13.9603 9.50351V11.5393L12.3899 9.41854C12.3862 9.41314 12.3821 9.40791 12.3781 9.4031L12.3772 9.40201L12.3652 9.38994L12.3569 9.38319C12.3556 9.38209 12.3544 9.381 12.3529 9.38015L12.345 9.37475C12.3436 9.37366 12.342 9.37307 12.3403 9.37205L12.3322 9.36741L12.3274 9.36505L12.3185 9.36125L12.3136 9.35957C12.3106 9.35834 12.3075 9.35732 12.3043 9.35653L12.2989 9.35509L12.2903 9.35341C12.2881 9.3529 12.2858 9.35256 12.2838 9.35256C12.2811 9.35206 12.2784 9.35172 12.2757 9.35147L12.2678 9.35096C12.2658 9.35096 12.2642 9.35079 12.2624 9.35079H11.7108C11.6262 9.35079 11.5577 9.41939 11.5577 9.50376V12.9304C11.5577 13.0146 11.6263 13.0823 11.7108 13.0823H12.2624C12.3472 13.0823 12.4158 13.0148 12.4158 12.9304V10.8951L13.9879 13.0186C13.9986 13.0334 14.0118 13.0462 14.027 13.0564C14.0273 13.0567 14.0278 13.0572 14.0284 13.0576L14.038 13.0632L14.0422 13.0657C14.0446 13.067 14.047 13.0682 14.0495 13.0692L14.0569 13.0724L14.0613 13.0741L14.072 13.0773C14.0725 13.0775 14.0734 13.0776 14.0742 13.0778C14.087 13.0812 14.1002 13.0829 14.1134 13.0829H14.665C14.7496 13.0829 14.8181 13.0154 14.8181 12.931V9.50258C14.8181 9.41821 14.7495 9.34961 14.665 9.34961" fill="#00B900"/>
<path d="M9.53653 12.2244H8.03761V9.50294C8.03761 9.41831 7.96901 9.3498 7.88464 9.3498H7.33283C7.2482 9.3498 7.17969 9.41839 7.17969 9.50294V12.9286C7.17967 12.9681 7.19505 13.006 7.22255 13.0344C7.22305 13.0353 7.22374 13.0361 7.22457 13.0367C7.22542 13.0374 7.22626 13.0382 7.22694 13.0389C7.25532 13.0662 7.29317 13.0815 7.33257 13.0816H9.53645C9.62108 13.0816 9.68942 13.0129 9.68942 12.9285V12.3767C9.68942 12.292 9.62192 12.2235 9.53645 12.2235L9.53653 12.2244ZM17.7093 10.2072C17.794 10.2072 17.8623 10.1386 17.8623 10.0541V9.50226C17.8623 9.41763 17.7948 9.34912 17.7093 9.34912H15.5055C15.4658 9.34909 15.4276 9.36459 15.3992 9.39232C15.3987 9.39283 15.398 9.39342 15.3976 9.39401C15.3971 9.3946 15.3959 9.3957 15.3952 9.39671C15.3699 9.42405 15.3528 9.46117 15.3528 9.50218V12.9289C15.3528 12.9699 15.3691 13.0072 15.3956 13.0347L15.3976 13.0369L15.3997 13.0389C15.4273 13.0654 15.4645 13.0818 15.5056 13.0818H17.7094C17.7941 13.0818 17.8624 13.0132 17.8624 12.9288V12.377C17.8624 12.2924 17.7949 12.2239 17.7094 12.2239H16.2117V11.6446H17.7104C17.7305 11.6447 17.7504 11.6407 17.769 11.633C17.7876 11.6253 17.8044 11.6141 17.8187 11.5998C17.8329 11.5856 17.8441 11.5687 17.8518 11.5501C17.8595 11.5315 17.8634 11.5116 17.8633 11.4915V10.9399C17.8633 10.8553 17.7958 10.7865 17.7104 10.7865H16.2117V10.2075H17.7104L17.7093 10.2072Z" fill="#00B900"/>
</svg>
