<svg width="155" height="41" viewBox="0 0 155 41" fill="none" xmlns="http://www.w3.org/2000/svg">
<circle cx="20.5" cy="20.5" r="20.0729" stroke="#E0E0E0" stroke-width="0.854166"/>
<g clip-path="url(#clip0_1892_25657)">
<path d="M23.8537 13.6387H25.7168V10.3937C25.3954 10.3495 24.2899 10.25 23.0025 10.25C20.3162 10.25 18.4761 11.9397 18.4761 15.0451V17.9032H15.5117V21.5308H18.4761V30.6585H22.1105V21.5316H24.9549L25.4064 17.904H22.1096V15.4048C22.1105 14.3564 22.3928 13.6387 23.8537 13.6387Z" fill="#3C4467"/>
</g>
<circle cx="77.5" cy="20.5" r="20.0729" stroke="#E0E0E0" stroke-width="0.854166"/>
<path d="M77.4432 11.0169C78.5338 11 79.6182 11.01 80.7013 11C80.7669 12.2756 81.2257 13.575 82.1594 14.4769C83.0913 15.4012 84.4094 15.8244 85.6919 15.9675V19.3231C84.49 19.2838 83.2825 19.0337 82.1919 18.5163C81.7169 18.3012 81.2744 18.0244 80.8413 17.7413C80.8357 20.1763 80.8513 22.6081 80.8257 25.0331C80.7607 26.1981 80.3763 27.3575 79.6988 28.3175C78.6088 29.9156 76.7169 30.9575 74.7738 30.99C73.5819 31.0581 72.3913 30.7331 71.3757 30.1344C69.6925 29.1419 68.5082 27.325 68.3357 25.375C68.3139 24.962 68.3106 24.5483 68.3257 24.135C68.4757 22.5494 69.26 21.0325 70.4775 20.0006C71.8575 18.7987 73.7907 18.2263 75.6007 18.565C75.6175 19.7994 75.5682 21.0325 75.5682 22.2669C74.7413 21.9994 73.775 22.0744 73.0525 22.5763C72.5239 22.9245 72.1245 23.4368 71.9157 24.0344C71.7432 24.4569 71.7925 24.9263 71.8025 25.375C72.0007 26.7425 73.3157 27.8919 74.7194 27.7675C75.65 27.7575 76.5419 27.2175 77.0269 26.4269C77.1838 26.15 77.3594 25.8669 77.3688 25.5413C77.4507 24.0506 77.4182 22.5662 77.4282 21.0756C77.435 17.7163 77.4182 14.3662 77.4438 11.0175L77.4432 11.0169Z" fill="#3C4467"/>
<circle cx="134.5" cy="20.5" r="20.0729" stroke="#E0E0E0" stroke-width="0.854166"/>
<g clip-path="url(#clip1_1892_25657)">
<path d="M144.09 16.7293C144.044 15.6741 143.873 14.9487 143.629 14.3201C143.376 13.6528 142.988 13.0554 142.48 12.5588C141.984 12.0545 141.382 11.6626 140.723 11.4144C140.09 11.1699 139.369 10.9993 138.314 10.9528C137.251 10.9023 136.913 10.8906 134.217 10.8906C131.52 10.8906 131.183 10.9023 130.124 10.9488C129.069 10.9953 128.343 11.1661 127.715 11.4104C127.047 11.6626 126.45 12.0505 125.953 12.5588C125.449 13.0554 125.057 13.6568 124.809 14.3163C124.564 14.9487 124.394 15.6702 124.347 16.7254C124.297 17.7885 124.285 18.126 124.285 20.8223C124.285 23.5185 124.297 23.856 124.343 24.9152C124.39 25.9704 124.561 26.6958 124.805 27.3244C125.057 27.9917 125.449 28.5891 125.953 29.0857C126.45 29.59 127.051 29.9819 127.711 30.2301C128.343 30.4746 129.065 30.6452 130.12 30.6917C131.179 30.7384 131.517 30.7499 134.213 30.7499C136.909 30.7499 137.247 30.7384 138.306 30.6917C139.361 30.6452 140.087 30.4746 140.715 30.2301C142.05 29.7141 143.105 28.6589 143.621 27.3244C143.865 26.692 144.036 25.9704 144.082 24.9152C144.129 23.856 144.141 23.5185 144.141 20.8223C144.141 18.126 144.137 17.7885 144.09 16.7293ZM142.302 24.8376C142.259 25.8075 142.096 26.3312 141.96 26.6804C141.627 27.5455 140.94 28.2322 140.075 28.5659C139.726 28.7017 139.198 28.8646 138.232 28.9072C137.185 28.9538 136.87 28.9654 134.221 28.9654C131.571 28.9654 131.253 28.9538 130.209 28.9072C129.239 28.8646 128.716 28.7017 128.366 28.5659C127.936 28.4068 127.544 28.1546 127.226 27.8248C126.896 27.5028 126.644 27.1148 126.485 26.6843C126.349 26.3351 126.186 25.8075 126.144 24.8415C126.097 23.794 126.085 23.4797 126.085 20.83C126.085 18.1802 126.097 17.8621 126.144 16.8186C126.186 15.8487 126.349 15.325 126.485 14.9758C126.644 14.5451 126.896 14.1534 127.23 13.8351C127.552 13.5054 127.94 13.2532 128.37 13.0942C128.72 12.9585 129.247 12.7955 130.213 12.7528C131.261 12.7063 131.575 12.6946 134.225 12.6946C136.878 12.6946 137.192 12.7063 138.236 12.7528C139.206 12.7955 139.73 12.9585 140.079 13.0942C140.509 13.2532 140.901 13.5054 141.219 13.8351C141.549 14.1572 141.801 14.5451 141.96 14.9758C142.096 15.325 142.259 15.8525 142.302 16.8186C142.348 17.8661 142.36 18.1802 142.36 20.83C142.36 23.4797 142.348 23.7901 142.302 24.8376Z" fill="#3C4467"/>
<path d="M134.217 15.7207C131.4 15.7207 129.115 18.0057 129.115 20.8223C129.115 23.6389 131.4 25.9239 134.217 25.9239C137.033 25.9239 139.318 23.6389 139.318 20.8223C139.318 18.0057 137.033 15.7207 134.217 15.7207ZM134.217 24.1316C132.39 24.1316 130.908 22.6496 130.908 20.8223C130.908 18.995 132.39 17.513 134.217 17.513C136.044 17.513 137.526 18.995 137.526 20.8223C137.526 22.6496 136.044 24.1316 134.217 24.1316Z" fill="#3C4467"/>
<path d="M140.71 15.5191C140.71 16.1768 140.177 16.7101 139.519 16.7101C138.861 16.7101 138.328 16.1768 138.328 15.5191C138.328 14.8613 138.861 14.3281 139.519 14.3281C140.177 14.3281 140.71 14.8613 140.71 15.5191Z" fill="#3C4467"/>
</g>
<defs>
<clipPath id="clip0_1892_25657">
<rect width="20.4085" height="20.4085" fill="white" transform="translate(10.25 10.25)"/>
</clipPath>
<clipPath id="clip1_1892_25657">
<rect width="19.8594" height="19.8594" fill="white" transform="translate(124.25 10.8906)"/>
</clipPath>
</defs>
</svg>
