<svg width="20" height="20" viewBox="0 0 20 20" fill="none" xmlns="http://www.w3.org/2000/svg">
<path d="M10.0007 19.1673C15.0633 19.1673 19.1673 15.0633 19.1673 10.0007C19.1673 4.93804 15.0633 0.833984 10.0007 0.833984C4.93804 0.833984 0.833984 4.93804 0.833984 10.0007C0.833984 15.0633 4.93804 19.1673 10.0007 19.1673Z" fill="url(#paint0_linear_874_213095)"/>
<path d="M7.03711 10.6709L8.12466 13.6811C8.12466 13.6811 8.26063 13.9628 8.40623 13.9628C8.55183 13.9628 10.7174 11.7099 10.7174 11.7099L13.1255 7.05859L7.07592 9.89392L7.03711 10.6709Z" fill="#C8DAEA"/>
<path d="M8.48196 11.4434L8.27319 13.6622C8.27319 13.6622 8.1858 14.342 8.86551 13.6622C9.54521 12.9823 10.1958 12.458 10.1958 12.458" fill="#A9C6D8"/>
<path d="M7.05852 10.7785L4.8214 10.0496C4.8214 10.0496 4.55404 9.94115 4.64013 9.69518C4.65785 9.64446 4.6936 9.6013 4.80054 9.52713C5.29623 9.18162 13.9753 6.06213 13.9753 6.06213C13.9753 6.06213 14.2204 5.97955 14.3649 6.03448C14.4006 6.04554 14.4328 6.06591 14.4581 6.09349C14.4834 6.12107 14.5009 6.15488 14.5089 6.19145C14.5245 6.25605 14.531 6.32252 14.5283 6.38892C14.5276 6.44636 14.5206 6.49961 14.5154 6.5831C14.4625 7.43598 12.8807 13.8013 12.8807 13.8013C12.8807 13.8013 12.786 14.1738 12.4469 14.1865C12.3636 14.1892 12.2806 14.1751 12.2028 14.145C12.125 14.115 12.0541 14.0695 11.9943 14.0115C11.3289 13.4391 9.02897 11.8934 8.52076 11.5535C8.5093 11.5457 8.49964 11.5355 8.49245 11.5236C8.48525 11.5118 8.48068 11.4985 8.47905 11.4847C8.47195 11.4489 8.5109 11.4045 8.5109 11.4045C8.5109 11.4045 12.5157 7.84481 12.6222 7.47112C12.6305 7.44217 12.5993 7.42788 12.5575 7.44057C12.2915 7.53842 7.68048 10.4503 7.17158 10.7717C7.13495 10.7827 7.09623 10.7851 7.05852 10.7785Z" fill="white"/>
<defs>
<linearGradient id="paint0_linear_874_213095" x1="10.0007" y1="19.1673" x2="10.0007" y2="0.833984" gradientUnits="userSpaceOnUse">
<stop stop-color="#1D93D2"/>
<stop offset="1" stop-color="#38B0E3"/>
</linearGradient>
</defs>
</svg>
