<svg width="20" height="20" viewBox="0 0 20 20" fill="none" xmlns="http://www.w3.org/2000/svg">
<path d="M16.6264 6.65339C16.6361 6.79762 16.6361 6.94253 16.6361 7.08839C16.6361 11.5373 13.1968 16.6673 6.90745 16.6673V16.6642C5.04766 16.6667 3.22702 16.1426 1.66602 15.1553C1.93608 15.1873 2.20784 15.2036 2.47988 15.2042C4.0217 15.2044 5.5183 14.6955 6.72651 13.7601C5.26345 13.7326 3.98035 12.7936 3.53211 11.4221C4.04446 11.5198 4.57309 11.4996 5.07556 11.3643C3.48052 11.0465 2.33246 9.66718 2.33246 8.06447V8.02155C2.80734 8.28249 3.33989 8.42719 3.88453 8.44325C2.38211 7.45454 1.91941 5.48663 2.82645 3.94829C4.56266 6.0512 7.12357 7.32973 9.87363 7.465C9.59826 6.29634 9.97418 5.07078 10.8629 4.24857C12.2401 2.97425 14.4061 3.03944 15.7006 4.39498C16.467 4.24587 17.2015 3.96932 17.8721 3.57739C17.6183 4.35517 17.0842 5.01661 16.3688 5.43896C17.0471 5.36045 17.7092 5.18196 18.3327 4.90957C17.8745 5.58523 17.2966 6.17574 16.6262 6.65339H16.6264Z" fill="#1C99F0"/>
</svg>
