<svg width="64" height="25" viewBox="0 0 64 25" fill="none" xmlns="http://www.w3.org/2000/svg">
<path d="M4.15452 24.4312L0 18.2098L0.69242 16.2656L4.15452 15.0991V24.4312Z" fill="#168F56"/>
<rect width="64" height="20" rx="2" fill="#1DBF73"/>
<path d="M9.05383 13L6 10.8035L6.86831 9.77461L8.74361 11.1234L11.8386 7L13 7.7428L9.05383 13Z" fill="white"/>
<path d="M20.946 6.72727L22.7038 12.2528H22.7713L24.5327 6.72727H26.2372L23.7301 14H21.7486L19.2379 6.72727H20.946ZM28.9547 14.1065C28.3936 14.1065 27.9107 13.9929 27.5059 13.7656C27.1034 13.536 26.7933 13.2116 26.5755 12.7926C26.3577 12.3712 26.2488 11.8729 26.2488 11.2976C26.2488 10.7365 26.3577 10.2441 26.5755 9.82031C26.7933 9.39654 27.0998 9.06629 27.4952 8.82955C27.8929 8.5928 28.3593 8.47443 28.8944 8.47443C29.2542 8.47443 29.5892 8.53243 29.8993 8.64844C30.2118 8.76207 30.4841 8.93371 30.7161 9.16335C30.9505 9.39299 31.1328 9.68182 31.263 10.0298C31.3932 10.3755 31.4583 10.7803 31.4583 11.2443V11.6598H26.8525V10.7223H30.0343C30.0343 10.5045 29.9869 10.3116 29.8922 10.1435C29.7975 9.97538 29.6661 9.84399 29.498 9.74929C29.3323 9.65223 29.1394 9.60369 28.9192 9.60369C28.6896 9.60369 28.486 9.65696 28.3084 9.76349C28.1332 9.86766 27.9959 10.0085 27.8965 10.1861C27.7971 10.3613 27.7462 10.5566 27.7438 10.772V11.6634C27.7438 11.9332 27.7935 12.1664 27.8929 12.3629C27.9947 12.5594 28.138 12.7109 28.3226 12.8175C28.5073 12.924 28.7263 12.9773 28.9796 12.9773C29.1477 12.9773 29.3016 12.9536 29.4412 12.9062C29.5809 12.8589 29.7005 12.7879 29.7999 12.6932C29.8993 12.5985 29.9751 12.4825 30.0272 12.3452L31.4263 12.4375C31.3553 12.7737 31.2097 13.0672 30.9895 13.3182C30.7717 13.5668 30.49 13.7609 30.1444 13.9006C29.8011 14.0379 29.4045 14.1065 28.9547 14.1065ZM32.4455 14V8.54545H33.9121V9.49716H33.9689C34.0684 9.15862 34.2353 8.90294 34.4696 8.73011C34.704 8.55492 34.9739 8.46733 35.2793 8.46733C35.3551 8.46733 35.4367 8.47206 35.5243 8.48153C35.6119 8.491 35.6889 8.50402 35.7551 8.5206V9.86293C35.6841 9.84162 35.5859 9.82268 35.4604 9.80611C35.3349 9.78954 35.2201 9.78125 35.1159 9.78125C34.8934 9.78125 34.6945 9.82978 34.5194 9.92685C34.3465 10.0215 34.2092 10.1541 34.1074 10.3246C34.008 10.495 33.9583 10.6915 33.9583 10.9141V14H32.4455ZM36.5373 14V8.54545H38.0501V14H36.5373ZM37.2972 7.84233C37.0723 7.84233 36.8794 7.76776 36.7184 7.61861C36.5598 7.46709 36.4805 7.28598 36.4805 7.07528C36.4805 6.86695 36.5598 6.68821 36.7184 6.53906C36.8794 6.38755 37.0723 6.31179 37.2972 6.31179C37.5221 6.31179 37.7139 6.38755 37.8725 6.53906C38.0335 6.68821 38.114 6.86695 38.114 7.07528C38.114 7.28598 38.0335 7.46709 37.8725 7.61861C37.7139 7.76776 37.5221 7.84233 37.2972 7.84233ZM42.1951 8.54545V9.68182H38.8287V8.54545H42.1951ZM39.5993 14V8.15128C39.5993 7.75592 39.6762 7.42803 39.8301 7.16761C39.9863 6.9072 40.1994 6.71188 40.4693 6.58168C40.7392 6.45147 41.0458 6.38636 41.389 6.38636C41.621 6.38636 41.8329 6.40412 42.0247 6.43963C42.2188 6.47514 42.3632 6.5071 42.4579 6.53551L42.188 7.67188C42.1288 7.65294 42.0555 7.63518 41.9679 7.61861C41.8826 7.60204 41.795 7.59375 41.7051 7.59375C41.4825 7.59375 41.3275 7.64583 41.2399 7.75C41.1523 7.8518 41.1085 7.99503 41.1085 8.17969V14H39.5993ZM43.1193 14V8.54545H44.6321V14H43.1193ZM43.8793 7.84233C43.6544 7.84233 43.4614 7.76776 43.3004 7.61861C43.1418 7.46709 43.0625 7.28598 43.0625 7.07528C43.0625 6.86695 43.1418 6.68821 43.3004 6.53906C43.4614 6.38755 43.6544 6.31179 43.8793 6.31179C44.1042 6.31179 44.2959 6.38755 44.4545 6.53906C44.6155 6.68821 44.696 6.86695 44.696 7.07528C44.696 7.28598 44.6155 7.46709 44.4545 7.61861C44.2959 7.76776 44.1042 7.84233 43.8793 7.84233ZM48.3297 14.1065C47.7686 14.1065 47.2857 13.9929 46.8809 13.7656C46.4784 13.536 46.1683 13.2116 45.9505 12.7926C45.7327 12.3712 45.6238 11.8729 45.6238 11.2976C45.6238 10.7365 45.7327 10.2441 45.9505 9.82031C46.1683 9.39654 46.4748 9.06629 46.8702 8.82955C47.2679 8.5928 47.7343 8.47443 48.2694 8.47443C48.6292 8.47443 48.9642 8.53243 49.2743 8.64844C49.5868 8.76207 49.8591 8.93371 50.0911 9.16335C50.3255 9.39299 50.5078 9.68182 50.638 10.0298C50.7682 10.3755 50.8333 10.7803 50.8333 11.2443V11.6598H46.2275V10.7223H49.4093C49.4093 10.5045 49.3619 10.3116 49.2672 10.1435C49.1725 9.97538 49.0411 9.84399 48.873 9.74929C48.7073 9.65223 48.5144 9.60369 48.2942 9.60369C48.0646 9.60369 47.861 9.65696 47.6834 9.76349C47.5082 9.86766 47.3709 10.0085 47.2715 10.1861C47.1721 10.3613 47.1212 10.5566 47.1188 10.772V11.6634C47.1188 11.9332 47.1685 12.1664 47.2679 12.3629C47.3697 12.5594 47.513 12.7109 47.6976 12.8175C47.8823 12.924 48.1013 12.9773 48.3546 12.9773C48.5227 12.9773 48.6766 12.9536 48.8162 12.9062C48.9559 12.8589 49.0755 12.7879 49.1749 12.6932C49.2743 12.5985 49.3501 12.4825 49.4022 12.3452L50.8013 12.4375C50.7303 12.7737 50.5847 13.0672 50.3645 13.3182C50.1467 13.5668 49.865 13.7609 49.5194 13.9006C49.1761 14.0379 48.7795 14.1065 48.3297 14.1065ZM53.8304 14.0888C53.4161 14.0888 53.0409 13.9822 52.7047 13.7692C52.3709 13.5537 52.1058 13.2377 51.9093 12.821C51.7151 12.402 51.6181 11.8883 51.6181 11.2798C51.6181 10.6548 51.7187 10.1352 51.9199 9.72088C52.1212 9.30421 52.3887 8.9929 52.7225 8.78693C53.0587 8.5786 53.4268 8.47443 53.8269 8.47443C54.1323 8.47443 54.3868 8.52652 54.5904 8.63068C54.7963 8.73248 54.9621 8.86032 55.0875 9.0142C55.2154 9.16572 55.3124 9.31487 55.3787 9.46165H55.4249V6.72727H56.9341V14H55.4426V13.1264H55.3787C55.3077 13.2779 55.2071 13.4283 55.0769 13.5774C54.949 13.7242 54.7821 13.8461 54.5762 13.9432C54.3726 14.0402 54.124 14.0888 53.8304 14.0888ZM54.3098 12.8849C54.5537 12.8849 54.7596 12.8187 54.9277 12.6861C55.0982 12.5511 55.2284 12.3629 55.3184 12.1214C55.4107 11.88 55.4569 11.5971 55.4569 11.2727C55.4569 10.9484 55.4119 10.6667 55.3219 10.4276C55.2319 10.1884 55.1017 10.0038 54.9313 9.87358C54.7608 9.74337 54.5537 9.67827 54.3098 9.67827C54.0613 9.67827 53.8517 9.74574 53.6813 9.88068C53.5108 10.0156 53.3818 10.2027 53.2942 10.4418C53.2066 10.6809 53.1628 10.9579 53.1628 11.2727C53.1628 11.59 53.2066 11.8705 53.2942 12.1143C53.3842 12.3558 53.5132 12.5452 53.6813 12.6825C53.8517 12.8175 54.0613 12.8849 54.3098 12.8849Z" fill="white"/>
</svg>
